%TF.GenerationSoftware,KiCad,Pcbnew,10.0.1-1.fc44*%
%TF.CreationDate,2026-05-04T12:41:54+01:00*%
%TF.ProjectId,capacitor-alarm-clock,63617061-6369-4746-9f72-2d616c61726d,rev?*%
%TF.SameCoordinates,Original*%
%TF.FileFunction,Copper,L2,Bot*%
%TF.FilePolarity,Positive*%
%FSLAX46Y46*%
G04 Gerber Fmt 4.6, Leading zero omitted, Abs format (unit mm)*
G04 Created by KiCad (PCBNEW 10.0.1-1.fc44) date 2026-05-04 12:41:54*
%MOMM*%
%LPD*%
G01*
G04 APERTURE LIST*
%TA.AperFunction,ComponentPad*%
%ADD10R,1.700000X1.700000*%
%TD*%
%TA.AperFunction,ComponentPad*%
%ADD11C,1.700000*%
%TD*%
%TA.AperFunction,ComponentPad*%
%ADD12C,2.400000*%
%TD*%
%TA.AperFunction,ComponentPad*%
%ADD13C,1.800000*%
%TD*%
%TA.AperFunction,ComponentPad*%
%ADD14C,2.000000*%
%TD*%
%TA.AperFunction,ComponentPad*%
%ADD15R,2.000000X2.000000*%
%TD*%
%TA.AperFunction,ComponentPad*%
%ADD16O,3.800000X1.500000*%
%TD*%
%TA.AperFunction,ComponentPad*%
%ADD17O,1.500000X3.400000*%
%TD*%
%TA.AperFunction,ComponentPad*%
%ADD18O,1.100000X2.000000*%
%TD*%
%TA.AperFunction,ComponentPad*%
%ADD19O,1.200000X1.800000*%
%TD*%
%TA.AperFunction,ViaPad*%
%ADD20C,0.600000*%
%TD*%
%TA.AperFunction,Conductor*%
%ADD21C,0.254000*%
%TD*%
%TA.AperFunction,Conductor*%
%ADD22C,0.203200*%
%TD*%
%TA.AperFunction,Conductor*%
%ADD23C,0.635000*%
%TD*%
%TA.AperFunction,Conductor*%
%ADD24C,0.200000*%
%TD*%
G04 APERTURE END LIST*
D10*
%TO.P,H5,1,1*%
%TO.N,/ESP32/TMS*%
X64190000Y-49500000D03*
D11*
%TO.P,H5,2,2*%
%TO.N,/ESP32/TDI*%
X66730000Y-49500000D03*
%TO.P,H5,3,3*%
%TO.N,/ESP32/TCK*%
X69270000Y-49500000D03*
%TO.P,H5,4,4*%
%TO.N,/ESP32/TDO*%
X71810000Y-49500000D03*
%TD*%
D12*
%TO.P,R18,1*%
%TO.N,VCC*%
X63000000Y-57340000D03*
%TO.P,R18,2*%
%TO.N,Net-(R18-Pad2)*%
X63000000Y-77660000D03*
%TD*%
D13*
%TO.P,RLY2,1,1*%
%TO.N,Net-(D7-A)*%
X38150000Y-58250000D03*
D14*
%TO.P,RLY2,2,2*%
%TO.N,Net-(H7-Pad1)*%
X38150000Y-69750000D03*
%TO.P,RLY2,3,3*%
%TO.N,Net-(R15-Pad2)*%
X38150000Y-76750000D03*
D13*
%TO.P,RLY2,4,4*%
%TO.N,Vdrive*%
X42850000Y-58250000D03*
%TD*%
D15*
%TO.P,H4,1,1*%
%TO.N,GND*%
X52070000Y-32004000D03*
D14*
%TO.P,H4,2,2*%
%TO.N,VBUS*%
X49530000Y-32004000D03*
%TD*%
D16*
%TO.P,DC1,1,1*%
%TO.N,VDC*%
X26609284Y-35137750D03*
%TO.P,DC1,2,2*%
%TO.N,GND*%
X26609284Y-29137750D03*
D17*
%TO.P,DC1,3,3*%
X21958284Y-32637750D03*
%TD*%
D10*
%TO.P,H6,1,1*%
%TO.N,Net-(H6-Pad1)*%
X24230000Y-87000000D03*
D11*
%TO.P,H6,2,2*%
%TO.N,GND*%
X26770000Y-87000000D03*
%TD*%
D12*
%TO.P,R12,1*%
%TO.N,VCC*%
X32000000Y-57340000D03*
%TO.P,R12,2*%
%TO.N,Net-(R12-Pad2)*%
X32000000Y-77660000D03*
%TD*%
D13*
%TO.P,RLY1,1,1*%
%TO.N,Net-(D6-A)*%
X22650000Y-58250000D03*
D14*
%TO.P,RLY1,2,2*%
%TO.N,Net-(H6-Pad1)*%
X22650000Y-69750000D03*
%TO.P,RLY1,3,3*%
%TO.N,Net-(R12-Pad2)*%
X22650000Y-76750000D03*
D13*
%TO.P,RLY1,4,4*%
%TO.N,Vdrive*%
X27350000Y-58250000D03*
%TD*%
%TO.P,RLY3,1,1*%
%TO.N,Net-(D8-A)*%
X53650000Y-58250000D03*
D14*
%TO.P,RLY3,2,2*%
%TO.N,Net-(H8-Pad1)*%
X53650000Y-69750000D03*
%TO.P,RLY3,3,3*%
%TO.N,Net-(R18-Pad2)*%
X53650000Y-76750000D03*
D13*
%TO.P,RLY3,4,4*%
%TO.N,Vdrive*%
X58350000Y-58250000D03*
%TD*%
D10*
%TO.P,H3,1,1*%
%TO.N,GND*%
X79500000Y-29690000D03*
D11*
%TO.P,H3,2,2*%
%TO.N,+3V3*%
X79500000Y-32230000D03*
%TO.P,H3,3,3*%
%TO.N,/ESP32/UART_TX*%
X79500000Y-34770000D03*
%TO.P,H3,4,4*%
%TO.N,/ESP32/UART_RX*%
X79500000Y-37310000D03*
%TD*%
D12*
%TO.P,R15,1*%
%TO.N,VCC*%
X47500000Y-57340000D03*
%TO.P,R15,2*%
%TO.N,Net-(R15-Pad2)*%
X47500000Y-77660000D03*
%TD*%
D14*
%TO.P,SW2,1,1*%
%TO.N,GND*%
X79937250Y-53956305D03*
%TO.P,SW2,2,2*%
%TO.N,/SW_R*%
X79937250Y-49456305D03*
%TO.P,SW2,3,3*%
%TO.N,GND*%
X77437250Y-55206305D03*
%TO.P,SW2,4,4*%
X77437250Y-48206305D03*
%TD*%
D15*
%TO.P,H2,1,1*%
%TO.N,GND*%
X22500000Y-40270000D03*
D14*
%TO.P,H2,2,2*%
%TO.N,VDC*%
X22500000Y-37730000D03*
%TD*%
D10*
%TO.P,H7,1,1*%
%TO.N,Net-(H7-Pad1)*%
X39960000Y-87000000D03*
D11*
%TO.P,H7,2,2*%
%TO.N,GND*%
X42500000Y-87000000D03*
%TD*%
D14*
%TO.P,SW4,1,1*%
%TO.N,GND*%
X79937250Y-85956305D03*
%TO.P,SW4,2,2*%
%TO.N,/SW_L*%
X79937250Y-81456305D03*
%TO.P,SW4,3,3*%
%TO.N,GND*%
X77437250Y-87206305D03*
%TO.P,SW4,4,4*%
X77437250Y-80206305D03*
%TD*%
D18*
%TO.P,USB1,13,SHELL*%
%TO.N,GND*%
X46825000Y-30875750D03*
D19*
X46825000Y-26675750D03*
D18*
%TO.P,USB1,14,SHELL*%
X38175000Y-30875750D03*
D19*
X38175000Y-26675750D03*
%TD*%
D15*
%TO.P,H1,1,1*%
%TO.N,GND*%
X51000000Y-44270000D03*
D14*
%TO.P,H1,2,2*%
%TO.N,+3V3*%
X51000000Y-41730000D03*
%TD*%
D10*
%TO.P,H8,1,1*%
%TO.N,Net-(H8-Pad1)*%
X55230000Y-87000000D03*
D11*
%TO.P,H8,2,2*%
%TO.N,GND*%
X57770000Y-87000000D03*
%TD*%
D20*
%TO.N,GND*%
X43955000Y-45769000D03*
X79937250Y-73706305D03*
X39038000Y-55450000D03*
X72644000Y-39296033D03*
X72644000Y-36248033D03*
X39116000Y-44704000D03*
X64516000Y-34724033D03*
X72644000Y-37772033D03*
X79937250Y-61706305D03*
X79937250Y-77206305D03*
X64516000Y-36248033D03*
X70612000Y-33200033D03*
X21336000Y-51308000D03*
X38100000Y-34544000D03*
X64516000Y-33200033D03*
X23368000Y-55372000D03*
X52324000Y-51308000D03*
X27750000Y-49000000D03*
X43712500Y-48750000D03*
X34036000Y-38100000D03*
X79825000Y-43250000D03*
X64516000Y-39296033D03*
X68580000Y-33200033D03*
X54356000Y-55372000D03*
X79937250Y-58206305D03*
X50800000Y-34036000D03*
X66548000Y-33200033D03*
X74687250Y-78456305D03*
X64516000Y-37772033D03*
X72644000Y-34724033D03*
X56001018Y-34736767D03*
X75184000Y-42852033D03*
X58128000Y-50000000D03*
X72644000Y-33200033D03*
X34036000Y-45720000D03*
X36576000Y-49784000D03*
%TO.N,/ESP32/IO3*%
X30500000Y-53250000D03*
X48000000Y-49750000D03*
%TO.N,/USB/CC1*%
X42164000Y-29464000D03*
X41148000Y-34544000D03*
%TO.N,/ESP32/TCK*%
X69603989Y-42525002D03*
%TO.N,/ESP32/TDO*%
X70500000Y-42250000D03*
%TO.N,VCC*%
X35052000Y-54864000D03*
%TO.N,/SW_L*%
X72750000Y-80250000D03*
X72000000Y-55000000D03*
%TO.N,+3V3*%
X70000000Y-74000000D03*
X68500000Y-45500000D03*
X70250000Y-60000000D03*
X70250000Y-68000000D03*
X71250000Y-80250000D03*
%TO.N,/ESP32/IO2*%
X62500000Y-54500000D03*
X61250000Y-39000000D03*
X58000000Y-44250000D03*
X63500000Y-35750000D03*
%TO.N,/ESP32/EN*%
X61250000Y-38000000D03*
X60500000Y-30250000D03*
%TO.N,/VDC_SENSE*%
X26500000Y-42250000D03*
X54750000Y-46500000D03*
%TO.N,/USB/USB_D-*%
X57000000Y-36000000D03*
X76000000Y-40000000D03*
%TO.N,/USB/USB_D+*%
X77000000Y-39500000D03*
X56000000Y-36500000D03*
%TO.N,/SW_R*%
X70500000Y-53250000D03*
%TD*%
%TO.N,/ESP32/IO3*%
D21*
X44500000Y-53250000D02*
X30500000Y-53250000D01*
X48000000Y-49750000D02*
X44500000Y-53250000D01*
%TO.N,/USB/CC1*%
D22*
X42164000Y-29464000D02*
X41148000Y-30480000D01*
X41148000Y-30480000D02*
X41148000Y-34544000D01*
%TO.N,/ESP32/TCK*%
X69270000Y-42858991D02*
X69270000Y-49500000D01*
X69603989Y-42525002D02*
X69270000Y-42858991D01*
%TO.N,/ESP32/TDO*%
X70500000Y-42250000D02*
X70500000Y-48190000D01*
X70500000Y-48190000D02*
X71810000Y-49500000D01*
%TO.N,VCC*%
D23*
X32576000Y-57340000D02*
X35052000Y-54864000D01*
X32000000Y-57340000D02*
X32576000Y-57340000D01*
%TO.N,Net-(H7-Pad1)*%
X39960000Y-71560000D02*
X39960000Y-87000000D01*
X38150000Y-69750000D02*
X39960000Y-71560000D01*
%TO.N,/SW_L*%
D22*
X72000000Y-56250000D02*
X72750000Y-57000000D01*
X72000000Y-55000000D02*
X72000000Y-56250000D01*
X72750000Y-57000000D02*
X72750000Y-80250000D01*
%TO.N,+3V3*%
D24*
X70750000Y-60500000D02*
X70750000Y-67500000D01*
D23*
X51000000Y-41730000D02*
X64730000Y-41730000D01*
D24*
X70250000Y-60000000D02*
X70750000Y-60500000D01*
X70750000Y-67500000D02*
X70250000Y-68000000D01*
D21*
X70000000Y-74000000D02*
X71250000Y-75250000D01*
X71250000Y-75250000D02*
X71250000Y-80250000D01*
D23*
X64730000Y-41730000D02*
X68500000Y-45500000D01*
%TO.N,/ESP32/IO2*%
D24*
X58000000Y-44250000D02*
X58000000Y-45250000D01*
X61250000Y-39000000D02*
X63500000Y-36750000D01*
X58000000Y-45250000D02*
X62500000Y-49750000D01*
X62500000Y-49750000D02*
X62500000Y-54500000D01*
X63500000Y-36750000D02*
X63500000Y-35750000D01*
%TO.N,/ESP32/EN*%
D21*
X61250000Y-31000000D02*
X60500000Y-30250000D01*
X61250000Y-38000000D02*
X61250000Y-31000000D01*
%TO.N,Net-(H6-Pad1)*%
D23*
X22650000Y-69750000D02*
X24230000Y-71330000D01*
X24230000Y-71330000D02*
X24230000Y-87000000D01*
%TO.N,/VDC_SENSE*%
D22*
X26500000Y-42250000D02*
X32000000Y-47750000D01*
X32000000Y-47750000D02*
X53500000Y-47750000D01*
X53500000Y-47750000D02*
X54750000Y-46500000D01*
%TO.N,/USB/USB_D-*%
D24*
X72588538Y-40275000D02*
X75725000Y-40275000D01*
X61093199Y-40275000D02*
X67604146Y-40275000D01*
X70844146Y-39738842D02*
X70844146Y-40035000D01*
X69644146Y-39738842D02*
X69644146Y-40035000D01*
X71204146Y-40275000D02*
X72588538Y-40275000D01*
X69044146Y-40035000D02*
X69044146Y-39738842D01*
X67844146Y-40035000D02*
X67844146Y-39738829D01*
X68084146Y-39498829D02*
X68204146Y-39498829D01*
X68444146Y-39738829D02*
X68444146Y-40035000D01*
X70484146Y-39498842D02*
X70604146Y-39498842D01*
X69884146Y-40275000D02*
X70004146Y-40275000D01*
X75725000Y-40275000D02*
X76000000Y-40000000D01*
X57000000Y-36181801D02*
X61093199Y-40275000D01*
X69284146Y-39498842D02*
X69404146Y-39498842D01*
X57000000Y-36000000D02*
X57000000Y-36181801D01*
X70244146Y-40035000D02*
X70244146Y-39738842D01*
X68684146Y-40275000D02*
X68804146Y-40275000D01*
X71084146Y-40275000D02*
X71204146Y-40275000D01*
X69644146Y-40035000D02*
G75*
G03*
X69884146Y-40274954I239954J0D01*
G01*
X69044146Y-39738842D02*
G75*
G02*
X69284146Y-39498846I239954J42D01*
G01*
X67604146Y-40275000D02*
G75*
G03*
X67844100Y-40035000I-46J240000D01*
G01*
X69404146Y-39498842D02*
G75*
G02*
X69644058Y-39738842I-46J-239958D01*
G01*
X68804146Y-40275000D02*
G75*
G03*
X69044100Y-40035000I-46J240000D01*
G01*
X70244146Y-39738842D02*
G75*
G02*
X70484146Y-39498846I239954J42D01*
G01*
X68204146Y-39498829D02*
G75*
G02*
X68444071Y-39738829I-46J-239971D01*
G01*
X70004146Y-40275000D02*
G75*
G03*
X70244100Y-40035000I-46J240000D01*
G01*
X68444146Y-40035000D02*
G75*
G03*
X68684146Y-40274954I239954J0D01*
G01*
X70844146Y-40035000D02*
G75*
G03*
X71084146Y-40274954I239954J0D01*
G01*
X70604146Y-39498842D02*
G75*
G02*
X70844058Y-39738842I-46J-239958D01*
G01*
X67844146Y-39738829D02*
G75*
G02*
X68084146Y-39498846I239954J29D01*
G01*
%TO.N,/USB/USB_D+*%
X56500000Y-37000000D02*
X56000000Y-36500000D01*
X57000000Y-37000000D02*
X56500000Y-37000000D01*
X60725000Y-40725000D02*
X76275000Y-40725000D01*
X77000000Y-40000000D02*
X77000000Y-39500000D01*
X76275000Y-40725000D02*
X77000000Y-40000000D01*
X57000000Y-37000000D02*
X60725000Y-40725000D01*
%TO.N,Net-(H8-Pad1)*%
D23*
X55230000Y-71330000D02*
X55230000Y-87000000D01*
X53650000Y-69750000D02*
X55230000Y-71330000D01*
%TO.N,/SW_R*%
D22*
X70500000Y-53250000D02*
X76143555Y-53250000D01*
X76143555Y-53250000D02*
X79937250Y-49456305D01*
%TD*%
%TA.AperFunction,Conductor*%
%TO.N,GND*%
G36*
X37722973Y-25162185D02*
G01*
X37768728Y-25214989D01*
X37778672Y-25284147D01*
X37749647Y-25347703D01*
X37712229Y-25376985D01*
X37598475Y-25434945D01*
X37458397Y-25536717D01*
X37335967Y-25659147D01*
X37234195Y-25799225D01*
X37155591Y-25953492D01*
X37102085Y-26118165D01*
X37075000Y-26289178D01*
X37075000Y-26425750D01*
X37875000Y-26425750D01*
X37875000Y-26925750D01*
X37075000Y-26925750D01*
X37075000Y-27062321D01*
X37102085Y-27233334D01*
X37155591Y-27398007D01*
X37234195Y-27552274D01*
X37335967Y-27692352D01*
X37458397Y-27814782D01*
X37598475Y-27916554D01*
X37752744Y-27995158D01*
X37917415Y-28048664D01*
X37917414Y-28048664D01*
X37924999Y-28049865D01*
X37925000Y-28049864D01*
X37925000Y-27142738D01*
X37934940Y-27159955D01*
X37990795Y-27215810D01*
X38059204Y-27255306D01*
X38135504Y-27275750D01*
X38214496Y-27275750D01*
X38290796Y-27255306D01*
X38359205Y-27215810D01*
X38415060Y-27159955D01*
X38425000Y-27142738D01*
X38425000Y-28049865D01*
X38432584Y-28048664D01*
X38597255Y-27995158D01*
X38751524Y-27916554D01*
X38891602Y-27814782D01*
X39014032Y-27692352D01*
X39115804Y-27552274D01*
X39194408Y-27398007D01*
X39247914Y-27233334D01*
X39275000Y-27062321D01*
X39275000Y-26925750D01*
X38475000Y-26925750D01*
X38475000Y-26425750D01*
X39275000Y-26425750D01*
X39275000Y-26289178D01*
X39247914Y-26118165D01*
X39194408Y-25953492D01*
X39115804Y-25799225D01*
X39014032Y-25659147D01*
X38891602Y-25536717D01*
X38751524Y-25434945D01*
X38637771Y-25376985D01*
X38586975Y-25329010D01*
X38570180Y-25261189D01*
X38592718Y-25195054D01*
X38647433Y-25151603D01*
X38694066Y-25142500D01*
X46305934Y-25142500D01*
X46372973Y-25162185D01*
X46418728Y-25214989D01*
X46428672Y-25284147D01*
X46399647Y-25347703D01*
X46362229Y-25376985D01*
X46248475Y-25434945D01*
X46108397Y-25536717D01*
X45985967Y-25659147D01*
X45884195Y-25799225D01*
X45805591Y-25953492D01*
X45752085Y-26118165D01*
X45725000Y-26289178D01*
X45725000Y-26425750D01*
X46525000Y-26425750D01*
X46525000Y-26925750D01*
X45725000Y-26925750D01*
X45725000Y-27062321D01*
X45752085Y-27233334D01*
X45805591Y-27398007D01*
X45884195Y-27552274D01*
X45985967Y-27692352D01*
X46108397Y-27814782D01*
X46248475Y-27916554D01*
X46402744Y-27995158D01*
X46567415Y-28048664D01*
X46567414Y-28048664D01*
X46574999Y-28049865D01*
X46575000Y-28049864D01*
X46575000Y-27142738D01*
X46584940Y-27159955D01*
X46640795Y-27215810D01*
X46709204Y-27255306D01*
X46785504Y-27275750D01*
X46864496Y-27275750D01*
X46940796Y-27255306D01*
X47009205Y-27215810D01*
X47065060Y-27159955D01*
X47075000Y-27142738D01*
X47075000Y-28049865D01*
X47082584Y-28048664D01*
X47247255Y-27995158D01*
X47401524Y-27916554D01*
X47541602Y-27814782D01*
X47664032Y-27692352D01*
X47765804Y-27552274D01*
X47844408Y-27398007D01*
X47897914Y-27233334D01*
X47925000Y-27062321D01*
X47925000Y-26925750D01*
X47125000Y-26925750D01*
X47125000Y-26425750D01*
X47925000Y-26425750D01*
X47925000Y-26289178D01*
X47897914Y-26118165D01*
X47844408Y-25953492D01*
X47765804Y-25799225D01*
X47664032Y-25659147D01*
X47541602Y-25536717D01*
X47401524Y-25434945D01*
X47287771Y-25376985D01*
X47236975Y-25329010D01*
X47220180Y-25261189D01*
X47242718Y-25195054D01*
X47297433Y-25151603D01*
X47344066Y-25142500D01*
X61376000Y-25142500D01*
X61443039Y-25162185D01*
X61488794Y-25214989D01*
X61500000Y-25266500D01*
X61500000Y-29949017D01*
X61480315Y-30016056D01*
X61427511Y-30061811D01*
X61358353Y-30071755D01*
X61294797Y-30042730D01*
X61261439Y-29996469D01*
X61209397Y-29870827D01*
X61209390Y-29870814D01*
X61121789Y-29739711D01*
X61121786Y-29739707D01*
X61010292Y-29628213D01*
X61010288Y-29628210D01*
X60879185Y-29540609D01*
X60879172Y-29540602D01*
X60733501Y-29480264D01*
X60733489Y-29480261D01*
X60578845Y-29449500D01*
X60578842Y-29449500D01*
X60421158Y-29449500D01*
X60421155Y-29449500D01*
X60266510Y-29480261D01*
X60266498Y-29480264D01*
X60120827Y-29540602D01*
X60120814Y-29540609D01*
X59989711Y-29628210D01*
X59989707Y-29628213D01*
X59878213Y-29739707D01*
X59878210Y-29739711D01*
X59790609Y-29870814D01*
X59790602Y-29870827D01*
X59730264Y-30016498D01*
X59730261Y-30016510D01*
X59699500Y-30171153D01*
X59699500Y-30328846D01*
X59730261Y-30483489D01*
X59730264Y-30483501D01*
X59790602Y-30629172D01*
X59790609Y-30629185D01*
X59878210Y-30760288D01*
X59878213Y-30760292D01*
X59989707Y-30871786D01*
X59989711Y-30871789D01*
X60120814Y-30959390D01*
X60120827Y-30959397D01*
X60178656Y-30983350D01*
X60266503Y-31019737D01*
X60374185Y-31041156D01*
X60390939Y-31049920D01*
X60409418Y-31053940D01*
X60434454Y-31072682D01*
X60436092Y-31073539D01*
X60437672Y-31075091D01*
X60586181Y-31223600D01*
X60619666Y-31284923D01*
X60622500Y-31311281D01*
X60622500Y-37460642D01*
X60602815Y-37527681D01*
X60601602Y-37529533D01*
X60540609Y-37620814D01*
X60540602Y-37620827D01*
X60480264Y-37766498D01*
X60480261Y-37766510D01*
X60449500Y-37921153D01*
X60449500Y-38078846D01*
X60480261Y-38233489D01*
X60480264Y-38233501D01*
X60540602Y-38379172D01*
X60540609Y-38379185D01*
X60575304Y-38431109D01*
X60580535Y-38447816D01*
X60590339Y-38462322D01*
X60590759Y-38480466D01*
X60596182Y-38497786D01*
X60591554Y-38514831D01*
X60591956Y-38532173D01*
X60579226Y-38560242D01*
X60578041Y-38564608D01*
X60576716Y-38566778D01*
X60540606Y-38620821D01*
X60534018Y-38636723D01*
X60528990Y-38644962D01*
X60509980Y-38662220D01*
X60493870Y-38682211D01*
X60484539Y-38685316D01*
X60477259Y-38691926D01*
X60451938Y-38696166D01*
X60427576Y-38704275D01*
X60418047Y-38701842D01*
X60408349Y-38703467D01*
X60384753Y-38693344D01*
X60359877Y-38686995D01*
X60347451Y-38677342D01*
X60344138Y-38675921D01*
X60342498Y-38673494D01*
X60335470Y-38668035D01*
X57836819Y-36169384D01*
X57803334Y-36108061D01*
X57800500Y-36081703D01*
X57800500Y-35921155D01*
X57800499Y-35921153D01*
X57782137Y-35828842D01*
X57769737Y-35766503D01*
X57769735Y-35766498D01*
X57709397Y-35620827D01*
X57709390Y-35620814D01*
X57621789Y-35489711D01*
X57621786Y-35489707D01*
X57510292Y-35378213D01*
X57510288Y-35378210D01*
X57379185Y-35290609D01*
X57379172Y-35290602D01*
X57233501Y-35230264D01*
X57233489Y-35230261D01*
X57078845Y-35199500D01*
X57078842Y-35199500D01*
X56921158Y-35199500D01*
X56921155Y-35199500D01*
X56766510Y-35230261D01*
X56766498Y-35230264D01*
X56620827Y-35290602D01*
X56620814Y-35290609D01*
X56489711Y-35378210D01*
X56489707Y-35378213D01*
X56378213Y-35489707D01*
X56378210Y-35489711D01*
X56290609Y-35620814D01*
X56290603Y-35620826D01*
X56283319Y-35638411D01*
X56239477Y-35692814D01*
X56173182Y-35714877D01*
X56144568Y-35712573D01*
X56078846Y-35699500D01*
X56078842Y-35699500D01*
X55921158Y-35699500D01*
X55921155Y-35699500D01*
X55766510Y-35730261D01*
X55766498Y-35730264D01*
X55620827Y-35790602D01*
X55620814Y-35790609D01*
X55489711Y-35878210D01*
X55489707Y-35878213D01*
X55378213Y-35989707D01*
X55378210Y-35989711D01*
X55290609Y-36120814D01*
X55290602Y-36120827D01*
X55230264Y-36266498D01*
X55230261Y-36266510D01*
X55199500Y-36421153D01*
X55199500Y-36578846D01*
X55230261Y-36733489D01*
X55230264Y-36733501D01*
X55290602Y-36879172D01*
X55290609Y-36879185D01*
X55378210Y-37010288D01*
X55378213Y-37010292D01*
X55489707Y-37121786D01*
X55489711Y-37121789D01*
X55620814Y-37209390D01*
X55620827Y-37209397D01*
X55743821Y-37260342D01*
X55766503Y-37269737D01*
X55921158Y-37300500D01*
X55921847Y-37300637D01*
X55983758Y-37333022D01*
X55985337Y-37334573D01*
X56131284Y-37480520D01*
X56131286Y-37480521D01*
X56131290Y-37480524D01*
X56268209Y-37559573D01*
X56268216Y-37559577D01*
X56420943Y-37600501D01*
X56420945Y-37600501D01*
X56586654Y-37600501D01*
X56586670Y-37600500D01*
X56699903Y-37600500D01*
X56766942Y-37620185D01*
X56787584Y-37636819D01*
X59851083Y-40700319D01*
X59884568Y-40761642D01*
X59879584Y-40831334D01*
X59837712Y-40887267D01*
X59772248Y-40911684D01*
X59763402Y-40912000D01*
X52323589Y-40912000D01*
X52256550Y-40892315D01*
X52223271Y-40860886D01*
X52144517Y-40752490D01*
X51977510Y-40585483D01*
X51786433Y-40446657D01*
X51575996Y-40339433D01*
X51351368Y-40266446D01*
X51118097Y-40229500D01*
X51118092Y-40229500D01*
X50881908Y-40229500D01*
X50881903Y-40229500D01*
X50648631Y-40266446D01*
X50424003Y-40339433D01*
X50213566Y-40446657D01*
X50166957Y-40480521D01*
X50022490Y-40585483D01*
X50022488Y-40585485D01*
X50022487Y-40585485D01*
X49855485Y-40752487D01*
X49855485Y-40752488D01*
X49855483Y-40752490D01*
X49848834Y-40761642D01*
X49716657Y-40943566D01*
X49609433Y-41154003D01*
X49536446Y-41378631D01*
X49499500Y-41611902D01*
X49499500Y-41848097D01*
X49536446Y-42081368D01*
X49609433Y-42305996D01*
X49680851Y-42446160D01*
X49716657Y-42516433D01*
X49806854Y-42640579D01*
X49830334Y-42706383D01*
X49814509Y-42774437D01*
X49765510Y-42822055D01*
X49765696Y-42822396D01*
X49764473Y-42823063D01*
X49764403Y-42823132D01*
X49764090Y-42823272D01*
X49757906Y-42826649D01*
X49642812Y-42912809D01*
X49642809Y-42912812D01*
X49556649Y-43027906D01*
X49556645Y-43027913D01*
X49506403Y-43162620D01*
X49506401Y-43162627D01*
X49500000Y-43222155D01*
X49500000Y-44020000D01*
X50451518Y-44020000D01*
X50440889Y-44038409D01*
X50400000Y-44191009D01*
X50400000Y-44348991D01*
X50440889Y-44501591D01*
X50451518Y-44520000D01*
X49500000Y-44520000D01*
X49500000Y-45317844D01*
X49506401Y-45377372D01*
X49506403Y-45377379D01*
X49556645Y-45512086D01*
X49556649Y-45512093D01*
X49642809Y-45627187D01*
X49642812Y-45627190D01*
X49757906Y-45713350D01*
X49757913Y-45713354D01*
X49892620Y-45763596D01*
X49892627Y-45763598D01*
X49952155Y-45769999D01*
X49952172Y-45770000D01*
X50750000Y-45770000D01*
X50750000Y-44818482D01*
X50768409Y-44829111D01*
X50921009Y-44870000D01*
X51078991Y-44870000D01*
X51231591Y-44829111D01*
X51250000Y-44818482D01*
X51250000Y-45770000D01*
X52047828Y-45770000D01*
X52047844Y-45769999D01*
X52107372Y-45763598D01*
X52107379Y-45763596D01*
X52242086Y-45713354D01*
X52242093Y-45713350D01*
X52357187Y-45627190D01*
X52357190Y-45627187D01*
X52443350Y-45512093D01*
X52443354Y-45512086D01*
X52493596Y-45377379D01*
X52493598Y-45377372D01*
X52499999Y-45317844D01*
X52500000Y-45317827D01*
X52500000Y-44520000D01*
X51548482Y-44520000D01*
X51559111Y-44501591D01*
X51600000Y-44348991D01*
X51600000Y-44191009D01*
X51559111Y-44038409D01*
X51548482Y-44020000D01*
X52500000Y-44020000D01*
X52500000Y-43222172D01*
X52499999Y-43222155D01*
X52493598Y-43162627D01*
X52493596Y-43162620D01*
X52443354Y-43027913D01*
X52443350Y-43027906D01*
X52357190Y-42912812D01*
X52357187Y-42912809D01*
X52242093Y-42826649D01*
X52234304Y-42822396D01*
X52236067Y-42819166D01*
X52229540Y-42814257D01*
X52207041Y-42802385D01*
X52202087Y-42793613D01*
X52194034Y-42787557D01*
X52185194Y-42763697D01*
X52172685Y-42741546D01*
X52173260Y-42731487D01*
X52169760Y-42722040D01*
X52175221Y-42697192D01*
X52176675Y-42671790D01*
X52183756Y-42658370D01*
X52184761Y-42653799D01*
X52193130Y-42640598D01*
X52223274Y-42599110D01*
X52278603Y-42556448D01*
X52323589Y-42548000D01*
X64339811Y-42548000D01*
X64406850Y-42567685D01*
X64427492Y-42584319D01*
X67978551Y-46135379D01*
X67978552Y-46135380D01*
X68112535Y-46224904D01*
X68261393Y-46286562D01*
X68261398Y-46286564D01*
X68261402Y-46286564D01*
X68261403Y-46286565D01*
X68419431Y-46318000D01*
X68543900Y-46318000D01*
X68610939Y-46337685D01*
X68656694Y-46390489D01*
X68667900Y-46442000D01*
X68667900Y-48215096D01*
X68648215Y-48282135D01*
X68600196Y-48325580D01*
X68562182Y-48344949D01*
X68390213Y-48469890D01*
X68239890Y-48620213D01*
X68114949Y-48792182D01*
X68110484Y-48800946D01*
X68062509Y-48851742D01*
X67994688Y-48868536D01*
X67928553Y-48845998D01*
X67889516Y-48800946D01*
X67885050Y-48792182D01*
X67760109Y-48620213D01*
X67609786Y-48469890D01*
X67437820Y-48344951D01*
X67248414Y-48248444D01*
X67248413Y-48248443D01*
X67248412Y-48248443D01*
X67046243Y-48182754D01*
X67046241Y-48182753D01*
X67046240Y-48182753D01*
X66884957Y-48157208D01*
X66836287Y-48149500D01*
X66623713Y-48149500D01*
X66575042Y-48157208D01*
X66413760Y-48182753D01*
X66314219Y-48215096D01*
X66262804Y-48231802D01*
X66211585Y-48248444D01*
X66022179Y-48344951D01*
X65850215Y-48469889D01*
X65736673Y-48583431D01*
X65675350Y-48616915D01*
X65605658Y-48611931D01*
X65549725Y-48570059D01*
X65532810Y-48539082D01*
X65483797Y-48407671D01*
X65483793Y-48407664D01*
X65397547Y-48292455D01*
X65397544Y-48292452D01*
X65282335Y-48206206D01*
X65282328Y-48206202D01*
X65147482Y-48155908D01*
X65147483Y-48155908D01*
X65087883Y-48149501D01*
X65087881Y-48149500D01*
X65087873Y-48149500D01*
X65087864Y-48149500D01*
X63292129Y-48149500D01*
X63292123Y-48149501D01*
X63232516Y-48155908D01*
X63097671Y-48206202D01*
X63097664Y-48206206D01*
X62982455Y-48292452D01*
X62982452Y-48292455D01*
X62896206Y-48407664D01*
X62896202Y-48407671D01*
X62845908Y-48542517D01*
X62839501Y-48602116D01*
X62839500Y-48602135D01*
X62839500Y-48940903D01*
X62819815Y-49007942D01*
X62767011Y-49053697D01*
X62697853Y-49063641D01*
X62634297Y-49034616D01*
X62627819Y-49028584D01*
X58636819Y-45037584D01*
X58622115Y-45010656D01*
X58605523Y-44984838D01*
X58604631Y-44978637D01*
X58603334Y-44976261D01*
X58600500Y-44949903D01*
X58600500Y-44829765D01*
X58620185Y-44762726D01*
X58621398Y-44760874D01*
X58709390Y-44629185D01*
X58709390Y-44629184D01*
X58709394Y-44629179D01*
X58769737Y-44483497D01*
X58800500Y-44328842D01*
X58800500Y-44171158D01*
X58800500Y-44171155D01*
X58800499Y-44171153D01*
X58774094Y-44038409D01*
X58769737Y-44016503D01*
X58722140Y-43901592D01*
X58709397Y-43870827D01*
X58709390Y-43870814D01*
X58621789Y-43739711D01*
X58621786Y-43739707D01*
X58510292Y-43628213D01*
X58510288Y-43628210D01*
X58379185Y-43540609D01*
X58379172Y-43540602D01*
X58233501Y-43480264D01*
X58233489Y-43480261D01*
X58078845Y-43449500D01*
X58078842Y-43449500D01*
X57921158Y-43449500D01*
X57921155Y-43449500D01*
X57766510Y-43480261D01*
X57766498Y-43480264D01*
X57620827Y-43540602D01*
X57620814Y-43540609D01*
X57489711Y-43628210D01*
X57489707Y-43628213D01*
X57378213Y-43739707D01*
X57378210Y-43739711D01*
X57290609Y-43870814D01*
X57290602Y-43870827D01*
X57230264Y-44016498D01*
X57230261Y-44016510D01*
X57199500Y-44171153D01*
X57199500Y-44328846D01*
X57230261Y-44483489D01*
X57230264Y-44483501D01*
X57290602Y-44629172D01*
X57290609Y-44629185D01*
X57378602Y-44760874D01*
X57399480Y-44827551D01*
X57399500Y-44829765D01*
X57399500Y-45163330D01*
X57399499Y-45163348D01*
X57399499Y-45329054D01*
X57399498Y-45329054D01*
X57440423Y-45481785D01*
X57469358Y-45531900D01*
X57469359Y-45531904D01*
X57469360Y-45531904D01*
X57519479Y-45618714D01*
X57519481Y-45618717D01*
X57638349Y-45737585D01*
X57638355Y-45737590D01*
X61863181Y-49962416D01*
X61896666Y-50023739D01*
X61899500Y-50050097D01*
X61899500Y-53920234D01*
X61879815Y-53987273D01*
X61878602Y-53989125D01*
X61790609Y-54120814D01*
X61790602Y-54120827D01*
X61730264Y-54266498D01*
X61730261Y-54266510D01*
X61699500Y-54421153D01*
X61699500Y-54578846D01*
X61730261Y-54733489D01*
X61730264Y-54733501D01*
X61790602Y-54879172D01*
X61790609Y-54879185D01*
X61878210Y-55010288D01*
X61878213Y-55010292D01*
X61989707Y-55121786D01*
X61989711Y-55121789D01*
X62120814Y-55209390D01*
X62120827Y-55209397D01*
X62192825Y-55239219D01*
X62266503Y-55269737D01*
X62421153Y-55300499D01*
X62421156Y-55300500D01*
X62421158Y-55300500D01*
X62578844Y-55300500D01*
X62578845Y-55300499D01*
X62733497Y-55269737D01*
X62879179Y-55209394D01*
X63010289Y-55121789D01*
X63121789Y-55010289D01*
X63209394Y-54879179D01*
X63269737Y-54733497D01*
X63300500Y-54578842D01*
X63300500Y-54421158D01*
X63300500Y-54421155D01*
X63300499Y-54421153D01*
X63274531Y-54290606D01*
X63269737Y-54266503D01*
X63268781Y-54264195D01*
X63209397Y-54120827D01*
X63209390Y-54120814D01*
X63121398Y-53989125D01*
X63100520Y-53922447D01*
X63100500Y-53920234D01*
X63100500Y-53171153D01*
X69699500Y-53171153D01*
X69699500Y-53328846D01*
X69730261Y-53483489D01*
X69730264Y-53483501D01*
X69790602Y-53629172D01*
X69790609Y-53629185D01*
X69878210Y-53760288D01*
X69878213Y-53760292D01*
X69989707Y-53871786D01*
X69989711Y-53871789D01*
X70120814Y-53959390D01*
X70120827Y-53959397D01*
X70266498Y-54019735D01*
X70266503Y-54019737D01*
X70398535Y-54046000D01*
X70421153Y-54050499D01*
X70421156Y-54050500D01*
X70421158Y-54050500D01*
X70578844Y-54050500D01*
X70578845Y-54050499D01*
X70733497Y-54019737D01*
X70879179Y-53959394D01*
X70937786Y-53920234D01*
X71008480Y-53872998D01*
X71075157Y-53852120D01*
X71077371Y-53852100D01*
X76222821Y-53852100D01*
X76222823Y-53852100D01*
X76375957Y-53811067D01*
X76513253Y-53731800D01*
X76625355Y-53619698D01*
X79335395Y-50909656D01*
X79396716Y-50876173D01*
X79461391Y-50879407D01*
X79585882Y-50919858D01*
X79673360Y-50933713D01*
X79819153Y-50956805D01*
X79819158Y-50956805D01*
X80055347Y-50956805D01*
X80288618Y-50919858D01*
X80346952Y-50900904D01*
X80513242Y-50846873D01*
X80723683Y-50739648D01*
X80914760Y-50600822D01*
X81081767Y-50433815D01*
X81220593Y-50242738D01*
X81327818Y-50032297D01*
X81400803Y-49807673D01*
X81437750Y-49574402D01*
X81437750Y-49338207D01*
X81400803Y-49104936D01*
X81327816Y-48880308D01*
X81220592Y-48669871D01*
X81184835Y-48620656D01*
X81081767Y-48478795D01*
X80914760Y-48311788D01*
X80723683Y-48172962D01*
X80690213Y-48155908D01*
X80513246Y-48065738D01*
X80288618Y-47992751D01*
X80055347Y-47955805D01*
X80055342Y-47955805D01*
X79819158Y-47955805D01*
X79819153Y-47955805D01*
X79585881Y-47992751D01*
X79361253Y-48065738D01*
X79150816Y-48172962D01*
X79069831Y-48231802D01*
X78959740Y-48311788D01*
X78959738Y-48311790D01*
X78959737Y-48311790D01*
X78851542Y-48419986D01*
X78790219Y-48453471D01*
X78763861Y-48456305D01*
X78037251Y-48456305D01*
X78062271Y-48395903D01*
X78087250Y-48270324D01*
X78087250Y-48142286D01*
X78062271Y-48016707D01*
X78037251Y-47956305D01*
X78916352Y-47956305D01*
X78900315Y-47855057D01*
X78827352Y-47630502D01*
X78720164Y-47420133D01*
X78581383Y-47229118D01*
X78414436Y-47062171D01*
X78223421Y-46923390D01*
X78013052Y-46816202D01*
X77788497Y-46743239D01*
X77687250Y-46727202D01*
X77687250Y-47606303D01*
X77626848Y-47581284D01*
X77501269Y-47556305D01*
X77373231Y-47556305D01*
X77247652Y-47581284D01*
X77187250Y-47606303D01*
X77187250Y-46727202D01*
X77086002Y-46743239D01*
X76861447Y-46816202D01*
X76651078Y-46923390D01*
X76460063Y-47062171D01*
X76293116Y-47229118D01*
X76154335Y-47420133D01*
X76047147Y-47630502D01*
X75974184Y-47855057D01*
X75958148Y-47956305D01*
X76837249Y-47956305D01*
X76812229Y-48016707D01*
X76787250Y-48142286D01*
X76787250Y-48270324D01*
X76812229Y-48395903D01*
X76837249Y-48456305D01*
X75958148Y-48456305D01*
X75974184Y-48557552D01*
X76047147Y-48782107D01*
X76154335Y-48992476D01*
X76293116Y-49183491D01*
X76460063Y-49350438D01*
X76651078Y-49489219D01*
X76861445Y-49596407D01*
X77085994Y-49669368D01*
X77086000Y-49669370D01*
X77187250Y-49685406D01*
X77187250Y-48806306D01*
X77247652Y-48831326D01*
X77373231Y-48856305D01*
X77501269Y-48856305D01*
X77626848Y-48831326D01*
X77687250Y-48806306D01*
X77687250Y-49685405D01*
X77788499Y-49669370D01*
X77788505Y-49669368D01*
X78013054Y-49596407D01*
X78223422Y-49489219D01*
X78239863Y-49477274D01*
X78305669Y-49453793D01*
X78373723Y-49469618D01*
X78422419Y-49519723D01*
X78434788Y-49569671D01*
X78436368Y-49569547D01*
X78436749Y-49574400D01*
X78473697Y-49807674D01*
X78473697Y-49807677D01*
X78514145Y-49932161D01*
X78516140Y-50002002D01*
X78483895Y-50058160D01*
X75930476Y-52611581D01*
X75869153Y-52645066D01*
X75842795Y-52647900D01*
X71077371Y-52647900D01*
X71010332Y-52628215D01*
X71008480Y-52627002D01*
X70879185Y-52540609D01*
X70879172Y-52540602D01*
X70733501Y-52480264D01*
X70733489Y-52480261D01*
X70578845Y-52449500D01*
X70578842Y-52449500D01*
X70421158Y-52449500D01*
X70421155Y-52449500D01*
X70266510Y-52480261D01*
X70266498Y-52480264D01*
X70120827Y-52540602D01*
X70120814Y-52540609D01*
X69989711Y-52628210D01*
X69989707Y-52628213D01*
X69878213Y-52739707D01*
X69878210Y-52739711D01*
X69790609Y-52870814D01*
X69790602Y-52870827D01*
X69730264Y-53016498D01*
X69730261Y-53016510D01*
X69699500Y-53171153D01*
X63100500Y-53171153D01*
X63100500Y-50967943D01*
X63120185Y-50900904D01*
X63172989Y-50855149D01*
X63237754Y-50844654D01*
X63292127Y-50850500D01*
X65087872Y-50850499D01*
X65147483Y-50844091D01*
X65282331Y-50793796D01*
X65397546Y-50707546D01*
X65483796Y-50592331D01*
X65532810Y-50460916D01*
X65574681Y-50404984D01*
X65640145Y-50380566D01*
X65708418Y-50395417D01*
X65736673Y-50416569D01*
X65850213Y-50530109D01*
X66022179Y-50655048D01*
X66022181Y-50655049D01*
X66022184Y-50655051D01*
X66211588Y-50751557D01*
X66413757Y-50817246D01*
X66623713Y-50850500D01*
X66623714Y-50850500D01*
X66836286Y-50850500D01*
X66836287Y-50850500D01*
X67046243Y-50817246D01*
X67248412Y-50751557D01*
X67437816Y-50655051D01*
X67459789Y-50639086D01*
X67609786Y-50530109D01*
X67609788Y-50530106D01*
X67609792Y-50530104D01*
X67760104Y-50379792D01*
X67760106Y-50379788D01*
X67760109Y-50379786D01*
X67885048Y-50207820D01*
X67885047Y-50207820D01*
X67885051Y-50207816D01*
X67889514Y-50199054D01*
X67937488Y-50148259D01*
X68005308Y-50131463D01*
X68071444Y-50153999D01*
X68110486Y-50199056D01*
X68114951Y-50207820D01*
X68239890Y-50379786D01*
X68390213Y-50530109D01*
X68562179Y-50655048D01*
X68562181Y-50655049D01*
X68562184Y-50655051D01*
X68751588Y-50751557D01*
X68953757Y-50817246D01*
X69163713Y-50850500D01*
X69163714Y-50850500D01*
X69376286Y-50850500D01*
X69376287Y-50850500D01*
X69586243Y-50817246D01*
X69788412Y-50751557D01*
X69977816Y-50655051D01*
X69999789Y-50639086D01*
X70149786Y-50530109D01*
X70149788Y-50530106D01*
X70149792Y-50530104D01*
X70300104Y-50379792D01*
X70300106Y-50379788D01*
X70300109Y-50379786D01*
X70425048Y-50207820D01*
X70425047Y-50207820D01*
X70425051Y-50207816D01*
X70429514Y-50199054D01*
X70477488Y-50148259D01*
X70545308Y-50131463D01*
X70611444Y-50153999D01*
X70650486Y-50199056D01*
X70654951Y-50207820D01*
X70779890Y-50379786D01*
X70930213Y-50530109D01*
X71102179Y-50655048D01*
X71102181Y-50655049D01*
X71102184Y-50655051D01*
X71291588Y-50751557D01*
X71493757Y-50817246D01*
X71703713Y-50850500D01*
X71703714Y-50850500D01*
X71916286Y-50850500D01*
X71916287Y-50850500D01*
X72126243Y-50817246D01*
X72328412Y-50751557D01*
X72517816Y-50655051D01*
X72539789Y-50639086D01*
X72689786Y-50530109D01*
X72689788Y-50530106D01*
X72689792Y-50530104D01*
X72840104Y-50379792D01*
X72840106Y-50379788D01*
X72840109Y-50379786D01*
X72965048Y-50207820D01*
X72965047Y-50207820D01*
X72965051Y-50207816D01*
X73061557Y-50018412D01*
X73127246Y-49816243D01*
X73160500Y-49606287D01*
X73160500Y-49393713D01*
X73127246Y-49183757D01*
X73061557Y-48981588D01*
X72965051Y-48792184D01*
X72965049Y-48792181D01*
X72965048Y-48792179D01*
X72840109Y-48620213D01*
X72689786Y-48469890D01*
X72517820Y-48344951D01*
X72328414Y-48248444D01*
X72328413Y-48248443D01*
X72328412Y-48248443D01*
X72126243Y-48182754D01*
X72126241Y-48182753D01*
X72126240Y-48182753D01*
X71964957Y-48157208D01*
X71916287Y-48149500D01*
X71703713Y-48149500D01*
X71675006Y-48154046D01*
X71493757Y-48182753D01*
X71453181Y-48195937D01*
X71437968Y-48196371D01*
X71423711Y-48201689D01*
X71403756Y-48197348D01*
X71383340Y-48197931D01*
X71369253Y-48189842D01*
X71355438Y-48186837D01*
X71327184Y-48165686D01*
X71138419Y-47976921D01*
X71104934Y-47915598D01*
X71102100Y-47889240D01*
X71102100Y-42827371D01*
X71121785Y-42760332D01*
X71122998Y-42758480D01*
X71209390Y-42629185D01*
X71209390Y-42629184D01*
X71209394Y-42629179D01*
X71269737Y-42483497D01*
X71300500Y-42328842D01*
X71300500Y-42171158D01*
X71300500Y-42171155D01*
X71300499Y-42171153D01*
X71295462Y-42145829D01*
X71269737Y-42016503D01*
X71222812Y-41903215D01*
X71209397Y-41870827D01*
X71209390Y-41870814D01*
X71121789Y-41739711D01*
X71121786Y-41739707D01*
X71010292Y-41628213D01*
X71010288Y-41628210D01*
X70897133Y-41552602D01*
X70852328Y-41498990D01*
X70843621Y-41429665D01*
X70873775Y-41366637D01*
X70933219Y-41329918D01*
X70966024Y-41325500D01*
X76188331Y-41325500D01*
X76188347Y-41325501D01*
X76195943Y-41325501D01*
X76354054Y-41325501D01*
X76354057Y-41325501D01*
X76506785Y-41284577D01*
X76556904Y-41255639D01*
X76643716Y-41205520D01*
X76755520Y-41093716D01*
X76755520Y-41093714D01*
X76765728Y-41083507D01*
X76765730Y-41083504D01*
X77358506Y-40490728D01*
X77358511Y-40490724D01*
X77368714Y-40480520D01*
X77368716Y-40480520D01*
X77480520Y-40368716D01*
X77539370Y-40266784D01*
X77559577Y-40231785D01*
X77600501Y-40079057D01*
X77600501Y-40079054D01*
X77601562Y-40070997D01*
X77603018Y-40071188D01*
X77620186Y-40012725D01*
X77621399Y-40010873D01*
X77709390Y-39879185D01*
X77709390Y-39879184D01*
X77709394Y-39879179D01*
X77769737Y-39733497D01*
X77800500Y-39578842D01*
X77800500Y-39421158D01*
X77800500Y-39421155D01*
X77800499Y-39421153D01*
X77792272Y-39379792D01*
X77769737Y-39266503D01*
X77769735Y-39266498D01*
X77709397Y-39120827D01*
X77709390Y-39120814D01*
X77621789Y-38989711D01*
X77621786Y-38989707D01*
X77510292Y-38878213D01*
X77510288Y-38878210D01*
X77379185Y-38790609D01*
X77379172Y-38790602D01*
X77233501Y-38730264D01*
X77233489Y-38730261D01*
X77078845Y-38699500D01*
X77078842Y-38699500D01*
X76921158Y-38699500D01*
X76921155Y-38699500D01*
X76766510Y-38730261D01*
X76766498Y-38730264D01*
X76620827Y-38790602D01*
X76620814Y-38790609D01*
X76489711Y-38878210D01*
X76489707Y-38878213D01*
X76378213Y-38989707D01*
X76378210Y-38989711D01*
X76290609Y-39120814D01*
X76290603Y-39120826D01*
X76283319Y-39138411D01*
X76239477Y-39192814D01*
X76173182Y-39214877D01*
X76144568Y-39212573D01*
X76078846Y-39199500D01*
X76078842Y-39199500D01*
X75921158Y-39199500D01*
X75921155Y-39199500D01*
X75766510Y-39230261D01*
X75766498Y-39230264D01*
X75620827Y-39290602D01*
X75620814Y-39290609D01*
X75489711Y-39378210D01*
X75489707Y-39378213D01*
X75378213Y-39489707D01*
X75378210Y-39489711D01*
X75291561Y-39619391D01*
X75237949Y-39664196D01*
X75188459Y-39674500D01*
X71550079Y-39674500D01*
X71483040Y-39654815D01*
X71437285Y-39602011D01*
X71428462Y-39574691D01*
X71412349Y-39493687D01*
X71412346Y-39493677D01*
X71412344Y-39493673D01*
X71348989Y-39340717D01*
X71348980Y-39340704D01*
X71257009Y-39203058D01*
X71257003Y-39203050D01*
X71139937Y-39085984D01*
X71139929Y-39085978D01*
X71002281Y-38994005D01*
X71002274Y-38994001D01*
X71002271Y-38993999D01*
X71002267Y-38993997D01*
X71002263Y-38993995D01*
X70849310Y-38930641D01*
X70849301Y-38930638D01*
X70686927Y-38898341D01*
X70686925Y-38898341D01*
X70604143Y-38898342D01*
X70484149Y-38898342D01*
X70401367Y-38898341D01*
X70401366Y-38898341D01*
X70401364Y-38898341D01*
X70401363Y-38898341D01*
X70238990Y-38930638D01*
X70238981Y-38930641D01*
X70086028Y-38993995D01*
X70086012Y-38994004D01*
X70013035Y-39042765D01*
X69946358Y-39063642D01*
X69878978Y-39045157D01*
X69875257Y-39042765D01*
X69802279Y-38994004D01*
X69802275Y-38994002D01*
X69802271Y-38993999D01*
X69802267Y-38993997D01*
X69802263Y-38993995D01*
X69649310Y-38930641D01*
X69649301Y-38930638D01*
X69486927Y-38898341D01*
X69486925Y-38898341D01*
X69404143Y-38898342D01*
X69284149Y-38898342D01*
X69201367Y-38898341D01*
X69201366Y-38898341D01*
X69201364Y-38898341D01*
X69201363Y-38898341D01*
X69038990Y-38930638D01*
X69038981Y-38930641D01*
X68886028Y-38993995D01*
X68886012Y-38994004D01*
X68813044Y-39042759D01*
X68746367Y-39063636D01*
X68678987Y-39045151D01*
X68675265Y-39042758D01*
X68602281Y-38993992D01*
X68602274Y-38993988D01*
X68602271Y-38993986D01*
X68602267Y-38993984D01*
X68602263Y-38993982D01*
X68449310Y-38930628D01*
X68449301Y-38930625D01*
X68286927Y-38898328D01*
X68286925Y-38898328D01*
X68204143Y-38898329D01*
X68084149Y-38898329D01*
X68001367Y-38898328D01*
X68001366Y-38898328D01*
X68001364Y-38898328D01*
X68001363Y-38898328D01*
X67838990Y-38930625D01*
X67838981Y-38930628D01*
X67686028Y-38993982D01*
X67686010Y-38993992D01*
X67548362Y-39085965D01*
X67548354Y-39085971D01*
X67431288Y-39203037D01*
X67431282Y-39203045D01*
X67339309Y-39340693D01*
X67339299Y-39340711D01*
X67275945Y-39493664D01*
X67275943Y-39493673D01*
X67259828Y-39574691D01*
X67227444Y-39636602D01*
X67166728Y-39671176D01*
X67138211Y-39674500D01*
X61994055Y-39674500D01*
X61927016Y-39654815D01*
X61881261Y-39602011D01*
X61871317Y-39532853D01*
X61890953Y-39481609D01*
X61959390Y-39379185D01*
X61959390Y-39379184D01*
X61959394Y-39379179D01*
X62019737Y-39233497D01*
X62048242Y-39090194D01*
X62050638Y-39078150D01*
X62083023Y-39016239D01*
X62084517Y-39014717D01*
X63980520Y-37118716D01*
X64059577Y-36981784D01*
X64100501Y-36829057D01*
X64100501Y-36670942D01*
X64100501Y-36663347D01*
X64100500Y-36663329D01*
X64100500Y-36329765D01*
X64120185Y-36262726D01*
X64121398Y-36260874D01*
X64142362Y-36229500D01*
X64209394Y-36129179D01*
X64212854Y-36120827D01*
X64230244Y-36078842D01*
X64269737Y-35983497D01*
X64300500Y-35828842D01*
X64300500Y-35671158D01*
X64300500Y-35671155D01*
X64300499Y-35671153D01*
X64269738Y-35516510D01*
X64269737Y-35516503D01*
X64269735Y-35516498D01*
X64209397Y-35370827D01*
X64209390Y-35370814D01*
X64121789Y-35239711D01*
X64121786Y-35239707D01*
X64010292Y-35128213D01*
X64010288Y-35128210D01*
X63879185Y-35040609D01*
X63879172Y-35040602D01*
X63733501Y-34980264D01*
X63733489Y-34980261D01*
X63578845Y-34949500D01*
X63578842Y-34949500D01*
X63421158Y-34949500D01*
X63421155Y-34949500D01*
X63266510Y-34980261D01*
X63266498Y-34980264D01*
X63120827Y-35040602D01*
X63120814Y-35040609D01*
X62989711Y-35128210D01*
X62989707Y-35128213D01*
X62878213Y-35239707D01*
X62878210Y-35239711D01*
X62790609Y-35370814D01*
X62790602Y-35370827D01*
X62730264Y-35516498D01*
X62730261Y-35516510D01*
X62699500Y-35671153D01*
X62699500Y-35828846D01*
X62730261Y-35983489D01*
X62730264Y-35983501D01*
X62790602Y-36129172D01*
X62790609Y-36129185D01*
X62878602Y-36260874D01*
X62884252Y-36278920D01*
X62894477Y-36294830D01*
X62898928Y-36325789D01*
X62899480Y-36327551D01*
X62899500Y-36329765D01*
X62899500Y-36449902D01*
X62879815Y-36516941D01*
X62863181Y-36537583D01*
X62089181Y-37311583D01*
X62027858Y-37345068D01*
X61958166Y-37340084D01*
X61902233Y-37298212D01*
X61877816Y-37232748D01*
X61877500Y-37223902D01*
X61877500Y-32123713D01*
X78149500Y-32123713D01*
X78149500Y-32336287D01*
X78182754Y-32546243D01*
X78201520Y-32604000D01*
X78248444Y-32748414D01*
X78344951Y-32937820D01*
X78469890Y-33109786D01*
X78620213Y-33260109D01*
X78792182Y-33385050D01*
X78800946Y-33389516D01*
X78851742Y-33437491D01*
X78868536Y-33505312D01*
X78845998Y-33571447D01*
X78800946Y-33610484D01*
X78792182Y-33614949D01*
X78620213Y-33739890D01*
X78469890Y-33890213D01*
X78344951Y-34062179D01*
X78248444Y-34251585D01*
X78182753Y-34453760D01*
X78180948Y-34465158D01*
X78149500Y-34663713D01*
X78149500Y-34876287D01*
X78182754Y-35086243D01*
X78231467Y-35236167D01*
X78248444Y-35288414D01*
X78344951Y-35477820D01*
X78469890Y-35649786D01*
X78620213Y-35800109D01*
X78792182Y-35925050D01*
X78800946Y-35929516D01*
X78851742Y-35977491D01*
X78868536Y-36045312D01*
X78845998Y-36111447D01*
X78800946Y-36150484D01*
X78792182Y-36154949D01*
X78620213Y-36279890D01*
X78469890Y-36430213D01*
X78344951Y-36602179D01*
X78248444Y-36791585D01*
X78182753Y-36993760D01*
X78149500Y-37203713D01*
X78149500Y-37416286D01*
X78181794Y-37620185D01*
X78182754Y-37626243D01*
X78228327Y-37766503D01*
X78248444Y-37828414D01*
X78344951Y-38017820D01*
X78469890Y-38189786D01*
X78620213Y-38340109D01*
X78792179Y-38465048D01*
X78792181Y-38465049D01*
X78792184Y-38465051D01*
X78981588Y-38561557D01*
X79183757Y-38627246D01*
X79393713Y-38660500D01*
X79393714Y-38660500D01*
X79606286Y-38660500D01*
X79606287Y-38660500D01*
X79816243Y-38627246D01*
X80018412Y-38561557D01*
X80207816Y-38465051D01*
X80231538Y-38447816D01*
X80379786Y-38340109D01*
X80379788Y-38340106D01*
X80379792Y-38340104D01*
X80530104Y-38189792D01*
X80530106Y-38189788D01*
X80530109Y-38189786D01*
X80655048Y-38017820D01*
X80655047Y-38017820D01*
X80655051Y-38017816D01*
X80751557Y-37828412D01*
X80817246Y-37626243D01*
X80850500Y-37416287D01*
X80850500Y-37203713D01*
X80817246Y-36993757D01*
X80751557Y-36791588D01*
X80655051Y-36602184D01*
X80655049Y-36602181D01*
X80655048Y-36602179D01*
X80530109Y-36430213D01*
X80379786Y-36279890D01*
X80207820Y-36154951D01*
X80207115Y-36154591D01*
X80199054Y-36150485D01*
X80148259Y-36102512D01*
X80131463Y-36034692D01*
X80153999Y-35968556D01*
X80199054Y-35929515D01*
X80207816Y-35925051D01*
X80229789Y-35909086D01*
X80379786Y-35800109D01*
X80379788Y-35800106D01*
X80379792Y-35800104D01*
X80530104Y-35649792D01*
X80530106Y-35649788D01*
X80530109Y-35649786D01*
X80655048Y-35477820D01*
X80655047Y-35477820D01*
X80655051Y-35477816D01*
X80751557Y-35288412D01*
X80817246Y-35086243D01*
X80850500Y-34876287D01*
X80850500Y-34663713D01*
X80817246Y-34453757D01*
X80751557Y-34251588D01*
X80655051Y-34062184D01*
X80655049Y-34062181D01*
X80655048Y-34062179D01*
X80530109Y-33890213D01*
X80379786Y-33739890D01*
X80207820Y-33614951D01*
X80207115Y-33614591D01*
X80199054Y-33610485D01*
X80148259Y-33562512D01*
X80131463Y-33494692D01*
X80153999Y-33428556D01*
X80199054Y-33389515D01*
X80207816Y-33385051D01*
X80240662Y-33361187D01*
X80379786Y-33260109D01*
X80379788Y-33260106D01*
X80379792Y-33260104D01*
X80530104Y-33109792D01*
X80530106Y-33109788D01*
X80530109Y-33109786D01*
X80655048Y-32937820D01*
X80655047Y-32937820D01*
X80655051Y-32937816D01*
X80751557Y-32748412D01*
X80817246Y-32546243D01*
X80850500Y-32336287D01*
X80850500Y-32123713D01*
X80817246Y-31913757D01*
X80751557Y-31711588D01*
X80655051Y-31522184D01*
X80655049Y-31522181D01*
X80655048Y-31522179D01*
X80530109Y-31350213D01*
X80416181Y-31236285D01*
X80382696Y-31174962D01*
X80387680Y-31105270D01*
X80429552Y-31049337D01*
X80460529Y-31032422D01*
X80592086Y-30983354D01*
X80592093Y-30983350D01*
X80707187Y-30897190D01*
X80707190Y-30897187D01*
X80793350Y-30782093D01*
X80793354Y-30782086D01*
X80843596Y-30647379D01*
X80843598Y-30647372D01*
X80849999Y-30587844D01*
X80850000Y-30587827D01*
X80850000Y-29940000D01*
X79990748Y-29940000D01*
X80012518Y-29902292D01*
X80050000Y-29762409D01*
X80050000Y-29617591D01*
X80012518Y-29477708D01*
X79990748Y-29440000D01*
X80850000Y-29440000D01*
X80850000Y-28792172D01*
X80849999Y-28792155D01*
X80843598Y-28732627D01*
X80843596Y-28732620D01*
X80793354Y-28597913D01*
X80793350Y-28597906D01*
X80707190Y-28482812D01*
X80707187Y-28482809D01*
X80592093Y-28396649D01*
X80592086Y-28396645D01*
X80457379Y-28346403D01*
X80457372Y-28346401D01*
X80397844Y-28340000D01*
X79750000Y-28340000D01*
X79750000Y-29199252D01*
X79712292Y-29177482D01*
X79572409Y-29140000D01*
X79427591Y-29140000D01*
X79287708Y-29177482D01*
X79250000Y-29199252D01*
X79250000Y-28340000D01*
X78602155Y-28340000D01*
X78542627Y-28346401D01*
X78542620Y-28346403D01*
X78407913Y-28396645D01*
X78407906Y-28396649D01*
X78292812Y-28482809D01*
X78292809Y-28482812D01*
X78206649Y-28597906D01*
X78206645Y-28597913D01*
X78156403Y-28732620D01*
X78156401Y-28732627D01*
X78150000Y-28792155D01*
X78150000Y-29440000D01*
X79009252Y-29440000D01*
X78987482Y-29477708D01*
X78950000Y-29617591D01*
X78950000Y-29762409D01*
X78987482Y-29902292D01*
X79009252Y-29940000D01*
X78150000Y-29940000D01*
X78150000Y-30587844D01*
X78156401Y-30647372D01*
X78156403Y-30647379D01*
X78206645Y-30782086D01*
X78206649Y-30782093D01*
X78292809Y-30897187D01*
X78292812Y-30897190D01*
X78407906Y-30983350D01*
X78407913Y-30983354D01*
X78539470Y-31032422D01*
X78595404Y-31074293D01*
X78619821Y-31139758D01*
X78604969Y-31208031D01*
X78583819Y-31236285D01*
X78469889Y-31350215D01*
X78344951Y-31522179D01*
X78248444Y-31711585D01*
X78182753Y-31913760D01*
X78169872Y-31995089D01*
X78149500Y-32123713D01*
X61877500Y-32123713D01*
X61877500Y-30938194D01*
X61877499Y-30938192D01*
X61869543Y-30898191D01*
X61875770Y-30828600D01*
X61918633Y-30773422D01*
X61984523Y-30750178D01*
X61991160Y-30750000D01*
X75500000Y-30750000D01*
X75500000Y-25266500D01*
X75519685Y-25199461D01*
X75572489Y-25153706D01*
X75624000Y-25142500D01*
X81989500Y-25142500D01*
X82056539Y-25162185D01*
X82102294Y-25214989D01*
X82113500Y-25266500D01*
X82113500Y-88275500D01*
X82093815Y-88342539D01*
X82041011Y-88388294D01*
X81989500Y-88399500D01*
X78664737Y-88399500D01*
X78597698Y-88379815D01*
X78551943Y-88327011D01*
X78541999Y-88257853D01*
X78571024Y-88194297D01*
X78577056Y-88187819D01*
X78581383Y-88183491D01*
X78720164Y-87992476D01*
X78827352Y-87782107D01*
X78900315Y-87557552D01*
X78916352Y-87456305D01*
X78037251Y-87456305D01*
X78062271Y-87395903D01*
X78087250Y-87270324D01*
X78087250Y-87142286D01*
X78062271Y-87016707D01*
X78037251Y-86956305D01*
X78943250Y-86956305D01*
X79010289Y-86975990D01*
X79056044Y-87028794D01*
X79067250Y-87080305D01*
X79067250Y-87178314D01*
X79151074Y-87239217D01*
X79361445Y-87346407D01*
X79585994Y-87419368D01*
X79586000Y-87419370D01*
X79687250Y-87435406D01*
X79687250Y-86556306D01*
X79747652Y-86581326D01*
X79873231Y-86606305D01*
X80001269Y-86606305D01*
X80126848Y-86581326D01*
X80187250Y-86556306D01*
X80187250Y-87435405D01*
X80288499Y-87419370D01*
X80288505Y-87419368D01*
X80513054Y-87346407D01*
X80723421Y-87239219D01*
X80914436Y-87100438D01*
X81081383Y-86933491D01*
X81220164Y-86742476D01*
X81327352Y-86532107D01*
X81400315Y-86307552D01*
X81416352Y-86206305D01*
X80537251Y-86206305D01*
X80562271Y-86145903D01*
X80587250Y-86020324D01*
X80587250Y-85892286D01*
X80562271Y-85766707D01*
X80537251Y-85706305D01*
X81416352Y-85706305D01*
X81400315Y-85605057D01*
X81327352Y-85380502D01*
X81220164Y-85170133D01*
X81081383Y-84979118D01*
X80914436Y-84812171D01*
X80723421Y-84673390D01*
X80513052Y-84566202D01*
X80288497Y-84493239D01*
X80187250Y-84477202D01*
X80187250Y-85356303D01*
X80126848Y-85331284D01*
X80001269Y-85306305D01*
X79873231Y-85306305D01*
X79747652Y-85331284D01*
X79687250Y-85356303D01*
X79687250Y-84477202D01*
X79586002Y-84493239D01*
X79361447Y-84566202D01*
X79151078Y-84673390D01*
X78960063Y-84812171D01*
X78793116Y-84979118D01*
X78654335Y-85170133D01*
X78547147Y-85380502D01*
X78474184Y-85605057D01*
X78458148Y-85706305D01*
X79337249Y-85706305D01*
X79312229Y-85766707D01*
X79287250Y-85892286D01*
X79287250Y-86020324D01*
X79312229Y-86145903D01*
X79337249Y-86206305D01*
X78431250Y-86206305D01*
X78364211Y-86186620D01*
X78318456Y-86133816D01*
X78307250Y-86082305D01*
X78307250Y-85984295D01*
X78223421Y-85923390D01*
X78086947Y-85853853D01*
X78013052Y-85816202D01*
X77788497Y-85743239D01*
X77687250Y-85727202D01*
X77687250Y-86606303D01*
X77626848Y-86581284D01*
X77501269Y-86556305D01*
X77373231Y-86556305D01*
X77247652Y-86581284D01*
X77187250Y-86606303D01*
X77187250Y-85727202D01*
X77086002Y-85743239D01*
X76861447Y-85816202D01*
X76651078Y-85923390D01*
X76460063Y-86062171D01*
X76293116Y-86229118D01*
X76154335Y-86420133D01*
X76047147Y-86630502D01*
X75974184Y-86855057D01*
X75958148Y-86956305D01*
X76837249Y-86956305D01*
X76812229Y-87016707D01*
X76787250Y-87142286D01*
X76787250Y-87270324D01*
X76812229Y-87395903D01*
X76837249Y-87456305D01*
X75958148Y-87456305D01*
X75974184Y-87557552D01*
X76047147Y-87782107D01*
X76154335Y-87992476D01*
X76293116Y-88183491D01*
X76297444Y-88187819D01*
X76330929Y-88249142D01*
X76325945Y-88318834D01*
X76284073Y-88374767D01*
X76218609Y-88399184D01*
X76209763Y-88399500D01*
X58513453Y-88399500D01*
X58446414Y-88379815D01*
X58400659Y-88327011D01*
X58390715Y-88257853D01*
X58419740Y-88194297D01*
X58457159Y-88165015D01*
X58477555Y-88154622D01*
X58649459Y-88029727D01*
X58649464Y-88029723D01*
X58799723Y-87879464D01*
X58799727Y-87879459D01*
X58924620Y-87707557D01*
X59021095Y-87518217D01*
X59086757Y-87316129D01*
X59086757Y-87316126D01*
X59097231Y-87250000D01*
X58203012Y-87250000D01*
X58235925Y-87192993D01*
X58270000Y-87065826D01*
X58270000Y-86934174D01*
X58235925Y-86807007D01*
X58203012Y-86750000D01*
X59097231Y-86750000D01*
X59086757Y-86683873D01*
X59086757Y-86683870D01*
X59021095Y-86481782D01*
X58924620Y-86292442D01*
X58799727Y-86120540D01*
X58799723Y-86120535D01*
X58649464Y-85970276D01*
X58649459Y-85970272D01*
X58477557Y-85845379D01*
X58288215Y-85748903D01*
X58086124Y-85683241D01*
X58020000Y-85672768D01*
X58020000Y-86566988D01*
X57962993Y-86534075D01*
X57835826Y-86500000D01*
X57704174Y-86500000D01*
X57577007Y-86534075D01*
X57520000Y-86566988D01*
X57520000Y-85672768D01*
X57519999Y-85672768D01*
X57453875Y-85683241D01*
X57251784Y-85748903D01*
X57062442Y-85845379D01*
X56890541Y-85970271D01*
X56776865Y-86083947D01*
X56715542Y-86117431D01*
X56645850Y-86112447D01*
X56589917Y-86070575D01*
X56573002Y-86039598D01*
X56565813Y-86020324D01*
X56523796Y-85907669D01*
X56523795Y-85907668D01*
X56523793Y-85907664D01*
X56437547Y-85792455D01*
X56437544Y-85792452D01*
X56322335Y-85706206D01*
X56322328Y-85706202D01*
X56187482Y-85655908D01*
X56187483Y-85655908D01*
X56158745Y-85652819D01*
X56094194Y-85626081D01*
X56054345Y-85568689D01*
X56048000Y-85529530D01*
X56048000Y-84393713D01*
X66399500Y-84393713D01*
X66399500Y-84606286D01*
X66432753Y-84816239D01*
X66498444Y-85018414D01*
X66594951Y-85207820D01*
X66719890Y-85379786D01*
X66870213Y-85530109D01*
X67042179Y-85655048D01*
X67042181Y-85655049D01*
X67042184Y-85655051D01*
X67231588Y-85751557D01*
X67433757Y-85817246D01*
X67643713Y-85850500D01*
X67643714Y-85850500D01*
X67856286Y-85850500D01*
X67856287Y-85850500D01*
X68066243Y-85817246D01*
X68268412Y-85751557D01*
X68457816Y-85655051D01*
X68497690Y-85626081D01*
X68629786Y-85530109D01*
X68629788Y-85530106D01*
X68629792Y-85530104D01*
X68780104Y-85379792D01*
X68780106Y-85379788D01*
X68780109Y-85379786D01*
X68905048Y-85207820D01*
X68905047Y-85207820D01*
X68905051Y-85207816D01*
X69001557Y-85018412D01*
X69067246Y-84816243D01*
X69100500Y-84606287D01*
X69100500Y-84393713D01*
X69067246Y-84183757D01*
X69001557Y-83981588D01*
X68905051Y-83792184D01*
X68905049Y-83792181D01*
X68905048Y-83792179D01*
X68780109Y-83620213D01*
X68629786Y-83469890D01*
X68457820Y-83344951D01*
X68268414Y-83248444D01*
X68268413Y-83248443D01*
X68268412Y-83248443D01*
X68066243Y-83182754D01*
X68066241Y-83182753D01*
X68066240Y-83182753D01*
X67904957Y-83157208D01*
X67856287Y-83149500D01*
X67643713Y-83149500D01*
X67595042Y-83157208D01*
X67433760Y-83182753D01*
X67231585Y-83248444D01*
X67042179Y-83344951D01*
X66870213Y-83469890D01*
X66719890Y-83620213D01*
X66594951Y-83792179D01*
X66498444Y-83981585D01*
X66432753Y-84183760D01*
X66399500Y-84393713D01*
X56048000Y-84393713D01*
X56048000Y-77548549D01*
X61299500Y-77548549D01*
X61299500Y-77771450D01*
X61299501Y-77771466D01*
X61328594Y-77992452D01*
X61328595Y-77992457D01*
X61328596Y-77992463D01*
X61386290Y-78207780D01*
X61386293Y-78207790D01*
X61471593Y-78413722D01*
X61471595Y-78413726D01*
X61583052Y-78606774D01*
X61583057Y-78606780D01*
X61583058Y-78606782D01*
X61718751Y-78783622D01*
X61718757Y-78783629D01*
X61876370Y-78941242D01*
X61876376Y-78941247D01*
X62053226Y-79076948D01*
X62246274Y-79188405D01*
X62452219Y-79273710D01*
X62667537Y-79331404D01*
X62888543Y-79360500D01*
X62888550Y-79360500D01*
X63111450Y-79360500D01*
X63111457Y-79360500D01*
X63332463Y-79331404D01*
X63547781Y-79273710D01*
X63753726Y-79188405D01*
X63946774Y-79076948D01*
X64123624Y-78941247D01*
X64281247Y-78783624D01*
X64416948Y-78606774D01*
X64528405Y-78413726D01*
X64613710Y-78207781D01*
X64671404Y-77992463D01*
X64700500Y-77771457D01*
X64700500Y-77548543D01*
X64671404Y-77327537D01*
X64613710Y-77112219D01*
X64609215Y-77101368D01*
X64528406Y-76906277D01*
X64528405Y-76906274D01*
X64416948Y-76713226D01*
X64281247Y-76536376D01*
X64281242Y-76536370D01*
X64123629Y-76378757D01*
X64123622Y-76378751D01*
X63946782Y-76243058D01*
X63946780Y-76243057D01*
X63946774Y-76243052D01*
X63753726Y-76131595D01*
X63753722Y-76131593D01*
X63547790Y-76046293D01*
X63547783Y-76046291D01*
X63547781Y-76046290D01*
X63332463Y-75988596D01*
X63332457Y-75988595D01*
X63332452Y-75988594D01*
X63111466Y-75959501D01*
X63111463Y-75959500D01*
X63111457Y-75959500D01*
X62888543Y-75959500D01*
X62888537Y-75959500D01*
X62888533Y-75959501D01*
X62667547Y-75988594D01*
X62667540Y-75988595D01*
X62667537Y-75988596D01*
X62452219Y-76046290D01*
X62452209Y-76046293D01*
X62246277Y-76131593D01*
X62246273Y-76131595D01*
X62053226Y-76243052D01*
X62053217Y-76243058D01*
X61876377Y-76378751D01*
X61876370Y-76378757D01*
X61718757Y-76536370D01*
X61718751Y-76536377D01*
X61583058Y-76713217D01*
X61583052Y-76713226D01*
X61471595Y-76906273D01*
X61471593Y-76906277D01*
X61386293Y-77112209D01*
X61386290Y-77112219D01*
X61328597Y-77327534D01*
X61328594Y-77327547D01*
X61299501Y-77548533D01*
X61299500Y-77548549D01*
X56048000Y-77548549D01*
X56048000Y-73921153D01*
X69199500Y-73921153D01*
X69199500Y-74078846D01*
X69230261Y-74233489D01*
X69230264Y-74233501D01*
X69290602Y-74379172D01*
X69290609Y-74379185D01*
X69378210Y-74510288D01*
X69378213Y-74510292D01*
X69489707Y-74621786D01*
X69489711Y-74621789D01*
X69620814Y-74709390D01*
X69620827Y-74709397D01*
X69688961Y-74737618D01*
X69766503Y-74769737D01*
X69874185Y-74791156D01*
X69936092Y-74823539D01*
X69937672Y-74825091D01*
X70586181Y-75473600D01*
X70619666Y-75534923D01*
X70622500Y-75561281D01*
X70622500Y-79710642D01*
X70602815Y-79777681D01*
X70601602Y-79779533D01*
X70540609Y-79870814D01*
X70540602Y-79870827D01*
X70480264Y-80016498D01*
X70480261Y-80016510D01*
X70449500Y-80171153D01*
X70449500Y-80328846D01*
X70480261Y-80483489D01*
X70480264Y-80483501D01*
X70540602Y-80629172D01*
X70540609Y-80629185D01*
X70628210Y-80760288D01*
X70628213Y-80760292D01*
X70739707Y-80871786D01*
X70739711Y-80871789D01*
X70870814Y-80959390D01*
X70870827Y-80959397D01*
X71016498Y-81019735D01*
X71016503Y-81019737D01*
X71171153Y-81050499D01*
X71171156Y-81050500D01*
X71171158Y-81050500D01*
X71328844Y-81050500D01*
X71328845Y-81050499D01*
X71483497Y-81019737D01*
X71629179Y-80959394D01*
X71760289Y-80871789D01*
X71871789Y-80760289D01*
X71879145Y-80749279D01*
X71896898Y-80722712D01*
X71950510Y-80677906D01*
X72019835Y-80669199D01*
X72082862Y-80699353D01*
X72103102Y-80722712D01*
X72128207Y-80760284D01*
X72128213Y-80760292D01*
X72239707Y-80871786D01*
X72239711Y-80871789D01*
X72370814Y-80959390D01*
X72370827Y-80959397D01*
X72516498Y-81019735D01*
X72516503Y-81019737D01*
X72671153Y-81050499D01*
X72671156Y-81050500D01*
X72671158Y-81050500D01*
X72828844Y-81050500D01*
X72828845Y-81050499D01*
X72983497Y-81019737D01*
X73129179Y-80959394D01*
X73260289Y-80871789D01*
X73371789Y-80760289D01*
X73459394Y-80629179D01*
X73519737Y-80483497D01*
X73525710Y-80453471D01*
X73537331Y-80395050D01*
X73537331Y-80395049D01*
X73550499Y-80328846D01*
X73550500Y-80328844D01*
X73550500Y-80171155D01*
X73550499Y-80171153D01*
X73519950Y-80017571D01*
X73519949Y-80017567D01*
X73519738Y-80016508D01*
X73519737Y-80016507D01*
X73519737Y-80016503D01*
X73500000Y-79968853D01*
X73494803Y-79956305D01*
X75958148Y-79956305D01*
X76837249Y-79956305D01*
X76812229Y-80016707D01*
X76787250Y-80142286D01*
X76787250Y-80270324D01*
X76812229Y-80395903D01*
X76837249Y-80456305D01*
X75958148Y-80456305D01*
X75974184Y-80557552D01*
X76047147Y-80782107D01*
X76154335Y-80992476D01*
X76293116Y-81183491D01*
X76460063Y-81350438D01*
X76651078Y-81489219D01*
X76861445Y-81596407D01*
X77085994Y-81669368D01*
X77086000Y-81669370D01*
X77187250Y-81685406D01*
X77187250Y-80806306D01*
X77247652Y-80831326D01*
X77373231Y-80856305D01*
X77501269Y-80856305D01*
X77626848Y-80831326D01*
X77687250Y-80806306D01*
X77687250Y-81685405D01*
X77788499Y-81669370D01*
X77788505Y-81669368D01*
X78013054Y-81596407D01*
X78223422Y-81489219D01*
X78239863Y-81477274D01*
X78305669Y-81453793D01*
X78373723Y-81469618D01*
X78422419Y-81519723D01*
X78434788Y-81569671D01*
X78436368Y-81569547D01*
X78436749Y-81574400D01*
X78473696Y-81807673D01*
X78546683Y-82032301D01*
X78653907Y-82242738D01*
X78792733Y-82433815D01*
X78959740Y-82600822D01*
X79150817Y-82739648D01*
X79250241Y-82790307D01*
X79361253Y-82846871D01*
X79361255Y-82846871D01*
X79361258Y-82846873D01*
X79481662Y-82885994D01*
X79585881Y-82919858D01*
X79819153Y-82956805D01*
X79819158Y-82956805D01*
X80055347Y-82956805D01*
X80288618Y-82919858D01*
X80513242Y-82846873D01*
X80723683Y-82739648D01*
X80914760Y-82600822D01*
X81081767Y-82433815D01*
X81220593Y-82242738D01*
X81327818Y-82032297D01*
X81400803Y-81807673D01*
X81420168Y-81685406D01*
X81437750Y-81574402D01*
X81437750Y-81338207D01*
X81400803Y-81104936D01*
X81327816Y-80880308D01*
X81235614Y-80699353D01*
X81220593Y-80669872D01*
X81081767Y-80478795D01*
X80914760Y-80311788D01*
X80723683Y-80172962D01*
X80720133Y-80171153D01*
X80513246Y-80065738D01*
X80288618Y-79992751D01*
X80055347Y-79955805D01*
X80055342Y-79955805D01*
X79819158Y-79955805D01*
X79819153Y-79955805D01*
X79585881Y-79992751D01*
X79361253Y-80065738D01*
X79150816Y-80172962D01*
X79041800Y-80252167D01*
X78959740Y-80311788D01*
X78959738Y-80311790D01*
X78959737Y-80311790D01*
X78851542Y-80419986D01*
X78790219Y-80453471D01*
X78763861Y-80456305D01*
X78037251Y-80456305D01*
X78062271Y-80395903D01*
X78087250Y-80270324D01*
X78087250Y-80142286D01*
X78062271Y-80016707D01*
X78037251Y-79956305D01*
X78916352Y-79956305D01*
X78900315Y-79855057D01*
X78827352Y-79630502D01*
X78720164Y-79420133D01*
X78581383Y-79229118D01*
X78414436Y-79062171D01*
X78223421Y-78923390D01*
X78013052Y-78816202D01*
X77788497Y-78743239D01*
X77687250Y-78727202D01*
X77687250Y-79606303D01*
X77626848Y-79581284D01*
X77501269Y-79556305D01*
X77373231Y-79556305D01*
X77247652Y-79581284D01*
X77187250Y-79606303D01*
X77187250Y-78727202D01*
X77086002Y-78743239D01*
X76861447Y-78816202D01*
X76651078Y-78923390D01*
X76460063Y-79062171D01*
X76293116Y-79229118D01*
X76154335Y-79420133D01*
X76047147Y-79630502D01*
X75974184Y-79855057D01*
X75958148Y-79956305D01*
X73494803Y-79956305D01*
X73459397Y-79870827D01*
X73459390Y-79870814D01*
X73372998Y-79741519D01*
X73352120Y-79674841D01*
X73352100Y-79672628D01*
X73352100Y-56920733D01*
X73317664Y-56792219D01*
X73311067Y-56767598D01*
X73231800Y-56630302D01*
X73119698Y-56518200D01*
X72638419Y-56036921D01*
X72604934Y-55975598D01*
X72602100Y-55949240D01*
X72602100Y-55577371D01*
X72607068Y-55560349D01*
X72607013Y-55542814D01*
X72620883Y-55513021D01*
X72621572Y-55510663D01*
X72622271Y-55509566D01*
X72709394Y-55379179D01*
X72769737Y-55233497D01*
X72800500Y-55078842D01*
X72800500Y-54956305D01*
X75958148Y-54956305D01*
X76837249Y-54956305D01*
X76812229Y-55016707D01*
X76787250Y-55142286D01*
X76787250Y-55270324D01*
X76812229Y-55395903D01*
X76837249Y-55456305D01*
X75958148Y-55456305D01*
X75974184Y-55557552D01*
X76047147Y-55782107D01*
X76154335Y-55992476D01*
X76293116Y-56183491D01*
X76460063Y-56350438D01*
X76651078Y-56489219D01*
X76861445Y-56596407D01*
X77085994Y-56669368D01*
X77086000Y-56669370D01*
X77187250Y-56685406D01*
X77187250Y-55806306D01*
X77247652Y-55831326D01*
X77373231Y-55856305D01*
X77501269Y-55856305D01*
X77626848Y-55831326D01*
X77687250Y-55806306D01*
X77687250Y-56685405D01*
X77788499Y-56669370D01*
X77788505Y-56669368D01*
X78013054Y-56596407D01*
X78223421Y-56489219D01*
X78414436Y-56350438D01*
X78581383Y-56183491D01*
X78720164Y-55992476D01*
X78827352Y-55782107D01*
X78900315Y-55557552D01*
X78916352Y-55456305D01*
X78037251Y-55456305D01*
X78062271Y-55395903D01*
X78087250Y-55270324D01*
X78087250Y-55142286D01*
X78062271Y-55016707D01*
X78037251Y-54956305D01*
X78943250Y-54956305D01*
X79010289Y-54975990D01*
X79056044Y-55028794D01*
X79067250Y-55080305D01*
X79067250Y-55178314D01*
X79151074Y-55239217D01*
X79361445Y-55346407D01*
X79585994Y-55419368D01*
X79586000Y-55419370D01*
X79687250Y-55435406D01*
X79687250Y-54556306D01*
X79747652Y-54581326D01*
X79873231Y-54606305D01*
X80001269Y-54606305D01*
X80126848Y-54581326D01*
X80187250Y-54556306D01*
X80187250Y-55435405D01*
X80288499Y-55419370D01*
X80288505Y-55419368D01*
X80513054Y-55346407D01*
X80723421Y-55239219D01*
X80914436Y-55100438D01*
X81081383Y-54933491D01*
X81220164Y-54742476D01*
X81327352Y-54532107D01*
X81400315Y-54307552D01*
X81416352Y-54206305D01*
X80537251Y-54206305D01*
X80562271Y-54145903D01*
X80587250Y-54020324D01*
X80587250Y-53892286D01*
X80562271Y-53766707D01*
X80537251Y-53706305D01*
X81416352Y-53706305D01*
X81400315Y-53605057D01*
X81327352Y-53380502D01*
X81220164Y-53170133D01*
X81081383Y-52979118D01*
X80914436Y-52812171D01*
X80723421Y-52673390D01*
X80513052Y-52566202D01*
X80288497Y-52493239D01*
X80187250Y-52477202D01*
X80187250Y-53356303D01*
X80126848Y-53331284D01*
X80001269Y-53306305D01*
X79873231Y-53306305D01*
X79747652Y-53331284D01*
X79687250Y-53356303D01*
X79687250Y-52477202D01*
X79586002Y-52493239D01*
X79361447Y-52566202D01*
X79151078Y-52673390D01*
X78960063Y-52812171D01*
X78793116Y-52979118D01*
X78654335Y-53170133D01*
X78547147Y-53380502D01*
X78474184Y-53605057D01*
X78458148Y-53706305D01*
X79337249Y-53706305D01*
X79312229Y-53766707D01*
X79287250Y-53892286D01*
X79287250Y-54020324D01*
X79312229Y-54145903D01*
X79337249Y-54206305D01*
X78431250Y-54206305D01*
X78364211Y-54186620D01*
X78318456Y-54133816D01*
X78307250Y-54082305D01*
X78307250Y-53984295D01*
X78223421Y-53923390D01*
X78086947Y-53853853D01*
X78013052Y-53816202D01*
X77788497Y-53743239D01*
X77687250Y-53727202D01*
X77687250Y-54606303D01*
X77626848Y-54581284D01*
X77501269Y-54556305D01*
X77373231Y-54556305D01*
X77247652Y-54581284D01*
X77187250Y-54606303D01*
X77187250Y-53727202D01*
X77086002Y-53743239D01*
X76861447Y-53816202D01*
X76683700Y-53906768D01*
X76552624Y-53994919D01*
X76460072Y-54062164D01*
X76460063Y-54062171D01*
X76293116Y-54229118D01*
X76154335Y-54420133D01*
X76047147Y-54630502D01*
X75974184Y-54855057D01*
X75958148Y-54956305D01*
X72800500Y-54956305D01*
X72800500Y-54921158D01*
X72800500Y-54921155D01*
X72800499Y-54921153D01*
X72792148Y-54879172D01*
X72769737Y-54766503D01*
X72713404Y-54630502D01*
X72709397Y-54620827D01*
X72709390Y-54620814D01*
X72621789Y-54489711D01*
X72621786Y-54489707D01*
X72510292Y-54378213D01*
X72510288Y-54378210D01*
X72379185Y-54290609D01*
X72379172Y-54290602D01*
X72233501Y-54230264D01*
X72233489Y-54230261D01*
X72078845Y-54199500D01*
X72078842Y-54199500D01*
X71921158Y-54199500D01*
X71921155Y-54199500D01*
X71766510Y-54230261D01*
X71766498Y-54230264D01*
X71620827Y-54290602D01*
X71620814Y-54290609D01*
X71489711Y-54378210D01*
X71489707Y-54378213D01*
X71378213Y-54489707D01*
X71378210Y-54489711D01*
X71290609Y-54620814D01*
X71290602Y-54620827D01*
X71230264Y-54766498D01*
X71230261Y-54766510D01*
X71199500Y-54921153D01*
X71199500Y-55078846D01*
X71230261Y-55233489D01*
X71230264Y-55233501D01*
X71290602Y-55379172D01*
X71290609Y-55379185D01*
X71377002Y-55508480D01*
X71397880Y-55575157D01*
X71397900Y-55577371D01*
X71397900Y-56329268D01*
X71415038Y-56393226D01*
X71438933Y-56482403D01*
X71438934Y-56482404D01*
X71498902Y-56586272D01*
X71498903Y-56586274D01*
X71518199Y-56619696D01*
X71518201Y-56619699D01*
X72111581Y-57213079D01*
X72145066Y-57274402D01*
X72147900Y-57300760D01*
X72147900Y-79672628D01*
X72142572Y-79690771D01*
X72142235Y-79709681D01*
X72128734Y-79737898D01*
X72128215Y-79739667D01*
X72127002Y-79741519D01*
X72104602Y-79775043D01*
X72050990Y-79819848D01*
X71981665Y-79828555D01*
X71918638Y-79798401D01*
X71881918Y-79738958D01*
X71877500Y-79706152D01*
X71877500Y-75188196D01*
X71877499Y-75188192D01*
X71853387Y-75066972D01*
X71853386Y-75066965D01*
X71808412Y-74958392D01*
X71806764Y-74953786D01*
X71737414Y-74849996D01*
X71737413Y-74849994D01*
X71710958Y-74823539D01*
X71650008Y-74762589D01*
X70825091Y-73937672D01*
X70791606Y-73876349D01*
X70791183Y-73874323D01*
X70769737Y-73766503D01*
X70754651Y-73730082D01*
X70709397Y-73620827D01*
X70709390Y-73620814D01*
X70621789Y-73489711D01*
X70621786Y-73489707D01*
X70510292Y-73378213D01*
X70510288Y-73378210D01*
X70379185Y-73290609D01*
X70379172Y-73290602D01*
X70233501Y-73230264D01*
X70233489Y-73230261D01*
X70078845Y-73199500D01*
X70078842Y-73199500D01*
X69921158Y-73199500D01*
X69921155Y-73199500D01*
X69766510Y-73230261D01*
X69766498Y-73230264D01*
X69620827Y-73290602D01*
X69620814Y-73290609D01*
X69489711Y-73378210D01*
X69489707Y-73378213D01*
X69378213Y-73489707D01*
X69378210Y-73489711D01*
X69290609Y-73620814D01*
X69290602Y-73620827D01*
X69230264Y-73766498D01*
X69230261Y-73766510D01*
X69199500Y-73921153D01*
X56048000Y-73921153D01*
X56048000Y-71249433D01*
X56047999Y-71249429D01*
X56016566Y-71091405D01*
X56016565Y-71091398D01*
X55957228Y-70948149D01*
X55955584Y-70943551D01*
X55865382Y-70808554D01*
X55865379Y-70808551D01*
X55164331Y-70107504D01*
X55130846Y-70046181D01*
X55129539Y-70000430D01*
X55150500Y-69868092D01*
X55150500Y-69631908D01*
X55150500Y-69631902D01*
X55113553Y-69398631D01*
X55040566Y-69174003D01*
X54933342Y-68963566D01*
X54794517Y-68772490D01*
X54627510Y-68605483D01*
X54436433Y-68466657D01*
X54225996Y-68359433D01*
X54001368Y-68286446D01*
X53768097Y-68249500D01*
X53768092Y-68249500D01*
X53531908Y-68249500D01*
X53531903Y-68249500D01*
X53298631Y-68286446D01*
X53074003Y-68359433D01*
X52863566Y-68466657D01*
X52754550Y-68545862D01*
X52672490Y-68605483D01*
X52672488Y-68605485D01*
X52672487Y-68605485D01*
X52505485Y-68772487D01*
X52505485Y-68772488D01*
X52505483Y-68772490D01*
X52445862Y-68854550D01*
X52366657Y-68963566D01*
X52259433Y-69174003D01*
X52186446Y-69398631D01*
X52149500Y-69631902D01*
X52149500Y-69868097D01*
X52186446Y-70101368D01*
X52259433Y-70325996D01*
X52366657Y-70536433D01*
X52505483Y-70727510D01*
X52672490Y-70894517D01*
X52863567Y-71033343D01*
X52962991Y-71084002D01*
X53074003Y-71140566D01*
X53074005Y-71140566D01*
X53074008Y-71140568D01*
X53172383Y-71172532D01*
X53298631Y-71213553D01*
X53531903Y-71250500D01*
X53531908Y-71250500D01*
X53768090Y-71250500D01*
X53768092Y-71250500D01*
X53900428Y-71229539D01*
X53969717Y-71238493D01*
X54007504Y-71264331D01*
X54375681Y-71632508D01*
X54409166Y-71693831D01*
X54412000Y-71720189D01*
X54412000Y-75251857D01*
X54392315Y-75318896D01*
X54339511Y-75364651D01*
X54270353Y-75374595D01*
X54231712Y-75362345D01*
X54226001Y-75359435D01*
X54001368Y-75286446D01*
X53768097Y-75249500D01*
X53768092Y-75249500D01*
X53531908Y-75249500D01*
X53531903Y-75249500D01*
X53298631Y-75286446D01*
X53074003Y-75359433D01*
X52863566Y-75466657D01*
X52804022Y-75509919D01*
X52672490Y-75605483D01*
X52672488Y-75605485D01*
X52672487Y-75605485D01*
X52505485Y-75772487D01*
X52505485Y-75772488D01*
X52505483Y-75772490D01*
X52445862Y-75854550D01*
X52366657Y-75963566D01*
X52259433Y-76174003D01*
X52186446Y-76398631D01*
X52149500Y-76631902D01*
X52149500Y-76868097D01*
X52186446Y-77101368D01*
X52259433Y-77325996D01*
X52366657Y-77536433D01*
X52505483Y-77727510D01*
X52672490Y-77894517D01*
X52863567Y-78033343D01*
X52888000Y-78045792D01*
X53074003Y-78140566D01*
X53074005Y-78140566D01*
X53074008Y-78140568D01*
X53194412Y-78179689D01*
X53298631Y-78213553D01*
X53531903Y-78250500D01*
X53531908Y-78250500D01*
X53768097Y-78250500D01*
X54001368Y-78213553D01*
X54018021Y-78208142D01*
X54225992Y-78140568D01*
X54231703Y-78137657D01*
X54300372Y-78124761D01*
X54365113Y-78151036D01*
X54405371Y-78208142D01*
X54412000Y-78248142D01*
X54412000Y-85529529D01*
X54392315Y-85596568D01*
X54339511Y-85642323D01*
X54301256Y-85652818D01*
X54272519Y-85655907D01*
X54137671Y-85706202D01*
X54137664Y-85706206D01*
X54022455Y-85792452D01*
X54022452Y-85792455D01*
X53936206Y-85907664D01*
X53936202Y-85907671D01*
X53885908Y-86042517D01*
X53879501Y-86102116D01*
X53879500Y-86102135D01*
X53879500Y-87897870D01*
X53879501Y-87897876D01*
X53885908Y-87957483D01*
X53936202Y-88092328D01*
X53936206Y-88092335D01*
X54017695Y-88201189D01*
X54042113Y-88266653D01*
X54027262Y-88334926D01*
X53977857Y-88384332D01*
X53918429Y-88399500D01*
X43243453Y-88399500D01*
X43176414Y-88379815D01*
X43130659Y-88327011D01*
X43120715Y-88257853D01*
X43149740Y-88194297D01*
X43187159Y-88165015D01*
X43207555Y-88154622D01*
X43379459Y-88029727D01*
X43379464Y-88029723D01*
X43529723Y-87879464D01*
X43529727Y-87879459D01*
X43654620Y-87707557D01*
X43751095Y-87518217D01*
X43816757Y-87316129D01*
X43816757Y-87316126D01*
X43827231Y-87250000D01*
X42933012Y-87250000D01*
X42965925Y-87192993D01*
X43000000Y-87065826D01*
X43000000Y-86934174D01*
X42965925Y-86807007D01*
X42933012Y-86750000D01*
X43827231Y-86750000D01*
X43816757Y-86683873D01*
X43816757Y-86683870D01*
X43751095Y-86481782D01*
X43654620Y-86292442D01*
X43529727Y-86120540D01*
X43529723Y-86120535D01*
X43379464Y-85970276D01*
X43379459Y-85970272D01*
X43207557Y-85845379D01*
X43018215Y-85748903D01*
X42816124Y-85683241D01*
X42750000Y-85672768D01*
X42750000Y-86566988D01*
X42692993Y-86534075D01*
X42565826Y-86500000D01*
X42434174Y-86500000D01*
X42307007Y-86534075D01*
X42250000Y-86566988D01*
X42250000Y-85672768D01*
X42249999Y-85672768D01*
X42183875Y-85683241D01*
X41981784Y-85748903D01*
X41792442Y-85845379D01*
X41620541Y-85970271D01*
X41506865Y-86083947D01*
X41445542Y-86117431D01*
X41375850Y-86112447D01*
X41319917Y-86070575D01*
X41303002Y-86039598D01*
X41295813Y-86020324D01*
X41253796Y-85907669D01*
X41253795Y-85907668D01*
X41253793Y-85907664D01*
X41167547Y-85792455D01*
X41167544Y-85792452D01*
X41052335Y-85706206D01*
X41052328Y-85706202D01*
X40917482Y-85655908D01*
X40917483Y-85655908D01*
X40888745Y-85652819D01*
X40824194Y-85626081D01*
X40784345Y-85568689D01*
X40778000Y-85529530D01*
X40778000Y-77548549D01*
X45799500Y-77548549D01*
X45799500Y-77771450D01*
X45799501Y-77771466D01*
X45828594Y-77992452D01*
X45828595Y-77992457D01*
X45828596Y-77992463D01*
X45886290Y-78207780D01*
X45886293Y-78207790D01*
X45971593Y-78413722D01*
X45971595Y-78413726D01*
X46083052Y-78606774D01*
X46083057Y-78606780D01*
X46083058Y-78606782D01*
X46218751Y-78783622D01*
X46218757Y-78783629D01*
X46376370Y-78941242D01*
X46376376Y-78941247D01*
X46553226Y-79076948D01*
X46746274Y-79188405D01*
X46952219Y-79273710D01*
X47167537Y-79331404D01*
X47388543Y-79360500D01*
X47388550Y-79360500D01*
X47611450Y-79360500D01*
X47611457Y-79360500D01*
X47832463Y-79331404D01*
X48047781Y-79273710D01*
X48253726Y-79188405D01*
X48446774Y-79076948D01*
X48623624Y-78941247D01*
X48781247Y-78783624D01*
X48916948Y-78606774D01*
X49028405Y-78413726D01*
X49113710Y-78207781D01*
X49171404Y-77992463D01*
X49200500Y-77771457D01*
X49200500Y-77548543D01*
X49171404Y-77327537D01*
X49113710Y-77112219D01*
X49109215Y-77101368D01*
X49028406Y-76906277D01*
X49028405Y-76906274D01*
X48916948Y-76713226D01*
X48781247Y-76536376D01*
X48781242Y-76536370D01*
X48623629Y-76378757D01*
X48623622Y-76378751D01*
X48446782Y-76243058D01*
X48446780Y-76243057D01*
X48446774Y-76243052D01*
X48253726Y-76131595D01*
X48253722Y-76131593D01*
X48047790Y-76046293D01*
X48047783Y-76046291D01*
X48047781Y-76046290D01*
X47832463Y-75988596D01*
X47832457Y-75988595D01*
X47832452Y-75988594D01*
X47611466Y-75959501D01*
X47611463Y-75959500D01*
X47611457Y-75959500D01*
X47388543Y-75959500D01*
X47388537Y-75959500D01*
X47388533Y-75959501D01*
X47167547Y-75988594D01*
X47167540Y-75988595D01*
X47167537Y-75988596D01*
X46952219Y-76046290D01*
X46952209Y-76046293D01*
X46746277Y-76131593D01*
X46746273Y-76131595D01*
X46553226Y-76243052D01*
X46553217Y-76243058D01*
X46376377Y-76378751D01*
X46376370Y-76378757D01*
X46218757Y-76536370D01*
X46218751Y-76536377D01*
X46083058Y-76713217D01*
X46083052Y-76713226D01*
X45971595Y-76906273D01*
X45971593Y-76906277D01*
X45886293Y-77112209D01*
X45886290Y-77112219D01*
X45828597Y-77327534D01*
X45828594Y-77327547D01*
X45799501Y-77548533D01*
X45799500Y-77548549D01*
X40778000Y-77548549D01*
X40778000Y-71646700D01*
X40778001Y-71646679D01*
X40778001Y-71479432D01*
X40746566Y-71321403D01*
X40746565Y-71321402D01*
X40746565Y-71321398D01*
X40708516Y-71229539D01*
X40684905Y-71172536D01*
X40684904Y-71172534D01*
X40630690Y-71091397D01*
X40595380Y-71038552D01*
X40477126Y-70920298D01*
X40477103Y-70920277D01*
X39664331Y-70107505D01*
X39630846Y-70046182D01*
X39629539Y-70000431D01*
X39650500Y-69868092D01*
X39650500Y-69631908D01*
X39650500Y-69631902D01*
X39613553Y-69398631D01*
X39540566Y-69174003D01*
X39433342Y-68963566D01*
X39294517Y-68772490D01*
X39127510Y-68605483D01*
X38936433Y-68466657D01*
X38725996Y-68359433D01*
X38501368Y-68286446D01*
X38268097Y-68249500D01*
X38268092Y-68249500D01*
X38031908Y-68249500D01*
X38031903Y-68249500D01*
X37798631Y-68286446D01*
X37574003Y-68359433D01*
X37363566Y-68466657D01*
X37254550Y-68545862D01*
X37172490Y-68605483D01*
X37172488Y-68605485D01*
X37172487Y-68605485D01*
X37005485Y-68772487D01*
X37005485Y-68772488D01*
X37005483Y-68772490D01*
X36945862Y-68854550D01*
X36866657Y-68963566D01*
X36759433Y-69174003D01*
X36686446Y-69398631D01*
X36649500Y-69631902D01*
X36649500Y-69868097D01*
X36686446Y-70101368D01*
X36759433Y-70325996D01*
X36866657Y-70536433D01*
X37005483Y-70727510D01*
X37172490Y-70894517D01*
X37363567Y-71033343D01*
X37462991Y-71084002D01*
X37574003Y-71140566D01*
X37574005Y-71140566D01*
X37574008Y-71140568D01*
X37672383Y-71172532D01*
X37798631Y-71213553D01*
X38031903Y-71250500D01*
X38031908Y-71250500D01*
X38268090Y-71250500D01*
X38268092Y-71250500D01*
X38400429Y-71229539D01*
X38469719Y-71238493D01*
X38507505Y-71264331D01*
X39105681Y-71862507D01*
X39139166Y-71923830D01*
X39142000Y-71950188D01*
X39142000Y-75372646D01*
X39122315Y-75439685D01*
X39069511Y-75485440D01*
X39000353Y-75495384D01*
X38945115Y-75472965D01*
X38936432Y-75466656D01*
X38725996Y-75359433D01*
X38501368Y-75286446D01*
X38268097Y-75249500D01*
X38268092Y-75249500D01*
X38031908Y-75249500D01*
X38031903Y-75249500D01*
X37798631Y-75286446D01*
X37574003Y-75359433D01*
X37363566Y-75466657D01*
X37304022Y-75509919D01*
X37172490Y-75605483D01*
X37172488Y-75605485D01*
X37172487Y-75605485D01*
X37005485Y-75772487D01*
X37005485Y-75772488D01*
X37005483Y-75772490D01*
X36945862Y-75854550D01*
X36866657Y-75963566D01*
X36759433Y-76174003D01*
X36686446Y-76398631D01*
X36649500Y-76631902D01*
X36649500Y-76868097D01*
X36686446Y-77101368D01*
X36759433Y-77325996D01*
X36866657Y-77536433D01*
X37005483Y-77727510D01*
X37172490Y-77894517D01*
X37363567Y-78033343D01*
X37388000Y-78045792D01*
X37574003Y-78140566D01*
X37574005Y-78140566D01*
X37574008Y-78140568D01*
X37694412Y-78179689D01*
X37798631Y-78213553D01*
X38031903Y-78250500D01*
X38031908Y-78250500D01*
X38268097Y-78250500D01*
X38501368Y-78213553D01*
X38518021Y-78208142D01*
X38725992Y-78140568D01*
X38936433Y-78033343D01*
X38945112Y-78027037D01*
X39010916Y-78003556D01*
X39078970Y-78019378D01*
X39127667Y-78069481D01*
X39142000Y-78127353D01*
X39142000Y-85529529D01*
X39122315Y-85596568D01*
X39069511Y-85642323D01*
X39031256Y-85652818D01*
X39002519Y-85655907D01*
X38867671Y-85706202D01*
X38867664Y-85706206D01*
X38752455Y-85792452D01*
X38752452Y-85792455D01*
X38666206Y-85907664D01*
X38666202Y-85907671D01*
X38615908Y-86042517D01*
X38609501Y-86102116D01*
X38609500Y-86102135D01*
X38609500Y-87897870D01*
X38609501Y-87897876D01*
X38615908Y-87957483D01*
X38666202Y-88092328D01*
X38666206Y-88092335D01*
X38747695Y-88201189D01*
X38772113Y-88266653D01*
X38757262Y-88334926D01*
X38707857Y-88384332D01*
X38648429Y-88399500D01*
X27513453Y-88399500D01*
X27446414Y-88379815D01*
X27400659Y-88327011D01*
X27390715Y-88257853D01*
X27419740Y-88194297D01*
X27457159Y-88165015D01*
X27477555Y-88154622D01*
X27649459Y-88029727D01*
X27649464Y-88029723D01*
X27799723Y-87879464D01*
X27799727Y-87879459D01*
X27924620Y-87707557D01*
X28021095Y-87518217D01*
X28086757Y-87316129D01*
X28086757Y-87316126D01*
X28097231Y-87250000D01*
X27203012Y-87250000D01*
X27235925Y-87192993D01*
X27270000Y-87065826D01*
X27270000Y-86934174D01*
X27235925Y-86807007D01*
X27203012Y-86750000D01*
X28097231Y-86750000D01*
X28086757Y-86683873D01*
X28086757Y-86683870D01*
X28021095Y-86481782D01*
X27924620Y-86292442D01*
X27799727Y-86120540D01*
X27799723Y-86120535D01*
X27649464Y-85970276D01*
X27649459Y-85970272D01*
X27477557Y-85845379D01*
X27288215Y-85748903D01*
X27086124Y-85683241D01*
X27020000Y-85672768D01*
X27020000Y-86566988D01*
X26962993Y-86534075D01*
X26835826Y-86500000D01*
X26704174Y-86500000D01*
X26577007Y-86534075D01*
X26520000Y-86566988D01*
X26520000Y-85672768D01*
X26519999Y-85672768D01*
X26453875Y-85683241D01*
X26251784Y-85748903D01*
X26062442Y-85845379D01*
X25890541Y-85970271D01*
X25776865Y-86083947D01*
X25715542Y-86117431D01*
X25645850Y-86112447D01*
X25589917Y-86070575D01*
X25573002Y-86039598D01*
X25565813Y-86020324D01*
X25523796Y-85907669D01*
X25523795Y-85907668D01*
X25523793Y-85907664D01*
X25437547Y-85792455D01*
X25437544Y-85792452D01*
X25322335Y-85706206D01*
X25322328Y-85706202D01*
X25187482Y-85655908D01*
X25187483Y-85655908D01*
X25158745Y-85652819D01*
X25094194Y-85626081D01*
X25054345Y-85568689D01*
X25048000Y-85529530D01*
X25048000Y-84393713D01*
X31399500Y-84393713D01*
X31399500Y-84606286D01*
X31432753Y-84816239D01*
X31498444Y-85018414D01*
X31594951Y-85207820D01*
X31719890Y-85379786D01*
X31870213Y-85530109D01*
X32042179Y-85655048D01*
X32042181Y-85655049D01*
X32042184Y-85655051D01*
X32231588Y-85751557D01*
X32433757Y-85817246D01*
X32643713Y-85850500D01*
X32643714Y-85850500D01*
X32856286Y-85850500D01*
X32856287Y-85850500D01*
X33066243Y-85817246D01*
X33268412Y-85751557D01*
X33457816Y-85655051D01*
X33497690Y-85626081D01*
X33629786Y-85530109D01*
X33629788Y-85530106D01*
X33629792Y-85530104D01*
X33780104Y-85379792D01*
X33780106Y-85379788D01*
X33780109Y-85379786D01*
X33905048Y-85207820D01*
X33905047Y-85207820D01*
X33905051Y-85207816D01*
X34001557Y-85018412D01*
X34067246Y-84816243D01*
X34100500Y-84606287D01*
X34100500Y-84393713D01*
X34067246Y-84183757D01*
X34001557Y-83981588D01*
X33905051Y-83792184D01*
X33905049Y-83792181D01*
X33905048Y-83792179D01*
X33780109Y-83620213D01*
X33629786Y-83469890D01*
X33457820Y-83344951D01*
X33268414Y-83248444D01*
X33268413Y-83248443D01*
X33268412Y-83248443D01*
X33066243Y-83182754D01*
X33066241Y-83182753D01*
X33066240Y-83182753D01*
X32904957Y-83157208D01*
X32856287Y-83149500D01*
X32643713Y-83149500D01*
X32595042Y-83157208D01*
X32433760Y-83182753D01*
X32231585Y-83248444D01*
X32042179Y-83344951D01*
X31870213Y-83469890D01*
X31719890Y-83620213D01*
X31594951Y-83792179D01*
X31498444Y-83981585D01*
X31432753Y-84183760D01*
X31399500Y-84393713D01*
X25048000Y-84393713D01*
X25048000Y-77548549D01*
X30299500Y-77548549D01*
X30299500Y-77771450D01*
X30299501Y-77771466D01*
X30328594Y-77992452D01*
X30328595Y-77992457D01*
X30328596Y-77992463D01*
X30386290Y-78207780D01*
X30386293Y-78207790D01*
X30471593Y-78413722D01*
X30471595Y-78413726D01*
X30583052Y-78606774D01*
X30583057Y-78606780D01*
X30583058Y-78606782D01*
X30718751Y-78783622D01*
X30718757Y-78783629D01*
X30876370Y-78941242D01*
X30876376Y-78941247D01*
X31053226Y-79076948D01*
X31246274Y-79188405D01*
X31452219Y-79273710D01*
X31667537Y-79331404D01*
X31888543Y-79360500D01*
X31888550Y-79360500D01*
X32111450Y-79360500D01*
X32111457Y-79360500D01*
X32332463Y-79331404D01*
X32547781Y-79273710D01*
X32753726Y-79188405D01*
X32946774Y-79076948D01*
X33123624Y-78941247D01*
X33281247Y-78783624D01*
X33416948Y-78606774D01*
X33528405Y-78413726D01*
X33613710Y-78207781D01*
X33671404Y-77992463D01*
X33700500Y-77771457D01*
X33700500Y-77548543D01*
X33671404Y-77327537D01*
X33613710Y-77112219D01*
X33609215Y-77101368D01*
X33528406Y-76906277D01*
X33528405Y-76906274D01*
X33416948Y-76713226D01*
X33281247Y-76536376D01*
X33281242Y-76536370D01*
X33123629Y-76378757D01*
X33123622Y-76378751D01*
X32946782Y-76243058D01*
X32946780Y-76243057D01*
X32946774Y-76243052D01*
X32753726Y-76131595D01*
X32753722Y-76131593D01*
X32547790Y-76046293D01*
X32547783Y-76046291D01*
X32547781Y-76046290D01*
X32332463Y-75988596D01*
X32332457Y-75988595D01*
X32332452Y-75988594D01*
X32111466Y-75959501D01*
X32111463Y-75959500D01*
X32111457Y-75959500D01*
X31888543Y-75959500D01*
X31888537Y-75959500D01*
X31888533Y-75959501D01*
X31667547Y-75988594D01*
X31667540Y-75988595D01*
X31667537Y-75988596D01*
X31452219Y-76046290D01*
X31452209Y-76046293D01*
X31246277Y-76131593D01*
X31246273Y-76131595D01*
X31053226Y-76243052D01*
X31053217Y-76243058D01*
X30876377Y-76378751D01*
X30876370Y-76378757D01*
X30718757Y-76536370D01*
X30718751Y-76536377D01*
X30583058Y-76713217D01*
X30583052Y-76713226D01*
X30471595Y-76906273D01*
X30471593Y-76906277D01*
X30386293Y-77112209D01*
X30386290Y-77112219D01*
X30328597Y-77327534D01*
X30328594Y-77327547D01*
X30299501Y-77548533D01*
X30299500Y-77548549D01*
X25048000Y-77548549D01*
X25048000Y-71249433D01*
X25047999Y-71249429D01*
X25016566Y-71091405D01*
X25016565Y-71091398D01*
X24957228Y-70948149D01*
X24955584Y-70943551D01*
X24865382Y-70808554D01*
X24865379Y-70808551D01*
X24164331Y-70107504D01*
X24130846Y-70046181D01*
X24129539Y-70000430D01*
X24150500Y-69868092D01*
X24150500Y-69631908D01*
X24150500Y-69631902D01*
X24113553Y-69398631D01*
X24040566Y-69174003D01*
X23933342Y-68963566D01*
X23794517Y-68772490D01*
X23627510Y-68605483D01*
X23436433Y-68466657D01*
X23225996Y-68359433D01*
X23001368Y-68286446D01*
X22768097Y-68249500D01*
X22768092Y-68249500D01*
X22531908Y-68249500D01*
X22531903Y-68249500D01*
X22298631Y-68286446D01*
X22074003Y-68359433D01*
X21863566Y-68466657D01*
X21754550Y-68545862D01*
X21672490Y-68605483D01*
X21672488Y-68605485D01*
X21672487Y-68605485D01*
X21505485Y-68772487D01*
X21505485Y-68772488D01*
X21505483Y-68772490D01*
X21445862Y-68854550D01*
X21366657Y-68963566D01*
X21259433Y-69174003D01*
X21186446Y-69398631D01*
X21149500Y-69631902D01*
X21149500Y-69868097D01*
X21186446Y-70101368D01*
X21259433Y-70325996D01*
X21366657Y-70536433D01*
X21505483Y-70727510D01*
X21672490Y-70894517D01*
X21863567Y-71033343D01*
X21962991Y-71084002D01*
X22074003Y-71140566D01*
X22074005Y-71140566D01*
X22074008Y-71140568D01*
X22172383Y-71172532D01*
X22298631Y-71213553D01*
X22531903Y-71250500D01*
X22531908Y-71250500D01*
X22768090Y-71250500D01*
X22768092Y-71250500D01*
X22900428Y-71229539D01*
X22969717Y-71238493D01*
X23007504Y-71264331D01*
X23375681Y-71632508D01*
X23409166Y-71693831D01*
X23412000Y-71720189D01*
X23412000Y-75251857D01*
X23392315Y-75318896D01*
X23339511Y-75364651D01*
X23270353Y-75374595D01*
X23231712Y-75362345D01*
X23226001Y-75359435D01*
X23001368Y-75286446D01*
X22768097Y-75249500D01*
X22768092Y-75249500D01*
X22531908Y-75249500D01*
X22531903Y-75249500D01*
X22298631Y-75286446D01*
X22074003Y-75359433D01*
X21863566Y-75466657D01*
X21804022Y-75509919D01*
X21672490Y-75605483D01*
X21672488Y-75605485D01*
X21672487Y-75605485D01*
X21505485Y-75772487D01*
X21505485Y-75772488D01*
X21505483Y-75772490D01*
X21445862Y-75854550D01*
X21366657Y-75963566D01*
X21259433Y-76174003D01*
X21186446Y-76398631D01*
X21149500Y-76631902D01*
X21149500Y-76868097D01*
X21186446Y-77101368D01*
X21259433Y-77325996D01*
X21366657Y-77536433D01*
X21505483Y-77727510D01*
X21672490Y-77894517D01*
X21863567Y-78033343D01*
X21888000Y-78045792D01*
X22074003Y-78140566D01*
X22074005Y-78140566D01*
X22074008Y-78140568D01*
X22194412Y-78179689D01*
X22298631Y-78213553D01*
X22531903Y-78250500D01*
X22531908Y-78250500D01*
X22768097Y-78250500D01*
X23001368Y-78213553D01*
X23018021Y-78208142D01*
X23225992Y-78140568D01*
X23231703Y-78137657D01*
X23300372Y-78124761D01*
X23365113Y-78151036D01*
X23405371Y-78208142D01*
X23412000Y-78248142D01*
X23412000Y-85529529D01*
X23392315Y-85596568D01*
X23339511Y-85642323D01*
X23301256Y-85652818D01*
X23272519Y-85655907D01*
X23137671Y-85706202D01*
X23137664Y-85706206D01*
X23022455Y-85792452D01*
X23022452Y-85792455D01*
X22936206Y-85907664D01*
X22936202Y-85907671D01*
X22885908Y-86042517D01*
X22879501Y-86102116D01*
X22879500Y-86102135D01*
X22879500Y-87897870D01*
X22879501Y-87897876D01*
X22885908Y-87957483D01*
X22936202Y-88092328D01*
X22936206Y-88092335D01*
X23017695Y-88201189D01*
X23042113Y-88266653D01*
X23027262Y-88334926D01*
X22977857Y-88384332D01*
X22918429Y-88399500D01*
X20944500Y-88399500D01*
X20877461Y-88379815D01*
X20831706Y-88327011D01*
X20820500Y-88275500D01*
X20820500Y-59921153D01*
X69449500Y-59921153D01*
X69449500Y-60078846D01*
X69480261Y-60233489D01*
X69480264Y-60233501D01*
X69540602Y-60379172D01*
X69540609Y-60379185D01*
X69628210Y-60510288D01*
X69628213Y-60510292D01*
X69739707Y-60621786D01*
X69739711Y-60621789D01*
X69870814Y-60709390D01*
X69870827Y-60709397D01*
X69958230Y-60745599D01*
X70016503Y-60769737D01*
X70049691Y-60776338D01*
X70111600Y-60808721D01*
X70146176Y-60869436D01*
X70149500Y-60897955D01*
X70149500Y-67102044D01*
X70129815Y-67169083D01*
X70077011Y-67214838D01*
X70049691Y-67223661D01*
X70016510Y-67230261D01*
X70016498Y-67230264D01*
X69870827Y-67290602D01*
X69870814Y-67290609D01*
X69739711Y-67378210D01*
X69739707Y-67378213D01*
X69628213Y-67489707D01*
X69628210Y-67489711D01*
X69540609Y-67620814D01*
X69540602Y-67620827D01*
X69480264Y-67766498D01*
X69480261Y-67766510D01*
X69449500Y-67921153D01*
X69449500Y-68078846D01*
X69480261Y-68233489D01*
X69480264Y-68233501D01*
X69540602Y-68379172D01*
X69540609Y-68379185D01*
X69628210Y-68510288D01*
X69628213Y-68510292D01*
X69739707Y-68621786D01*
X69739711Y-68621789D01*
X69870814Y-68709390D01*
X69870827Y-68709397D01*
X70016498Y-68769735D01*
X70016503Y-68769737D01*
X70171153Y-68800499D01*
X70171156Y-68800500D01*
X70171158Y-68800500D01*
X70328844Y-68800500D01*
X70328845Y-68800499D01*
X70483497Y-68769737D01*
X70629179Y-68709394D01*
X70760289Y-68621789D01*
X70871789Y-68510289D01*
X70959394Y-68379179D01*
X71019737Y-68233497D01*
X71035738Y-68153052D01*
X71050638Y-68078151D01*
X71083023Y-68016240D01*
X71084510Y-68014724D01*
X71230520Y-67868716D01*
X71309577Y-67731784D01*
X71350501Y-67579057D01*
X71350501Y-67420942D01*
X71350501Y-67413347D01*
X71350500Y-67413329D01*
X71350500Y-60589060D01*
X71350501Y-60589047D01*
X71350501Y-60420944D01*
X71350501Y-60420943D01*
X71309577Y-60268216D01*
X71309573Y-60268209D01*
X71230524Y-60131290D01*
X71230518Y-60131282D01*
X71084573Y-59985337D01*
X71051088Y-59924014D01*
X71050637Y-59921847D01*
X71019738Y-59766510D01*
X71019737Y-59766503D01*
X71019735Y-59766498D01*
X70959397Y-59620827D01*
X70959390Y-59620814D01*
X70871789Y-59489711D01*
X70871786Y-59489707D01*
X70760292Y-59378213D01*
X70760288Y-59378210D01*
X70629185Y-59290609D01*
X70629172Y-59290602D01*
X70483501Y-59230264D01*
X70483489Y-59230261D01*
X70328845Y-59199500D01*
X70328842Y-59199500D01*
X70171158Y-59199500D01*
X70171155Y-59199500D01*
X70016510Y-59230261D01*
X70016498Y-59230264D01*
X69870827Y-59290602D01*
X69870814Y-59290609D01*
X69739711Y-59378210D01*
X69739707Y-59378213D01*
X69628213Y-59489707D01*
X69628210Y-59489711D01*
X69540609Y-59620814D01*
X69540602Y-59620827D01*
X69480264Y-59766498D01*
X69480261Y-59766510D01*
X69449500Y-59921153D01*
X20820500Y-59921153D01*
X20820500Y-58139778D01*
X21249500Y-58139778D01*
X21249500Y-58360221D01*
X21283985Y-58577952D01*
X21352103Y-58787603D01*
X21352104Y-58787606D01*
X21452187Y-58984025D01*
X21581752Y-59162358D01*
X21581756Y-59162363D01*
X21737636Y-59318243D01*
X21737641Y-59318247D01*
X21820178Y-59378213D01*
X21915978Y-59447815D01*
X21998195Y-59489707D01*
X22112393Y-59547895D01*
X22112396Y-59547896D01*
X22217221Y-59581955D01*
X22322049Y-59616015D01*
X22539778Y-59650500D01*
X22539779Y-59650500D01*
X22760221Y-59650500D01*
X22760222Y-59650500D01*
X22977951Y-59616015D01*
X23187606Y-59547895D01*
X23384022Y-59447815D01*
X23562365Y-59318242D01*
X23718242Y-59162365D01*
X23847815Y-58984022D01*
X23947895Y-58787606D01*
X24016015Y-58577951D01*
X24050500Y-58360222D01*
X24050500Y-58139778D01*
X25949500Y-58139778D01*
X25949500Y-58360221D01*
X25983985Y-58577952D01*
X26052103Y-58787603D01*
X26052104Y-58787606D01*
X26152187Y-58984025D01*
X26281752Y-59162358D01*
X26281756Y-59162363D01*
X26437636Y-59318243D01*
X26437641Y-59318247D01*
X26520178Y-59378213D01*
X26615978Y-59447815D01*
X26698195Y-59489707D01*
X26812393Y-59547895D01*
X26812396Y-59547896D01*
X26917221Y-59581955D01*
X27022049Y-59616015D01*
X27239778Y-59650500D01*
X27239779Y-59650500D01*
X27460221Y-59650500D01*
X27460222Y-59650500D01*
X27677951Y-59616015D01*
X27887606Y-59547895D01*
X28084022Y-59447815D01*
X28262365Y-59318242D01*
X28418242Y-59162365D01*
X28547815Y-58984022D01*
X28647895Y-58787606D01*
X28716015Y-58577951D01*
X28750500Y-58360222D01*
X28750500Y-58139778D01*
X28716015Y-57922049D01*
X28647895Y-57712394D01*
X28647895Y-57712393D01*
X28613237Y-57644375D01*
X28547815Y-57515978D01*
X28480763Y-57423688D01*
X28418247Y-57337641D01*
X28418243Y-57337636D01*
X28262363Y-57181756D01*
X28262358Y-57181752D01*
X28084025Y-57052187D01*
X28084024Y-57052186D01*
X28084022Y-57052185D01*
X27996416Y-57007547D01*
X27887606Y-56952104D01*
X27887603Y-56952103D01*
X27677952Y-56883985D01*
X27569086Y-56866742D01*
X27460222Y-56849500D01*
X27239778Y-56849500D01*
X27167201Y-56860995D01*
X27022047Y-56883985D01*
X26812396Y-56952103D01*
X26812393Y-56952104D01*
X26615974Y-57052187D01*
X26437641Y-57181752D01*
X26437636Y-57181756D01*
X26281756Y-57337636D01*
X26281752Y-57337641D01*
X26152187Y-57515974D01*
X26052104Y-57712393D01*
X26052103Y-57712396D01*
X25983985Y-57922047D01*
X25949500Y-58139778D01*
X24050500Y-58139778D01*
X24016015Y-57922049D01*
X23947895Y-57712394D01*
X23947895Y-57712393D01*
X23913237Y-57644375D01*
X23847815Y-57515978D01*
X23780763Y-57423688D01*
X23718247Y-57337641D01*
X23718243Y-57337636D01*
X23562363Y-57181756D01*
X23562358Y-57181752D01*
X23384025Y-57052187D01*
X23384024Y-57052186D01*
X23384022Y-57052185D01*
X23296416Y-57007547D01*
X23187606Y-56952104D01*
X23187603Y-56952103D01*
X22977952Y-56883985D01*
X22869086Y-56866742D01*
X22760222Y-56849500D01*
X22539778Y-56849500D01*
X22467201Y-56860995D01*
X22322047Y-56883985D01*
X22112396Y-56952103D01*
X22112393Y-56952104D01*
X21915974Y-57052187D01*
X21737641Y-57181752D01*
X21737636Y-57181756D01*
X21581756Y-57337636D01*
X21581752Y-57337641D01*
X21452187Y-57515974D01*
X21352104Y-57712393D01*
X21352103Y-57712396D01*
X21283985Y-57922047D01*
X21249500Y-58139778D01*
X20820500Y-58139778D01*
X20820500Y-53171153D01*
X29699500Y-53171153D01*
X29699500Y-53328846D01*
X29730261Y-53483489D01*
X29730264Y-53483501D01*
X29790602Y-53629172D01*
X29790609Y-53629185D01*
X29878210Y-53760288D01*
X29878213Y-53760292D01*
X29989707Y-53871786D01*
X29989711Y-53871789D01*
X30120814Y-53959390D01*
X30120827Y-53959397D01*
X30266498Y-54019735D01*
X30266503Y-54019737D01*
X30398535Y-54046000D01*
X30421153Y-54050499D01*
X30421156Y-54050500D01*
X30421158Y-54050500D01*
X30578844Y-54050500D01*
X30578845Y-54050499D01*
X30733497Y-54019737D01*
X30879179Y-53959394D01*
X30970466Y-53898398D01*
X31037143Y-53877520D01*
X31039357Y-53877500D01*
X34672693Y-53877500D01*
X34739732Y-53897185D01*
X34785487Y-53949989D01*
X34795431Y-54019147D01*
X34766406Y-54082703D01*
X34720145Y-54116061D01*
X34664536Y-54139094D01*
X34664534Y-54139095D01*
X34530556Y-54228617D01*
X34530552Y-54228620D01*
X32943903Y-55815269D01*
X32882580Y-55848754D01*
X32812888Y-55843770D01*
X32794222Y-55834975D01*
X32753733Y-55811598D01*
X32753722Y-55811593D01*
X32547790Y-55726293D01*
X32547783Y-55726291D01*
X32547781Y-55726290D01*
X32332463Y-55668596D01*
X32332457Y-55668595D01*
X32332452Y-55668594D01*
X32111466Y-55639501D01*
X32111463Y-55639500D01*
X32111457Y-55639500D01*
X31888543Y-55639500D01*
X31888537Y-55639500D01*
X31888533Y-55639501D01*
X31667547Y-55668594D01*
X31667540Y-55668595D01*
X31667537Y-55668596D01*
X31508562Y-55711193D01*
X31452219Y-55726290D01*
X31452209Y-55726293D01*
X31246277Y-55811593D01*
X31246273Y-55811595D01*
X31053226Y-55923052D01*
X31053217Y-55923058D01*
X30876377Y-56058751D01*
X30876370Y-56058757D01*
X30718757Y-56216370D01*
X30718751Y-56216377D01*
X30583058Y-56393217D01*
X30583052Y-56393226D01*
X30471596Y-56586272D01*
X30386293Y-56792209D01*
X30386290Y-56792219D01*
X30343450Y-56952103D01*
X30328597Y-57007534D01*
X30328594Y-57007547D01*
X30299501Y-57228533D01*
X30299500Y-57228549D01*
X30299500Y-57451450D01*
X30299501Y-57451466D01*
X30328594Y-57672452D01*
X30328595Y-57672457D01*
X30328596Y-57672463D01*
X30339296Y-57712396D01*
X30386290Y-57887780D01*
X30386293Y-57887790D01*
X30471593Y-58093722D01*
X30471595Y-58093726D01*
X30583052Y-58286774D01*
X30583057Y-58286780D01*
X30583058Y-58286782D01*
X30718751Y-58463622D01*
X30718757Y-58463629D01*
X30876370Y-58621242D01*
X30876376Y-58621247D01*
X31053226Y-58756948D01*
X31246274Y-58868405D01*
X31452219Y-58953710D01*
X31667537Y-59011404D01*
X31888543Y-59040500D01*
X31888550Y-59040500D01*
X32111450Y-59040500D01*
X32111457Y-59040500D01*
X32332463Y-59011404D01*
X32547781Y-58953710D01*
X32753726Y-58868405D01*
X32946774Y-58756948D01*
X33123624Y-58621247D01*
X33281247Y-58463624D01*
X33416948Y-58286774D01*
X33501817Y-58139778D01*
X36749500Y-58139778D01*
X36749500Y-58360221D01*
X36783985Y-58577952D01*
X36852103Y-58787603D01*
X36852104Y-58787606D01*
X36952187Y-58984025D01*
X37081752Y-59162358D01*
X37081756Y-59162363D01*
X37237636Y-59318243D01*
X37237641Y-59318247D01*
X37320178Y-59378213D01*
X37415978Y-59447815D01*
X37498195Y-59489707D01*
X37612393Y-59547895D01*
X37612396Y-59547896D01*
X37717221Y-59581955D01*
X37822049Y-59616015D01*
X38039778Y-59650500D01*
X38039779Y-59650500D01*
X38260221Y-59650500D01*
X38260222Y-59650500D01*
X38477951Y-59616015D01*
X38687606Y-59547895D01*
X38884022Y-59447815D01*
X39062365Y-59318242D01*
X39218242Y-59162365D01*
X39347815Y-58984022D01*
X39447895Y-58787606D01*
X39516015Y-58577951D01*
X39550500Y-58360222D01*
X39550500Y-58139778D01*
X41449500Y-58139778D01*
X41449500Y-58360221D01*
X41483985Y-58577952D01*
X41552103Y-58787603D01*
X41552104Y-58787606D01*
X41652187Y-58984025D01*
X41781752Y-59162358D01*
X41781756Y-59162363D01*
X41937636Y-59318243D01*
X41937641Y-59318247D01*
X42020178Y-59378213D01*
X42115978Y-59447815D01*
X42198195Y-59489707D01*
X42312393Y-59547895D01*
X42312396Y-59547896D01*
X42417221Y-59581955D01*
X42522049Y-59616015D01*
X42739778Y-59650500D01*
X42739779Y-59650500D01*
X42960221Y-59650500D01*
X42960222Y-59650500D01*
X43177951Y-59616015D01*
X43387606Y-59547895D01*
X43584022Y-59447815D01*
X43762365Y-59318242D01*
X43918242Y-59162365D01*
X44047815Y-58984022D01*
X44147895Y-58787606D01*
X44216015Y-58577951D01*
X44250500Y-58360222D01*
X44250500Y-58139778D01*
X44216015Y-57922049D01*
X44147895Y-57712394D01*
X44147895Y-57712393D01*
X44113237Y-57644375D01*
X44047815Y-57515978D01*
X43980763Y-57423688D01*
X43918247Y-57337641D01*
X43918243Y-57337636D01*
X43809156Y-57228549D01*
X45799500Y-57228549D01*
X45799500Y-57451450D01*
X45799501Y-57451466D01*
X45828594Y-57672452D01*
X45828595Y-57672457D01*
X45828596Y-57672463D01*
X45839296Y-57712396D01*
X45886290Y-57887780D01*
X45886293Y-57887790D01*
X45971593Y-58093722D01*
X45971595Y-58093726D01*
X46083052Y-58286774D01*
X46083057Y-58286780D01*
X46083058Y-58286782D01*
X46218751Y-58463622D01*
X46218757Y-58463629D01*
X46376370Y-58621242D01*
X46376376Y-58621247D01*
X46553226Y-58756948D01*
X46746274Y-58868405D01*
X46952219Y-58953710D01*
X47167537Y-59011404D01*
X47388543Y-59040500D01*
X47388550Y-59040500D01*
X47611450Y-59040500D01*
X47611457Y-59040500D01*
X47832463Y-59011404D01*
X48047781Y-58953710D01*
X48253726Y-58868405D01*
X48446774Y-58756948D01*
X48623624Y-58621247D01*
X48781247Y-58463624D01*
X48916948Y-58286774D01*
X49001817Y-58139778D01*
X52249500Y-58139778D01*
X52249500Y-58360221D01*
X52283985Y-58577952D01*
X52352103Y-58787603D01*
X52352104Y-58787606D01*
X52452187Y-58984025D01*
X52581752Y-59162358D01*
X52581756Y-59162363D01*
X52737636Y-59318243D01*
X52737641Y-59318247D01*
X52820178Y-59378213D01*
X52915978Y-59447815D01*
X52998195Y-59489707D01*
X53112393Y-59547895D01*
X53112396Y-59547896D01*
X53217221Y-59581955D01*
X53322049Y-59616015D01*
X53539778Y-59650500D01*
X53539779Y-59650500D01*
X53760221Y-59650500D01*
X53760222Y-59650500D01*
X53977951Y-59616015D01*
X54187606Y-59547895D01*
X54384022Y-59447815D01*
X54562365Y-59318242D01*
X54718242Y-59162365D01*
X54847815Y-58984022D01*
X54947895Y-58787606D01*
X55016015Y-58577951D01*
X55050500Y-58360222D01*
X55050500Y-58139778D01*
X56949500Y-58139778D01*
X56949500Y-58360221D01*
X56983985Y-58577952D01*
X57052103Y-58787603D01*
X57052104Y-58787606D01*
X57152187Y-58984025D01*
X57281752Y-59162358D01*
X57281756Y-59162363D01*
X57437636Y-59318243D01*
X57437641Y-59318247D01*
X57520178Y-59378213D01*
X57615978Y-59447815D01*
X57698195Y-59489707D01*
X57812393Y-59547895D01*
X57812396Y-59547896D01*
X57917221Y-59581955D01*
X58022049Y-59616015D01*
X58239778Y-59650500D01*
X58239779Y-59650500D01*
X58460221Y-59650500D01*
X58460222Y-59650500D01*
X58677951Y-59616015D01*
X58887606Y-59547895D01*
X59084022Y-59447815D01*
X59262365Y-59318242D01*
X59418242Y-59162365D01*
X59547815Y-58984022D01*
X59647895Y-58787606D01*
X59716015Y-58577951D01*
X59750500Y-58360222D01*
X59750500Y-58139778D01*
X59716015Y-57922049D01*
X59647895Y-57712394D01*
X59647895Y-57712393D01*
X59613237Y-57644375D01*
X59547815Y-57515978D01*
X59480763Y-57423688D01*
X59418247Y-57337641D01*
X59418243Y-57337636D01*
X59309156Y-57228549D01*
X61299500Y-57228549D01*
X61299500Y-57451450D01*
X61299501Y-57451466D01*
X61328594Y-57672452D01*
X61328595Y-57672457D01*
X61328596Y-57672463D01*
X61339296Y-57712396D01*
X61386290Y-57887780D01*
X61386293Y-57887790D01*
X61471593Y-58093722D01*
X61471595Y-58093726D01*
X61583052Y-58286774D01*
X61583057Y-58286780D01*
X61583058Y-58286782D01*
X61718751Y-58463622D01*
X61718757Y-58463629D01*
X61876370Y-58621242D01*
X61876376Y-58621247D01*
X62053226Y-58756948D01*
X62246274Y-58868405D01*
X62452219Y-58953710D01*
X62667537Y-59011404D01*
X62888543Y-59040500D01*
X62888550Y-59040500D01*
X63111450Y-59040500D01*
X63111457Y-59040500D01*
X63332463Y-59011404D01*
X63547781Y-58953710D01*
X63753726Y-58868405D01*
X63946774Y-58756948D01*
X64123624Y-58621247D01*
X64281247Y-58463624D01*
X64416948Y-58286774D01*
X64528405Y-58093726D01*
X64613710Y-57887781D01*
X64671404Y-57672463D01*
X64700500Y-57451457D01*
X64700500Y-57228543D01*
X64671404Y-57007537D01*
X64613710Y-56792219D01*
X64528405Y-56586274D01*
X64416948Y-56393226D01*
X64281247Y-56216376D01*
X64281242Y-56216370D01*
X64123629Y-56058757D01*
X64123622Y-56058751D01*
X63946782Y-55923058D01*
X63946780Y-55923057D01*
X63946774Y-55923052D01*
X63753726Y-55811595D01*
X63753722Y-55811593D01*
X63547790Y-55726293D01*
X63547783Y-55726291D01*
X63547781Y-55726290D01*
X63332463Y-55668596D01*
X63332457Y-55668595D01*
X63332452Y-55668594D01*
X63111466Y-55639501D01*
X63111463Y-55639500D01*
X63111457Y-55639500D01*
X62888543Y-55639500D01*
X62888537Y-55639500D01*
X62888533Y-55639501D01*
X62667547Y-55668594D01*
X62667540Y-55668595D01*
X62667537Y-55668596D01*
X62508562Y-55711193D01*
X62452219Y-55726290D01*
X62452209Y-55726293D01*
X62246277Y-55811593D01*
X62246273Y-55811595D01*
X62053226Y-55923052D01*
X62053217Y-55923058D01*
X61876377Y-56058751D01*
X61876370Y-56058757D01*
X61718757Y-56216370D01*
X61718751Y-56216377D01*
X61583058Y-56393217D01*
X61583052Y-56393226D01*
X61471596Y-56586272D01*
X61386293Y-56792209D01*
X61386290Y-56792219D01*
X61343450Y-56952103D01*
X61328597Y-57007534D01*
X61328594Y-57007547D01*
X61299501Y-57228533D01*
X61299500Y-57228549D01*
X59309156Y-57228549D01*
X59262363Y-57181756D01*
X59262358Y-57181752D01*
X59084025Y-57052187D01*
X59084024Y-57052186D01*
X59084022Y-57052185D01*
X58996416Y-57007547D01*
X58887606Y-56952104D01*
X58887603Y-56952103D01*
X58677952Y-56883985D01*
X58569086Y-56866742D01*
X58460222Y-56849500D01*
X58239778Y-56849500D01*
X58167201Y-56860995D01*
X58022047Y-56883985D01*
X57812396Y-56952103D01*
X57812393Y-56952104D01*
X57615974Y-57052187D01*
X57437641Y-57181752D01*
X57437636Y-57181756D01*
X57281756Y-57337636D01*
X57281752Y-57337641D01*
X57152187Y-57515974D01*
X57052104Y-57712393D01*
X57052103Y-57712396D01*
X56983985Y-57922047D01*
X56949500Y-58139778D01*
X55050500Y-58139778D01*
X55016015Y-57922049D01*
X54947895Y-57712394D01*
X54947895Y-57712393D01*
X54913237Y-57644375D01*
X54847815Y-57515978D01*
X54780763Y-57423688D01*
X54718247Y-57337641D01*
X54718243Y-57337636D01*
X54562363Y-57181756D01*
X54562358Y-57181752D01*
X54384025Y-57052187D01*
X54384024Y-57052186D01*
X54384022Y-57052185D01*
X54296416Y-57007547D01*
X54187606Y-56952104D01*
X54187603Y-56952103D01*
X53977952Y-56883985D01*
X53869086Y-56866742D01*
X53760222Y-56849500D01*
X53539778Y-56849500D01*
X53467201Y-56860995D01*
X53322047Y-56883985D01*
X53112396Y-56952103D01*
X53112393Y-56952104D01*
X52915974Y-57052187D01*
X52737641Y-57181752D01*
X52737636Y-57181756D01*
X52581756Y-57337636D01*
X52581752Y-57337641D01*
X52452187Y-57515974D01*
X52352104Y-57712393D01*
X52352103Y-57712396D01*
X52283985Y-57922047D01*
X52249500Y-58139778D01*
X49001817Y-58139778D01*
X49028405Y-58093726D01*
X49031005Y-58087450D01*
X49031006Y-58087448D01*
X49113704Y-57887796D01*
X49113706Y-57887790D01*
X49113710Y-57887781D01*
X49171404Y-57672463D01*
X49200500Y-57451457D01*
X49200500Y-57228543D01*
X49171404Y-57007537D01*
X49113710Y-56792219D01*
X49028405Y-56586274D01*
X48916948Y-56393226D01*
X48781247Y-56216376D01*
X48781242Y-56216370D01*
X48623629Y-56058757D01*
X48623622Y-56058751D01*
X48446782Y-55923058D01*
X48446780Y-55923057D01*
X48446774Y-55923052D01*
X48253726Y-55811595D01*
X48253722Y-55811593D01*
X48047790Y-55726293D01*
X48047783Y-55726291D01*
X48047781Y-55726290D01*
X47832463Y-55668596D01*
X47832457Y-55668595D01*
X47832452Y-55668594D01*
X47611466Y-55639501D01*
X47611463Y-55639500D01*
X47611457Y-55639500D01*
X47388543Y-55639500D01*
X47388537Y-55639500D01*
X47388533Y-55639501D01*
X47167547Y-55668594D01*
X47167540Y-55668595D01*
X47167537Y-55668596D01*
X47008562Y-55711193D01*
X46952219Y-55726290D01*
X46952209Y-55726293D01*
X46746277Y-55811593D01*
X46746273Y-55811595D01*
X46553226Y-55923052D01*
X46553217Y-55923058D01*
X46376377Y-56058751D01*
X46376370Y-56058757D01*
X46218757Y-56216370D01*
X46218751Y-56216377D01*
X46083058Y-56393217D01*
X46083052Y-56393226D01*
X45971596Y-56586272D01*
X45886293Y-56792209D01*
X45886290Y-56792219D01*
X45843450Y-56952103D01*
X45828597Y-57007534D01*
X45828594Y-57007547D01*
X45799501Y-57228533D01*
X45799500Y-57228549D01*
X43809156Y-57228549D01*
X43762363Y-57181756D01*
X43762358Y-57181752D01*
X43584025Y-57052187D01*
X43584024Y-57052186D01*
X43584022Y-57052185D01*
X43496416Y-57007547D01*
X43387606Y-56952104D01*
X43387603Y-56952103D01*
X43177952Y-56883985D01*
X43069086Y-56866742D01*
X42960222Y-56849500D01*
X42739778Y-56849500D01*
X42667201Y-56860995D01*
X42522047Y-56883985D01*
X42312396Y-56952103D01*
X42312393Y-56952104D01*
X42115974Y-57052187D01*
X41937641Y-57181752D01*
X41937636Y-57181756D01*
X41781756Y-57337636D01*
X41781752Y-57337641D01*
X41652187Y-57515974D01*
X41552104Y-57712393D01*
X41552103Y-57712396D01*
X41483985Y-57922047D01*
X41449500Y-58139778D01*
X39550500Y-58139778D01*
X39516015Y-57922049D01*
X39447895Y-57712394D01*
X39447895Y-57712393D01*
X39413237Y-57644375D01*
X39347815Y-57515978D01*
X39280763Y-57423688D01*
X39218247Y-57337641D01*
X39218243Y-57337636D01*
X39062363Y-57181756D01*
X39062358Y-57181752D01*
X38884025Y-57052187D01*
X38884024Y-57052186D01*
X38884022Y-57052185D01*
X38796416Y-57007547D01*
X38687606Y-56952104D01*
X38687603Y-56952103D01*
X38477952Y-56883985D01*
X38369086Y-56866742D01*
X38260222Y-56849500D01*
X38039778Y-56849500D01*
X37967201Y-56860995D01*
X37822047Y-56883985D01*
X37612396Y-56952103D01*
X37612393Y-56952104D01*
X37415974Y-57052187D01*
X37237641Y-57181752D01*
X37237636Y-57181756D01*
X37081756Y-57337636D01*
X37081752Y-57337641D01*
X36952187Y-57515974D01*
X36852104Y-57712393D01*
X36852103Y-57712396D01*
X36783985Y-57922047D01*
X36749500Y-58139778D01*
X33501817Y-58139778D01*
X33528405Y-58093726D01*
X33531005Y-58087450D01*
X33531006Y-58087448D01*
X33613704Y-57887796D01*
X33613706Y-57887790D01*
X33613710Y-57887781D01*
X33671404Y-57672463D01*
X33700500Y-57451457D01*
X33700500Y-57423688D01*
X33720185Y-57356649D01*
X33736819Y-57336007D01*
X35687379Y-55385447D01*
X35687382Y-55385444D01*
X35776903Y-55251468D01*
X35838565Y-55102602D01*
X35838996Y-55100438D01*
X35869999Y-54944569D01*
X35870000Y-54944566D01*
X35870000Y-54783433D01*
X35869999Y-54783429D01*
X35838567Y-54625405D01*
X35838564Y-54625396D01*
X35836671Y-54620827D01*
X35799923Y-54532107D01*
X35776905Y-54476535D01*
X35776904Y-54476533D01*
X35739218Y-54420133D01*
X35687382Y-54342555D01*
X35687379Y-54342551D01*
X35573448Y-54228620D01*
X35573444Y-54228617D01*
X35439469Y-54139097D01*
X35426719Y-54133816D01*
X35383852Y-54116060D01*
X35329451Y-54072221D01*
X35307386Y-54005927D01*
X35324665Y-53938228D01*
X35375801Y-53890617D01*
X35431307Y-53877500D01*
X44561804Y-53877500D01*
X44561805Y-53877499D01*
X44683035Y-53853386D01*
X44785200Y-53811067D01*
X44797233Y-53806083D01*
X44900008Y-53737411D01*
X44987411Y-53650008D01*
X48062328Y-50575089D01*
X48123649Y-50541606D01*
X48125648Y-50541189D01*
X48233497Y-50519737D01*
X48379179Y-50459394D01*
X48510289Y-50371789D01*
X48621789Y-50260289D01*
X48709394Y-50129179D01*
X48769737Y-49983497D01*
X48800500Y-49828842D01*
X48800500Y-49671158D01*
X48800500Y-49671155D01*
X48800499Y-49671153D01*
X48781254Y-49574402D01*
X48769737Y-49516503D01*
X48743762Y-49453793D01*
X48709397Y-49370827D01*
X48709390Y-49370814D01*
X48621789Y-49239711D01*
X48621786Y-49239707D01*
X48510292Y-49128213D01*
X48510288Y-49128210D01*
X48379185Y-49040609D01*
X48379172Y-49040602D01*
X48233501Y-48980264D01*
X48233489Y-48980261D01*
X48078845Y-48949500D01*
X48078842Y-48949500D01*
X47921158Y-48949500D01*
X47921155Y-48949500D01*
X47766510Y-48980261D01*
X47766498Y-48980264D01*
X47620827Y-49040602D01*
X47620814Y-49040609D01*
X47489711Y-49128210D01*
X47489707Y-49128213D01*
X47378213Y-49239707D01*
X47378210Y-49239711D01*
X47290609Y-49370814D01*
X47290602Y-49370827D01*
X47230264Y-49516498D01*
X47230261Y-49516508D01*
X47208843Y-49624183D01*
X47176458Y-49686094D01*
X47174907Y-49687672D01*
X44276400Y-52586181D01*
X44215077Y-52619666D01*
X44188719Y-52622500D01*
X31039357Y-52622500D01*
X30972318Y-52602815D01*
X30970466Y-52601602D01*
X30879185Y-52540609D01*
X30879172Y-52540602D01*
X30733501Y-52480264D01*
X30733489Y-52480261D01*
X30578845Y-52449500D01*
X30578842Y-52449500D01*
X30421158Y-52449500D01*
X30421155Y-52449500D01*
X30266510Y-52480261D01*
X30266498Y-52480264D01*
X30120827Y-52540602D01*
X30120814Y-52540609D01*
X29989711Y-52628210D01*
X29989707Y-52628213D01*
X29878213Y-52739707D01*
X29878210Y-52739711D01*
X29790609Y-52870814D01*
X29790602Y-52870827D01*
X29730264Y-53016498D01*
X29730261Y-53016510D01*
X29699500Y-53171153D01*
X20820500Y-53171153D01*
X20820500Y-42171153D01*
X25699500Y-42171153D01*
X25699500Y-42328846D01*
X25730261Y-42483489D01*
X25730264Y-42483501D01*
X25790602Y-42629172D01*
X25790609Y-42629185D01*
X25878210Y-42760288D01*
X25878213Y-42760292D01*
X25989707Y-42871786D01*
X25989711Y-42871789D01*
X26120814Y-42959390D01*
X26120827Y-42959397D01*
X26251066Y-43013343D01*
X26266503Y-43019737D01*
X26334963Y-43033354D01*
X26419024Y-43050076D01*
X26480935Y-43082461D01*
X26482514Y-43084012D01*
X31630302Y-48231800D01*
X31630303Y-48231801D01*
X31630305Y-48231802D01*
X31659130Y-48248444D01*
X31767599Y-48311068D01*
X31920732Y-48352100D01*
X31920735Y-48352100D01*
X53579266Y-48352100D01*
X53579268Y-48352100D01*
X53732402Y-48311067D01*
X53869698Y-48231800D01*
X53981800Y-48119698D01*
X54767487Y-47334010D01*
X54828808Y-47300527D01*
X54830975Y-47300076D01*
X54880334Y-47290257D01*
X54983497Y-47269737D01*
X55129179Y-47209394D01*
X55260289Y-47121789D01*
X55371789Y-47010289D01*
X55459394Y-46879179D01*
X55519737Y-46733497D01*
X55550500Y-46578842D01*
X55550500Y-46421158D01*
X55550500Y-46421155D01*
X55550499Y-46421153D01*
X55550076Y-46419025D01*
X55519737Y-46266503D01*
X55502506Y-46224904D01*
X55459397Y-46120827D01*
X55459390Y-46120814D01*
X55371789Y-45989711D01*
X55371786Y-45989707D01*
X55260292Y-45878213D01*
X55260288Y-45878210D01*
X55129185Y-45790609D01*
X55129172Y-45790602D01*
X54983501Y-45730264D01*
X54983489Y-45730261D01*
X54828845Y-45699500D01*
X54828842Y-45699500D01*
X54671158Y-45699500D01*
X54671155Y-45699500D01*
X54516510Y-45730261D01*
X54516498Y-45730264D01*
X54370827Y-45790602D01*
X54370814Y-45790609D01*
X54239711Y-45878210D01*
X54239707Y-45878213D01*
X54128213Y-45989707D01*
X54128210Y-45989711D01*
X54040609Y-46120814D01*
X54040602Y-46120827D01*
X53980264Y-46266498D01*
X53980261Y-46266508D01*
X53949923Y-46419025D01*
X53917538Y-46480936D01*
X53915987Y-46482514D01*
X53286921Y-47111581D01*
X53225598Y-47145066D01*
X53199240Y-47147900D01*
X32300760Y-47147900D01*
X32233721Y-47128215D01*
X32213079Y-47111581D01*
X27334012Y-42232514D01*
X27300527Y-42171191D01*
X27300076Y-42169024D01*
X27269738Y-42016510D01*
X27269737Y-42016503D01*
X27222812Y-41903215D01*
X27209397Y-41870827D01*
X27209390Y-41870814D01*
X27121789Y-41739711D01*
X27121786Y-41739707D01*
X27010292Y-41628213D01*
X27010288Y-41628210D01*
X26879185Y-41540609D01*
X26879172Y-41540602D01*
X26733501Y-41480264D01*
X26733489Y-41480261D01*
X26578845Y-41449500D01*
X26578842Y-41449500D01*
X26421158Y-41449500D01*
X26421155Y-41449500D01*
X26266510Y-41480261D01*
X26266498Y-41480264D01*
X26120827Y-41540602D01*
X26120814Y-41540609D01*
X25989711Y-41628210D01*
X25989707Y-41628213D01*
X25878213Y-41739707D01*
X25878210Y-41739711D01*
X25790609Y-41870814D01*
X25790602Y-41870827D01*
X25730264Y-42016498D01*
X25730261Y-42016510D01*
X25699500Y-42171153D01*
X20820500Y-42171153D01*
X20820500Y-41565446D01*
X20840185Y-41498407D01*
X20892989Y-41452652D01*
X20962147Y-41442708D01*
X21025703Y-41471733D01*
X21053332Y-41506018D01*
X21056649Y-41512093D01*
X21142809Y-41627187D01*
X21142812Y-41627190D01*
X21257906Y-41713350D01*
X21257913Y-41713354D01*
X21392620Y-41763596D01*
X21392627Y-41763598D01*
X21452155Y-41769999D01*
X21452172Y-41770000D01*
X22250000Y-41770000D01*
X22250000Y-40818482D01*
X22268409Y-40829111D01*
X22421009Y-40870000D01*
X22578991Y-40870000D01*
X22731591Y-40829111D01*
X22750000Y-40818482D01*
X22750000Y-41770000D01*
X23547828Y-41770000D01*
X23547844Y-41769999D01*
X23607372Y-41763598D01*
X23607379Y-41763596D01*
X23742086Y-41713354D01*
X23742093Y-41713350D01*
X23857187Y-41627190D01*
X23857190Y-41627187D01*
X23943350Y-41512093D01*
X23943354Y-41512086D01*
X23993596Y-41377379D01*
X23993598Y-41377372D01*
X23999999Y-41317844D01*
X24000000Y-41317827D01*
X24000000Y-40520000D01*
X23048482Y-40520000D01*
X23059111Y-40501591D01*
X23100000Y-40348991D01*
X23100000Y-40191009D01*
X23059111Y-40038409D01*
X23048482Y-40020000D01*
X24000000Y-40020000D01*
X24000000Y-39222172D01*
X23999999Y-39222155D01*
X23993598Y-39162627D01*
X23993596Y-39162620D01*
X23943354Y-39027913D01*
X23943350Y-39027906D01*
X23857190Y-38912812D01*
X23857187Y-38912809D01*
X23742093Y-38826649D01*
X23734304Y-38822396D01*
X23736067Y-38819166D01*
X23694034Y-38787557D01*
X23669760Y-38722040D01*
X23684761Y-38653799D01*
X23693140Y-38640585D01*
X23783343Y-38516433D01*
X23845872Y-38393713D01*
X46149500Y-38393713D01*
X46149500Y-38606286D01*
X46180995Y-38805142D01*
X46182754Y-38816243D01*
X46240512Y-38994004D01*
X46248444Y-39018414D01*
X46344951Y-39207820D01*
X46469890Y-39379786D01*
X46620213Y-39530109D01*
X46792179Y-39655048D01*
X46792181Y-39655049D01*
X46792184Y-39655051D01*
X46981588Y-39751557D01*
X47183757Y-39817246D01*
X47393713Y-39850500D01*
X47393714Y-39850500D01*
X47606286Y-39850500D01*
X47606287Y-39850500D01*
X47816243Y-39817246D01*
X48018412Y-39751557D01*
X48207816Y-39655051D01*
X48312707Y-39578844D01*
X48379786Y-39530109D01*
X48379788Y-39530106D01*
X48379792Y-39530104D01*
X48530104Y-39379792D01*
X48530106Y-39379788D01*
X48530109Y-39379786D01*
X48655048Y-39207820D01*
X48655047Y-39207820D01*
X48655051Y-39207816D01*
X48751557Y-39018412D01*
X48817246Y-38816243D01*
X48850500Y-38606287D01*
X48850500Y-38393713D01*
X48817246Y-38183757D01*
X48751557Y-37981588D01*
X48655051Y-37792184D01*
X48655049Y-37792181D01*
X48655048Y-37792179D01*
X48530109Y-37620213D01*
X48379786Y-37469890D01*
X48207820Y-37344951D01*
X48018414Y-37248444D01*
X48018413Y-37248443D01*
X48018412Y-37248443D01*
X47816243Y-37182754D01*
X47816241Y-37182753D01*
X47816240Y-37182753D01*
X47634749Y-37154008D01*
X47606287Y-37149500D01*
X47393713Y-37149500D01*
X47365251Y-37154008D01*
X47183760Y-37182753D01*
X46981585Y-37248444D01*
X46792179Y-37344951D01*
X46620213Y-37469890D01*
X46469890Y-37620213D01*
X46344951Y-37792179D01*
X46248444Y-37981585D01*
X46182753Y-38183760D01*
X46149500Y-38393713D01*
X23845872Y-38393713D01*
X23890568Y-38305992D01*
X23963553Y-38081368D01*
X23973619Y-38017816D01*
X24000500Y-37848097D01*
X24000500Y-37611902D01*
X23963553Y-37378631D01*
X23890566Y-37154003D01*
X23817341Y-37010292D01*
X23783343Y-36943567D01*
X23644517Y-36752490D01*
X23477510Y-36585483D01*
X23286433Y-36446657D01*
X23254150Y-36430208D01*
X23075996Y-36339433D01*
X22851368Y-36266446D01*
X22618097Y-36229500D01*
X22618092Y-36229500D01*
X22381908Y-36229500D01*
X22381903Y-36229500D01*
X22148631Y-36266446D01*
X21924003Y-36339433D01*
X21713566Y-36446657D01*
X21638407Y-36501264D01*
X21522490Y-36585483D01*
X21522488Y-36585485D01*
X21522487Y-36585485D01*
X21355485Y-36752487D01*
X21355485Y-36752488D01*
X21355483Y-36752490D01*
X21327079Y-36791585D01*
X21216657Y-36943566D01*
X21109433Y-37154003D01*
X21062431Y-37298661D01*
X21022993Y-37356336D01*
X20958634Y-37383534D01*
X20889788Y-37371619D01*
X20838312Y-37324375D01*
X20820500Y-37260342D01*
X20820500Y-35039327D01*
X24208784Y-35039327D01*
X24208784Y-35236172D01*
X24239574Y-35430576D01*
X24300401Y-35617779D01*
X24359836Y-35734426D01*
X24389760Y-35793155D01*
X24505456Y-35952396D01*
X24644638Y-36091578D01*
X24803879Y-36207274D01*
X24886739Y-36249493D01*
X24979254Y-36296632D01*
X24979256Y-36296632D01*
X24979259Y-36296634D01*
X25068988Y-36325789D01*
X25166457Y-36357459D01*
X25360862Y-36388250D01*
X25360867Y-36388250D01*
X27857706Y-36388250D01*
X28052110Y-36357459D01*
X28239309Y-36296634D01*
X28414689Y-36207274D01*
X28573930Y-36091578D01*
X28713112Y-35952396D01*
X28828808Y-35793155D01*
X28918168Y-35617775D01*
X28978993Y-35430576D01*
X29009784Y-35236172D01*
X29009784Y-35039327D01*
X28978993Y-34844923D01*
X28946905Y-34746168D01*
X28918168Y-34657725D01*
X28918166Y-34657722D01*
X28918166Y-34657720D01*
X28828807Y-34482344D01*
X28713112Y-34323104D01*
X28573930Y-34183922D01*
X28414689Y-34068226D01*
X28402821Y-34062179D01*
X28239313Y-33978867D01*
X28052110Y-33918040D01*
X27857706Y-33887250D01*
X27857701Y-33887250D01*
X25360867Y-33887250D01*
X25360862Y-33887250D01*
X25166457Y-33918040D01*
X24979254Y-33978867D01*
X24803878Y-34068226D01*
X24713025Y-34134235D01*
X24644638Y-34183922D01*
X24644636Y-34183924D01*
X24644635Y-34183924D01*
X24505458Y-34323101D01*
X24505458Y-34323102D01*
X24505456Y-34323104D01*
X24455769Y-34391491D01*
X24389760Y-34482344D01*
X24300401Y-34657720D01*
X24239574Y-34844923D01*
X24208784Y-35039327D01*
X20820500Y-35039327D01*
X20820500Y-34517094D01*
X20840185Y-34450055D01*
X20892989Y-34404300D01*
X20962147Y-34394356D01*
X21025703Y-34423381D01*
X21032181Y-34429413D01*
X21143962Y-34541194D01*
X21303140Y-34656845D01*
X21478446Y-34746168D01*
X21665567Y-34806968D01*
X21708284Y-34813734D01*
X21708284Y-33863027D01*
X21784590Y-33907083D01*
X21899040Y-33937750D01*
X22017528Y-33937750D01*
X22131978Y-33907083D01*
X22208284Y-33863027D01*
X22208284Y-34813733D01*
X22251000Y-34806968D01*
X22438121Y-34746168D01*
X22613427Y-34656845D01*
X22772605Y-34541194D01*
X22911728Y-34402071D01*
X23027379Y-34242893D01*
X23116702Y-34067585D01*
X23177505Y-33880455D01*
X23208284Y-33686132D01*
X23208284Y-32887750D01*
X22408284Y-32887750D01*
X22408284Y-32387750D01*
X23208284Y-32387750D01*
X23208284Y-31589367D01*
X23177505Y-31395044D01*
X23116701Y-31207911D01*
X23077353Y-31130684D01*
X23077352Y-31130683D01*
X23027379Y-31032606D01*
X22911728Y-30873428D01*
X22772605Y-30734305D01*
X22613427Y-30618654D01*
X22438119Y-30529331D01*
X22250989Y-30468528D01*
X22208284Y-30461764D01*
X22208284Y-31412472D01*
X22131978Y-31368417D01*
X22017528Y-31337750D01*
X21899040Y-31337750D01*
X21784590Y-31368417D01*
X21708284Y-31412472D01*
X21708284Y-30461764D01*
X21708283Y-30461764D01*
X21665578Y-30468528D01*
X21478448Y-30529331D01*
X21303140Y-30618654D01*
X21143962Y-30734305D01*
X21143961Y-30734306D01*
X21032181Y-30846087D01*
X20970858Y-30879572D01*
X20901166Y-30874588D01*
X20845233Y-30832716D01*
X20820816Y-30767252D01*
X20820500Y-30758406D01*
X20820500Y-28887750D01*
X24233300Y-28887750D01*
X25134006Y-28887750D01*
X25089951Y-28964056D01*
X25059284Y-29078506D01*
X25059284Y-29196994D01*
X25089951Y-29311444D01*
X25134006Y-29387750D01*
X24233300Y-29387750D01*
X24240065Y-29430466D01*
X24300865Y-29617587D01*
X24390188Y-29792893D01*
X24505839Y-29952071D01*
X24644962Y-30091194D01*
X24804140Y-30206845D01*
X24979448Y-30296168D01*
X25166578Y-30356971D01*
X25360902Y-30387750D01*
X26359284Y-30387750D01*
X26359284Y-29587750D01*
X26859284Y-29587750D01*
X26859284Y-30387750D01*
X27857666Y-30387750D01*
X28051989Y-30356971D01*
X28158605Y-30322329D01*
X37125000Y-30322329D01*
X37125000Y-30625750D01*
X37875000Y-30625750D01*
X37875000Y-31125750D01*
X37125000Y-31125750D01*
X37125000Y-31429170D01*
X37165348Y-31632016D01*
X37165350Y-31632024D01*
X37244500Y-31823108D01*
X37244505Y-31823118D01*
X37359410Y-31995085D01*
X37359413Y-31995089D01*
X37505660Y-32141336D01*
X37505664Y-32141339D01*
X37677631Y-32256244D01*
X37677641Y-32256249D01*
X37868723Y-32335398D01*
X37868725Y-32335399D01*
X37925000Y-32346592D01*
X37925000Y-31492738D01*
X37934940Y-31509955D01*
X37990795Y-31565810D01*
X38059204Y-31605306D01*
X38135504Y-31625750D01*
X38214496Y-31625750D01*
X38290796Y-31605306D01*
X38359205Y-31565810D01*
X38415060Y-31509955D01*
X38425000Y-31492738D01*
X38425000Y-32346592D01*
X38481274Y-32335399D01*
X38481276Y-32335398D01*
X38672358Y-32256249D01*
X38672368Y-32256244D01*
X38844335Y-32141339D01*
X38844339Y-32141336D01*
X38990586Y-31995089D01*
X38990589Y-31995085D01*
X39105494Y-31823118D01*
X39105499Y-31823108D01*
X39184649Y-31632024D01*
X39184651Y-31632016D01*
X39224999Y-31429170D01*
X39225000Y-31429167D01*
X39225000Y-31296768D01*
X39244685Y-31229729D01*
X39297489Y-31183974D01*
X39366647Y-31174030D01*
X39381084Y-31176991D01*
X39433482Y-31191031D01*
X39548767Y-31206208D01*
X39561695Y-31207911D01*
X39564316Y-31208256D01*
X39564323Y-31208256D01*
X39655677Y-31208256D01*
X39655684Y-31208256D01*
X39786518Y-31191031D01*
X39874773Y-31167383D01*
X39996687Y-31116885D01*
X40075815Y-31071201D01*
X40180509Y-30990866D01*
X40180513Y-30990861D01*
X40180518Y-30990858D01*
X40245107Y-30926268D01*
X40245116Y-30926259D01*
X40323526Y-30824073D01*
X40379953Y-30782873D01*
X40449699Y-30778718D01*
X40510619Y-30812931D01*
X40543371Y-30874648D01*
X40545900Y-30899562D01*
X40545900Y-33966628D01*
X40526215Y-34033667D01*
X40525002Y-34035519D01*
X40438609Y-34164814D01*
X40438602Y-34164827D01*
X40378264Y-34310498D01*
X40378261Y-34310510D01*
X40347500Y-34465153D01*
X40347500Y-34622846D01*
X40378261Y-34777489D01*
X40378264Y-34777501D01*
X40438602Y-34923172D01*
X40438609Y-34923185D01*
X40526210Y-35054288D01*
X40526213Y-35054292D01*
X40637707Y-35165786D01*
X40637711Y-35165789D01*
X40768814Y-35253390D01*
X40768827Y-35253397D01*
X40914498Y-35313735D01*
X40914503Y-35313737D01*
X41069153Y-35344499D01*
X41069156Y-35344500D01*
X41069158Y-35344500D01*
X41226844Y-35344500D01*
X41226845Y-35344499D01*
X41381497Y-35313737D01*
X41527179Y-35253394D01*
X41658289Y-35165789D01*
X41769789Y-35054289D01*
X41857394Y-34923179D01*
X41917737Y-34777497D01*
X41948500Y-34622842D01*
X41948500Y-34465158D01*
X41948500Y-34465155D01*
X41948499Y-34465153D01*
X41940190Y-34423381D01*
X41917737Y-34310503D01*
X41893333Y-34251585D01*
X41857397Y-34164827D01*
X41857390Y-34164814D01*
X41770998Y-34035519D01*
X41750120Y-33968841D01*
X41750100Y-33966628D01*
X41750100Y-30780760D01*
X41769785Y-30713721D01*
X41786419Y-30693079D01*
X41975998Y-30503500D01*
X42169439Y-30310058D01*
X44537494Y-30310058D01*
X44537494Y-30401441D01*
X44550891Y-30503193D01*
X44554719Y-30532268D01*
X44556911Y-30540447D01*
X44578368Y-30620528D01*
X44628859Y-30742425D01*
X44628864Y-30742435D01*
X44628865Y-30742437D01*
X44640105Y-30761906D01*
X44674550Y-30821567D01*
X44754884Y-30926259D01*
X44754892Y-30926268D01*
X44819482Y-30990858D01*
X44819490Y-30990865D01*
X44873647Y-31032422D01*
X44924185Y-31071201D01*
X45003313Y-31116885D01*
X45003318Y-31116887D01*
X45003324Y-31116890D01*
X45125222Y-31167381D01*
X45125220Y-31167381D01*
X45125226Y-31167382D01*
X45125227Y-31167383D01*
X45213482Y-31191031D01*
X45338429Y-31207481D01*
X45341695Y-31207911D01*
X45344316Y-31208256D01*
X45344323Y-31208256D01*
X45435677Y-31208256D01*
X45435684Y-31208256D01*
X45566518Y-31191031D01*
X45618908Y-31176993D01*
X45688756Y-31178656D01*
X45746619Y-31217818D01*
X45774123Y-31282047D01*
X45775000Y-31296768D01*
X45775000Y-31429170D01*
X45815348Y-31632016D01*
X45815350Y-31632024D01*
X45894500Y-31823108D01*
X45894505Y-31823118D01*
X46009410Y-31995085D01*
X46009413Y-31995089D01*
X46155660Y-32141336D01*
X46155664Y-32141339D01*
X46327631Y-32256244D01*
X46327641Y-32256249D01*
X46518723Y-32335398D01*
X46518725Y-32335399D01*
X46575000Y-32346592D01*
X46575000Y-31492738D01*
X46584940Y-31509955D01*
X46640795Y-31565810D01*
X46709204Y-31605306D01*
X46785504Y-31625750D01*
X46864496Y-31625750D01*
X46940796Y-31605306D01*
X47009205Y-31565810D01*
X47065060Y-31509955D01*
X47075000Y-31492738D01*
X47075000Y-32346592D01*
X47131274Y-32335399D01*
X47131276Y-32335398D01*
X47322358Y-32256249D01*
X47322368Y-32256244D01*
X47494335Y-32141339D01*
X47494339Y-32141336D01*
X47640586Y-31995089D01*
X47640589Y-31995085D01*
X47713544Y-31885901D01*
X48029500Y-31885901D01*
X48029500Y-32122097D01*
X48066446Y-32355368D01*
X48139433Y-32579996D01*
X48225246Y-32748412D01*
X48246657Y-32790433D01*
X48385483Y-32981510D01*
X48552490Y-33148517D01*
X48743567Y-33287343D01*
X48842991Y-33338002D01*
X48954003Y-33394566D01*
X48954005Y-33394566D01*
X48954008Y-33394568D01*
X49058612Y-33428556D01*
X49178631Y-33467553D01*
X49411903Y-33504500D01*
X49411908Y-33504500D01*
X49648097Y-33504500D01*
X49881368Y-33467553D01*
X50105992Y-33394568D01*
X50316433Y-33287343D01*
X50440579Y-33197145D01*
X50506383Y-33173665D01*
X50574437Y-33189490D01*
X50622057Y-33238489D01*
X50622396Y-33238304D01*
X50623061Y-33239522D01*
X50623132Y-33239595D01*
X50623276Y-33239916D01*
X50626649Y-33246093D01*
X50712809Y-33361187D01*
X50712812Y-33361190D01*
X50827906Y-33447350D01*
X50827913Y-33447354D01*
X50962620Y-33497596D01*
X50962627Y-33497598D01*
X51022155Y-33503999D01*
X51022172Y-33504000D01*
X51820000Y-33504000D01*
X51820000Y-32552482D01*
X51838409Y-32563111D01*
X51991009Y-32604000D01*
X52148991Y-32604000D01*
X52301591Y-32563111D01*
X52320000Y-32552482D01*
X52320000Y-33504000D01*
X53117828Y-33504000D01*
X53117844Y-33503999D01*
X53177372Y-33497598D01*
X53177379Y-33497596D01*
X53312086Y-33447354D01*
X53312093Y-33447350D01*
X53427187Y-33361190D01*
X53427190Y-33361187D01*
X53513350Y-33246093D01*
X53513354Y-33246086D01*
X53563596Y-33111379D01*
X53563598Y-33111372D01*
X53569999Y-33051844D01*
X53570000Y-33051827D01*
X53570000Y-32254000D01*
X52618482Y-32254000D01*
X52629111Y-32235591D01*
X52670000Y-32082991D01*
X52670000Y-31925009D01*
X52629111Y-31772409D01*
X52618482Y-31754000D01*
X53570000Y-31754000D01*
X53570000Y-30956172D01*
X53569999Y-30956155D01*
X53563598Y-30896627D01*
X53563596Y-30896620D01*
X53513354Y-30761913D01*
X53513350Y-30761906D01*
X53427190Y-30646812D01*
X53427187Y-30646809D01*
X53312093Y-30560649D01*
X53312086Y-30560645D01*
X53177379Y-30510403D01*
X53177372Y-30510401D01*
X53117844Y-30504000D01*
X52320000Y-30504000D01*
X52320000Y-31455517D01*
X52301591Y-31444889D01*
X52148991Y-31404000D01*
X51991009Y-31404000D01*
X51838409Y-31444889D01*
X51820000Y-31455517D01*
X51820000Y-30504000D01*
X51022155Y-30504000D01*
X50962627Y-30510401D01*
X50962620Y-30510403D01*
X50827913Y-30560645D01*
X50827906Y-30560649D01*
X50712812Y-30646809D01*
X50712809Y-30646812D01*
X50626649Y-30761906D01*
X50622396Y-30769696D01*
X50619184Y-30767942D01*
X50587435Y-30810056D01*
X50521888Y-30834249D01*
X50453666Y-30819165D01*
X50440585Y-30810859D01*
X50316433Y-30720657D01*
X50302820Y-30713721D01*
X50105996Y-30613433D01*
X49881368Y-30540446D01*
X49648097Y-30503500D01*
X49648092Y-30503500D01*
X49411908Y-30503500D01*
X49411903Y-30503500D01*
X49178631Y-30540446D01*
X48954003Y-30613433D01*
X48743566Y-30720657D01*
X48659017Y-30782086D01*
X48552490Y-30859483D01*
X48552488Y-30859485D01*
X48552487Y-30859485D01*
X48385485Y-31026487D01*
X48385485Y-31026488D01*
X48385483Y-31026490D01*
X48350172Y-31075091D01*
X48246657Y-31217566D01*
X48139433Y-31428003D01*
X48109200Y-31521050D01*
X48109197Y-31521060D01*
X48066447Y-31652632D01*
X48050473Y-31753487D01*
X48050466Y-31753516D01*
X48029500Y-31885901D01*
X47713544Y-31885901D01*
X47755494Y-31823118D01*
X47755501Y-31823105D01*
X47810858Y-31689458D01*
X47868994Y-31459357D01*
X47874999Y-31429167D01*
X47875000Y-31429167D01*
X47875000Y-31125750D01*
X47125000Y-31125750D01*
X47125000Y-30625750D01*
X47875000Y-30625750D01*
X47875000Y-30322333D01*
X47874999Y-30322329D01*
X47834651Y-30119483D01*
X47834649Y-30119475D01*
X47755499Y-29928391D01*
X47755494Y-29928381D01*
X47640589Y-29756414D01*
X47640586Y-29756410D01*
X47494339Y-29610163D01*
X47494335Y-29610160D01*
X47322368Y-29495255D01*
X47322358Y-29495250D01*
X47131272Y-29416099D01*
X47131267Y-29416097D01*
X47075000Y-29404905D01*
X47075000Y-30258761D01*
X47065060Y-30241545D01*
X47009205Y-30185690D01*
X46940796Y-30146194D01*
X46864496Y-30125750D01*
X46785504Y-30125750D01*
X46709204Y-30146194D01*
X46640795Y-30185690D01*
X46584940Y-30241545D01*
X46575000Y-30258761D01*
X46575000Y-29404906D01*
X46574999Y-29404905D01*
X46518732Y-29416097D01*
X46518727Y-29416099D01*
X46327641Y-29495250D01*
X46327631Y-29495255D01*
X46155664Y-29610160D01*
X46085318Y-29680506D01*
X46023994Y-29713990D01*
X45954303Y-29709005D01*
X45922151Y-29691200D01*
X45855816Y-29640299D01*
X45776685Y-29594614D01*
X45776675Y-29594609D01*
X45654777Y-29544118D01*
X45654779Y-29544118D01*
X45607876Y-29531551D01*
X45566518Y-29520469D01*
X45537443Y-29516641D01*
X45435691Y-29503244D01*
X45435684Y-29503244D01*
X45344316Y-29503244D01*
X45344308Y-29503244D01*
X45228019Y-29518555D01*
X45213482Y-29520469D01*
X45186474Y-29527705D01*
X45125221Y-29544118D01*
X45003324Y-29594609D01*
X45003314Y-29594614D01*
X44924182Y-29640300D01*
X44819490Y-29720634D01*
X44754884Y-29785240D01*
X44674550Y-29889932D01*
X44628864Y-29969064D01*
X44628859Y-29969074D01*
X44578368Y-30090971D01*
X44562111Y-30151645D01*
X44555036Y-30178051D01*
X44554719Y-30179233D01*
X44537494Y-30310058D01*
X42169439Y-30310058D01*
X42181487Y-30298010D01*
X42242808Y-30264527D01*
X42244975Y-30264076D01*
X42294334Y-30254257D01*
X42397497Y-30233737D01*
X42489366Y-30195684D01*
X42499598Y-30191446D01*
X42543173Y-30173397D01*
X42543176Y-30173395D01*
X42543179Y-30173394D01*
X42674289Y-30085789D01*
X42785789Y-29974289D01*
X42873394Y-29843179D01*
X42933737Y-29697497D01*
X42964500Y-29542842D01*
X42964500Y-29385158D01*
X42964500Y-29385155D01*
X42964499Y-29385153D01*
X42964076Y-29383025D01*
X42933737Y-29230503D01*
X42896250Y-29140000D01*
X42873397Y-29084827D01*
X42873390Y-29084814D01*
X42785789Y-28953711D01*
X42785786Y-28953707D01*
X42674292Y-28842213D01*
X42674288Y-28842210D01*
X42543185Y-28754609D01*
X42543172Y-28754602D01*
X42397501Y-28694264D01*
X42397489Y-28694261D01*
X42242845Y-28663500D01*
X42242842Y-28663500D01*
X42085158Y-28663500D01*
X42085155Y-28663500D01*
X41930510Y-28694261D01*
X41930498Y-28694264D01*
X41784827Y-28754602D01*
X41784814Y-28754609D01*
X41653711Y-28842210D01*
X41653707Y-28842213D01*
X41542213Y-28953707D01*
X41542210Y-28953711D01*
X41454609Y-29084814D01*
X41454602Y-29084827D01*
X41394264Y-29230498D01*
X41394261Y-29230508D01*
X41363923Y-29383025D01*
X41331538Y-29444936D01*
X41329987Y-29446514D01*
X40780595Y-29995906D01*
X40780585Y-29995916D01*
X40778302Y-29998200D01*
X40666200Y-30110302D01*
X40645861Y-30145530D01*
X40637134Y-30155222D01*
X40618039Y-30166984D01*
X40601807Y-30182462D01*
X40588866Y-30184955D01*
X40577646Y-30191868D01*
X40555220Y-30191440D01*
X40533199Y-30195684D01*
X40520965Y-30190786D01*
X40507789Y-30190535D01*
X40489156Y-30178051D01*
X40468335Y-30169716D01*
X40460690Y-30158979D01*
X40449742Y-30151645D01*
X40440817Y-30131071D01*
X40427807Y-30112801D01*
X40425213Y-30104338D01*
X40421632Y-30090973D01*
X40421631Y-30090972D01*
X40371140Y-29969074D01*
X40371135Y-29969064D01*
X40371135Y-29969063D01*
X40325451Y-29889935D01*
X40245116Y-29785241D01*
X40245115Y-29785240D01*
X40245108Y-29785232D01*
X40180518Y-29720642D01*
X40180509Y-29720634D01*
X40075817Y-29640300D01*
X39996685Y-29594614D01*
X39996675Y-29594609D01*
X39874777Y-29544118D01*
X39874779Y-29544118D01*
X39827876Y-29531551D01*
X39786518Y-29520469D01*
X39757443Y-29516641D01*
X39655691Y-29503244D01*
X39655684Y-29503244D01*
X39564316Y-29503244D01*
X39564308Y-29503244D01*
X39448019Y-29518555D01*
X39433482Y-29520469D01*
X39406474Y-29527705D01*
X39345221Y-29544118D01*
X39223324Y-29594609D01*
X39223314Y-29594614D01*
X39144183Y-29640300D01*
X39077848Y-29691200D01*
X39012678Y-29716394D01*
X38944233Y-29702355D01*
X38914681Y-29680505D01*
X38844339Y-29610163D01*
X38844335Y-29610160D01*
X38672368Y-29495255D01*
X38672358Y-29495250D01*
X38481272Y-29416099D01*
X38481267Y-29416097D01*
X38425000Y-29404905D01*
X38425000Y-30258761D01*
X38415060Y-30241545D01*
X38359205Y-30185690D01*
X38290796Y-30146194D01*
X38214496Y-30125750D01*
X38135504Y-30125750D01*
X38059204Y-30146194D01*
X37990795Y-30185690D01*
X37934940Y-30241545D01*
X37925000Y-30258761D01*
X37925000Y-29404906D01*
X37924999Y-29404905D01*
X37868732Y-29416097D01*
X37868727Y-29416099D01*
X37677641Y-29495250D01*
X37677631Y-29495255D01*
X37505664Y-29610160D01*
X37505660Y-29610163D01*
X37359413Y-29756410D01*
X37359410Y-29756414D01*
X37244505Y-29928381D01*
X37244500Y-29928391D01*
X37165350Y-30119475D01*
X37165348Y-30119483D01*
X37125000Y-30322329D01*
X28158605Y-30322329D01*
X28239119Y-30296168D01*
X28414427Y-30206845D01*
X28573605Y-30091194D01*
X28712728Y-29952071D01*
X28828379Y-29792893D01*
X28917702Y-29617587D01*
X28978502Y-29430466D01*
X28985268Y-29387750D01*
X28084562Y-29387750D01*
X28128617Y-29311444D01*
X28159284Y-29196994D01*
X28159284Y-29078506D01*
X28128617Y-28964056D01*
X28084562Y-28887750D01*
X28985268Y-28887750D01*
X28978502Y-28845033D01*
X28917702Y-28657912D01*
X28828379Y-28482606D01*
X28712728Y-28323428D01*
X28573605Y-28184305D01*
X28414427Y-28068654D01*
X28239119Y-27979331D01*
X28051989Y-27918528D01*
X27857666Y-27887750D01*
X26859284Y-27887750D01*
X26859284Y-28687750D01*
X26359284Y-28687750D01*
X26359284Y-27887750D01*
X25360902Y-27887750D01*
X25166578Y-27918528D01*
X24979448Y-27979331D01*
X24804140Y-28068654D01*
X24644962Y-28184305D01*
X24505839Y-28323428D01*
X24390188Y-28482606D01*
X24300865Y-28657912D01*
X24240065Y-28845033D01*
X24233300Y-28887750D01*
X20820500Y-28887750D01*
X20820500Y-25266500D01*
X20840185Y-25199461D01*
X20892989Y-25153706D01*
X20944500Y-25142500D01*
X37655934Y-25142500D01*
X37722973Y-25162185D01*
G37*
%TD.AperFunction*%
%TD*%
M02*
