%TF.GenerationSoftware,KiCad,Pcbnew,10.0.1-1.fc44*%
%TF.CreationDate,2026-05-04T12:41:54+01:00*%
%TF.ProjectId,capacitor-alarm-clock,63617061-6369-4746-9f72-2d616c61726d,rev?*%
%TF.SameCoordinates,Original*%
%TF.FileFunction,Soldermask,Bot*%
%TF.FilePolarity,Negative*%
%FSLAX46Y46*%
G04 Gerber Fmt 4.6, Leading zero omitted, Abs format (unit mm)*
G04 Created by KiCad (PCBNEW 10.0.1-1.fc44) date 2026-05-04 12:41:54*
%MOMM*%
%LPD*%
G01*
G04 APERTURE LIST*
%ADD10C,0.000000*%
%ADD11R,1.700000X1.700000*%
%ADD12C,1.700000*%
%ADD13C,2.400000*%
%ADD14C,2.200000*%
%ADD15C,1.800000*%
%ADD16C,2.000000*%
%ADD17R,2.000000X2.000000*%
%ADD18O,3.800000X1.500000*%
%ADD19O,1.500000X3.400000*%
%ADD20O,1.100000X2.000000*%
%ADD21O,1.200000X1.800000*%
G04 APERTURE END LIST*
D10*
%TO.C,G\u002A\u002A\u002A*%
G36*
X72984897Y-31176116D02*
G01*
X73075211Y-31293762D01*
X73155140Y-31426476D01*
X73284595Y-31664446D01*
X73430303Y-31953358D01*
X73586895Y-32281160D01*
X73749000Y-32635796D01*
X73911250Y-33005212D01*
X74068273Y-33377355D01*
X74214701Y-33740169D01*
X74345164Y-34081600D01*
X74454291Y-34389595D01*
X74564723Y-34741574D01*
X74673485Y-35133740D01*
X74776564Y-35548645D01*
X74871266Y-35972756D01*
X74954897Y-36392544D01*
X75024764Y-36794477D01*
X75078172Y-37165024D01*
X75112428Y-37490653D01*
X75124839Y-37757834D01*
X75125150Y-37881412D01*
X74845921Y-37881412D01*
X74566692Y-37881412D01*
X74542991Y-37263522D01*
X74526490Y-36930777D01*
X74482150Y-36399157D01*
X74414165Y-35885366D01*
X74319503Y-35375847D01*
X74195129Y-34857047D01*
X74038010Y-34315409D01*
X73845115Y-33737381D01*
X73613408Y-33109406D01*
X73575917Y-33012664D01*
X73460273Y-32722864D01*
X73331110Y-32408881D01*
X73201646Y-32102582D01*
X73085099Y-31835833D01*
X73003667Y-31649795D01*
X72926981Y-31465905D01*
X72868207Y-31315144D01*
X72831997Y-31209487D01*
X72822999Y-31160908D01*
X72846779Y-31124899D01*
X72906398Y-31118588D01*
X72984897Y-31176116D01*
G37*
G36*
X66329322Y-69837405D02*
G01*
X66359558Y-69885102D01*
X66430863Y-70003781D01*
X66507499Y-70139076D01*
X66588392Y-70288890D01*
X66672465Y-70451127D01*
X66758643Y-70623689D01*
X66845850Y-70804478D01*
X66933012Y-70991397D01*
X67019052Y-71182349D01*
X67025217Y-71196270D01*
X67076118Y-71310834D01*
X67125257Y-71420664D01*
X67173298Y-71527129D01*
X67220900Y-71631599D01*
X67268726Y-71735444D01*
X67317437Y-71840034D01*
X67367695Y-71946738D01*
X67420162Y-72056926D01*
X67475499Y-72171968D01*
X67534368Y-72293234D01*
X67597431Y-72422093D01*
X67665349Y-72559916D01*
X67738784Y-72708072D01*
X67818397Y-72867931D01*
X67904851Y-73040862D01*
X67998806Y-73228236D01*
X68100925Y-73431423D01*
X68211869Y-73651791D01*
X68474260Y-74172625D01*
X68470356Y-74241703D01*
X68465122Y-74284202D01*
X68444723Y-74341571D01*
X68408294Y-74386904D01*
X68354367Y-74422491D01*
X68294089Y-74443914D01*
X68233473Y-74446232D01*
X68172621Y-74428306D01*
X68163481Y-74423980D01*
X68127338Y-74401745D01*
X68096840Y-74371943D01*
X68068357Y-74330375D01*
X68038260Y-74272842D01*
X68032707Y-74261291D01*
X68015517Y-74225773D01*
X67996031Y-74185865D01*
X67973601Y-74140275D01*
X67947584Y-74087713D01*
X67917332Y-74026886D01*
X67882202Y-73956502D01*
X67841548Y-73875271D01*
X67794725Y-73781900D01*
X67741086Y-73675098D01*
X67679988Y-73553573D01*
X67610784Y-73416033D01*
X67532829Y-73261187D01*
X67476350Y-73148884D01*
X67377270Y-72951058D01*
X67286196Y-72767990D01*
X67201990Y-72597295D01*
X67123509Y-72436590D01*
X67049616Y-72283490D01*
X66979170Y-72135612D01*
X66911031Y-71990570D01*
X66844060Y-71845981D01*
X66777116Y-71699460D01*
X66709060Y-71548624D01*
X66638752Y-71391088D01*
X66621098Y-71351399D01*
X66583808Y-71267905D01*
X66547209Y-71186377D01*
X66512846Y-71110234D01*
X66482264Y-71042896D01*
X66457009Y-70987780D01*
X66438626Y-70948307D01*
X66410645Y-70890448D01*
X66373964Y-70816913D01*
X66332112Y-70734768D01*
X66286891Y-70647424D01*
X66240104Y-70558289D01*
X66193553Y-70470776D01*
X66149041Y-70388293D01*
X66108370Y-70314251D01*
X66073345Y-70252059D01*
X66045766Y-70205129D01*
X65976992Y-70092263D01*
X66132941Y-69933555D01*
X66288889Y-69774848D01*
X66329322Y-69837405D01*
G37*
G36*
X64076362Y-71207429D02*
G01*
X64088406Y-71222060D01*
X64104927Y-71249597D01*
X64127197Y-71292110D01*
X64156486Y-71351668D01*
X64199998Y-71445042D01*
X64252774Y-71565454D01*
X64308760Y-71699848D01*
X64366677Y-71845018D01*
X64425250Y-71997757D01*
X64483201Y-72154858D01*
X64539255Y-72313115D01*
X64541410Y-72319314D01*
X64610909Y-72501599D01*
X64688772Y-72671982D01*
X64778724Y-72838640D01*
X64791312Y-72860463D01*
X64837441Y-72943990D01*
X64874877Y-73019449D01*
X64906658Y-73093817D01*
X64935823Y-73174070D01*
X64965412Y-73267185D01*
X65012715Y-73415593D01*
X65079952Y-73600913D01*
X65152335Y-73771748D01*
X65231406Y-73931667D01*
X65318710Y-74084239D01*
X65319477Y-74085494D01*
X65340869Y-74122071D01*
X65368092Y-74170764D01*
X65397729Y-74225370D01*
X65426364Y-74279687D01*
X65435020Y-74296464D01*
X65459887Y-74346208D01*
X65476492Y-74383328D01*
X65486392Y-74412130D01*
X65491145Y-74436921D01*
X65492309Y-74462008D01*
X65488404Y-74506818D01*
X65467416Y-74569173D01*
X65428698Y-74620756D01*
X65372726Y-74660774D01*
X65368366Y-74662916D01*
X65326337Y-74674457D01*
X65275386Y-74677451D01*
X65224377Y-74672014D01*
X65182176Y-74658263D01*
X65162720Y-74647375D01*
X65134950Y-74626466D01*
X65110347Y-74598630D01*
X65085461Y-74559657D01*
X65056841Y-74505335D01*
X65040887Y-74474470D01*
X65014827Y-74426002D01*
X64983126Y-74368411D01*
X64948404Y-74306451D01*
X64913281Y-74244876D01*
X64882299Y-74190461D01*
X64848667Y-74130038D01*
X64818293Y-74074114D01*
X64793610Y-74027177D01*
X64777053Y-73993714D01*
X64750738Y-73934798D01*
X64712743Y-73844043D01*
X64673778Y-73745487D01*
X64636379Y-73645757D01*
X64603081Y-73551481D01*
X64576421Y-73469286D01*
X64575780Y-73467182D01*
X64549942Y-73383750D01*
X64527620Y-73315842D01*
X64506954Y-73258962D01*
X64486082Y-73208614D01*
X64463144Y-73160304D01*
X64436280Y-73109536D01*
X64403630Y-73051816D01*
X64381820Y-73013833D01*
X64334740Y-72929976D01*
X64295279Y-72855917D01*
X64261172Y-72786694D01*
X64230154Y-72717349D01*
X64199962Y-72642920D01*
X64168331Y-72558448D01*
X64132996Y-72458972D01*
X64110303Y-72395001D01*
X64073576Y-72294265D01*
X64031657Y-72181863D01*
X63986190Y-72062153D01*
X63938820Y-71939493D01*
X63891191Y-71818242D01*
X63870214Y-71767536D01*
X63840134Y-71698806D01*
X63805727Y-71623208D01*
X63769787Y-71546870D01*
X63735106Y-71475918D01*
X63725108Y-71455884D01*
X63697202Y-71399442D01*
X63673428Y-71350591D01*
X63655102Y-71312083D01*
X63643540Y-71286669D01*
X63640057Y-71277102D01*
X63648315Y-71275492D01*
X63673577Y-71272006D01*
X63711540Y-71267321D01*
X63757878Y-71261993D01*
X63758488Y-71261925D01*
X63815131Y-71254618D01*
X63876338Y-71245111D01*
X63937061Y-71234352D01*
X63992251Y-71223292D01*
X64036859Y-71212880D01*
X64065835Y-71204066D01*
X64067525Y-71203633D01*
X64076362Y-71207429D01*
G37*
G36*
X63063762Y-63275162D02*
G01*
X63111213Y-63278235D01*
X63154910Y-63283276D01*
X63197712Y-63290409D01*
X63242475Y-63299756D01*
X63292058Y-63311442D01*
X63327306Y-63319576D01*
X63398869Y-63334309D01*
X63473260Y-63347838D01*
X63539092Y-63358017D01*
X63574840Y-63363042D01*
X63620247Y-63370640D01*
X63650824Y-63378083D01*
X63670285Y-63386372D01*
X63682345Y-63396502D01*
X63691245Y-63410261D01*
X63700260Y-63451187D01*
X63694303Y-63506320D01*
X63673361Y-63575741D01*
X63637419Y-63659530D01*
X63633386Y-63667883D01*
X63613345Y-63705963D01*
X63591171Y-63741011D01*
X63563624Y-63777374D01*
X63527461Y-63819400D01*
X63479441Y-63871439D01*
X63454948Y-63897487D01*
X63393803Y-63962678D01*
X63343408Y-64016757D01*
X63301079Y-64062669D01*
X63264138Y-64103359D01*
X63229902Y-64141769D01*
X63195690Y-64180846D01*
X63158821Y-64223532D01*
X63106188Y-64283876D01*
X63004437Y-64394614D01*
X62905167Y-64493597D01*
X62803991Y-64584669D01*
X62696523Y-64671676D01*
X62578376Y-64758460D01*
X62445163Y-64848865D01*
X62410026Y-64871930D01*
X62321770Y-64929368D01*
X62246959Y-64976998D01*
X62182852Y-65016305D01*
X62126707Y-65048772D01*
X62075782Y-65075883D01*
X62027336Y-65099122D01*
X61978629Y-65119972D01*
X61926918Y-65139917D01*
X61869461Y-65160441D01*
X61829542Y-65174261D01*
X61771184Y-65194223D01*
X61718903Y-65211835D01*
X61677224Y-65225577D01*
X61650675Y-65233926D01*
X61623634Y-65241337D01*
X61566939Y-65255008D01*
X61498985Y-65269828D01*
X61425023Y-65284784D01*
X61350305Y-65298865D01*
X61280082Y-65311060D01*
X61219603Y-65320356D01*
X61174121Y-65325742D01*
X61160665Y-65326856D01*
X61117806Y-65329553D01*
X61080037Y-65329730D01*
X61043211Y-65326728D01*
X61003177Y-65319884D01*
X60955789Y-65308538D01*
X60896895Y-65292029D01*
X60822349Y-65269695D01*
X60802322Y-65263758D01*
X60737556Y-65245849D01*
X60662933Y-65226635D01*
X60586175Y-65208066D01*
X60515007Y-65192091D01*
X60446593Y-65176431D01*
X60356226Y-65151477D01*
X60283530Y-65125547D01*
X60229561Y-65099038D01*
X60195373Y-65072344D01*
X60195103Y-65072038D01*
X60183555Y-65049648D01*
X60172598Y-65013161D01*
X60163583Y-64969146D01*
X60157862Y-64924174D01*
X60156787Y-64884813D01*
X60159299Y-64858413D01*
X60173477Y-64790485D01*
X60197616Y-64715834D01*
X60229439Y-64640935D01*
X60266671Y-64572261D01*
X60275818Y-64557428D01*
X60307172Y-64506257D01*
X60338766Y-64454292D01*
X60364974Y-64410777D01*
X60405019Y-64345952D01*
X60478272Y-64238413D01*
X60550239Y-64146822D01*
X60619270Y-64073368D01*
X60642814Y-64050431D01*
X60676980Y-64015114D01*
X60704540Y-63984210D01*
X60721087Y-63962518D01*
X60731119Y-63948203D01*
X60768721Y-63907964D01*
X60822422Y-63862301D01*
X60889817Y-63812645D01*
X60968503Y-63760426D01*
X61056076Y-63707075D01*
X61150132Y-63654020D01*
X61248268Y-63602694D01*
X61348080Y-63554526D01*
X61447164Y-63510946D01*
X61543117Y-63473384D01*
X61567665Y-63464561D01*
X61682950Y-63426376D01*
X61799165Y-63393624D01*
X61919139Y-63365835D01*
X62045699Y-63342536D01*
X62181674Y-63323257D01*
X62329891Y-63307525D01*
X62493180Y-63294870D01*
X62674367Y-63284820D01*
X62779263Y-63280094D01*
X62870308Y-63276524D01*
X62946168Y-63274430D01*
X63009700Y-63273935D01*
X63063762Y-63275162D01*
G37*
G36*
X64378244Y-59910163D02*
G01*
X64415672Y-59924892D01*
X64457998Y-59955247D01*
X64508074Y-60002385D01*
X64522867Y-60017771D01*
X64615520Y-60130739D01*
X64695189Y-60257996D01*
X64761203Y-60397280D01*
X64812889Y-60546331D01*
X64849574Y-60702888D01*
X64870585Y-60864690D01*
X64875250Y-61029477D01*
X64862896Y-61194988D01*
X64847228Y-61298284D01*
X64805302Y-61492636D01*
X64747807Y-61687571D01*
X64676440Y-61876887D01*
X64676093Y-61877712D01*
X64671293Y-61889981D01*
X64670218Y-61897488D01*
X64674791Y-61899227D01*
X64686930Y-61894193D01*
X64708558Y-61881379D01*
X64741594Y-61859779D01*
X64787960Y-61828387D01*
X64849576Y-61786197D01*
X64896707Y-61754081D01*
X64969083Y-61705266D01*
X65050285Y-61650935D01*
X65135432Y-61594340D01*
X65219645Y-61538732D01*
X65298044Y-61487363D01*
X65300398Y-61485827D01*
X65369556Y-61440361D01*
X65451890Y-61385668D01*
X65543605Y-61324304D01*
X65640906Y-61258822D01*
X65739995Y-61191778D01*
X65837077Y-61125724D01*
X65928356Y-61063217D01*
X66031773Y-60992336D01*
X66173682Y-60895912D01*
X66299858Y-60811305D01*
X66410892Y-60738143D01*
X66507376Y-60676054D01*
X66589901Y-60624664D01*
X66659057Y-60583601D01*
X66715437Y-60552493D01*
X66759631Y-60530967D01*
X66792230Y-60518649D01*
X66817889Y-60513378D01*
X66872788Y-60516400D01*
X66924054Y-60538049D01*
X66968843Y-60576817D01*
X67004310Y-60631194D01*
X67006536Y-60635933D01*
X67017062Y-60664356D01*
X67023825Y-60696895D01*
X67026702Y-60735865D01*
X67025565Y-60783579D01*
X67020290Y-60842351D01*
X67010750Y-60914494D01*
X66996819Y-61002323D01*
X66978372Y-61108152D01*
X66976033Y-61121169D01*
X66948503Y-61271842D01*
X66923267Y-61404529D01*
X66899757Y-61521681D01*
X66877404Y-61625747D01*
X66855639Y-61719178D01*
X66833894Y-61804422D01*
X66811601Y-61883929D01*
X66788189Y-61960150D01*
X66763091Y-62035534D01*
X66755560Y-62057080D01*
X66666539Y-62277613D01*
X66557383Y-62493377D01*
X66428010Y-62704524D01*
X66278334Y-62911203D01*
X66277252Y-62912588D01*
X66248301Y-62950274D01*
X66225539Y-62981084D01*
X66211226Y-63001876D01*
X66207626Y-63009505D01*
X66212892Y-63007498D01*
X66233357Y-62997250D01*
X66265039Y-62980276D01*
X66303744Y-62958790D01*
X66356659Y-62929581D01*
X66463969Y-62873393D01*
X66586587Y-62812747D01*
X66725409Y-62747223D01*
X66881327Y-62676403D01*
X67055237Y-62599870D01*
X67248034Y-62517205D01*
X67369479Y-62466354D01*
X67503040Y-62412311D01*
X67630215Y-62363263D01*
X67755461Y-62317640D01*
X67883238Y-62273877D01*
X68018004Y-62230404D01*
X68164217Y-62185656D01*
X68326336Y-62138063D01*
X68388634Y-62120225D01*
X68492924Y-62091416D01*
X68580152Y-62069263D01*
X68652063Y-62053734D01*
X68710406Y-62044795D01*
X68756925Y-62042413D01*
X68793367Y-62046556D01*
X68821480Y-62057190D01*
X68843009Y-62074282D01*
X68859701Y-62097800D01*
X68873303Y-62127709D01*
X68881066Y-62148882D01*
X68885933Y-62171322D01*
X68882231Y-62191529D01*
X68869543Y-62219752D01*
X68863681Y-62230861D01*
X68839034Y-62270293D01*
X68801039Y-62324666D01*
X68750044Y-62393516D01*
X68686399Y-62476378D01*
X68610452Y-62572786D01*
X68522551Y-62682277D01*
X68503875Y-62705418D01*
X68448243Y-62774839D01*
X68385883Y-62853226D01*
X68321113Y-62935124D01*
X68258249Y-63015081D01*
X68201610Y-63087643D01*
X68158052Y-63143539D01*
X68058649Y-63269507D01*
X67966984Y-63382965D01*
X67880174Y-63487220D01*
X67795334Y-63585581D01*
X67709579Y-63681354D01*
X67620024Y-63777847D01*
X67523785Y-63878370D01*
X67417978Y-63986228D01*
X67397509Y-64006922D01*
X67344564Y-64060732D01*
X67297663Y-64108803D01*
X67258540Y-64149330D01*
X67228927Y-64180510D01*
X67210560Y-64200541D01*
X67205170Y-64207618D01*
X67209086Y-64206870D01*
X67229958Y-64201676D01*
X67265366Y-64192350D01*
X67311682Y-64179854D01*
X67365275Y-64165151D01*
X67409986Y-64152988D01*
X67519418Y-64124586D01*
X67638072Y-64095450D01*
X67764105Y-64065927D01*
X67895674Y-64036364D01*
X68030935Y-64007107D01*
X68168045Y-63978505D01*
X68305161Y-63950904D01*
X68440438Y-63924651D01*
X68572034Y-63900093D01*
X68698106Y-63877578D01*
X68816809Y-63857452D01*
X68926301Y-63840063D01*
X69024738Y-63825758D01*
X69110277Y-63814883D01*
X69181074Y-63807786D01*
X69235286Y-63804814D01*
X69271070Y-63806315D01*
X69314925Y-63818887D01*
X69354291Y-63847250D01*
X69378351Y-63889127D01*
X69378827Y-63890592D01*
X69383691Y-63912158D01*
X69383254Y-63933726D01*
X69376226Y-63957016D01*
X69361316Y-63983751D01*
X69337232Y-64015655D01*
X69302683Y-64054450D01*
X69256379Y-64101859D01*
X69197029Y-64159604D01*
X69123341Y-64229407D01*
X69106629Y-64245034D01*
X69044682Y-64301982D01*
X68969834Y-64369623D01*
X68884410Y-64445919D01*
X68790736Y-64528831D01*
X68691138Y-64616321D01*
X68587942Y-64706351D01*
X68483473Y-64796884D01*
X68380057Y-64885880D01*
X68280020Y-64971302D01*
X68185688Y-65051112D01*
X68163889Y-65069458D01*
X68105219Y-65118865D01*
X68052476Y-65163325D01*
X68007663Y-65201146D01*
X67972786Y-65230635D01*
X67949849Y-65250099D01*
X67940856Y-65257847D01*
X67944343Y-65259501D01*
X67961693Y-65256193D01*
X67996278Y-65247640D01*
X68054870Y-65234056D01*
X68126220Y-65218179D01*
X68206029Y-65200916D01*
X68290001Y-65183173D01*
X68373840Y-65165854D01*
X68453248Y-65149867D01*
X68523929Y-65136117D01*
X68581586Y-65125510D01*
X68622687Y-65118361D01*
X68731481Y-65100066D01*
X68843217Y-65082092D01*
X68955759Y-65064725D01*
X69066972Y-65048250D01*
X69174721Y-65032950D01*
X69276869Y-65019112D01*
X69371282Y-65007019D01*
X69455824Y-64996956D01*
X69528360Y-64989209D01*
X69586754Y-64984061D01*
X69628870Y-64981798D01*
X69652573Y-64982705D01*
X69698464Y-64999608D01*
X69735585Y-65029761D01*
X69760178Y-65068729D01*
X69769595Y-65112283D01*
X69761188Y-65156191D01*
X69760119Y-65158488D01*
X69744686Y-65182249D01*
X69716175Y-65218809D01*
X69676063Y-65266509D01*
X69625827Y-65323692D01*
X69566944Y-65388700D01*
X69500890Y-65459875D01*
X69429143Y-65535561D01*
X69353179Y-65614099D01*
X69352214Y-65615087D01*
X69298795Y-65669868D01*
X69250728Y-65719467D01*
X69206575Y-65765515D01*
X69164898Y-65809641D01*
X69124258Y-65853474D01*
X69083217Y-65898643D01*
X69040335Y-65946777D01*
X68994176Y-65999507D01*
X68943299Y-66058460D01*
X68886266Y-66125267D01*
X68821640Y-66201557D01*
X68747981Y-66288959D01*
X68663851Y-66389102D01*
X68567811Y-66503615D01*
X68550553Y-66524264D01*
X68494041Y-66592743D01*
X68441294Y-66657935D01*
X68393935Y-66717742D01*
X68353588Y-66770068D01*
X68321877Y-66812817D01*
X68300426Y-66843892D01*
X68290858Y-66861197D01*
X68270999Y-66895088D01*
X68237168Y-66920818D01*
X68194837Y-66936355D01*
X68149005Y-66941195D01*
X68104674Y-66934832D01*
X68066846Y-66916762D01*
X68040522Y-66886479D01*
X68028117Y-66853023D01*
X68028470Y-66809139D01*
X68049216Y-66767137D01*
X68090573Y-66726316D01*
X68096829Y-66721058D01*
X68122786Y-66695210D01*
X68153657Y-66660229D01*
X68184043Y-66622133D01*
X68196219Y-66606101D01*
X68211442Y-66586458D01*
X68229184Y-66564037D01*
X68250534Y-66537520D01*
X68276581Y-66505591D01*
X68308413Y-66466933D01*
X68347119Y-66420228D01*
X68393789Y-66364158D01*
X68449511Y-66297407D01*
X68515374Y-66218658D01*
X68592467Y-66126593D01*
X68681878Y-66019895D01*
X68724485Y-65969362D01*
X68784670Y-65899164D01*
X68845169Y-65830184D01*
X68908396Y-65759773D01*
X68976764Y-65685284D01*
X69052686Y-65604067D01*
X69138576Y-65513475D01*
X69236848Y-65410859D01*
X69263917Y-65382561D01*
X69307956Y-65335880D01*
X69345289Y-65295484D01*
X69373958Y-65263533D01*
X69392006Y-65242188D01*
X69397474Y-65233610D01*
X69392351Y-65232806D01*
X69368824Y-65234099D01*
X69328604Y-65238339D01*
X69274081Y-65245161D01*
X69207649Y-65254200D01*
X69131698Y-65265091D01*
X69048620Y-65277472D01*
X68960808Y-65290976D01*
X68870653Y-65305239D01*
X68780547Y-65319897D01*
X68692882Y-65334586D01*
X68610049Y-65348940D01*
X68534441Y-65362596D01*
X68468448Y-65375189D01*
X68463566Y-65376158D01*
X68396680Y-65389962D01*
X68314938Y-65407597D01*
X68223281Y-65427954D01*
X68126649Y-65449924D01*
X68029982Y-65472396D01*
X67938221Y-65494261D01*
X67900262Y-65503358D01*
X67820652Y-65521914D01*
X67746811Y-65538445D01*
X67681626Y-65552345D01*
X67627987Y-65563007D01*
X67588783Y-65569826D01*
X67566904Y-65572194D01*
X67545864Y-65570733D01*
X67501363Y-65556045D01*
X67470282Y-65528042D01*
X67454226Y-65489780D01*
X67454803Y-65444317D01*
X67473619Y-65394711D01*
X67478347Y-65387290D01*
X67502890Y-65357650D01*
X67543646Y-65315800D01*
X67600680Y-65261681D01*
X67674060Y-65195230D01*
X67763854Y-65116387D01*
X67870127Y-65025090D01*
X67992948Y-64921279D01*
X67999872Y-64915463D01*
X68084301Y-64844203D01*
X68171706Y-64769849D01*
X68260743Y-64693588D01*
X68350066Y-64616607D01*
X68438331Y-64540093D01*
X68524192Y-64465233D01*
X68606305Y-64393214D01*
X68683325Y-64325223D01*
X68753907Y-64262446D01*
X68816705Y-64206071D01*
X68870376Y-64157285D01*
X68913574Y-64117273D01*
X68944955Y-64087225D01*
X68963173Y-64068325D01*
X68966883Y-64061761D01*
X68951033Y-64062800D01*
X68912898Y-64067594D01*
X68858545Y-64075880D01*
X68790422Y-64087209D01*
X68710976Y-64101136D01*
X68622655Y-64117211D01*
X68527907Y-64134987D01*
X68429179Y-64154016D01*
X68328920Y-64173852D01*
X68229576Y-64194046D01*
X68133596Y-64214150D01*
X68013322Y-64240029D01*
X67880801Y-64269376D01*
X67758503Y-64297585D01*
X67640775Y-64326026D01*
X67521960Y-64356074D01*
X67396405Y-64389098D01*
X67258452Y-64426472D01*
X67165873Y-64451319D01*
X67075711Y-64474092D01*
X67002625Y-64490695D01*
X66945201Y-64501444D01*
X66902025Y-64506658D01*
X66816475Y-64512638D01*
X66779609Y-64475772D01*
X66758939Y-64452670D01*
X66746072Y-64427538D01*
X66742743Y-64397126D01*
X66742805Y-64392917D01*
X66744665Y-64376085D01*
X66750071Y-64358480D01*
X66760315Y-64338603D01*
X66776688Y-64314950D01*
X66800481Y-64286020D01*
X66832986Y-64250313D01*
X66875493Y-64206326D01*
X66929295Y-64152557D01*
X66995683Y-64087505D01*
X67075947Y-64009669D01*
X67172676Y-63915404D01*
X67279294Y-63809280D01*
X67378685Y-63707447D01*
X67473231Y-63607226D01*
X67565318Y-63505938D01*
X67657327Y-63400901D01*
X67751644Y-63289439D01*
X67850651Y-63168869D01*
X67956733Y-63036514D01*
X68072272Y-62889694D01*
X68095476Y-62860037D01*
X68154888Y-62784428D01*
X68214949Y-62708412D01*
X68272974Y-62635362D01*
X68326278Y-62568652D01*
X68372178Y-62511657D01*
X68407988Y-62467750D01*
X68440087Y-62428569D01*
X68473581Y-62387099D01*
X68500178Y-62353505D01*
X68517733Y-62330500D01*
X68524102Y-62320798D01*
X68523769Y-62320475D01*
X68510960Y-62322164D01*
X68481685Y-62328998D01*
X68438849Y-62340149D01*
X68385359Y-62354788D01*
X68324119Y-62372084D01*
X68258035Y-62391210D01*
X68190012Y-62411335D01*
X68122956Y-62431631D01*
X68059773Y-62451268D01*
X68003366Y-62469417D01*
X67904537Y-62502645D01*
X67791892Y-62542376D01*
X67677479Y-62584858D01*
X67558499Y-62631207D01*
X67432153Y-62682542D01*
X67295639Y-62739980D01*
X67146159Y-62804640D01*
X66980911Y-62877639D01*
X66924492Y-62902866D01*
X66816681Y-62951797D01*
X66721455Y-62996300D01*
X66634238Y-63038673D01*
X66550452Y-63081216D01*
X66465521Y-63126229D01*
X66374868Y-63176011D01*
X66273916Y-63232862D01*
X66197009Y-63276248D01*
X66079015Y-63341424D01*
X65973973Y-63397606D01*
X65882646Y-63444416D01*
X65805800Y-63481480D01*
X65744197Y-63508420D01*
X65698604Y-63524860D01*
X65669783Y-63530424D01*
X65651342Y-63528999D01*
X65611289Y-63513436D01*
X65582941Y-63483127D01*
X65568432Y-63441067D01*
X65569898Y-63390255D01*
X65570186Y-63388852D01*
X65576324Y-63372896D01*
X65589533Y-63351886D01*
X65611382Y-63323923D01*
X65643443Y-63287112D01*
X65687286Y-63239554D01*
X65744482Y-63179351D01*
X65776388Y-63146017D01*
X65843907Y-63074884D01*
X65900406Y-63014226D01*
X65948517Y-62961040D01*
X65990874Y-62912327D01*
X66030108Y-62865085D01*
X66068854Y-62816315D01*
X66109743Y-62763013D01*
X66190107Y-62653404D01*
X66286993Y-62509032D01*
X66371980Y-62365649D01*
X66446376Y-62220163D01*
X66511485Y-62069483D01*
X66568613Y-61910517D01*
X66619065Y-61740173D01*
X66664147Y-61555359D01*
X66705165Y-61352983D01*
X66727235Y-61233265D01*
X66746992Y-61124223D01*
X66764175Y-61027385D01*
X66778549Y-60944124D01*
X66789883Y-60875817D01*
X66797942Y-60823839D01*
X66802493Y-60789564D01*
X66803304Y-60774368D01*
X66801335Y-60772382D01*
X66784830Y-60775928D01*
X66752110Y-60791500D01*
X66703570Y-60818854D01*
X66639608Y-60857744D01*
X66560618Y-60907927D01*
X66466998Y-60969157D01*
X66359144Y-61041191D01*
X66237451Y-61123783D01*
X66226181Y-61131483D01*
X66092358Y-61222807D01*
X65968809Y-61306883D01*
X65851576Y-61386380D01*
X65736702Y-61463965D01*
X65620230Y-61542304D01*
X65498204Y-61624066D01*
X65366666Y-61711918D01*
X65221660Y-61808527D01*
X65218503Y-61810629D01*
X65139165Y-61863440D01*
X65061661Y-61915035D01*
X64988576Y-61963694D01*
X64922495Y-62007694D01*
X64866005Y-62045315D01*
X64821691Y-62074834D01*
X64792137Y-62094531D01*
X64764922Y-62112421D01*
X64702452Y-62151779D01*
X64640385Y-62188800D01*
X64582095Y-62221618D01*
X64530954Y-62248369D01*
X64490335Y-62267187D01*
X64463610Y-62276207D01*
X64438478Y-62278508D01*
X64395236Y-62269045D01*
X64361541Y-62242994D01*
X64339702Y-62202571D01*
X64332028Y-62149989D01*
X64332698Y-62135467D01*
X64336767Y-62110421D01*
X64345507Y-62079687D01*
X64360040Y-62040007D01*
X64381488Y-61988126D01*
X64410972Y-61920785D01*
X64448013Y-61836155D01*
X64494114Y-61725133D01*
X64531996Y-61625192D01*
X64562999Y-61532222D01*
X64588461Y-61442109D01*
X64609721Y-61350742D01*
X64628120Y-61254009D01*
X64645410Y-61116255D01*
X64649648Y-60958649D01*
X64637667Y-60804044D01*
X64609952Y-60654965D01*
X64566993Y-60513938D01*
X64509276Y-60383488D01*
X64437290Y-60266141D01*
X64401232Y-60215928D01*
X64393908Y-60245305D01*
X64391095Y-60255278D01*
X64374873Y-60298518D01*
X64348598Y-60356860D01*
X64313257Y-60428482D01*
X64269835Y-60511566D01*
X64219317Y-60604293D01*
X64162690Y-60704841D01*
X64100939Y-60811392D01*
X64035050Y-60922126D01*
X63966008Y-61035223D01*
X63877524Y-61179203D01*
X63788454Y-61326390D01*
X63711322Y-61456541D01*
X63646133Y-61569649D01*
X63592892Y-61665706D01*
X63551603Y-61744706D01*
X63537204Y-61773108D01*
X63509857Y-61824254D01*
X63488279Y-61859622D01*
X63470923Y-61881610D01*
X63456244Y-61892616D01*
X63439073Y-61899038D01*
X63385312Y-61904610D01*
X63325564Y-61891898D01*
X63261398Y-61861574D01*
X63194384Y-61814313D01*
X63126089Y-61750788D01*
X63125212Y-61749871D01*
X63093758Y-61715722D01*
X63052918Y-61669605D01*
X63006253Y-61615636D01*
X62957324Y-61557933D01*
X62909692Y-61500612D01*
X62898577Y-61487160D01*
X62747519Y-61317966D01*
X62576924Y-61150153D01*
X62387995Y-60984838D01*
X62181936Y-60823144D01*
X62175544Y-60818398D01*
X62122375Y-60779918D01*
X62070524Y-60743979D01*
X62023065Y-60712568D01*
X61983072Y-60687672D01*
X61953621Y-60671277D01*
X61937784Y-60665371D01*
X61933658Y-60673558D01*
X61935941Y-60694021D01*
X61946499Y-60734106D01*
X61963613Y-60793086D01*
X61985208Y-60863707D01*
X62009942Y-60941798D01*
X62036473Y-61023192D01*
X62063461Y-61103718D01*
X62089561Y-61179207D01*
X62113433Y-61245489D01*
X62127141Y-61282614D01*
X62176195Y-61417098D01*
X62218053Y-61534650D01*
X62252589Y-61634884D01*
X62279672Y-61717413D01*
X62299176Y-61781848D01*
X62310972Y-61827803D01*
X62314933Y-61854891D01*
X62313241Y-61878227D01*
X62302987Y-61904574D01*
X62279510Y-61932245D01*
X62264650Y-61945960D01*
X62237595Y-61963031D01*
X62208982Y-61968094D01*
X62175295Y-61960705D01*
X62133018Y-61940417D01*
X62078637Y-61906785D01*
X61929566Y-61813257D01*
X61749509Y-61712844D01*
X61571785Y-61628189D01*
X61392907Y-61557517D01*
X61370975Y-61549747D01*
X61318213Y-61531195D01*
X61251308Y-61507795D01*
X61173830Y-61480789D01*
X61089350Y-61451423D01*
X61001437Y-61420939D01*
X60913661Y-61390581D01*
X60871228Y-61375906D01*
X60759999Y-61337257D01*
X60647820Y-61298038D01*
X60536756Y-61258988D01*
X60428870Y-61220844D01*
X60326228Y-61184345D01*
X60230893Y-61150227D01*
X60144929Y-61119228D01*
X60070401Y-61092087D01*
X60009373Y-61069541D01*
X59963910Y-61052328D01*
X59936075Y-61041186D01*
X59916696Y-61033020D01*
X59892540Y-61023361D01*
X59881229Y-61019595D01*
X59882293Y-61026791D01*
X59893425Y-61051784D01*
X59915001Y-61094582D01*
X59946975Y-61155093D01*
X59989299Y-61233226D01*
X60041925Y-61328890D01*
X60103991Y-61439938D01*
X60164899Y-61545862D01*
X60220814Y-61639144D01*
X60273831Y-61722990D01*
X60326045Y-61800606D01*
X60379550Y-61875196D01*
X60436441Y-61949967D01*
X60498812Y-62028124D01*
X60542376Y-62081805D01*
X60582423Y-62131648D01*
X60612074Y-62169505D01*
X60632872Y-62197583D01*
X60646361Y-62218089D01*
X60654085Y-62233227D01*
X60657587Y-62245206D01*
X60658411Y-62256231D01*
X60658287Y-62260981D01*
X60646854Y-62302870D01*
X60620348Y-62339023D01*
X60583744Y-62364405D01*
X60542018Y-62373984D01*
X60527167Y-62370132D01*
X60496395Y-62358243D01*
X60453675Y-62339784D01*
X60402448Y-62316244D01*
X60346156Y-62289115D01*
X60257153Y-62246937D01*
X60102181Y-62181775D01*
X59943468Y-62125913D01*
X59777706Y-62078445D01*
X59601588Y-62038467D01*
X59411804Y-62005078D01*
X59205048Y-61977371D01*
X59150582Y-61971469D01*
X59068084Y-61963874D01*
X58981782Y-61957272D01*
X58894134Y-61951736D01*
X58807596Y-61947340D01*
X58724626Y-61944156D01*
X58647679Y-61942257D01*
X58579213Y-61941716D01*
X58521685Y-61942607D01*
X58477552Y-61945002D01*
X58449270Y-61948975D01*
X58439297Y-61954598D01*
X58444065Y-61966417D01*
X58462388Y-61992098D01*
X58492506Y-62027932D01*
X58532338Y-62071843D01*
X58579801Y-62121755D01*
X58632816Y-62175593D01*
X58689299Y-62231280D01*
X58747170Y-62286740D01*
X58804347Y-62339898D01*
X58858748Y-62388679D01*
X58908293Y-62431006D01*
X58950900Y-62464803D01*
X58970997Y-62479728D01*
X59045337Y-62532571D01*
X59129306Y-62588720D01*
X59225178Y-62649631D01*
X59335230Y-62716759D01*
X59461737Y-62791559D01*
X59484566Y-62804914D01*
X59564138Y-62851961D01*
X59627398Y-62890336D01*
X59675933Y-62921067D01*
X59711333Y-62945185D01*
X59735184Y-62963717D01*
X59749077Y-62977693D01*
X59761037Y-63006437D01*
X59761830Y-63045501D01*
X59752052Y-63086550D01*
X59733414Y-63122609D01*
X59707627Y-63146705D01*
X59692374Y-63150962D01*
X59655008Y-63155678D01*
X59596896Y-63159963D01*
X59518086Y-63163812D01*
X59418625Y-63167222D01*
X59383981Y-63168303D01*
X59246054Y-63174488D01*
X59123523Y-63183650D01*
X59012061Y-63196473D01*
X58907342Y-63213642D01*
X58805037Y-63235838D01*
X58700820Y-63263747D01*
X58590364Y-63298051D01*
X58548314Y-63312272D01*
X58407756Y-63365090D01*
X58259092Y-63428117D01*
X58108078Y-63498701D01*
X57960473Y-63574191D01*
X57822035Y-63651934D01*
X57817369Y-63654700D01*
X57754495Y-63693107D01*
X57678719Y-63741057D01*
X57593711Y-63796097D01*
X57503141Y-63855772D01*
X57410680Y-63917629D01*
X57319998Y-63979214D01*
X57234765Y-64038073D01*
X57158651Y-64091752D01*
X57095327Y-64137797D01*
X57024332Y-64191057D01*
X56952808Y-64245612D01*
X56882998Y-64299676D01*
X56816769Y-64351744D01*
X56755988Y-64400310D01*
X56702521Y-64443869D01*
X56658234Y-64480917D01*
X56624995Y-64509948D01*
X56604669Y-64529457D01*
X56599123Y-64537939D01*
X56599161Y-64537972D01*
X56610747Y-64537800D01*
X56638634Y-64534522D01*
X56678695Y-64528691D01*
X56726807Y-64520859D01*
X56789253Y-64510863D01*
X56889059Y-64497454D01*
X56996357Y-64486147D01*
X57113811Y-64476741D01*
X57244083Y-64469032D01*
X57389836Y-64462817D01*
X57553735Y-64457894D01*
X57625837Y-64456006D01*
X57710555Y-64453565D01*
X57788442Y-64451083D01*
X57856698Y-64448659D01*
X57912523Y-64446395D01*
X57953117Y-64444391D01*
X57975679Y-64442748D01*
X57977012Y-64442600D01*
X58002664Y-64440172D01*
X58045564Y-64436523D01*
X58102464Y-64431914D01*
X58170117Y-64426602D01*
X58245277Y-64420847D01*
X58324695Y-64414908D01*
X58411123Y-64408888D01*
X58542987Y-64401483D01*
X58654727Y-64397738D01*
X58746587Y-64397658D01*
X58818813Y-64401244D01*
X58871650Y-64408497D01*
X58905343Y-64419420D01*
X58915416Y-64425334D01*
X58949075Y-64458618D01*
X58966782Y-64502417D01*
X58967760Y-64553522D01*
X58951233Y-64608726D01*
X58942765Y-64625033D01*
X58914323Y-64668646D01*
X58871158Y-64725844D01*
X58813619Y-64796208D01*
X58742051Y-64879320D01*
X58656804Y-64974761D01*
X58558225Y-65082113D01*
X58492774Y-65152607D01*
X58375605Y-65279070D01*
X58270895Y-65392521D01*
X58177410Y-65494360D01*
X58093917Y-65585986D01*
X58019183Y-65668798D01*
X57951973Y-65744195D01*
X57891053Y-65813577D01*
X57835191Y-65878342D01*
X57783152Y-65939891D01*
X57733702Y-65999622D01*
X57685609Y-66058934D01*
X57637638Y-66119227D01*
X57588555Y-66181901D01*
X57554740Y-66225721D01*
X57505904Y-66290120D01*
X57457756Y-66354772D01*
X57412312Y-66416890D01*
X57371583Y-66473687D01*
X57337582Y-66522378D01*
X57312324Y-66560175D01*
X57297821Y-66584292D01*
X57283013Y-66612928D01*
X57322004Y-66607155D01*
X57329141Y-66605989D01*
X57363315Y-66599309D01*
X57413767Y-66588473D01*
X57477534Y-66574170D01*
X57551651Y-66557088D01*
X57633154Y-66537916D01*
X57719078Y-66517340D01*
X57806459Y-66496051D01*
X57892332Y-66474736D01*
X58039911Y-66440175D01*
X58224317Y-66404288D01*
X58399261Y-66378631D01*
X58563519Y-66363235D01*
X58715868Y-66358132D01*
X58855084Y-66363353D01*
X58979944Y-66378931D01*
X59089225Y-66404897D01*
X59181704Y-66441283D01*
X59198084Y-66449680D01*
X59230988Y-66469987D01*
X59252895Y-66491587D01*
X59270205Y-66520186D01*
X59281905Y-66548201D01*
X59288094Y-66591313D01*
X59278029Y-66635990D01*
X59251143Y-66687192D01*
X59237700Y-66705798D01*
X59206119Y-66742924D01*
X59162297Y-66789941D01*
X59108395Y-66844712D01*
X59046573Y-66905098D01*
X58978992Y-66968964D01*
X58907812Y-67034172D01*
X58835195Y-67098585D01*
X58759988Y-67164678D01*
X58536405Y-67368304D01*
X58327039Y-67570800D01*
X58127885Y-67776395D01*
X57934939Y-67989316D01*
X57744198Y-68213792D01*
X57551657Y-68454052D01*
X57542037Y-68466401D01*
X57484920Y-68540611D01*
X57428448Y-68615395D01*
X57373963Y-68688853D01*
X57322806Y-68759091D01*
X57276319Y-68824209D01*
X57235844Y-68882310D01*
X57202723Y-68931498D01*
X57178297Y-68969875D01*
X57163908Y-68995543D01*
X57160899Y-69006606D01*
X57168158Y-69005140D01*
X57191086Y-68996853D01*
X57225686Y-68982901D01*
X57267923Y-68964858D01*
X57288738Y-68955870D01*
X57469067Y-68886748D01*
X57663922Y-68826380D01*
X57868933Y-68775860D01*
X58079728Y-68736281D01*
X58291939Y-68708736D01*
X58300608Y-68707893D01*
X58408539Y-68700593D01*
X58533308Y-68697185D01*
X58671614Y-68697487D01*
X58820158Y-68701318D01*
X58975640Y-68708497D01*
X59134758Y-68718844D01*
X59294213Y-68732177D01*
X59450704Y-68748315D01*
X59600931Y-68767076D01*
X59741594Y-68788281D01*
X59795827Y-68798271D01*
X59842694Y-68810279D01*
X59875483Y-68824216D01*
X59897818Y-68841686D01*
X59913321Y-68864291D01*
X59921858Y-68883275D01*
X59930445Y-68923408D01*
X59924986Y-68964710D01*
X59904548Y-69009606D01*
X59868200Y-69060522D01*
X59815007Y-69119882D01*
X59789677Y-69146862D01*
X59751394Y-69188674D01*
X59704184Y-69240923D01*
X59650497Y-69300847D01*
X59592783Y-69365686D01*
X59533491Y-69432680D01*
X59475072Y-69499066D01*
X59419976Y-69562085D01*
X59370651Y-69618975D01*
X59329549Y-69666976D01*
X59277802Y-69728598D01*
X59158560Y-69875613D01*
X59045617Y-70021902D01*
X58939832Y-70166080D01*
X58842064Y-70306763D01*
X58753173Y-70442567D01*
X58674018Y-70572105D01*
X58605458Y-70693993D01*
X58548353Y-70806847D01*
X58503562Y-70909282D01*
X58471945Y-70999912D01*
X58454360Y-71077354D01*
X58446923Y-71128263D01*
X58487388Y-71120778D01*
X58500960Y-71118085D01*
X58537557Y-71109060D01*
X58578438Y-71096316D01*
X58625361Y-71079082D01*
X58680084Y-71056587D01*
X58744364Y-71028063D01*
X58819960Y-70992739D01*
X58908627Y-70949844D01*
X59012126Y-70898610D01*
X59132211Y-70838265D01*
X59226981Y-70790482D01*
X59338823Y-70734456D01*
X59435640Y-70686513D01*
X59519400Y-70645757D01*
X59592071Y-70611293D01*
X59655624Y-70582226D01*
X59712025Y-70557659D01*
X59763243Y-70536698D01*
X59811248Y-70518446D01*
X59858007Y-70502009D01*
X59905490Y-70486490D01*
X59952898Y-70471681D01*
X60021508Y-70451552D01*
X60081506Y-70436458D01*
X60137795Y-70425693D01*
X60195284Y-70418549D01*
X60258876Y-70414319D01*
X60333479Y-70412297D01*
X60423998Y-70411776D01*
X60507232Y-70412165D01*
X60582240Y-70413800D01*
X60641503Y-70417144D01*
X60687691Y-70422656D01*
X60723476Y-70430795D01*
X60751526Y-70442020D01*
X60774512Y-70456791D01*
X60795104Y-70475565D01*
X60802943Y-70483774D01*
X60818142Y-70502440D01*
X60826337Y-70521412D01*
X60829678Y-70547530D01*
X60830314Y-70587637D01*
X60830143Y-70608478D01*
X60828384Y-70637526D01*
X60823372Y-70663571D01*
X60813473Y-70691964D01*
X60797055Y-70728055D01*
X60772487Y-70777193D01*
X60758823Y-70803109D01*
X60730591Y-70853865D01*
X60695078Y-70915486D01*
X60654635Y-70983961D01*
X60611615Y-71055276D01*
X60568369Y-71125420D01*
X60565451Y-71130096D01*
X60490293Y-71250949D01*
X60424773Y-71357367D01*
X60367259Y-71452296D01*
X60316116Y-71538683D01*
X60269711Y-71619473D01*
X60226411Y-71697611D01*
X60184582Y-71776043D01*
X60142590Y-71857716D01*
X60098803Y-71945574D01*
X60051586Y-72042563D01*
X59999307Y-72151630D01*
X59968192Y-72217071D01*
X59924944Y-72308926D01*
X59890236Y-72384016D01*
X59863570Y-72443490D01*
X59844448Y-72488496D01*
X59832370Y-72520185D01*
X59826840Y-72539706D01*
X59827357Y-72548208D01*
X59829785Y-72548834D01*
X59838191Y-72547613D01*
X59853666Y-72543482D01*
X59877594Y-72535952D01*
X59911359Y-72524538D01*
X59956342Y-72508750D01*
X60013927Y-72488103D01*
X60085498Y-72462108D01*
X60172437Y-72430279D01*
X60276127Y-72392129D01*
X60397952Y-72347169D01*
X60406364Y-72344062D01*
X60521460Y-72301819D01*
X60626124Y-72264009D01*
X60724700Y-72229151D01*
X60821532Y-72195768D01*
X60920964Y-72162378D01*
X61027341Y-72127504D01*
X61145006Y-72089666D01*
X61278305Y-72047384D01*
X61336279Y-72028638D01*
X61393293Y-72009292D01*
X61441858Y-71991875D01*
X61478143Y-71977763D01*
X61498320Y-71968333D01*
X61505478Y-71964212D01*
X61552511Y-71949111D01*
X61598384Y-71954070D01*
X61640179Y-71978872D01*
X61660637Y-71999903D01*
X61671590Y-72023240D01*
X61674203Y-72056431D01*
X61671849Y-72087781D01*
X61661399Y-72113208D01*
X61638445Y-72140483D01*
X61635684Y-72143281D01*
X61621784Y-72155578D01*
X61604629Y-72166996D01*
X61581440Y-72178698D01*
X61549439Y-72191844D01*
X61505847Y-72207597D01*
X61447885Y-72227119D01*
X61372776Y-72251570D01*
X61362360Y-72254932D01*
X61282825Y-72280614D01*
X61198905Y-72307730D01*
X61116655Y-72334323D01*
X61042129Y-72358436D01*
X60981381Y-72378113D01*
X60967681Y-72382572D01*
X60933068Y-72394015D01*
X60895890Y-72406586D01*
X60854604Y-72420844D01*
X60807670Y-72437345D01*
X60753543Y-72456648D01*
X60690682Y-72479310D01*
X60617545Y-72505887D01*
X60532588Y-72536939D01*
X60434271Y-72573021D01*
X60321050Y-72614693D01*
X60191382Y-72662510D01*
X60043727Y-72717031D01*
X60027066Y-72723079D01*
X59968608Y-72743127D01*
X59908074Y-72762488D01*
X59856196Y-72777688D01*
X59806428Y-72790320D01*
X59757362Y-72799239D01*
X59718352Y-72800513D01*
X59684235Y-72794210D01*
X59649850Y-72780398D01*
X59629605Y-72769388D01*
X59602611Y-72745660D01*
X59582474Y-72710218D01*
X59573244Y-72687874D01*
X59567052Y-72663255D01*
X59567602Y-72636961D01*
X59574203Y-72599764D01*
X59574383Y-72598892D01*
X59584585Y-72556624D01*
X59599020Y-72509233D01*
X59618476Y-72454821D01*
X59643741Y-72391489D01*
X59675605Y-72317337D01*
X59714854Y-72230468D01*
X59762278Y-72128983D01*
X59818666Y-72010982D01*
X59865308Y-71914625D01*
X59914574Y-71814360D01*
X59959948Y-71724218D01*
X60003336Y-71640749D01*
X60046640Y-71560503D01*
X60091764Y-71480029D01*
X60140613Y-71395877D01*
X60195090Y-71304595D01*
X60257099Y-71202734D01*
X60328544Y-71086842D01*
X60362007Y-71032670D01*
X60407652Y-70958404D01*
X60450269Y-70888651D01*
X60488259Y-70826047D01*
X60520025Y-70773227D01*
X60543972Y-70732824D01*
X60558500Y-70707474D01*
X60596281Y-70638544D01*
X60557022Y-70632056D01*
X60526667Y-70628102D01*
X60448326Y-70624478D01*
X60358322Y-70627437D01*
X60262071Y-70636538D01*
X60164988Y-70651342D01*
X60072488Y-70671408D01*
X60034714Y-70681435D01*
X59985825Y-70695785D01*
X59935910Y-70712267D01*
X59883035Y-70731725D01*
X59825265Y-70755001D01*
X59760668Y-70782937D01*
X59687308Y-70816376D01*
X59603251Y-70856159D01*
X59506563Y-70903131D01*
X59395310Y-70958132D01*
X59267558Y-71022006D01*
X59194401Y-71058669D01*
X59077386Y-71116931D01*
X58976194Y-71166619D01*
X58889119Y-71208399D01*
X58814456Y-71242943D01*
X58750501Y-71270917D01*
X58695547Y-71292992D01*
X58647890Y-71309836D01*
X58605824Y-71322117D01*
X58567645Y-71330505D01*
X58531647Y-71335668D01*
X58496125Y-71338276D01*
X58459373Y-71338997D01*
X58422667Y-71338742D01*
X58386125Y-71336993D01*
X58360335Y-71332587D01*
X58339465Y-71324382D01*
X58317685Y-71311234D01*
X58285756Y-71283729D01*
X58252063Y-71233115D01*
X58239614Y-71196884D01*
X58231156Y-71132200D01*
X58233822Y-71056340D01*
X58247405Y-70972980D01*
X58271697Y-70885797D01*
X58282186Y-70856568D01*
X58315272Y-70777422D01*
X58358837Y-70686102D01*
X58411237Y-70585591D01*
X58470829Y-70478872D01*
X58535969Y-70368929D01*
X58605015Y-70258744D01*
X58676322Y-70151302D01*
X58683102Y-70141406D01*
X58747535Y-70048871D01*
X58812175Y-69959020D01*
X58878612Y-69869893D01*
X58948434Y-69779529D01*
X59023230Y-69685969D01*
X59104590Y-69587254D01*
X59194103Y-69481422D01*
X59293357Y-69366515D01*
X59403942Y-69240573D01*
X59527448Y-69101635D01*
X59559872Y-69064419D01*
X59589014Y-69028023D01*
X59604002Y-69004675D01*
X59604363Y-68995029D01*
X59603112Y-68994639D01*
X59583541Y-68991029D01*
X59546783Y-68985952D01*
X59495944Y-68979728D01*
X59434132Y-68972682D01*
X59364454Y-68965138D01*
X59290017Y-68957417D01*
X59213927Y-68949844D01*
X59139292Y-68942742D01*
X59069219Y-68936433D01*
X59006814Y-68931242D01*
X58955185Y-68927491D01*
X58794804Y-68919523D01*
X58584562Y-68917559D01*
X58384538Y-68926513D01*
X58190131Y-68946765D01*
X57996741Y-68978693D01*
X57799768Y-69022676D01*
X57735678Y-69039384D01*
X57618684Y-69073809D01*
X57502190Y-69113701D01*
X57380289Y-69161148D01*
X57247077Y-69218242D01*
X57200969Y-69238428D01*
X57122896Y-69270420D01*
X57059237Y-69292568D01*
X57007549Y-69305188D01*
X56965387Y-69308596D01*
X56930310Y-69303107D01*
X56899873Y-69289036D01*
X56871633Y-69266699D01*
X56849961Y-69243620D01*
X56837888Y-69219714D01*
X56834867Y-69189165D01*
X56837384Y-69164563D01*
X56852635Y-69111844D01*
X56880978Y-69045966D01*
X56921573Y-68968100D01*
X56973578Y-68879417D01*
X57036151Y-68781090D01*
X57108451Y-68674291D01*
X57189637Y-68560192D01*
X57278866Y-68439964D01*
X57375298Y-68314780D01*
X57478091Y-68185811D01*
X57586404Y-68054229D01*
X57699396Y-67921206D01*
X57816224Y-67787914D01*
X57936047Y-67655525D01*
X57946635Y-67644034D01*
X58038955Y-67545409D01*
X58130370Y-67450807D01*
X58223774Y-67357427D01*
X58322061Y-67262468D01*
X58428125Y-67163131D01*
X58544858Y-67056614D01*
X58675154Y-66940116D01*
X58711276Y-66908018D01*
X58774269Y-66851738D01*
X58832954Y-66798935D01*
X58885065Y-66751668D01*
X58928337Y-66711997D01*
X58960504Y-66681981D01*
X58979302Y-66663678D01*
X59024433Y-66616945D01*
X58953256Y-66602581D01*
X58935893Y-66599696D01*
X58885843Y-66594697D01*
X58821574Y-66591236D01*
X58747547Y-66589310D01*
X58668225Y-66588920D01*
X58588068Y-66590065D01*
X58511538Y-66592743D01*
X58443097Y-66596954D01*
X58387205Y-66602696D01*
X58319580Y-66612849D01*
X58239731Y-66627063D01*
X58149599Y-66645269D01*
X58046768Y-66667980D01*
X57928826Y-66695709D01*
X57793358Y-66728970D01*
X57792947Y-66729072D01*
X57679698Y-66757024D01*
X57584267Y-66779825D01*
X57504406Y-66797916D01*
X57437867Y-66811733D01*
X57382404Y-66821717D01*
X57335768Y-66828305D01*
X57295711Y-66831936D01*
X57259987Y-66833049D01*
X57221995Y-66831395D01*
X57154368Y-66817413D01*
X57101927Y-66789216D01*
X57064714Y-66746834D01*
X57042772Y-66690292D01*
X57039131Y-66666444D01*
X57039911Y-66631929D01*
X57048141Y-66593625D01*
X57064711Y-66549826D01*
X57090506Y-66498825D01*
X57126414Y-66438916D01*
X57173324Y-66368394D01*
X57232121Y-66285552D01*
X57303694Y-66188684D01*
X57360665Y-66112917D01*
X57415988Y-66040103D01*
X57468280Y-65972331D01*
X57518986Y-65907918D01*
X57569548Y-65845182D01*
X57621413Y-65782440D01*
X57676024Y-65718008D01*
X57734826Y-65650202D01*
X57799262Y-65577341D01*
X57870777Y-65497741D01*
X57950815Y-65409718D01*
X58040821Y-65311590D01*
X58142239Y-65201673D01*
X58256513Y-65078285D01*
X58297380Y-65034177D01*
X58359551Y-64966949D01*
X58419319Y-64902175D01*
X58474327Y-64842417D01*
X58522218Y-64790236D01*
X58560636Y-64748193D01*
X58587224Y-64718851D01*
X58667431Y-64629563D01*
X58606881Y-64626498D01*
X58585810Y-64626371D01*
X58544337Y-64627683D01*
X58488608Y-64630408D01*
X58422178Y-64634350D01*
X58348599Y-64639312D01*
X58271423Y-64645096D01*
X58269220Y-64645269D01*
X58194409Y-64650608D01*
X58103247Y-64656279D01*
X58000064Y-64662058D01*
X57889190Y-64667725D01*
X57774957Y-64673058D01*
X57661695Y-64677835D01*
X57553735Y-64681834D01*
X57516534Y-64683126D01*
X57418444Y-64686768D01*
X57324006Y-64690597D01*
X57236081Y-64694476D01*
X57157532Y-64698271D01*
X57091222Y-64701845D01*
X57040014Y-64705063D01*
X57006771Y-64707788D01*
X56994553Y-64709110D01*
X56921153Y-64718384D01*
X56835208Y-64730971D01*
X56743233Y-64745787D01*
X56651742Y-64761747D01*
X56567250Y-64777766D01*
X56496270Y-64792761D01*
X56464168Y-64799554D01*
X56386537Y-64811425D01*
X56318293Y-64815248D01*
X56262686Y-64810956D01*
X56222964Y-64798480D01*
X56219806Y-64796721D01*
X56183147Y-64764746D01*
X56163681Y-64721892D01*
X56162464Y-64670392D01*
X56164996Y-64656930D01*
X56171334Y-64638690D01*
X56183017Y-64619582D01*
X56202574Y-64596332D01*
X56232538Y-64565667D01*
X56275439Y-64524315D01*
X56407753Y-64402618D01*
X56611914Y-64228619D01*
X56836371Y-64052054D01*
X57080923Y-63873078D01*
X57345368Y-63691850D01*
X57406300Y-63651454D01*
X57496728Y-63592036D01*
X57574945Y-63541549D01*
X57644026Y-63498146D01*
X57707047Y-63459981D01*
X57767084Y-63425205D01*
X57827214Y-63391973D01*
X57890511Y-63358438D01*
X57960052Y-63322752D01*
X57995441Y-63304964D01*
X58205337Y-63206631D01*
X58407095Y-63125066D01*
X58603230Y-63059507D01*
X58796253Y-63009189D01*
X58988679Y-62973350D01*
X59183020Y-62951226D01*
X59275594Y-62943900D01*
X59220832Y-62911588D01*
X59199756Y-62898906D01*
X59148855Y-62867040D01*
X59089132Y-62828451D01*
X59024365Y-62785688D01*
X58958330Y-62741302D01*
X58894805Y-62697841D01*
X58837566Y-62657856D01*
X58790391Y-62623896D01*
X58757058Y-62598512D01*
X58754275Y-62596268D01*
X58679239Y-62533075D01*
X58602205Y-62463505D01*
X58525806Y-62390302D01*
X58452675Y-62316206D01*
X58385443Y-62243960D01*
X58326744Y-62176304D01*
X58279209Y-62115980D01*
X58245472Y-62065730D01*
X58232892Y-62042853D01*
X58208054Y-61989110D01*
X58187532Y-61933554D01*
X58173572Y-61882677D01*
X58168419Y-61842972D01*
X58169565Y-61827864D01*
X58185244Y-61785202D01*
X58215839Y-61750482D01*
X58256920Y-61729390D01*
X58269337Y-61727151D01*
X58304341Y-61724071D01*
X58354948Y-61721672D01*
X58417932Y-61719960D01*
X58490063Y-61718944D01*
X58568113Y-61718630D01*
X58648855Y-61719026D01*
X58729060Y-61720139D01*
X58805499Y-61721977D01*
X58874946Y-61724546D01*
X58934170Y-61727855D01*
X58941888Y-61728395D01*
X59157216Y-61747233D01*
X59365450Y-61772655D01*
X59563928Y-61804189D01*
X59749988Y-61841359D01*
X59920967Y-61883693D01*
X60074202Y-61930717D01*
X60083678Y-61933960D01*
X60118695Y-61945810D01*
X60143871Y-61954117D01*
X60154279Y-61957249D01*
X60153673Y-61955624D01*
X60145034Y-61940696D01*
X60127840Y-61912659D01*
X60103989Y-61874586D01*
X60075379Y-61829549D01*
X60045401Y-61781288D01*
X60008872Y-61720221D01*
X59967328Y-61649079D01*
X59922059Y-61570206D01*
X59874353Y-61485941D01*
X59825500Y-61398627D01*
X59776788Y-61310606D01*
X59729505Y-61224219D01*
X59684942Y-61141808D01*
X59644385Y-61065715D01*
X59609126Y-60998280D01*
X59580451Y-60941847D01*
X59559650Y-60898757D01*
X59548012Y-60871350D01*
X59543457Y-60857289D01*
X59534319Y-60800898D01*
X59541700Y-60753645D01*
X59564505Y-60717479D01*
X59601638Y-60694350D01*
X59652006Y-60686207D01*
X59665979Y-60688145D01*
X59699041Y-60697653D01*
X59741278Y-60713329D01*
X59787011Y-60733196D01*
X59811748Y-60744606D01*
X59867176Y-60769190D01*
X59929070Y-60795330D01*
X59998762Y-60823522D01*
X60077585Y-60854260D01*
X60166873Y-60888038D01*
X60267959Y-60925351D01*
X60382176Y-60966695D01*
X60510856Y-61012563D01*
X60655333Y-61063451D01*
X60816939Y-61119854D01*
X60997008Y-61182265D01*
X61011693Y-61187340D01*
X61135672Y-61230229D01*
X61242104Y-61267170D01*
X61332933Y-61298908D01*
X61410103Y-61326187D01*
X61475560Y-61349752D01*
X61531248Y-61370348D01*
X61579113Y-61388719D01*
X61621098Y-61405611D01*
X61659148Y-61421768D01*
X61695209Y-61437935D01*
X61731225Y-61454856D01*
X61769140Y-61473277D01*
X61810900Y-61493941D01*
X62000165Y-61588016D01*
X61968967Y-61504360D01*
X61945867Y-61442079D01*
X61887598Y-61281241D01*
X61836910Y-61135016D01*
X61792811Y-61000312D01*
X61754310Y-60874033D01*
X61720415Y-60753086D01*
X61690134Y-60634377D01*
X61689061Y-60629946D01*
X61672384Y-60556318D01*
X61662390Y-60499097D01*
X61659067Y-60455132D01*
X61662399Y-60421266D01*
X61672373Y-60394345D01*
X61688976Y-60371216D01*
X61699131Y-60360581D01*
X61719673Y-60344741D01*
X61742551Y-60336706D01*
X61770323Y-60337009D01*
X61805550Y-60346184D01*
X61850789Y-60364766D01*
X61908601Y-60393290D01*
X61981545Y-60432288D01*
X62017168Y-60451939D01*
X62103752Y-60501809D01*
X62184995Y-60552213D01*
X62264221Y-60605537D01*
X62344757Y-60664168D01*
X62429929Y-60730493D01*
X62523063Y-60806897D01*
X62627484Y-60895768D01*
X62743539Y-60999905D01*
X62942880Y-61199150D01*
X63126762Y-61410284D01*
X63169742Y-61462940D01*
X63225693Y-61529919D01*
X63270267Y-61581005D01*
X63303994Y-61616776D01*
X63327404Y-61637814D01*
X63341028Y-61644698D01*
X63342962Y-61643954D01*
X63354425Y-61630693D01*
X63370934Y-61604270D01*
X63389608Y-61569165D01*
X63389999Y-61568376D01*
X63408537Y-61533285D01*
X63436571Y-61483103D01*
X63472614Y-61420341D01*
X63515178Y-61347512D01*
X63562776Y-61267128D01*
X63613921Y-61181701D01*
X63667125Y-61093744D01*
X63720902Y-61005769D01*
X63773762Y-60920289D01*
X63819521Y-60846292D01*
X63907439Y-60700784D01*
X63983293Y-60570121D01*
X64047628Y-60453253D01*
X64100993Y-60349133D01*
X64143934Y-60256713D01*
X64177001Y-60174944D01*
X64200739Y-60102778D01*
X64206324Y-60083434D01*
X64224167Y-60027586D01*
X64241084Y-59987307D01*
X64259362Y-59958780D01*
X64281285Y-59938189D01*
X64309137Y-59921717D01*
X64342865Y-59909904D01*
X64378244Y-59910163D01*
G37*
%TD*%
D11*
%TO.C,H5*%
X64190000Y-49500000D03*
D12*
X66730000Y-49500000D03*
X69270000Y-49500000D03*
X71810000Y-49500000D03*
%TD*%
D13*
%TO.C,R18*%
X63000000Y-57340000D03*
X63000000Y-77660000D03*
%TD*%
D14*
%TO.C,H11*%
X67750000Y-84500000D03*
%TD*%
D15*
%TO.C,RLY2*%
X38150000Y-58250000D03*
D16*
X38150000Y-69750000D03*
X38150000Y-76750000D03*
D15*
X42850000Y-58250000D03*
%TD*%
D14*
%TO.C,H10*%
X32750000Y-84500000D03*
%TD*%
%TO.C,H9*%
X47500000Y-38500000D03*
%TD*%
D17*
%TO.C,H4*%
X52070000Y-32004000D03*
D16*
X49530000Y-32004000D03*
%TD*%
D18*
%TO.C,DC1*%
X26609284Y-35137750D03*
X26609284Y-29137750D03*
D19*
X21958284Y-32637750D03*
%TD*%
D11*
%TO.C,H6*%
X24230000Y-87000000D03*
D12*
X26770000Y-87000000D03*
%TD*%
D13*
%TO.C,R12*%
X32000000Y-57340000D03*
X32000000Y-77660000D03*
%TD*%
D15*
%TO.C,RLY1*%
X22650000Y-58250000D03*
D16*
X22650000Y-69750000D03*
X22650000Y-76750000D03*
D15*
X27350000Y-58250000D03*
%TD*%
%TO.C,RLY3*%
X53650000Y-58250000D03*
D16*
X53650000Y-69750000D03*
X53650000Y-76750000D03*
D15*
X58350000Y-58250000D03*
%TD*%
D11*
%TO.C,H3*%
X79500000Y-29690000D03*
D12*
X79500000Y-32230000D03*
X79500000Y-34770000D03*
X79500000Y-37310000D03*
%TD*%
D13*
%TO.C,R15*%
X47500000Y-57340000D03*
X47500000Y-77660000D03*
%TD*%
D16*
%TO.C,SW2*%
X79937250Y-53956305D03*
X79937250Y-49456305D03*
X77437250Y-55206305D03*
X77437250Y-48206305D03*
%TD*%
D17*
%TO.C,H2*%
X22500000Y-40270000D03*
D16*
X22500000Y-37730000D03*
%TD*%
D11*
%TO.C,H7*%
X39960000Y-87000000D03*
D12*
X42500000Y-87000000D03*
%TD*%
D16*
%TO.C,SW4*%
X79937250Y-85956305D03*
X79937250Y-81456305D03*
X77437250Y-87206305D03*
X77437250Y-80206305D03*
%TD*%
D20*
%TO.C,USB1*%
X46825000Y-30875750D03*
D21*
X46825000Y-26675750D03*
D20*
X38175000Y-30875750D03*
D21*
X38175000Y-26675750D03*
%TD*%
D17*
%TO.C,H1*%
X51000000Y-44270000D03*
D16*
X51000000Y-41730000D03*
%TD*%
D11*
%TO.C,H8*%
X55230000Y-87000000D03*
D12*
X57770000Y-87000000D03*
%TD*%
M02*
