%TF.GenerationSoftware,KiCad,Pcbnew,10.0.1-1.fc44*%
%TF.CreationDate,2026-05-04T12:42:03+01:00*%
%TF.ProjectId,capacitor-alarm-clock,63617061-6369-4746-9f72-2d616c61726d,rev?*%
%TF.SameCoordinates,Original*%
%TF.FileFunction,Drillmap*%
%TF.FilePolarity,Positive*%
%FSLAX45Y45*%
G04 Gerber Fmt 4.5, Leading zero omitted, Abs format (unit mm)*
G04 Created by KiCad (PCBNEW 10.0.1-1.fc44) date 2026-05-04 12:42:03*
%MOMM*%
%LPD*%
G01*
G04 APERTURE LIST*
%ADD10C,0.050000*%
%ADD11C,0.000000*%
%ADD12C,0.200000*%
%ADD13C,0.100000*%
%ADD14C,0.110000*%
%ADD15C,0.120000*%
%ADD16C,0.130000*%
G04 APERTURE END LIST*
D10*
X2032000Y-2464200D02*
X8261400Y-2464200D01*
X8261400Y-8890000D01*
X2032000Y-8890000D01*
X2032000Y-2464200D01*
D11*
G36*
X3974394Y-3003239D02*
G01*
X3982307Y-3007808D01*
X3988767Y-3014268D01*
X3993336Y-3022181D01*
X3995701Y-3031007D01*
X3995701Y-3040143D01*
X3993336Y-3048969D01*
X3988767Y-3056882D01*
X3982307Y-3063342D01*
X3974394Y-3067911D01*
X3965568Y-3070276D01*
X3956432Y-3070276D01*
X3947606Y-3067911D01*
X3939693Y-3063342D01*
X3933233Y-3056882D01*
X3928664Y-3048969D01*
X3926299Y-3040143D01*
X3926299Y-3031007D01*
X3928664Y-3022181D01*
X3933233Y-3014268D01*
X3939693Y-3007808D01*
X3947606Y-3003239D01*
X3956432Y-3000874D01*
X3965568Y-3000874D01*
X3974394Y-3003239D01*
G37*
G36*
X4552394Y-3003239D02*
G01*
X4560307Y-3007808D01*
X4566767Y-3014268D01*
X4571336Y-3022181D01*
X4573701Y-3031007D01*
X4573701Y-3040143D01*
X4571336Y-3048969D01*
X4566767Y-3056882D01*
X4560307Y-3063342D01*
X4552394Y-3067911D01*
X4543568Y-3070276D01*
X4534432Y-3070276D01*
X4525606Y-3067911D01*
X4517693Y-3063342D01*
X4511233Y-3056882D01*
X4506664Y-3048969D01*
X4504299Y-3040143D01*
X4504299Y-3031007D01*
X4506664Y-3022181D01*
X4511233Y-3014268D01*
X4517693Y-3007808D01*
X4525606Y-3003239D01*
X4534432Y-3000874D01*
X4543568Y-3000874D01*
X4552394Y-3003239D01*
G37*
D12*
D13*
X2118600Y-5115800D02*
X2148600Y-5145800D01*
X2148600Y-5115800D02*
X2118600Y-5145800D01*
X2321800Y-5522200D02*
X2351800Y-5552200D01*
X2351800Y-5522200D02*
X2321800Y-5552200D01*
X2635000Y-4210000D02*
X2665000Y-4240000D01*
X2665000Y-4210000D02*
X2635000Y-4240000D01*
X2760000Y-4885000D02*
X2790000Y-4915000D01*
X2790000Y-4885000D02*
X2760000Y-4915000D01*
X3035000Y-5310000D02*
X3065000Y-5340000D01*
X3065000Y-5310000D02*
X3035000Y-5340000D01*
X3388600Y-3795000D02*
X3418600Y-3825000D01*
X3418600Y-3795000D02*
X3388600Y-3825000D01*
X3388600Y-4557000D02*
X3418600Y-4587000D01*
X3418600Y-4557000D02*
X3388600Y-4587000D01*
X3490200Y-5471400D02*
X3520200Y-5501400D01*
X3520200Y-5471400D02*
X3490200Y-5501400D01*
X3642600Y-4963400D02*
X3672600Y-4993400D01*
X3672600Y-4963400D02*
X3642600Y-4993400D01*
X3795000Y-3439400D02*
X3825000Y-3469400D01*
X3825000Y-3439400D02*
X3795000Y-3469400D01*
X3888800Y-5530000D02*
X3918800Y-5560000D01*
X3918800Y-5530000D02*
X3888800Y-5560000D01*
X3896600Y-4455400D02*
X3926600Y-4485400D01*
X3926600Y-4455400D02*
X3896600Y-4485400D01*
X4099800Y-3439400D02*
X4129800Y-3469400D01*
X4129800Y-3439400D02*
X4099800Y-3469400D01*
X4201400Y-2931400D02*
X4231400Y-2961400D01*
X4231400Y-2931400D02*
X4201400Y-2961400D01*
X4356250Y-4860000D02*
X4386250Y-4890000D01*
X4386250Y-4860000D02*
X4356250Y-4890000D01*
X4380500Y-4561900D02*
X4410500Y-4591900D01*
X4410500Y-4561900D02*
X4380500Y-4591900D01*
X4785000Y-4960000D02*
X4815000Y-4990000D01*
X4815000Y-4960000D02*
X4785000Y-4990000D01*
X5065000Y-3388600D02*
X5095000Y-3418600D01*
X5095000Y-3388600D02*
X5065000Y-3418600D01*
X5217400Y-5115800D02*
X5247400Y-5145800D01*
X5247400Y-5115800D02*
X5217400Y-5145800D01*
X5420600Y-5522200D02*
X5450600Y-5552200D01*
X5450600Y-5522200D02*
X5420600Y-5552200D01*
X5460000Y-4635000D02*
X5490000Y-4665000D01*
X5490000Y-4635000D02*
X5460000Y-4665000D01*
X5585000Y-3635000D02*
X5615000Y-3665000D01*
X5615000Y-3635000D02*
X5585000Y-3665000D01*
X5585102Y-3458677D02*
X5615102Y-3488677D01*
X5615102Y-3458677D02*
X5585102Y-3488677D01*
X5685000Y-3585000D02*
X5715000Y-3615000D01*
X5715000Y-3585000D02*
X5685000Y-3615000D01*
X5785000Y-4410000D02*
X5815000Y-4440000D01*
X5815000Y-4410000D02*
X5785000Y-4440000D01*
X5797800Y-4985000D02*
X5827800Y-5015000D01*
X5827800Y-4985000D02*
X5797800Y-5015000D01*
X6035000Y-3010000D02*
X6065000Y-3040000D01*
X6065000Y-3010000D02*
X6035000Y-3040000D01*
X6110000Y-3785000D02*
X6140000Y-3815000D01*
X6140000Y-3785000D02*
X6110000Y-3815000D01*
X6110000Y-3885000D02*
X6140000Y-3915000D01*
X6140000Y-3885000D02*
X6110000Y-3915000D01*
X6235000Y-5435000D02*
X6265000Y-5465000D01*
X6265000Y-5435000D02*
X6235000Y-5465000D01*
X6335000Y-3560000D02*
X6365000Y-3590000D01*
X6365000Y-3560000D02*
X6335000Y-3590000D01*
X6436600Y-3305003D02*
X6466600Y-3335003D01*
X6466600Y-3305003D02*
X6436600Y-3335003D01*
X6436600Y-3457403D02*
X6466600Y-3487403D01*
X6466600Y-3457403D02*
X6436600Y-3487403D01*
X6436600Y-3609803D02*
X6466600Y-3639803D01*
X6466600Y-3609803D02*
X6436600Y-3639803D01*
X6436600Y-3762203D02*
X6466600Y-3792203D01*
X6466600Y-3762203D02*
X6436600Y-3792203D01*
X6436600Y-3914603D02*
X6466600Y-3944603D01*
X6466600Y-3914603D02*
X6436600Y-3944603D01*
X6639800Y-3305003D02*
X6669800Y-3335003D01*
X6669800Y-3305003D02*
X6639800Y-3335003D01*
X6835000Y-4535000D02*
X6865000Y-4565000D01*
X6865000Y-4535000D02*
X6835000Y-4565000D01*
X6843000Y-3305003D02*
X6873000Y-3335003D01*
X6873000Y-3305003D02*
X6843000Y-3335003D01*
X6945399Y-4237500D02*
X6975399Y-4267500D01*
X6975399Y-4237500D02*
X6945399Y-4267500D01*
X6985000Y-7385000D02*
X7015000Y-7415000D01*
X7015000Y-7385000D02*
X6985000Y-7415000D01*
X7010000Y-5985000D02*
X7040000Y-6015000D01*
X7040000Y-5985000D02*
X7010000Y-6015000D01*
X7010000Y-6785000D02*
X7040000Y-6815000D01*
X7040000Y-6785000D02*
X7010000Y-6815000D01*
X7035000Y-4210000D02*
X7065000Y-4240000D01*
X7065000Y-4210000D02*
X7035000Y-4240000D01*
X7035000Y-5310000D02*
X7065000Y-5340000D01*
X7065000Y-5310000D02*
X7035000Y-5340000D01*
X7046200Y-3305003D02*
X7076200Y-3335003D01*
X7076200Y-3305003D02*
X7046200Y-3335003D01*
X7110000Y-8010000D02*
X7140000Y-8040000D01*
X7140000Y-8010000D02*
X7110000Y-8040000D01*
X7185000Y-5485000D02*
X7215000Y-5515000D01*
X7215000Y-5485000D02*
X7185000Y-5515000D01*
X7249400Y-3305003D02*
X7279400Y-3335003D01*
X7279400Y-3305003D02*
X7249400Y-3335003D01*
X7249400Y-3457403D02*
X7279400Y-3487403D01*
X7279400Y-3457403D02*
X7249400Y-3487403D01*
X7249400Y-3609803D02*
X7279400Y-3639803D01*
X7279400Y-3609803D02*
X7249400Y-3639803D01*
X7249400Y-3762203D02*
X7279400Y-3792203D01*
X7279400Y-3762203D02*
X7249400Y-3792203D01*
X7249400Y-3914603D02*
X7279400Y-3944603D01*
X7279400Y-3914603D02*
X7249400Y-3944603D01*
X7260000Y-8010000D02*
X7290000Y-8040000D01*
X7290000Y-8010000D02*
X7260000Y-8040000D01*
X7453725Y-7830630D02*
X7483725Y-7860630D01*
X7483725Y-7830630D02*
X7453725Y-7860630D01*
X7503400Y-4270203D02*
X7533400Y-4300203D01*
X7533400Y-4270203D02*
X7503400Y-4300203D01*
X7585000Y-3985000D02*
X7615000Y-4015000D01*
X7615000Y-3985000D02*
X7585000Y-4015000D01*
X7685000Y-3935000D02*
X7715000Y-3965000D01*
X7715000Y-3935000D02*
X7685000Y-3965000D01*
X7967500Y-4310000D02*
X7997500Y-4340000D01*
X7997500Y-4310000D02*
X7967500Y-4340000D01*
X7978725Y-5805630D02*
X8008725Y-5835630D01*
X8008725Y-5805630D02*
X7978725Y-5835630D01*
X7978725Y-6155630D02*
X8008725Y-6185630D01*
X8008725Y-6155630D02*
X7978725Y-6185630D01*
X7978725Y-7355630D02*
X8008725Y-7385630D01*
X8008725Y-7355630D02*
X7978725Y-7385630D01*
X7978725Y-7705630D02*
X8008725Y-7735630D01*
X8008725Y-7705630D02*
X7978725Y-7735630D01*
X3847500Y-2667575D02*
G75*
G02*
X3787500Y-2667575I-30000J0D01*
G01*
X3787500Y-2667575D02*
G75*
G02*
X3847500Y-2667575I30000J0D01*
G01*
X3847500Y-2697575D02*
X3847500Y-2637575D01*
X3787500Y-2637575D02*
G75*
G02*
X3847500Y-2637575I30000J0D01*
G01*
X3787500Y-2637575D02*
X3787500Y-2697575D01*
X3787500Y-2697575D02*
G75*
G03*
X3847500Y-2697575I30000J0D01*
G01*
X3847500Y-3087575D02*
G75*
G02*
X3787500Y-3087575I-30000J0D01*
G01*
X3787500Y-3087575D02*
G75*
G02*
X3847500Y-3087575I30000J0D01*
G01*
X3847500Y-3132575D02*
X3847500Y-3042575D01*
X3787500Y-3042575D02*
G75*
G02*
X3847500Y-3042575I30000J0D01*
G01*
X3787500Y-3042575D02*
X3787500Y-3132575D01*
X3787500Y-3132575D02*
G75*
G03*
X3847500Y-3132575I30000J0D01*
G01*
X4712500Y-2667575D02*
G75*
G02*
X4652500Y-2667575I-30000J0D01*
G01*
X4652500Y-2667575D02*
G75*
G02*
X4712500Y-2667575I30000J0D01*
G01*
X4712500Y-2697575D02*
X4712500Y-2637575D01*
X4652500Y-2637575D02*
G75*
G02*
X4712500Y-2637575I30000J0D01*
G01*
X4652500Y-2637575D02*
X4652500Y-2697575D01*
X4652500Y-2697575D02*
G75*
G03*
X4712500Y-2697575I30000J0D01*
G01*
X4712500Y-3087575D02*
G75*
G02*
X4652500Y-3087575I-30000J0D01*
G01*
X4652500Y-3087575D02*
G75*
G02*
X4712500Y-3087575I30000J0D01*
G01*
X4712500Y-3132575D02*
X4712500Y-3042575D01*
X4652500Y-3042575D02*
G75*
G02*
X4712500Y-3042575I30000J0D01*
G01*
X4652500Y-3042575D02*
X4652500Y-3132575D01*
X4652500Y-3132575D02*
G75*
G03*
X4712500Y-3132575I30000J0D01*
G01*
X2195828Y-3218775D02*
X2195828Y-3308775D01*
X2150828Y-3263775D02*
X2240828Y-3263775D01*
X2240828Y-3348775D02*
X2240828Y-3178775D01*
X2150828Y-3178775D02*
G75*
G02*
X2240828Y-3178775I45000J0D01*
G01*
X2150828Y-3178775D02*
X2150828Y-3348775D01*
X2150828Y-3348775D02*
G75*
G03*
X2240828Y-3348775I45000J0D01*
G01*
X2660928Y-2868775D02*
X2660928Y-2958775D01*
X2615928Y-2913775D02*
X2705928Y-2913775D01*
X2550928Y-2958775D02*
X2770928Y-2958775D01*
X2770928Y-2868775D02*
G75*
G02*
X2770928Y-2958775I0J-45000D01*
G01*
X2770928Y-2868775D02*
X2550928Y-2868775D01*
X2550928Y-2868775D02*
G75*
G03*
X2550928Y-2958775I0J-45000D01*
G01*
X2660928Y-3468775D02*
X2660928Y-3558775D01*
X2615928Y-3513775D02*
X2705928Y-3513775D01*
X2770928Y-3468775D02*
X2550928Y-3468775D01*
X2550928Y-3558775D02*
G75*
G02*
X2550928Y-3468775I0J45000D01*
G01*
X2550928Y-3558775D02*
X2770928Y-3558775D01*
X2770928Y-3558775D02*
G75*
G03*
X2770928Y-3468775I0J45000D01*
G01*
X2458356Y-8735356D02*
X2458356Y-8664644D01*
X2387644Y-8664644D01*
X2387644Y-8735356D01*
X2458356Y-8735356D01*
X2712356Y-8735356D02*
X2712356Y-8664644D01*
X2641644Y-8664644D01*
X2641644Y-8735356D01*
X2712356Y-8735356D01*
X4031356Y-8735356D02*
X4031356Y-8664644D01*
X3960644Y-8664644D01*
X3960644Y-8735356D01*
X4031356Y-8735356D01*
X4285356Y-8735356D02*
X4285356Y-8664644D01*
X4214644Y-8664644D01*
X4214644Y-8735356D01*
X4285356Y-8735356D01*
X5558356Y-8735356D02*
X5558356Y-8664644D01*
X5487644Y-8664644D01*
X5487644Y-8735356D01*
X5558356Y-8735356D01*
X5812356Y-8735356D02*
X5812356Y-8664644D01*
X5741644Y-8664644D01*
X5741644Y-8735356D01*
X5812356Y-8735356D01*
D14*
X2265000Y-5880000D02*
X2320000Y-5825000D01*
X2265000Y-5770000D01*
X2210000Y-5825000D01*
X2265000Y-5880000D01*
X2735000Y-5880000D02*
X2790000Y-5825000D01*
X2735000Y-5770000D01*
X2680000Y-5825000D01*
X2735000Y-5880000D01*
X3815000Y-5880000D02*
X3870000Y-5825000D01*
X3815000Y-5770000D01*
X3760000Y-5825000D01*
X3815000Y-5880000D01*
X4285000Y-5880000D02*
X4340000Y-5825000D01*
X4285000Y-5770000D01*
X4230000Y-5825000D01*
X4285000Y-5880000D01*
X5365000Y-5880000D02*
X5420000Y-5825000D01*
X5365000Y-5770000D01*
X5310000Y-5825000D01*
X5365000Y-5880000D01*
X5835000Y-5880000D02*
X5890000Y-5825000D01*
X5835000Y-5770000D01*
X5780000Y-5825000D01*
X5835000Y-5880000D01*
X6419000Y-5005000D02*
X6474000Y-4950000D01*
X6419000Y-4895000D01*
X6364000Y-4950000D01*
X6419000Y-5005000D01*
X6673000Y-5005000D02*
X6728000Y-4950000D01*
X6673000Y-4895000D01*
X6618000Y-4950000D01*
X6673000Y-5005000D01*
X6927000Y-5005000D02*
X6982000Y-4950000D01*
X6927000Y-4895000D01*
X6872000Y-4950000D01*
X6927000Y-5005000D01*
X7181000Y-5005000D02*
X7236000Y-4950000D01*
X7181000Y-4895000D01*
X7126000Y-4950000D01*
X7181000Y-5005000D01*
X7950000Y-3024000D02*
X8005000Y-2969000D01*
X7950000Y-2914000D01*
X7895000Y-2969000D01*
X7950000Y-3024000D01*
X7950000Y-3278000D02*
X8005000Y-3223000D01*
X7950000Y-3168000D01*
X7895000Y-3223000D01*
X7950000Y-3278000D01*
X7950000Y-3532000D02*
X8005000Y-3477000D01*
X7950000Y-3422000D01*
X7895000Y-3477000D01*
X7950000Y-3532000D01*
X7950000Y-3786000D02*
X8005000Y-3731000D01*
X7950000Y-3676000D01*
X7895000Y-3731000D01*
X7950000Y-3786000D01*
D15*
X2190000Y-3713000D02*
X2310000Y-3833000D01*
X2310000Y-3713000D02*
X2190000Y-3833000D01*
X2310000Y-3773000D02*
G75*
G02*
X2190000Y-3773000I-60000J0D01*
G01*
X2190000Y-3773000D02*
G75*
G02*
X2310000Y-3773000I60000J0D01*
G01*
X2190000Y-3967000D02*
X2310000Y-4087000D01*
X2310000Y-3967000D02*
X2190000Y-4087000D01*
X2310000Y-4027000D02*
G75*
G02*
X2190000Y-4027000I-60000J0D01*
G01*
X2190000Y-4027000D02*
G75*
G02*
X2310000Y-4027000I60000J0D01*
G01*
X3140000Y-5674000D02*
X3260000Y-5794000D01*
X3260000Y-5674000D02*
X3140000Y-5794000D01*
X3260000Y-5734000D02*
G75*
G02*
X3140000Y-5734000I-60000J0D01*
G01*
X3140000Y-5734000D02*
G75*
G02*
X3260000Y-5734000I60000J0D01*
G01*
X3140000Y-7706000D02*
X3260000Y-7826000D01*
X3260000Y-7706000D02*
X3140000Y-7826000D01*
X3260000Y-7766000D02*
G75*
G02*
X3140000Y-7766000I-60000J0D01*
G01*
X3140000Y-7766000D02*
G75*
G02*
X3260000Y-7766000I60000J0D01*
G01*
X4690000Y-5674000D02*
X4810000Y-5794000D01*
X4810000Y-5674000D02*
X4690000Y-5794000D01*
X4810000Y-5734000D02*
G75*
G02*
X4690000Y-5734000I-60000J0D01*
G01*
X4690000Y-5734000D02*
G75*
G02*
X4810000Y-5734000I60000J0D01*
G01*
X4690000Y-7706000D02*
X4810000Y-7826000D01*
X4810000Y-7706000D02*
X4690000Y-7826000D01*
X4810000Y-7766000D02*
G75*
G02*
X4690000Y-7766000I-60000J0D01*
G01*
X4690000Y-7766000D02*
G75*
G02*
X4810000Y-7766000I60000J0D01*
G01*
X4893000Y-3140400D02*
X5013000Y-3260400D01*
X5013000Y-3140400D02*
X4893000Y-3260400D01*
X5013000Y-3200400D02*
G75*
G02*
X4893000Y-3200400I-60000J0D01*
G01*
X4893000Y-3200400D02*
G75*
G02*
X5013000Y-3200400I60000J0D01*
G01*
X5040000Y-4113000D02*
X5160000Y-4233000D01*
X5160000Y-4113000D02*
X5040000Y-4233000D01*
X5160000Y-4173000D02*
G75*
G02*
X5040000Y-4173000I-60000J0D01*
G01*
X5040000Y-4173000D02*
G75*
G02*
X5160000Y-4173000I60000J0D01*
G01*
X5040000Y-4367000D02*
X5160000Y-4487000D01*
X5160000Y-4367000D02*
X5040000Y-4487000D01*
X5160000Y-4427000D02*
G75*
G02*
X5040000Y-4427000I-60000J0D01*
G01*
X5040000Y-4427000D02*
G75*
G02*
X5160000Y-4427000I60000J0D01*
G01*
X5147000Y-3140400D02*
X5267000Y-3260400D01*
X5267000Y-3140400D02*
X5147000Y-3260400D01*
X5267000Y-3200400D02*
G75*
G02*
X5147000Y-3200400I-60000J0D01*
G01*
X5147000Y-3200400D02*
G75*
G02*
X5267000Y-3200400I60000J0D01*
G01*
X6240000Y-5674000D02*
X6360000Y-5794000D01*
X6360000Y-5674000D02*
X6240000Y-5794000D01*
X6360000Y-5734000D02*
G75*
G02*
X6240000Y-5734000I-60000J0D01*
G01*
X6240000Y-5734000D02*
G75*
G02*
X6360000Y-5734000I60000J0D01*
G01*
X6240000Y-7706000D02*
X6360000Y-7826000D01*
X6360000Y-7706000D02*
X6240000Y-7826000D01*
X6360000Y-7766000D02*
G75*
G02*
X6240000Y-7766000I-60000J0D01*
G01*
X6240000Y-7766000D02*
G75*
G02*
X6360000Y-7766000I60000J0D01*
G01*
D16*
X2200000Y-6910000D02*
X2330000Y-7040000D01*
X2330000Y-6910000D02*
X2200000Y-7040000D01*
X2265000Y-6910000D02*
X2265000Y-7040000D01*
X2200000Y-6975000D02*
X2330000Y-6975000D01*
X2200000Y-7610000D02*
X2330000Y-7740000D01*
X2330000Y-7610000D02*
X2200000Y-7740000D01*
X2265000Y-7610000D02*
X2265000Y-7740000D01*
X2200000Y-7675000D02*
X2330000Y-7675000D01*
X3750000Y-6910000D02*
X3880000Y-7040000D01*
X3880000Y-6910000D02*
X3750000Y-7040000D01*
X3815000Y-6910000D02*
X3815000Y-7040000D01*
X3750000Y-6975000D02*
X3880000Y-6975000D01*
X3750000Y-7610000D02*
X3880000Y-7740000D01*
X3880000Y-7610000D02*
X3750000Y-7740000D01*
X3815000Y-7610000D02*
X3815000Y-7740000D01*
X3750000Y-7675000D02*
X3880000Y-7675000D01*
X5300000Y-6910000D02*
X5430000Y-7040000D01*
X5430000Y-6910000D02*
X5300000Y-7040000D01*
X5365000Y-6910000D02*
X5365000Y-7040000D01*
X5300000Y-6975000D02*
X5430000Y-6975000D01*
X5300000Y-7610000D02*
X5430000Y-7740000D01*
X5430000Y-7610000D02*
X5300000Y-7740000D01*
X5365000Y-7610000D02*
X5365000Y-7740000D01*
X5300000Y-7675000D02*
X5430000Y-7675000D01*
X7678725Y-4755631D02*
X7808725Y-4885631D01*
X7808725Y-4755631D02*
X7678725Y-4885631D01*
X7743725Y-4755631D02*
X7743725Y-4885631D01*
X7678725Y-4820631D02*
X7808725Y-4820631D01*
X7678725Y-5455631D02*
X7808725Y-5585631D01*
X7808725Y-5455631D02*
X7678725Y-5585631D01*
X7743725Y-5455631D02*
X7743725Y-5585631D01*
X7678725Y-5520631D02*
X7808725Y-5520631D01*
X7678725Y-7955630D02*
X7808725Y-8085630D01*
X7808725Y-7955630D02*
X7678725Y-8085630D01*
X7743725Y-7955630D02*
X7743725Y-8085630D01*
X7678725Y-8020630D02*
X7808725Y-8020630D01*
X7678725Y-8655631D02*
X7808725Y-8785631D01*
X7808725Y-8655631D02*
X7678725Y-8785631D01*
X7743725Y-8655631D02*
X7743725Y-8785631D01*
X7678725Y-8720631D02*
X7808725Y-8720631D01*
X7928725Y-4880631D02*
X8058725Y-5010631D01*
X8058725Y-4880631D02*
X7928725Y-5010631D01*
X7993725Y-4880631D02*
X7993725Y-5010631D01*
X7928725Y-4945631D02*
X8058725Y-4945631D01*
X7928725Y-5330631D02*
X8058725Y-5460631D01*
X8058725Y-5330631D02*
X7928725Y-5460631D01*
X7993725Y-5330631D02*
X7993725Y-5460631D01*
X7928725Y-5395631D02*
X8058725Y-5395631D01*
X7928725Y-8080630D02*
X8058725Y-8210630D01*
X8058725Y-8080630D02*
X7928725Y-8210630D01*
X7993725Y-8080630D02*
X7993725Y-8210630D01*
X7928725Y-8145630D02*
X8058725Y-8145630D01*
X7928725Y-8530631D02*
X8058725Y-8660631D01*
X8058725Y-8530631D02*
X7928725Y-8660631D01*
X7993725Y-8530631D02*
X7993725Y-8660631D01*
X7928725Y-8595631D02*
X8058725Y-8595631D01*
D12*
X2290277Y-9203984D02*
X2290277Y-9003984D01*
X2290277Y-9003984D02*
X2337896Y-9003984D01*
X2337896Y-9003984D02*
X2366467Y-9013508D01*
X2366467Y-9013508D02*
X2385515Y-9032555D01*
X2385515Y-9032555D02*
X2395039Y-9051603D01*
X2395039Y-9051603D02*
X2404563Y-9089698D01*
X2404563Y-9089698D02*
X2404563Y-9118270D01*
X2404563Y-9118270D02*
X2395039Y-9156365D01*
X2395039Y-9156365D02*
X2385515Y-9175412D01*
X2385515Y-9175412D02*
X2366467Y-9194460D01*
X2366467Y-9194460D02*
X2337896Y-9203984D01*
X2337896Y-9203984D02*
X2290277Y-9203984D01*
X2490277Y-9203984D02*
X2490277Y-9070650D01*
X2490277Y-9108746D02*
X2499801Y-9089698D01*
X2499801Y-9089698D02*
X2509324Y-9080174D01*
X2509324Y-9080174D02*
X2528372Y-9070650D01*
X2528372Y-9070650D02*
X2547420Y-9070650D01*
X2614086Y-9203984D02*
X2614086Y-9070650D01*
X2614086Y-9003984D02*
X2604563Y-9013508D01*
X2604563Y-9013508D02*
X2614086Y-9023031D01*
X2614086Y-9023031D02*
X2623610Y-9013508D01*
X2623610Y-9013508D02*
X2614086Y-9003984D01*
X2614086Y-9003984D02*
X2614086Y-9023031D01*
X2737896Y-9203984D02*
X2718848Y-9194460D01*
X2718848Y-9194460D02*
X2709324Y-9175412D01*
X2709324Y-9175412D02*
X2709324Y-9003984D01*
X2842658Y-9203984D02*
X2823610Y-9194460D01*
X2823610Y-9194460D02*
X2814086Y-9175412D01*
X2814086Y-9175412D02*
X2814086Y-9003984D01*
X3071229Y-9203984D02*
X3071229Y-9003984D01*
X3071229Y-9003984D02*
X3137896Y-9146841D01*
X3137896Y-9146841D02*
X3204562Y-9003984D01*
X3204562Y-9003984D02*
X3204562Y-9203984D01*
X3385515Y-9203984D02*
X3385515Y-9099222D01*
X3385515Y-9099222D02*
X3375991Y-9080174D01*
X3375991Y-9080174D02*
X3356943Y-9070650D01*
X3356943Y-9070650D02*
X3318848Y-9070650D01*
X3318848Y-9070650D02*
X3299801Y-9080174D01*
X3385515Y-9194460D02*
X3366467Y-9203984D01*
X3366467Y-9203984D02*
X3318848Y-9203984D01*
X3318848Y-9203984D02*
X3299801Y-9194460D01*
X3299801Y-9194460D02*
X3290277Y-9175412D01*
X3290277Y-9175412D02*
X3290277Y-9156365D01*
X3290277Y-9156365D02*
X3299801Y-9137317D01*
X3299801Y-9137317D02*
X3318848Y-9127793D01*
X3318848Y-9127793D02*
X3366467Y-9127793D01*
X3366467Y-9127793D02*
X3385515Y-9118270D01*
X3480753Y-9070650D02*
X3480753Y-9270650D01*
X3480753Y-9080174D02*
X3499801Y-9070650D01*
X3499801Y-9070650D02*
X3537896Y-9070650D01*
X3537896Y-9070650D02*
X3556943Y-9080174D01*
X3556943Y-9080174D02*
X3566467Y-9089698D01*
X3566467Y-9089698D02*
X3575991Y-9108746D01*
X3575991Y-9108746D02*
X3575991Y-9165889D01*
X3575991Y-9165889D02*
X3566467Y-9184936D01*
X3566467Y-9184936D02*
X3556943Y-9194460D01*
X3556943Y-9194460D02*
X3537896Y-9203984D01*
X3537896Y-9203984D02*
X3499801Y-9203984D01*
X3499801Y-9203984D02*
X3480753Y-9194460D01*
X3661705Y-9184936D02*
X3671229Y-9194460D01*
X3671229Y-9194460D02*
X3661705Y-9203984D01*
X3661705Y-9203984D02*
X3652182Y-9194460D01*
X3652182Y-9194460D02*
X3661705Y-9184936D01*
X3661705Y-9184936D02*
X3661705Y-9203984D01*
X3661705Y-9080174D02*
X3671229Y-9089698D01*
X3671229Y-9089698D02*
X3661705Y-9099222D01*
X3661705Y-9099222D02*
X3652182Y-9089698D01*
X3652182Y-9089698D02*
X3661705Y-9080174D01*
X3661705Y-9080174D02*
X3661705Y-9099222D01*
D13*
X1999500Y-9517500D02*
X2029500Y-9547500D01*
X2029500Y-9517500D02*
X1999500Y-9547500D01*
D12*
X2328372Y-9423984D02*
X2347420Y-9423984D01*
X2347420Y-9423984D02*
X2366467Y-9433508D01*
X2366467Y-9433508D02*
X2375991Y-9443031D01*
X2375991Y-9443031D02*
X2385515Y-9462079D01*
X2385515Y-9462079D02*
X2395039Y-9500174D01*
X2395039Y-9500174D02*
X2395039Y-9547793D01*
X2395039Y-9547793D02*
X2385515Y-9585889D01*
X2385515Y-9585889D02*
X2375991Y-9604936D01*
X2375991Y-9604936D02*
X2366467Y-9614460D01*
X2366467Y-9614460D02*
X2347420Y-9623984D01*
X2347420Y-9623984D02*
X2328372Y-9623984D01*
X2328372Y-9623984D02*
X2309324Y-9614460D01*
X2309324Y-9614460D02*
X2299801Y-9604936D01*
X2299801Y-9604936D02*
X2290277Y-9585889D01*
X2290277Y-9585889D02*
X2280753Y-9547793D01*
X2280753Y-9547793D02*
X2280753Y-9500174D01*
X2280753Y-9500174D02*
X2290277Y-9462079D01*
X2290277Y-9462079D02*
X2299801Y-9443031D01*
X2299801Y-9443031D02*
X2309324Y-9433508D01*
X2309324Y-9433508D02*
X2328372Y-9423984D01*
X2480753Y-9604936D02*
X2490277Y-9614460D01*
X2490277Y-9614460D02*
X2480753Y-9623984D01*
X2480753Y-9623984D02*
X2471229Y-9614460D01*
X2471229Y-9614460D02*
X2480753Y-9604936D01*
X2480753Y-9604936D02*
X2480753Y-9623984D01*
X2556944Y-9423984D02*
X2680753Y-9423984D01*
X2680753Y-9423984D02*
X2614086Y-9500174D01*
X2614086Y-9500174D02*
X2642658Y-9500174D01*
X2642658Y-9500174D02*
X2661705Y-9509698D01*
X2661705Y-9509698D02*
X2671229Y-9519222D01*
X2671229Y-9519222D02*
X2680753Y-9538270D01*
X2680753Y-9538270D02*
X2680753Y-9585889D01*
X2680753Y-9585889D02*
X2671229Y-9604936D01*
X2671229Y-9604936D02*
X2661705Y-9614460D01*
X2661705Y-9614460D02*
X2642658Y-9623984D01*
X2642658Y-9623984D02*
X2585515Y-9623984D01*
X2585515Y-9623984D02*
X2566467Y-9614460D01*
X2566467Y-9614460D02*
X2556944Y-9604936D01*
X2804562Y-9423984D02*
X2823610Y-9423984D01*
X2823610Y-9423984D02*
X2842658Y-9433508D01*
X2842658Y-9433508D02*
X2852182Y-9443031D01*
X2852182Y-9443031D02*
X2861705Y-9462079D01*
X2861705Y-9462079D02*
X2871229Y-9500174D01*
X2871229Y-9500174D02*
X2871229Y-9547793D01*
X2871229Y-9547793D02*
X2861705Y-9585889D01*
X2861705Y-9585889D02*
X2852182Y-9604936D01*
X2852182Y-9604936D02*
X2842658Y-9614460D01*
X2842658Y-9614460D02*
X2823610Y-9623984D01*
X2823610Y-9623984D02*
X2804562Y-9623984D01*
X2804562Y-9623984D02*
X2785515Y-9614460D01*
X2785515Y-9614460D02*
X2775991Y-9604936D01*
X2775991Y-9604936D02*
X2766467Y-9585889D01*
X2766467Y-9585889D02*
X2756944Y-9547793D01*
X2756944Y-9547793D02*
X2756944Y-9500174D01*
X2756944Y-9500174D02*
X2766467Y-9462079D01*
X2766467Y-9462079D02*
X2775991Y-9443031D01*
X2775991Y-9443031D02*
X2785515Y-9433508D01*
X2785515Y-9433508D02*
X2804562Y-9423984D01*
X2995039Y-9423984D02*
X3014086Y-9423984D01*
X3014086Y-9423984D02*
X3033134Y-9433508D01*
X3033134Y-9433508D02*
X3042658Y-9443031D01*
X3042658Y-9443031D02*
X3052182Y-9462079D01*
X3052182Y-9462079D02*
X3061705Y-9500174D01*
X3061705Y-9500174D02*
X3061705Y-9547793D01*
X3061705Y-9547793D02*
X3052182Y-9585889D01*
X3052182Y-9585889D02*
X3042658Y-9604936D01*
X3042658Y-9604936D02*
X3033134Y-9614460D01*
X3033134Y-9614460D02*
X3014086Y-9623984D01*
X3014086Y-9623984D02*
X2995039Y-9623984D01*
X2995039Y-9623984D02*
X2975991Y-9614460D01*
X2975991Y-9614460D02*
X2966467Y-9604936D01*
X2966467Y-9604936D02*
X2956943Y-9585889D01*
X2956943Y-9585889D02*
X2947420Y-9547793D01*
X2947420Y-9547793D02*
X2947420Y-9500174D01*
X2947420Y-9500174D02*
X2956943Y-9462079D01*
X2956943Y-9462079D02*
X2966467Y-9443031D01*
X2966467Y-9443031D02*
X2975991Y-9433508D01*
X2975991Y-9433508D02*
X2995039Y-9423984D01*
X3147420Y-9623984D02*
X3147420Y-9490650D01*
X3147420Y-9509698D02*
X3156943Y-9500174D01*
X3156943Y-9500174D02*
X3175991Y-9490650D01*
X3175991Y-9490650D02*
X3204563Y-9490650D01*
X3204563Y-9490650D02*
X3223610Y-9500174D01*
X3223610Y-9500174D02*
X3233134Y-9519222D01*
X3233134Y-9519222D02*
X3233134Y-9623984D01*
X3233134Y-9519222D02*
X3242658Y-9500174D01*
X3242658Y-9500174D02*
X3261705Y-9490650D01*
X3261705Y-9490650D02*
X3290277Y-9490650D01*
X3290277Y-9490650D02*
X3309324Y-9500174D01*
X3309324Y-9500174D02*
X3318848Y-9519222D01*
X3318848Y-9519222D02*
X3318848Y-9623984D01*
X3414086Y-9623984D02*
X3414086Y-9490650D01*
X3414086Y-9509698D02*
X3423610Y-9500174D01*
X3423610Y-9500174D02*
X3442658Y-9490650D01*
X3442658Y-9490650D02*
X3471229Y-9490650D01*
X3471229Y-9490650D02*
X3490277Y-9500174D01*
X3490277Y-9500174D02*
X3499801Y-9519222D01*
X3499801Y-9519222D02*
X3499801Y-9623984D01*
X3499801Y-9519222D02*
X3509324Y-9500174D01*
X3509324Y-9500174D02*
X3528372Y-9490650D01*
X3528372Y-9490650D02*
X3556943Y-9490650D01*
X3556943Y-9490650D02*
X3575991Y-9500174D01*
X3575991Y-9500174D02*
X3585515Y-9519222D01*
X3585515Y-9519222D02*
X3585515Y-9623984D01*
X3975991Y-9414460D02*
X3804563Y-9671603D01*
X4233134Y-9423984D02*
X4252182Y-9423984D01*
X4252182Y-9423984D02*
X4271229Y-9433508D01*
X4271229Y-9433508D02*
X4280753Y-9443031D01*
X4280753Y-9443031D02*
X4290277Y-9462079D01*
X4290277Y-9462079D02*
X4299801Y-9500174D01*
X4299801Y-9500174D02*
X4299801Y-9547793D01*
X4299801Y-9547793D02*
X4290277Y-9585889D01*
X4290277Y-9585889D02*
X4280753Y-9604936D01*
X4280753Y-9604936D02*
X4271229Y-9614460D01*
X4271229Y-9614460D02*
X4252182Y-9623984D01*
X4252182Y-9623984D02*
X4233134Y-9623984D01*
X4233134Y-9623984D02*
X4214087Y-9614460D01*
X4214087Y-9614460D02*
X4204563Y-9604936D01*
X4204563Y-9604936D02*
X4195039Y-9585889D01*
X4195039Y-9585889D02*
X4185515Y-9547793D01*
X4185515Y-9547793D02*
X4185515Y-9500174D01*
X4185515Y-9500174D02*
X4195039Y-9462079D01*
X4195039Y-9462079D02*
X4204563Y-9443031D01*
X4204563Y-9443031D02*
X4214087Y-9433508D01*
X4214087Y-9433508D02*
X4233134Y-9423984D01*
X4385515Y-9604936D02*
X4395039Y-9614460D01*
X4395039Y-9614460D02*
X4385515Y-9623984D01*
X4385515Y-9623984D02*
X4375991Y-9614460D01*
X4375991Y-9614460D02*
X4385515Y-9604936D01*
X4385515Y-9604936D02*
X4385515Y-9623984D01*
X4518848Y-9423984D02*
X4537896Y-9423984D01*
X4537896Y-9423984D02*
X4556944Y-9433508D01*
X4556944Y-9433508D02*
X4566468Y-9443031D01*
X4566468Y-9443031D02*
X4575991Y-9462079D01*
X4575991Y-9462079D02*
X4585515Y-9500174D01*
X4585515Y-9500174D02*
X4585515Y-9547793D01*
X4585515Y-9547793D02*
X4575991Y-9585889D01*
X4575991Y-9585889D02*
X4566468Y-9604936D01*
X4566468Y-9604936D02*
X4556944Y-9614460D01*
X4556944Y-9614460D02*
X4537896Y-9623984D01*
X4537896Y-9623984D02*
X4518848Y-9623984D01*
X4518848Y-9623984D02*
X4499801Y-9614460D01*
X4499801Y-9614460D02*
X4490277Y-9604936D01*
X4490277Y-9604936D02*
X4480753Y-9585889D01*
X4480753Y-9585889D02*
X4471229Y-9547793D01*
X4471229Y-9547793D02*
X4471229Y-9500174D01*
X4471229Y-9500174D02*
X4480753Y-9462079D01*
X4480753Y-9462079D02*
X4490277Y-9443031D01*
X4490277Y-9443031D02*
X4499801Y-9433508D01*
X4499801Y-9433508D02*
X4518848Y-9423984D01*
X4775991Y-9623984D02*
X4661706Y-9623984D01*
X4718848Y-9623984D02*
X4718848Y-9423984D01*
X4718848Y-9423984D02*
X4699801Y-9452555D01*
X4699801Y-9452555D02*
X4680753Y-9471603D01*
X4680753Y-9471603D02*
X4661706Y-9481127D01*
X4966468Y-9623984D02*
X4852182Y-9623984D01*
X4909325Y-9623984D02*
X4909325Y-9423984D01*
X4909325Y-9423984D02*
X4890277Y-9452555D01*
X4890277Y-9452555D02*
X4871229Y-9471603D01*
X4871229Y-9471603D02*
X4852182Y-9481127D01*
X5080753Y-9509698D02*
X5061706Y-9500174D01*
X5061706Y-9500174D02*
X5052182Y-9490650D01*
X5052182Y-9490650D02*
X5042658Y-9471603D01*
X5042658Y-9471603D02*
X5042658Y-9462079D01*
X5042658Y-9462079D02*
X5052182Y-9443031D01*
X5052182Y-9443031D02*
X5061706Y-9433508D01*
X5061706Y-9433508D02*
X5080753Y-9423984D01*
X5080753Y-9423984D02*
X5118849Y-9423984D01*
X5118849Y-9423984D02*
X5137896Y-9433508D01*
X5137896Y-9433508D02*
X5147420Y-9443031D01*
X5147420Y-9443031D02*
X5156944Y-9462079D01*
X5156944Y-9462079D02*
X5156944Y-9471603D01*
X5156944Y-9471603D02*
X5147420Y-9490650D01*
X5147420Y-9490650D02*
X5137896Y-9500174D01*
X5137896Y-9500174D02*
X5118849Y-9509698D01*
X5118849Y-9509698D02*
X5080753Y-9509698D01*
X5080753Y-9509698D02*
X5061706Y-9519222D01*
X5061706Y-9519222D02*
X5052182Y-9528746D01*
X5052182Y-9528746D02*
X5042658Y-9547793D01*
X5042658Y-9547793D02*
X5042658Y-9585889D01*
X5042658Y-9585889D02*
X5052182Y-9604936D01*
X5052182Y-9604936D02*
X5061706Y-9614460D01*
X5061706Y-9614460D02*
X5080753Y-9623984D01*
X5080753Y-9623984D02*
X5118849Y-9623984D01*
X5118849Y-9623984D02*
X5137896Y-9614460D01*
X5137896Y-9614460D02*
X5147420Y-9604936D01*
X5147420Y-9604936D02*
X5156944Y-9585889D01*
X5156944Y-9585889D02*
X5156944Y-9547793D01*
X5156944Y-9547793D02*
X5147420Y-9528746D01*
X5147420Y-9528746D02*
X5137896Y-9519222D01*
X5137896Y-9519222D02*
X5118849Y-9509698D01*
X5233134Y-9423984D02*
X5233134Y-9462079D01*
X5309325Y-9423984D02*
X5309325Y-9462079D01*
X5604563Y-9700174D02*
X5595039Y-9690650D01*
X5595039Y-9690650D02*
X5575991Y-9662079D01*
X5575991Y-9662079D02*
X5566468Y-9643031D01*
X5566468Y-9643031D02*
X5556944Y-9614460D01*
X5556944Y-9614460D02*
X5547420Y-9566841D01*
X5547420Y-9566841D02*
X5547420Y-9528746D01*
X5547420Y-9528746D02*
X5556944Y-9481127D01*
X5556944Y-9481127D02*
X5566468Y-9452555D01*
X5566468Y-9452555D02*
X5575991Y-9433508D01*
X5575991Y-9433508D02*
X5595039Y-9404936D01*
X5595039Y-9404936D02*
X5604563Y-9395412D01*
X5766468Y-9423984D02*
X5728372Y-9423984D01*
X5728372Y-9423984D02*
X5709325Y-9433508D01*
X5709325Y-9433508D02*
X5699801Y-9443031D01*
X5699801Y-9443031D02*
X5680753Y-9471603D01*
X5680753Y-9471603D02*
X5671229Y-9509698D01*
X5671229Y-9509698D02*
X5671229Y-9585889D01*
X5671229Y-9585889D02*
X5680753Y-9604936D01*
X5680753Y-9604936D02*
X5690277Y-9614460D01*
X5690277Y-9614460D02*
X5709325Y-9623984D01*
X5709325Y-9623984D02*
X5747420Y-9623984D01*
X5747420Y-9623984D02*
X5766468Y-9614460D01*
X5766468Y-9614460D02*
X5775991Y-9604936D01*
X5775991Y-9604936D02*
X5785515Y-9585889D01*
X5785515Y-9585889D02*
X5785515Y-9538270D01*
X5785515Y-9538270D02*
X5775991Y-9519222D01*
X5775991Y-9519222D02*
X5766468Y-9509698D01*
X5766468Y-9509698D02*
X5747420Y-9500174D01*
X5747420Y-9500174D02*
X5709325Y-9500174D01*
X5709325Y-9500174D02*
X5690277Y-9509698D01*
X5690277Y-9509698D02*
X5680753Y-9519222D01*
X5680753Y-9519222D02*
X5671229Y-9538270D01*
X5852182Y-9423984D02*
X5975991Y-9423984D01*
X5975991Y-9423984D02*
X5909325Y-9500174D01*
X5909325Y-9500174D02*
X5937896Y-9500174D01*
X5937896Y-9500174D02*
X5956944Y-9509698D01*
X5956944Y-9509698D02*
X5966468Y-9519222D01*
X5966468Y-9519222D02*
X5975991Y-9538270D01*
X5975991Y-9538270D02*
X5975991Y-9585889D01*
X5975991Y-9585889D02*
X5966468Y-9604936D01*
X5966468Y-9604936D02*
X5956944Y-9614460D01*
X5956944Y-9614460D02*
X5937896Y-9623984D01*
X5937896Y-9623984D02*
X5880753Y-9623984D01*
X5880753Y-9623984D02*
X5861706Y-9614460D01*
X5861706Y-9614460D02*
X5852182Y-9604936D01*
X6214087Y-9623984D02*
X6214087Y-9423984D01*
X6299801Y-9623984D02*
X6299801Y-9519222D01*
X6299801Y-9519222D02*
X6290277Y-9500174D01*
X6290277Y-9500174D02*
X6271230Y-9490650D01*
X6271230Y-9490650D02*
X6242658Y-9490650D01*
X6242658Y-9490650D02*
X6223610Y-9500174D01*
X6223610Y-9500174D02*
X6214087Y-9509698D01*
X6423610Y-9623984D02*
X6404563Y-9614460D01*
X6404563Y-9614460D02*
X6395039Y-9604936D01*
X6395039Y-9604936D02*
X6385515Y-9585889D01*
X6385515Y-9585889D02*
X6385515Y-9528746D01*
X6385515Y-9528746D02*
X6395039Y-9509698D01*
X6395039Y-9509698D02*
X6404563Y-9500174D01*
X6404563Y-9500174D02*
X6423610Y-9490650D01*
X6423610Y-9490650D02*
X6452182Y-9490650D01*
X6452182Y-9490650D02*
X6471230Y-9500174D01*
X6471230Y-9500174D02*
X6480753Y-9509698D01*
X6480753Y-9509698D02*
X6490277Y-9528746D01*
X6490277Y-9528746D02*
X6490277Y-9585889D01*
X6490277Y-9585889D02*
X6480753Y-9604936D01*
X6480753Y-9604936D02*
X6471230Y-9614460D01*
X6471230Y-9614460D02*
X6452182Y-9623984D01*
X6452182Y-9623984D02*
X6423610Y-9623984D01*
X6604563Y-9623984D02*
X6585515Y-9614460D01*
X6585515Y-9614460D02*
X6575991Y-9595412D01*
X6575991Y-9595412D02*
X6575991Y-9423984D01*
X6756944Y-9614460D02*
X6737896Y-9623984D01*
X6737896Y-9623984D02*
X6699801Y-9623984D01*
X6699801Y-9623984D02*
X6680753Y-9614460D01*
X6680753Y-9614460D02*
X6671230Y-9595412D01*
X6671230Y-9595412D02*
X6671230Y-9519222D01*
X6671230Y-9519222D02*
X6680753Y-9500174D01*
X6680753Y-9500174D02*
X6699801Y-9490650D01*
X6699801Y-9490650D02*
X6737896Y-9490650D01*
X6737896Y-9490650D02*
X6756944Y-9500174D01*
X6756944Y-9500174D02*
X6766468Y-9519222D01*
X6766468Y-9519222D02*
X6766468Y-9538270D01*
X6766468Y-9538270D02*
X6671230Y-9557317D01*
X6842658Y-9614460D02*
X6861706Y-9623984D01*
X6861706Y-9623984D02*
X6899801Y-9623984D01*
X6899801Y-9623984D02*
X6918849Y-9614460D01*
X6918849Y-9614460D02*
X6928372Y-9595412D01*
X6928372Y-9595412D02*
X6928372Y-9585889D01*
X6928372Y-9585889D02*
X6918849Y-9566841D01*
X6918849Y-9566841D02*
X6899801Y-9557317D01*
X6899801Y-9557317D02*
X6871230Y-9557317D01*
X6871230Y-9557317D02*
X6852182Y-9547793D01*
X6852182Y-9547793D02*
X6842658Y-9528746D01*
X6842658Y-9528746D02*
X6842658Y-9519222D01*
X6842658Y-9519222D02*
X6852182Y-9500174D01*
X6852182Y-9500174D02*
X6871230Y-9490650D01*
X6871230Y-9490650D02*
X6899801Y-9490650D01*
X6899801Y-9490650D02*
X6918849Y-9500174D01*
X6995039Y-9700174D02*
X7004563Y-9690650D01*
X7004563Y-9690650D02*
X7023611Y-9662079D01*
X7023611Y-9662079D02*
X7033134Y-9643031D01*
X7033134Y-9643031D02*
X7042658Y-9614460D01*
X7042658Y-9614460D02*
X7052182Y-9566841D01*
X7052182Y-9566841D02*
X7052182Y-9528746D01*
X7052182Y-9528746D02*
X7042658Y-9481127D01*
X7042658Y-9481127D02*
X7033134Y-9452555D01*
X7033134Y-9452555D02*
X7023611Y-9433508D01*
X7023611Y-9433508D02*
X7004563Y-9404936D01*
X7004563Y-9404936D02*
X6995039Y-9395412D01*
D13*
X2029500Y-9796500D02*
G75*
G02*
X1969500Y-9796500I-30000J0D01*
G01*
X1969500Y-9796500D02*
G75*
G02*
X2029500Y-9796500I30000J0D01*
G01*
D12*
X2328372Y-9687984D02*
X2347420Y-9687984D01*
X2347420Y-9687984D02*
X2366467Y-9697508D01*
X2366467Y-9697508D02*
X2375991Y-9707031D01*
X2375991Y-9707031D02*
X2385515Y-9726079D01*
X2385515Y-9726079D02*
X2395039Y-9764174D01*
X2395039Y-9764174D02*
X2395039Y-9811793D01*
X2395039Y-9811793D02*
X2385515Y-9849889D01*
X2385515Y-9849889D02*
X2375991Y-9868936D01*
X2375991Y-9868936D02*
X2366467Y-9878460D01*
X2366467Y-9878460D02*
X2347420Y-9887984D01*
X2347420Y-9887984D02*
X2328372Y-9887984D01*
X2328372Y-9887984D02*
X2309324Y-9878460D01*
X2309324Y-9878460D02*
X2299801Y-9868936D01*
X2299801Y-9868936D02*
X2290277Y-9849889D01*
X2290277Y-9849889D02*
X2280753Y-9811793D01*
X2280753Y-9811793D02*
X2280753Y-9764174D01*
X2280753Y-9764174D02*
X2290277Y-9726079D01*
X2290277Y-9726079D02*
X2299801Y-9707031D01*
X2299801Y-9707031D02*
X2309324Y-9697508D01*
X2309324Y-9697508D02*
X2328372Y-9687984D01*
X2480753Y-9868936D02*
X2490277Y-9878460D01*
X2490277Y-9878460D02*
X2480753Y-9887984D01*
X2480753Y-9887984D02*
X2471229Y-9878460D01*
X2471229Y-9878460D02*
X2480753Y-9868936D01*
X2480753Y-9868936D02*
X2480753Y-9887984D01*
X2661705Y-9687984D02*
X2623610Y-9687984D01*
X2623610Y-9687984D02*
X2604563Y-9697508D01*
X2604563Y-9697508D02*
X2595039Y-9707031D01*
X2595039Y-9707031D02*
X2575991Y-9735603D01*
X2575991Y-9735603D02*
X2566467Y-9773698D01*
X2566467Y-9773698D02*
X2566467Y-9849889D01*
X2566467Y-9849889D02*
X2575991Y-9868936D01*
X2575991Y-9868936D02*
X2585515Y-9878460D01*
X2585515Y-9878460D02*
X2604563Y-9887984D01*
X2604563Y-9887984D02*
X2642658Y-9887984D01*
X2642658Y-9887984D02*
X2661705Y-9878460D01*
X2661705Y-9878460D02*
X2671229Y-9868936D01*
X2671229Y-9868936D02*
X2680753Y-9849889D01*
X2680753Y-9849889D02*
X2680753Y-9802270D01*
X2680753Y-9802270D02*
X2671229Y-9783222D01*
X2671229Y-9783222D02*
X2661705Y-9773698D01*
X2661705Y-9773698D02*
X2642658Y-9764174D01*
X2642658Y-9764174D02*
X2604563Y-9764174D01*
X2604563Y-9764174D02*
X2585515Y-9773698D01*
X2585515Y-9773698D02*
X2575991Y-9783222D01*
X2575991Y-9783222D02*
X2566467Y-9802270D01*
X2804562Y-9687984D02*
X2823610Y-9687984D01*
X2823610Y-9687984D02*
X2842658Y-9697508D01*
X2842658Y-9697508D02*
X2852182Y-9707031D01*
X2852182Y-9707031D02*
X2861705Y-9726079D01*
X2861705Y-9726079D02*
X2871229Y-9764174D01*
X2871229Y-9764174D02*
X2871229Y-9811793D01*
X2871229Y-9811793D02*
X2861705Y-9849889D01*
X2861705Y-9849889D02*
X2852182Y-9868936D01*
X2852182Y-9868936D02*
X2842658Y-9878460D01*
X2842658Y-9878460D02*
X2823610Y-9887984D01*
X2823610Y-9887984D02*
X2804562Y-9887984D01*
X2804562Y-9887984D02*
X2785515Y-9878460D01*
X2785515Y-9878460D02*
X2775991Y-9868936D01*
X2775991Y-9868936D02*
X2766467Y-9849889D01*
X2766467Y-9849889D02*
X2756944Y-9811793D01*
X2756944Y-9811793D02*
X2756944Y-9764174D01*
X2756944Y-9764174D02*
X2766467Y-9726079D01*
X2766467Y-9726079D02*
X2775991Y-9707031D01*
X2775991Y-9707031D02*
X2785515Y-9697508D01*
X2785515Y-9697508D02*
X2804562Y-9687984D01*
X2995039Y-9687984D02*
X3014086Y-9687984D01*
X3014086Y-9687984D02*
X3033134Y-9697508D01*
X3033134Y-9697508D02*
X3042658Y-9707031D01*
X3042658Y-9707031D02*
X3052182Y-9726079D01*
X3052182Y-9726079D02*
X3061705Y-9764174D01*
X3061705Y-9764174D02*
X3061705Y-9811793D01*
X3061705Y-9811793D02*
X3052182Y-9849889D01*
X3052182Y-9849889D02*
X3042658Y-9868936D01*
X3042658Y-9868936D02*
X3033134Y-9878460D01*
X3033134Y-9878460D02*
X3014086Y-9887984D01*
X3014086Y-9887984D02*
X2995039Y-9887984D01*
X2995039Y-9887984D02*
X2975991Y-9878460D01*
X2975991Y-9878460D02*
X2966467Y-9868936D01*
X2966467Y-9868936D02*
X2956943Y-9849889D01*
X2956943Y-9849889D02*
X2947420Y-9811793D01*
X2947420Y-9811793D02*
X2947420Y-9764174D01*
X2947420Y-9764174D02*
X2956943Y-9726079D01*
X2956943Y-9726079D02*
X2966467Y-9707031D01*
X2966467Y-9707031D02*
X2975991Y-9697508D01*
X2975991Y-9697508D02*
X2995039Y-9687984D01*
X3147420Y-9887984D02*
X3147420Y-9754650D01*
X3147420Y-9773698D02*
X3156943Y-9764174D01*
X3156943Y-9764174D02*
X3175991Y-9754650D01*
X3175991Y-9754650D02*
X3204563Y-9754650D01*
X3204563Y-9754650D02*
X3223610Y-9764174D01*
X3223610Y-9764174D02*
X3233134Y-9783222D01*
X3233134Y-9783222D02*
X3233134Y-9887984D01*
X3233134Y-9783222D02*
X3242658Y-9764174D01*
X3242658Y-9764174D02*
X3261705Y-9754650D01*
X3261705Y-9754650D02*
X3290277Y-9754650D01*
X3290277Y-9754650D02*
X3309324Y-9764174D01*
X3309324Y-9764174D02*
X3318848Y-9783222D01*
X3318848Y-9783222D02*
X3318848Y-9887984D01*
X3414086Y-9887984D02*
X3414086Y-9754650D01*
X3414086Y-9773698D02*
X3423610Y-9764174D01*
X3423610Y-9764174D02*
X3442658Y-9754650D01*
X3442658Y-9754650D02*
X3471229Y-9754650D01*
X3471229Y-9754650D02*
X3490277Y-9764174D01*
X3490277Y-9764174D02*
X3499801Y-9783222D01*
X3499801Y-9783222D02*
X3499801Y-9887984D01*
X3499801Y-9783222D02*
X3509324Y-9764174D01*
X3509324Y-9764174D02*
X3528372Y-9754650D01*
X3528372Y-9754650D02*
X3556943Y-9754650D01*
X3556943Y-9754650D02*
X3575991Y-9764174D01*
X3575991Y-9764174D02*
X3585515Y-9783222D01*
X3585515Y-9783222D02*
X3585515Y-9887984D01*
X3975991Y-9678460D02*
X3804563Y-9935603D01*
X4233134Y-9687984D02*
X4252182Y-9687984D01*
X4252182Y-9687984D02*
X4271229Y-9697508D01*
X4271229Y-9697508D02*
X4280753Y-9707031D01*
X4280753Y-9707031D02*
X4290277Y-9726079D01*
X4290277Y-9726079D02*
X4299801Y-9764174D01*
X4299801Y-9764174D02*
X4299801Y-9811793D01*
X4299801Y-9811793D02*
X4290277Y-9849889D01*
X4290277Y-9849889D02*
X4280753Y-9868936D01*
X4280753Y-9868936D02*
X4271229Y-9878460D01*
X4271229Y-9878460D02*
X4252182Y-9887984D01*
X4252182Y-9887984D02*
X4233134Y-9887984D01*
X4233134Y-9887984D02*
X4214087Y-9878460D01*
X4214087Y-9878460D02*
X4204563Y-9868936D01*
X4204563Y-9868936D02*
X4195039Y-9849889D01*
X4195039Y-9849889D02*
X4185515Y-9811793D01*
X4185515Y-9811793D02*
X4185515Y-9764174D01*
X4185515Y-9764174D02*
X4195039Y-9726079D01*
X4195039Y-9726079D02*
X4204563Y-9707031D01*
X4204563Y-9707031D02*
X4214087Y-9697508D01*
X4214087Y-9697508D02*
X4233134Y-9687984D01*
X4385515Y-9868936D02*
X4395039Y-9878460D01*
X4395039Y-9878460D02*
X4385515Y-9887984D01*
X4385515Y-9887984D02*
X4375991Y-9878460D01*
X4375991Y-9878460D02*
X4385515Y-9868936D01*
X4385515Y-9868936D02*
X4385515Y-9887984D01*
X4518848Y-9687984D02*
X4537896Y-9687984D01*
X4537896Y-9687984D02*
X4556944Y-9697508D01*
X4556944Y-9697508D02*
X4566468Y-9707031D01*
X4566468Y-9707031D02*
X4575991Y-9726079D01*
X4575991Y-9726079D02*
X4585515Y-9764174D01*
X4585515Y-9764174D02*
X4585515Y-9811793D01*
X4585515Y-9811793D02*
X4575991Y-9849889D01*
X4575991Y-9849889D02*
X4566468Y-9868936D01*
X4566468Y-9868936D02*
X4556944Y-9878460D01*
X4556944Y-9878460D02*
X4537896Y-9887984D01*
X4537896Y-9887984D02*
X4518848Y-9887984D01*
X4518848Y-9887984D02*
X4499801Y-9878460D01*
X4499801Y-9878460D02*
X4490277Y-9868936D01*
X4490277Y-9868936D02*
X4480753Y-9849889D01*
X4480753Y-9849889D02*
X4471229Y-9811793D01*
X4471229Y-9811793D02*
X4471229Y-9764174D01*
X4471229Y-9764174D02*
X4480753Y-9726079D01*
X4480753Y-9726079D02*
X4490277Y-9707031D01*
X4490277Y-9707031D02*
X4499801Y-9697508D01*
X4499801Y-9697508D02*
X4518848Y-9687984D01*
X4661706Y-9707031D02*
X4671229Y-9697508D01*
X4671229Y-9697508D02*
X4690277Y-9687984D01*
X4690277Y-9687984D02*
X4737896Y-9687984D01*
X4737896Y-9687984D02*
X4756944Y-9697508D01*
X4756944Y-9697508D02*
X4766468Y-9707031D01*
X4766468Y-9707031D02*
X4775991Y-9726079D01*
X4775991Y-9726079D02*
X4775991Y-9745127D01*
X4775991Y-9745127D02*
X4766468Y-9773698D01*
X4766468Y-9773698D02*
X4652182Y-9887984D01*
X4652182Y-9887984D02*
X4775991Y-9887984D01*
X4842658Y-9687984D02*
X4966468Y-9687984D01*
X4966468Y-9687984D02*
X4899801Y-9764174D01*
X4899801Y-9764174D02*
X4928372Y-9764174D01*
X4928372Y-9764174D02*
X4947420Y-9773698D01*
X4947420Y-9773698D02*
X4956944Y-9783222D01*
X4956944Y-9783222D02*
X4966468Y-9802270D01*
X4966468Y-9802270D02*
X4966468Y-9849889D01*
X4966468Y-9849889D02*
X4956944Y-9868936D01*
X4956944Y-9868936D02*
X4947420Y-9878460D01*
X4947420Y-9878460D02*
X4928372Y-9887984D01*
X4928372Y-9887984D02*
X4871229Y-9887984D01*
X4871229Y-9887984D02*
X4852182Y-9878460D01*
X4852182Y-9878460D02*
X4842658Y-9868936D01*
X5137896Y-9687984D02*
X5099801Y-9687984D01*
X5099801Y-9687984D02*
X5080753Y-9697508D01*
X5080753Y-9697508D02*
X5071229Y-9707031D01*
X5071229Y-9707031D02*
X5052182Y-9735603D01*
X5052182Y-9735603D02*
X5042658Y-9773698D01*
X5042658Y-9773698D02*
X5042658Y-9849889D01*
X5042658Y-9849889D02*
X5052182Y-9868936D01*
X5052182Y-9868936D02*
X5061706Y-9878460D01*
X5061706Y-9878460D02*
X5080753Y-9887984D01*
X5080753Y-9887984D02*
X5118849Y-9887984D01*
X5118849Y-9887984D02*
X5137896Y-9878460D01*
X5137896Y-9878460D02*
X5147420Y-9868936D01*
X5147420Y-9868936D02*
X5156944Y-9849889D01*
X5156944Y-9849889D02*
X5156944Y-9802270D01*
X5156944Y-9802270D02*
X5147420Y-9783222D01*
X5147420Y-9783222D02*
X5137896Y-9773698D01*
X5137896Y-9773698D02*
X5118849Y-9764174D01*
X5118849Y-9764174D02*
X5080753Y-9764174D01*
X5080753Y-9764174D02*
X5061706Y-9773698D01*
X5061706Y-9773698D02*
X5052182Y-9783222D01*
X5052182Y-9783222D02*
X5042658Y-9802270D01*
X5233134Y-9687984D02*
X5233134Y-9726079D01*
X5309325Y-9687984D02*
X5309325Y-9726079D01*
X5604563Y-9964174D02*
X5595039Y-9954650D01*
X5595039Y-9954650D02*
X5575991Y-9926079D01*
X5575991Y-9926079D02*
X5566468Y-9907031D01*
X5566468Y-9907031D02*
X5556944Y-9878460D01*
X5556944Y-9878460D02*
X5547420Y-9830841D01*
X5547420Y-9830841D02*
X5547420Y-9792746D01*
X5547420Y-9792746D02*
X5556944Y-9745127D01*
X5556944Y-9745127D02*
X5566468Y-9716555D01*
X5566468Y-9716555D02*
X5575991Y-9697508D01*
X5575991Y-9697508D02*
X5595039Y-9668936D01*
X5595039Y-9668936D02*
X5604563Y-9659412D01*
X5718848Y-9687984D02*
X5737896Y-9687984D01*
X5737896Y-9687984D02*
X5756944Y-9697508D01*
X5756944Y-9697508D02*
X5766468Y-9707031D01*
X5766468Y-9707031D02*
X5775991Y-9726079D01*
X5775991Y-9726079D02*
X5785515Y-9764174D01*
X5785515Y-9764174D02*
X5785515Y-9811793D01*
X5785515Y-9811793D02*
X5775991Y-9849889D01*
X5775991Y-9849889D02*
X5766468Y-9868936D01*
X5766468Y-9868936D02*
X5756944Y-9878460D01*
X5756944Y-9878460D02*
X5737896Y-9887984D01*
X5737896Y-9887984D02*
X5718848Y-9887984D01*
X5718848Y-9887984D02*
X5699801Y-9878460D01*
X5699801Y-9878460D02*
X5690277Y-9868936D01*
X5690277Y-9868936D02*
X5680753Y-9849889D01*
X5680753Y-9849889D02*
X5671229Y-9811793D01*
X5671229Y-9811793D02*
X5671229Y-9764174D01*
X5671229Y-9764174D02*
X5680753Y-9726079D01*
X5680753Y-9726079D02*
X5690277Y-9707031D01*
X5690277Y-9707031D02*
X5699801Y-9697508D01*
X5699801Y-9697508D02*
X5718848Y-9687984D01*
X6023610Y-9887984D02*
X6023610Y-9687984D01*
X6109325Y-9887984D02*
X6109325Y-9783222D01*
X6109325Y-9783222D02*
X6099801Y-9764174D01*
X6099801Y-9764174D02*
X6080753Y-9754650D01*
X6080753Y-9754650D02*
X6052182Y-9754650D01*
X6052182Y-9754650D02*
X6033134Y-9764174D01*
X6033134Y-9764174D02*
X6023610Y-9773698D01*
X6233134Y-9887984D02*
X6214087Y-9878460D01*
X6214087Y-9878460D02*
X6204563Y-9868936D01*
X6204563Y-9868936D02*
X6195039Y-9849889D01*
X6195039Y-9849889D02*
X6195039Y-9792746D01*
X6195039Y-9792746D02*
X6204563Y-9773698D01*
X6204563Y-9773698D02*
X6214087Y-9764174D01*
X6214087Y-9764174D02*
X6233134Y-9754650D01*
X6233134Y-9754650D02*
X6261706Y-9754650D01*
X6261706Y-9754650D02*
X6280753Y-9764174D01*
X6280753Y-9764174D02*
X6290277Y-9773698D01*
X6290277Y-9773698D02*
X6299801Y-9792746D01*
X6299801Y-9792746D02*
X6299801Y-9849889D01*
X6299801Y-9849889D02*
X6290277Y-9868936D01*
X6290277Y-9868936D02*
X6280753Y-9878460D01*
X6280753Y-9878460D02*
X6261706Y-9887984D01*
X6261706Y-9887984D02*
X6233134Y-9887984D01*
X6414087Y-9887984D02*
X6395039Y-9878460D01*
X6395039Y-9878460D02*
X6385515Y-9859412D01*
X6385515Y-9859412D02*
X6385515Y-9687984D01*
X6566468Y-9878460D02*
X6547420Y-9887984D01*
X6547420Y-9887984D02*
X6509325Y-9887984D01*
X6509325Y-9887984D02*
X6490277Y-9878460D01*
X6490277Y-9878460D02*
X6480753Y-9859412D01*
X6480753Y-9859412D02*
X6480753Y-9783222D01*
X6480753Y-9783222D02*
X6490277Y-9764174D01*
X6490277Y-9764174D02*
X6509325Y-9754650D01*
X6509325Y-9754650D02*
X6547420Y-9754650D01*
X6547420Y-9754650D02*
X6566468Y-9764174D01*
X6566468Y-9764174D02*
X6575991Y-9783222D01*
X6575991Y-9783222D02*
X6575991Y-9802270D01*
X6575991Y-9802270D02*
X6480753Y-9821317D01*
X6652182Y-9878460D02*
X6671230Y-9887984D01*
X6671230Y-9887984D02*
X6709325Y-9887984D01*
X6709325Y-9887984D02*
X6728372Y-9878460D01*
X6728372Y-9878460D02*
X6737896Y-9859412D01*
X6737896Y-9859412D02*
X6737896Y-9849889D01*
X6737896Y-9849889D02*
X6728372Y-9830841D01*
X6728372Y-9830841D02*
X6709325Y-9821317D01*
X6709325Y-9821317D02*
X6680753Y-9821317D01*
X6680753Y-9821317D02*
X6661706Y-9811793D01*
X6661706Y-9811793D02*
X6652182Y-9792746D01*
X6652182Y-9792746D02*
X6652182Y-9783222D01*
X6652182Y-9783222D02*
X6661706Y-9764174D01*
X6661706Y-9764174D02*
X6680753Y-9754650D01*
X6680753Y-9754650D02*
X6709325Y-9754650D01*
X6709325Y-9754650D02*
X6728372Y-9764174D01*
X6975992Y-9811793D02*
X7128373Y-9811793D01*
X7052182Y-9887984D02*
X7052182Y-9735603D01*
X7461706Y-9754650D02*
X7461706Y-9887984D01*
X7414087Y-9678460D02*
X7366468Y-9821317D01*
X7366468Y-9821317D02*
X7490277Y-9821317D01*
X7709325Y-9878460D02*
X7728373Y-9887984D01*
X7728373Y-9887984D02*
X7766468Y-9887984D01*
X7766468Y-9887984D02*
X7785515Y-9878460D01*
X7785515Y-9878460D02*
X7795039Y-9859412D01*
X7795039Y-9859412D02*
X7795039Y-9849889D01*
X7795039Y-9849889D02*
X7785515Y-9830841D01*
X7785515Y-9830841D02*
X7766468Y-9821317D01*
X7766468Y-9821317D02*
X7737896Y-9821317D01*
X7737896Y-9821317D02*
X7718849Y-9811793D01*
X7718849Y-9811793D02*
X7709325Y-9792746D01*
X7709325Y-9792746D02*
X7709325Y-9783222D01*
X7709325Y-9783222D02*
X7718849Y-9764174D01*
X7718849Y-9764174D02*
X7737896Y-9754650D01*
X7737896Y-9754650D02*
X7766468Y-9754650D01*
X7766468Y-9754650D02*
X7785515Y-9764174D01*
X7909325Y-9887984D02*
X7890277Y-9878460D01*
X7890277Y-9878460D02*
X7880754Y-9859412D01*
X7880754Y-9859412D02*
X7880754Y-9687984D01*
X8014087Y-9887984D02*
X7995039Y-9878460D01*
X7995039Y-9878460D02*
X7985515Y-9868936D01*
X7985515Y-9868936D02*
X7975992Y-9849889D01*
X7975992Y-9849889D02*
X7975992Y-9792746D01*
X7975992Y-9792746D02*
X7985515Y-9773698D01*
X7985515Y-9773698D02*
X7995039Y-9764174D01*
X7995039Y-9764174D02*
X8014087Y-9754650D01*
X8014087Y-9754650D02*
X8042658Y-9754650D01*
X8042658Y-9754650D02*
X8061706Y-9764174D01*
X8061706Y-9764174D02*
X8071230Y-9773698D01*
X8071230Y-9773698D02*
X8080754Y-9792746D01*
X8080754Y-9792746D02*
X8080754Y-9849889D01*
X8080754Y-9849889D02*
X8071230Y-9868936D01*
X8071230Y-9868936D02*
X8061706Y-9878460D01*
X8061706Y-9878460D02*
X8042658Y-9887984D01*
X8042658Y-9887984D02*
X8014087Y-9887984D01*
X8137896Y-9754650D02*
X8214087Y-9754650D01*
X8166468Y-9687984D02*
X8166468Y-9859412D01*
X8166468Y-9859412D02*
X8175992Y-9878460D01*
X8175992Y-9878460D02*
X8195039Y-9887984D01*
X8195039Y-9887984D02*
X8214087Y-9887984D01*
X8271230Y-9878460D02*
X8290277Y-9887984D01*
X8290277Y-9887984D02*
X8328373Y-9887984D01*
X8328373Y-9887984D02*
X8347420Y-9878460D01*
X8347420Y-9878460D02*
X8356944Y-9859412D01*
X8356944Y-9859412D02*
X8356944Y-9849889D01*
X8356944Y-9849889D02*
X8347420Y-9830841D01*
X8347420Y-9830841D02*
X8328373Y-9821317D01*
X8328373Y-9821317D02*
X8299801Y-9821317D01*
X8299801Y-9821317D02*
X8280754Y-9811793D01*
X8280754Y-9811793D02*
X8271230Y-9792746D01*
X8271230Y-9792746D02*
X8271230Y-9783222D01*
X8271230Y-9783222D02*
X8280754Y-9764174D01*
X8280754Y-9764174D02*
X8299801Y-9754650D01*
X8299801Y-9754650D02*
X8328373Y-9754650D01*
X8328373Y-9754650D02*
X8347420Y-9764174D01*
X8423611Y-9964174D02*
X8433135Y-9954650D01*
X8433135Y-9954650D02*
X8452182Y-9926079D01*
X8452182Y-9926079D02*
X8461706Y-9907031D01*
X8461706Y-9907031D02*
X8471230Y-9878460D01*
X8471230Y-9878460D02*
X8480754Y-9830841D01*
X8480754Y-9830841D02*
X8480754Y-9792746D01*
X8480754Y-9792746D02*
X8471230Y-9745127D01*
X8471230Y-9745127D02*
X8461706Y-9716555D01*
X8461706Y-9716555D02*
X8452182Y-9697508D01*
X8452182Y-9697508D02*
X8433135Y-9668936D01*
X8433135Y-9668936D02*
X8423611Y-9659412D01*
D13*
X1984500Y-10015500D02*
X1984500Y-10105500D01*
X1939500Y-10060500D02*
X2029500Y-10060500D01*
D12*
X2328372Y-9951984D02*
X2347420Y-9951984D01*
X2347420Y-9951984D02*
X2366467Y-9961508D01*
X2366467Y-9961508D02*
X2375991Y-9971031D01*
X2375991Y-9971031D02*
X2385515Y-9990079D01*
X2385515Y-9990079D02*
X2395039Y-10028174D01*
X2395039Y-10028174D02*
X2395039Y-10075793D01*
X2395039Y-10075793D02*
X2385515Y-10113889D01*
X2385515Y-10113889D02*
X2375991Y-10132936D01*
X2375991Y-10132936D02*
X2366467Y-10142460D01*
X2366467Y-10142460D02*
X2347420Y-10151984D01*
X2347420Y-10151984D02*
X2328372Y-10151984D01*
X2328372Y-10151984D02*
X2309324Y-10142460D01*
X2309324Y-10142460D02*
X2299801Y-10132936D01*
X2299801Y-10132936D02*
X2290277Y-10113889D01*
X2290277Y-10113889D02*
X2280753Y-10075793D01*
X2280753Y-10075793D02*
X2280753Y-10028174D01*
X2280753Y-10028174D02*
X2290277Y-9990079D01*
X2290277Y-9990079D02*
X2299801Y-9971031D01*
X2299801Y-9971031D02*
X2309324Y-9961508D01*
X2309324Y-9961508D02*
X2328372Y-9951984D01*
X2480753Y-10132936D02*
X2490277Y-10142460D01*
X2490277Y-10142460D02*
X2480753Y-10151984D01*
X2480753Y-10151984D02*
X2471229Y-10142460D01*
X2471229Y-10142460D02*
X2480753Y-10132936D01*
X2480753Y-10132936D02*
X2480753Y-10151984D01*
X2585515Y-10151984D02*
X2623610Y-10151984D01*
X2623610Y-10151984D02*
X2642658Y-10142460D01*
X2642658Y-10142460D02*
X2652182Y-10132936D01*
X2652182Y-10132936D02*
X2671229Y-10104365D01*
X2671229Y-10104365D02*
X2680753Y-10066270D01*
X2680753Y-10066270D02*
X2680753Y-9990079D01*
X2680753Y-9990079D02*
X2671229Y-9971031D01*
X2671229Y-9971031D02*
X2661705Y-9961508D01*
X2661705Y-9961508D02*
X2642658Y-9951984D01*
X2642658Y-9951984D02*
X2604563Y-9951984D01*
X2604563Y-9951984D02*
X2585515Y-9961508D01*
X2585515Y-9961508D02*
X2575991Y-9971031D01*
X2575991Y-9971031D02*
X2566467Y-9990079D01*
X2566467Y-9990079D02*
X2566467Y-10037698D01*
X2566467Y-10037698D02*
X2575991Y-10056746D01*
X2575991Y-10056746D02*
X2585515Y-10066270D01*
X2585515Y-10066270D02*
X2604563Y-10075793D01*
X2604563Y-10075793D02*
X2642658Y-10075793D01*
X2642658Y-10075793D02*
X2661705Y-10066270D01*
X2661705Y-10066270D02*
X2671229Y-10056746D01*
X2671229Y-10056746D02*
X2680753Y-10037698D01*
X2804562Y-9951984D02*
X2823610Y-9951984D01*
X2823610Y-9951984D02*
X2842658Y-9961508D01*
X2842658Y-9961508D02*
X2852182Y-9971031D01*
X2852182Y-9971031D02*
X2861705Y-9990079D01*
X2861705Y-9990079D02*
X2871229Y-10028174D01*
X2871229Y-10028174D02*
X2871229Y-10075793D01*
X2871229Y-10075793D02*
X2861705Y-10113889D01*
X2861705Y-10113889D02*
X2852182Y-10132936D01*
X2852182Y-10132936D02*
X2842658Y-10142460D01*
X2842658Y-10142460D02*
X2823610Y-10151984D01*
X2823610Y-10151984D02*
X2804562Y-10151984D01*
X2804562Y-10151984D02*
X2785515Y-10142460D01*
X2785515Y-10142460D02*
X2775991Y-10132936D01*
X2775991Y-10132936D02*
X2766467Y-10113889D01*
X2766467Y-10113889D02*
X2756944Y-10075793D01*
X2756944Y-10075793D02*
X2756944Y-10028174D01*
X2756944Y-10028174D02*
X2766467Y-9990079D01*
X2766467Y-9990079D02*
X2775991Y-9971031D01*
X2775991Y-9971031D02*
X2785515Y-9961508D01*
X2785515Y-9961508D02*
X2804562Y-9951984D01*
X2995039Y-9951984D02*
X3014086Y-9951984D01*
X3014086Y-9951984D02*
X3033134Y-9961508D01*
X3033134Y-9961508D02*
X3042658Y-9971031D01*
X3042658Y-9971031D02*
X3052182Y-9990079D01*
X3052182Y-9990079D02*
X3061705Y-10028174D01*
X3061705Y-10028174D02*
X3061705Y-10075793D01*
X3061705Y-10075793D02*
X3052182Y-10113889D01*
X3052182Y-10113889D02*
X3042658Y-10132936D01*
X3042658Y-10132936D02*
X3033134Y-10142460D01*
X3033134Y-10142460D02*
X3014086Y-10151984D01*
X3014086Y-10151984D02*
X2995039Y-10151984D01*
X2995039Y-10151984D02*
X2975991Y-10142460D01*
X2975991Y-10142460D02*
X2966467Y-10132936D01*
X2966467Y-10132936D02*
X2956943Y-10113889D01*
X2956943Y-10113889D02*
X2947420Y-10075793D01*
X2947420Y-10075793D02*
X2947420Y-10028174D01*
X2947420Y-10028174D02*
X2956943Y-9990079D01*
X2956943Y-9990079D02*
X2966467Y-9971031D01*
X2966467Y-9971031D02*
X2975991Y-9961508D01*
X2975991Y-9961508D02*
X2995039Y-9951984D01*
X3147420Y-10151984D02*
X3147420Y-10018650D01*
X3147420Y-10037698D02*
X3156943Y-10028174D01*
X3156943Y-10028174D02*
X3175991Y-10018650D01*
X3175991Y-10018650D02*
X3204563Y-10018650D01*
X3204563Y-10018650D02*
X3223610Y-10028174D01*
X3223610Y-10028174D02*
X3233134Y-10047222D01*
X3233134Y-10047222D02*
X3233134Y-10151984D01*
X3233134Y-10047222D02*
X3242658Y-10028174D01*
X3242658Y-10028174D02*
X3261705Y-10018650D01*
X3261705Y-10018650D02*
X3290277Y-10018650D01*
X3290277Y-10018650D02*
X3309324Y-10028174D01*
X3309324Y-10028174D02*
X3318848Y-10047222D01*
X3318848Y-10047222D02*
X3318848Y-10151984D01*
X3414086Y-10151984D02*
X3414086Y-10018650D01*
X3414086Y-10037698D02*
X3423610Y-10028174D01*
X3423610Y-10028174D02*
X3442658Y-10018650D01*
X3442658Y-10018650D02*
X3471229Y-10018650D01*
X3471229Y-10018650D02*
X3490277Y-10028174D01*
X3490277Y-10028174D02*
X3499801Y-10047222D01*
X3499801Y-10047222D02*
X3499801Y-10151984D01*
X3499801Y-10047222D02*
X3509324Y-10028174D01*
X3509324Y-10028174D02*
X3528372Y-10018650D01*
X3528372Y-10018650D02*
X3556943Y-10018650D01*
X3556943Y-10018650D02*
X3575991Y-10028174D01*
X3575991Y-10028174D02*
X3585515Y-10047222D01*
X3585515Y-10047222D02*
X3585515Y-10151984D01*
X3975991Y-9942460D02*
X3804563Y-10199603D01*
X4233134Y-9951984D02*
X4252182Y-9951984D01*
X4252182Y-9951984D02*
X4271229Y-9961508D01*
X4271229Y-9961508D02*
X4280753Y-9971031D01*
X4280753Y-9971031D02*
X4290277Y-9990079D01*
X4290277Y-9990079D02*
X4299801Y-10028174D01*
X4299801Y-10028174D02*
X4299801Y-10075793D01*
X4299801Y-10075793D02*
X4290277Y-10113889D01*
X4290277Y-10113889D02*
X4280753Y-10132936D01*
X4280753Y-10132936D02*
X4271229Y-10142460D01*
X4271229Y-10142460D02*
X4252182Y-10151984D01*
X4252182Y-10151984D02*
X4233134Y-10151984D01*
X4233134Y-10151984D02*
X4214087Y-10142460D01*
X4214087Y-10142460D02*
X4204563Y-10132936D01*
X4204563Y-10132936D02*
X4195039Y-10113889D01*
X4195039Y-10113889D02*
X4185515Y-10075793D01*
X4185515Y-10075793D02*
X4185515Y-10028174D01*
X4185515Y-10028174D02*
X4195039Y-9990079D01*
X4195039Y-9990079D02*
X4204563Y-9971031D01*
X4204563Y-9971031D02*
X4214087Y-9961508D01*
X4214087Y-9961508D02*
X4233134Y-9951984D01*
X4385515Y-10132936D02*
X4395039Y-10142460D01*
X4395039Y-10142460D02*
X4385515Y-10151984D01*
X4385515Y-10151984D02*
X4375991Y-10142460D01*
X4375991Y-10142460D02*
X4385515Y-10132936D01*
X4385515Y-10132936D02*
X4385515Y-10151984D01*
X4518848Y-9951984D02*
X4537896Y-9951984D01*
X4537896Y-9951984D02*
X4556944Y-9961508D01*
X4556944Y-9961508D02*
X4566468Y-9971031D01*
X4566468Y-9971031D02*
X4575991Y-9990079D01*
X4575991Y-9990079D02*
X4585515Y-10028174D01*
X4585515Y-10028174D02*
X4585515Y-10075793D01*
X4585515Y-10075793D02*
X4575991Y-10113889D01*
X4575991Y-10113889D02*
X4566468Y-10132936D01*
X4566468Y-10132936D02*
X4556944Y-10142460D01*
X4556944Y-10142460D02*
X4537896Y-10151984D01*
X4537896Y-10151984D02*
X4518848Y-10151984D01*
X4518848Y-10151984D02*
X4499801Y-10142460D01*
X4499801Y-10142460D02*
X4490277Y-10132936D01*
X4490277Y-10132936D02*
X4480753Y-10113889D01*
X4480753Y-10113889D02*
X4471229Y-10075793D01*
X4471229Y-10075793D02*
X4471229Y-10028174D01*
X4471229Y-10028174D02*
X4480753Y-9990079D01*
X4480753Y-9990079D02*
X4490277Y-9971031D01*
X4490277Y-9971031D02*
X4499801Y-9961508D01*
X4499801Y-9961508D02*
X4518848Y-9951984D01*
X4652182Y-9951984D02*
X4775991Y-9951984D01*
X4775991Y-9951984D02*
X4709325Y-10028174D01*
X4709325Y-10028174D02*
X4737896Y-10028174D01*
X4737896Y-10028174D02*
X4756944Y-10037698D01*
X4756944Y-10037698D02*
X4766468Y-10047222D01*
X4766468Y-10047222D02*
X4775991Y-10066270D01*
X4775991Y-10066270D02*
X4775991Y-10113889D01*
X4775991Y-10113889D02*
X4766468Y-10132936D01*
X4766468Y-10132936D02*
X4756944Y-10142460D01*
X4756944Y-10142460D02*
X4737896Y-10151984D01*
X4737896Y-10151984D02*
X4680753Y-10151984D01*
X4680753Y-10151984D02*
X4661706Y-10142460D01*
X4661706Y-10142460D02*
X4652182Y-10132936D01*
X4956944Y-9951984D02*
X4861706Y-9951984D01*
X4861706Y-9951984D02*
X4852182Y-10047222D01*
X4852182Y-10047222D02*
X4861706Y-10037698D01*
X4861706Y-10037698D02*
X4880753Y-10028174D01*
X4880753Y-10028174D02*
X4928372Y-10028174D01*
X4928372Y-10028174D02*
X4947420Y-10037698D01*
X4947420Y-10037698D02*
X4956944Y-10047222D01*
X4956944Y-10047222D02*
X4966468Y-10066270D01*
X4966468Y-10066270D02*
X4966468Y-10113889D01*
X4966468Y-10113889D02*
X4956944Y-10132936D01*
X4956944Y-10132936D02*
X4947420Y-10142460D01*
X4947420Y-10142460D02*
X4928372Y-10151984D01*
X4928372Y-10151984D02*
X4880753Y-10151984D01*
X4880753Y-10151984D02*
X4861706Y-10142460D01*
X4861706Y-10142460D02*
X4852182Y-10132936D01*
X5137896Y-10018650D02*
X5137896Y-10151984D01*
X5090277Y-9942460D02*
X5042658Y-10085317D01*
X5042658Y-10085317D02*
X5166468Y-10085317D01*
X5233134Y-9951984D02*
X5233134Y-9990079D01*
X5309325Y-9951984D02*
X5309325Y-9990079D01*
X5604563Y-10228174D02*
X5595039Y-10218650D01*
X5595039Y-10218650D02*
X5575991Y-10190079D01*
X5575991Y-10190079D02*
X5566468Y-10171031D01*
X5566468Y-10171031D02*
X5556944Y-10142460D01*
X5556944Y-10142460D02*
X5547420Y-10094841D01*
X5547420Y-10094841D02*
X5547420Y-10056746D01*
X5547420Y-10056746D02*
X5556944Y-10009127D01*
X5556944Y-10009127D02*
X5566468Y-9980555D01*
X5566468Y-9980555D02*
X5575991Y-9961508D01*
X5575991Y-9961508D02*
X5595039Y-9932936D01*
X5595039Y-9932936D02*
X5604563Y-9923412D01*
X5718848Y-9951984D02*
X5737896Y-9951984D01*
X5737896Y-9951984D02*
X5756944Y-9961508D01*
X5756944Y-9961508D02*
X5766468Y-9971031D01*
X5766468Y-9971031D02*
X5775991Y-9990079D01*
X5775991Y-9990079D02*
X5785515Y-10028174D01*
X5785515Y-10028174D02*
X5785515Y-10075793D01*
X5785515Y-10075793D02*
X5775991Y-10113889D01*
X5775991Y-10113889D02*
X5766468Y-10132936D01*
X5766468Y-10132936D02*
X5756944Y-10142460D01*
X5756944Y-10142460D02*
X5737896Y-10151984D01*
X5737896Y-10151984D02*
X5718848Y-10151984D01*
X5718848Y-10151984D02*
X5699801Y-10142460D01*
X5699801Y-10142460D02*
X5690277Y-10132936D01*
X5690277Y-10132936D02*
X5680753Y-10113889D01*
X5680753Y-10113889D02*
X5671229Y-10075793D01*
X5671229Y-10075793D02*
X5671229Y-10028174D01*
X5671229Y-10028174D02*
X5680753Y-9990079D01*
X5680753Y-9990079D02*
X5690277Y-9971031D01*
X5690277Y-9971031D02*
X5699801Y-9961508D01*
X5699801Y-9961508D02*
X5718848Y-9951984D01*
X6023610Y-10151984D02*
X6023610Y-9951984D01*
X6109325Y-10151984D02*
X6109325Y-10047222D01*
X6109325Y-10047222D02*
X6099801Y-10028174D01*
X6099801Y-10028174D02*
X6080753Y-10018650D01*
X6080753Y-10018650D02*
X6052182Y-10018650D01*
X6052182Y-10018650D02*
X6033134Y-10028174D01*
X6033134Y-10028174D02*
X6023610Y-10037698D01*
X6233134Y-10151984D02*
X6214087Y-10142460D01*
X6214087Y-10142460D02*
X6204563Y-10132936D01*
X6204563Y-10132936D02*
X6195039Y-10113889D01*
X6195039Y-10113889D02*
X6195039Y-10056746D01*
X6195039Y-10056746D02*
X6204563Y-10037698D01*
X6204563Y-10037698D02*
X6214087Y-10028174D01*
X6214087Y-10028174D02*
X6233134Y-10018650D01*
X6233134Y-10018650D02*
X6261706Y-10018650D01*
X6261706Y-10018650D02*
X6280753Y-10028174D01*
X6280753Y-10028174D02*
X6290277Y-10037698D01*
X6290277Y-10037698D02*
X6299801Y-10056746D01*
X6299801Y-10056746D02*
X6299801Y-10113889D01*
X6299801Y-10113889D02*
X6290277Y-10132936D01*
X6290277Y-10132936D02*
X6280753Y-10142460D01*
X6280753Y-10142460D02*
X6261706Y-10151984D01*
X6261706Y-10151984D02*
X6233134Y-10151984D01*
X6414087Y-10151984D02*
X6395039Y-10142460D01*
X6395039Y-10142460D02*
X6385515Y-10123412D01*
X6385515Y-10123412D02*
X6385515Y-9951984D01*
X6566468Y-10142460D02*
X6547420Y-10151984D01*
X6547420Y-10151984D02*
X6509325Y-10151984D01*
X6509325Y-10151984D02*
X6490277Y-10142460D01*
X6490277Y-10142460D02*
X6480753Y-10123412D01*
X6480753Y-10123412D02*
X6480753Y-10047222D01*
X6480753Y-10047222D02*
X6490277Y-10028174D01*
X6490277Y-10028174D02*
X6509325Y-10018650D01*
X6509325Y-10018650D02*
X6547420Y-10018650D01*
X6547420Y-10018650D02*
X6566468Y-10028174D01*
X6566468Y-10028174D02*
X6575991Y-10047222D01*
X6575991Y-10047222D02*
X6575991Y-10066270D01*
X6575991Y-10066270D02*
X6480753Y-10085317D01*
X6652182Y-10142460D02*
X6671230Y-10151984D01*
X6671230Y-10151984D02*
X6709325Y-10151984D01*
X6709325Y-10151984D02*
X6728372Y-10142460D01*
X6728372Y-10142460D02*
X6737896Y-10123412D01*
X6737896Y-10123412D02*
X6737896Y-10113889D01*
X6737896Y-10113889D02*
X6728372Y-10094841D01*
X6728372Y-10094841D02*
X6709325Y-10085317D01*
X6709325Y-10085317D02*
X6680753Y-10085317D01*
X6680753Y-10085317D02*
X6661706Y-10075793D01*
X6661706Y-10075793D02*
X6652182Y-10056746D01*
X6652182Y-10056746D02*
X6652182Y-10047222D01*
X6652182Y-10047222D02*
X6661706Y-10028174D01*
X6661706Y-10028174D02*
X6680753Y-10018650D01*
X6680753Y-10018650D02*
X6709325Y-10018650D01*
X6709325Y-10018650D02*
X6728372Y-10028174D01*
X6975992Y-10075793D02*
X7128373Y-10075793D01*
X7052182Y-10151984D02*
X7052182Y-9999603D01*
X7356944Y-9951984D02*
X7480753Y-9951984D01*
X7480753Y-9951984D02*
X7414087Y-10028174D01*
X7414087Y-10028174D02*
X7442658Y-10028174D01*
X7442658Y-10028174D02*
X7461706Y-10037698D01*
X7461706Y-10037698D02*
X7471230Y-10047222D01*
X7471230Y-10047222D02*
X7480753Y-10066270D01*
X7480753Y-10066270D02*
X7480753Y-10113889D01*
X7480753Y-10113889D02*
X7471230Y-10132936D01*
X7471230Y-10132936D02*
X7461706Y-10142460D01*
X7461706Y-10142460D02*
X7442658Y-10151984D01*
X7442658Y-10151984D02*
X7385515Y-10151984D01*
X7385515Y-10151984D02*
X7366468Y-10142460D01*
X7366468Y-10142460D02*
X7356944Y-10132936D01*
X7709325Y-10142460D02*
X7728373Y-10151984D01*
X7728373Y-10151984D02*
X7766468Y-10151984D01*
X7766468Y-10151984D02*
X7785515Y-10142460D01*
X7785515Y-10142460D02*
X7795039Y-10123412D01*
X7795039Y-10123412D02*
X7795039Y-10113889D01*
X7795039Y-10113889D02*
X7785515Y-10094841D01*
X7785515Y-10094841D02*
X7766468Y-10085317D01*
X7766468Y-10085317D02*
X7737896Y-10085317D01*
X7737896Y-10085317D02*
X7718849Y-10075793D01*
X7718849Y-10075793D02*
X7709325Y-10056746D01*
X7709325Y-10056746D02*
X7709325Y-10047222D01*
X7709325Y-10047222D02*
X7718849Y-10028174D01*
X7718849Y-10028174D02*
X7737896Y-10018650D01*
X7737896Y-10018650D02*
X7766468Y-10018650D01*
X7766468Y-10018650D02*
X7785515Y-10028174D01*
X7909325Y-10151984D02*
X7890277Y-10142460D01*
X7890277Y-10142460D02*
X7880754Y-10123412D01*
X7880754Y-10123412D02*
X7880754Y-9951984D01*
X8014087Y-10151984D02*
X7995039Y-10142460D01*
X7995039Y-10142460D02*
X7985515Y-10132936D01*
X7985515Y-10132936D02*
X7975992Y-10113889D01*
X7975992Y-10113889D02*
X7975992Y-10056746D01*
X7975992Y-10056746D02*
X7985515Y-10037698D01*
X7985515Y-10037698D02*
X7995039Y-10028174D01*
X7995039Y-10028174D02*
X8014087Y-10018650D01*
X8014087Y-10018650D02*
X8042658Y-10018650D01*
X8042658Y-10018650D02*
X8061706Y-10028174D01*
X8061706Y-10028174D02*
X8071230Y-10037698D01*
X8071230Y-10037698D02*
X8080754Y-10056746D01*
X8080754Y-10056746D02*
X8080754Y-10113889D01*
X8080754Y-10113889D02*
X8071230Y-10132936D01*
X8071230Y-10132936D02*
X8061706Y-10142460D01*
X8061706Y-10142460D02*
X8042658Y-10151984D01*
X8042658Y-10151984D02*
X8014087Y-10151984D01*
X8137896Y-10018650D02*
X8214087Y-10018650D01*
X8166468Y-9951984D02*
X8166468Y-10123412D01*
X8166468Y-10123412D02*
X8175992Y-10142460D01*
X8175992Y-10142460D02*
X8195039Y-10151984D01*
X8195039Y-10151984D02*
X8214087Y-10151984D01*
X8271230Y-10142460D02*
X8290277Y-10151984D01*
X8290277Y-10151984D02*
X8328373Y-10151984D01*
X8328373Y-10151984D02*
X8347420Y-10142460D01*
X8347420Y-10142460D02*
X8356944Y-10123412D01*
X8356944Y-10123412D02*
X8356944Y-10113889D01*
X8356944Y-10113889D02*
X8347420Y-10094841D01*
X8347420Y-10094841D02*
X8328373Y-10085317D01*
X8328373Y-10085317D02*
X8299801Y-10085317D01*
X8299801Y-10085317D02*
X8280754Y-10075793D01*
X8280754Y-10075793D02*
X8271230Y-10056746D01*
X8271230Y-10056746D02*
X8271230Y-10047222D01*
X8271230Y-10047222D02*
X8280754Y-10028174D01*
X8280754Y-10028174D02*
X8299801Y-10018650D01*
X8299801Y-10018650D02*
X8328373Y-10018650D01*
X8328373Y-10018650D02*
X8347420Y-10028174D01*
X8423611Y-10228174D02*
X8433135Y-10218650D01*
X8433135Y-10218650D02*
X8452182Y-10190079D01*
X8452182Y-10190079D02*
X8461706Y-10171031D01*
X8461706Y-10171031D02*
X8471230Y-10142460D01*
X8471230Y-10142460D02*
X8480754Y-10094841D01*
X8480754Y-10094841D02*
X8480754Y-10056746D01*
X8480754Y-10056746D02*
X8471230Y-10009127D01*
X8471230Y-10009127D02*
X8461706Y-9980555D01*
X8461706Y-9980555D02*
X8452182Y-9961508D01*
X8452182Y-9961508D02*
X8433135Y-9932936D01*
X8433135Y-9932936D02*
X8423611Y-9923412D01*
D13*
X2014856Y-10359856D02*
X2014856Y-10289144D01*
X1944144Y-10289144D01*
X1944144Y-10359856D01*
X2014856Y-10359856D01*
D12*
X2395039Y-10415984D02*
X2280753Y-10415984D01*
X2337896Y-10415984D02*
X2337896Y-10215984D01*
X2337896Y-10215984D02*
X2318848Y-10244555D01*
X2318848Y-10244555D02*
X2299801Y-10263603D01*
X2299801Y-10263603D02*
X2280753Y-10273127D01*
X2480753Y-10396936D02*
X2490277Y-10406460D01*
X2490277Y-10406460D02*
X2480753Y-10415984D01*
X2480753Y-10415984D02*
X2471229Y-10406460D01*
X2471229Y-10406460D02*
X2480753Y-10396936D01*
X2480753Y-10396936D02*
X2480753Y-10415984D01*
X2614086Y-10215984D02*
X2633134Y-10215984D01*
X2633134Y-10215984D02*
X2652182Y-10225508D01*
X2652182Y-10225508D02*
X2661705Y-10235031D01*
X2661705Y-10235031D02*
X2671229Y-10254079D01*
X2671229Y-10254079D02*
X2680753Y-10292174D01*
X2680753Y-10292174D02*
X2680753Y-10339793D01*
X2680753Y-10339793D02*
X2671229Y-10377889D01*
X2671229Y-10377889D02*
X2661705Y-10396936D01*
X2661705Y-10396936D02*
X2652182Y-10406460D01*
X2652182Y-10406460D02*
X2633134Y-10415984D01*
X2633134Y-10415984D02*
X2614086Y-10415984D01*
X2614086Y-10415984D02*
X2595039Y-10406460D01*
X2595039Y-10406460D02*
X2585515Y-10396936D01*
X2585515Y-10396936D02*
X2575991Y-10377889D01*
X2575991Y-10377889D02*
X2566467Y-10339793D01*
X2566467Y-10339793D02*
X2566467Y-10292174D01*
X2566467Y-10292174D02*
X2575991Y-10254079D01*
X2575991Y-10254079D02*
X2585515Y-10235031D01*
X2585515Y-10235031D02*
X2595039Y-10225508D01*
X2595039Y-10225508D02*
X2614086Y-10215984D01*
X2804562Y-10215984D02*
X2823610Y-10215984D01*
X2823610Y-10215984D02*
X2842658Y-10225508D01*
X2842658Y-10225508D02*
X2852182Y-10235031D01*
X2852182Y-10235031D02*
X2861705Y-10254079D01*
X2861705Y-10254079D02*
X2871229Y-10292174D01*
X2871229Y-10292174D02*
X2871229Y-10339793D01*
X2871229Y-10339793D02*
X2861705Y-10377889D01*
X2861705Y-10377889D02*
X2852182Y-10396936D01*
X2852182Y-10396936D02*
X2842658Y-10406460D01*
X2842658Y-10406460D02*
X2823610Y-10415984D01*
X2823610Y-10415984D02*
X2804562Y-10415984D01*
X2804562Y-10415984D02*
X2785515Y-10406460D01*
X2785515Y-10406460D02*
X2775991Y-10396936D01*
X2775991Y-10396936D02*
X2766467Y-10377889D01*
X2766467Y-10377889D02*
X2756944Y-10339793D01*
X2756944Y-10339793D02*
X2756944Y-10292174D01*
X2756944Y-10292174D02*
X2766467Y-10254079D01*
X2766467Y-10254079D02*
X2775991Y-10235031D01*
X2775991Y-10235031D02*
X2785515Y-10225508D01*
X2785515Y-10225508D02*
X2804562Y-10215984D01*
X2995039Y-10215984D02*
X3014086Y-10215984D01*
X3014086Y-10215984D02*
X3033134Y-10225508D01*
X3033134Y-10225508D02*
X3042658Y-10235031D01*
X3042658Y-10235031D02*
X3052182Y-10254079D01*
X3052182Y-10254079D02*
X3061705Y-10292174D01*
X3061705Y-10292174D02*
X3061705Y-10339793D01*
X3061705Y-10339793D02*
X3052182Y-10377889D01*
X3052182Y-10377889D02*
X3042658Y-10396936D01*
X3042658Y-10396936D02*
X3033134Y-10406460D01*
X3033134Y-10406460D02*
X3014086Y-10415984D01*
X3014086Y-10415984D02*
X2995039Y-10415984D01*
X2995039Y-10415984D02*
X2975991Y-10406460D01*
X2975991Y-10406460D02*
X2966467Y-10396936D01*
X2966467Y-10396936D02*
X2956943Y-10377889D01*
X2956943Y-10377889D02*
X2947420Y-10339793D01*
X2947420Y-10339793D02*
X2947420Y-10292174D01*
X2947420Y-10292174D02*
X2956943Y-10254079D01*
X2956943Y-10254079D02*
X2966467Y-10235031D01*
X2966467Y-10235031D02*
X2975991Y-10225508D01*
X2975991Y-10225508D02*
X2995039Y-10215984D01*
X3147420Y-10415984D02*
X3147420Y-10282650D01*
X3147420Y-10301698D02*
X3156943Y-10292174D01*
X3156943Y-10292174D02*
X3175991Y-10282650D01*
X3175991Y-10282650D02*
X3204563Y-10282650D01*
X3204563Y-10282650D02*
X3223610Y-10292174D01*
X3223610Y-10292174D02*
X3233134Y-10311222D01*
X3233134Y-10311222D02*
X3233134Y-10415984D01*
X3233134Y-10311222D02*
X3242658Y-10292174D01*
X3242658Y-10292174D02*
X3261705Y-10282650D01*
X3261705Y-10282650D02*
X3290277Y-10282650D01*
X3290277Y-10282650D02*
X3309324Y-10292174D01*
X3309324Y-10292174D02*
X3318848Y-10311222D01*
X3318848Y-10311222D02*
X3318848Y-10415984D01*
X3414086Y-10415984D02*
X3414086Y-10282650D01*
X3414086Y-10301698D02*
X3423610Y-10292174D01*
X3423610Y-10292174D02*
X3442658Y-10282650D01*
X3442658Y-10282650D02*
X3471229Y-10282650D01*
X3471229Y-10282650D02*
X3490277Y-10292174D01*
X3490277Y-10292174D02*
X3499801Y-10311222D01*
X3499801Y-10311222D02*
X3499801Y-10415984D01*
X3499801Y-10311222D02*
X3509324Y-10292174D01*
X3509324Y-10292174D02*
X3528372Y-10282650D01*
X3528372Y-10282650D02*
X3556943Y-10282650D01*
X3556943Y-10282650D02*
X3575991Y-10292174D01*
X3575991Y-10292174D02*
X3585515Y-10311222D01*
X3585515Y-10311222D02*
X3585515Y-10415984D01*
X3975991Y-10206460D02*
X3804563Y-10463603D01*
X4233134Y-10215984D02*
X4252182Y-10215984D01*
X4252182Y-10215984D02*
X4271229Y-10225508D01*
X4271229Y-10225508D02*
X4280753Y-10235031D01*
X4280753Y-10235031D02*
X4290277Y-10254079D01*
X4290277Y-10254079D02*
X4299801Y-10292174D01*
X4299801Y-10292174D02*
X4299801Y-10339793D01*
X4299801Y-10339793D02*
X4290277Y-10377889D01*
X4290277Y-10377889D02*
X4280753Y-10396936D01*
X4280753Y-10396936D02*
X4271229Y-10406460D01*
X4271229Y-10406460D02*
X4252182Y-10415984D01*
X4252182Y-10415984D02*
X4233134Y-10415984D01*
X4233134Y-10415984D02*
X4214087Y-10406460D01*
X4214087Y-10406460D02*
X4204563Y-10396936D01*
X4204563Y-10396936D02*
X4195039Y-10377889D01*
X4195039Y-10377889D02*
X4185515Y-10339793D01*
X4185515Y-10339793D02*
X4185515Y-10292174D01*
X4185515Y-10292174D02*
X4195039Y-10254079D01*
X4195039Y-10254079D02*
X4204563Y-10235031D01*
X4204563Y-10235031D02*
X4214087Y-10225508D01*
X4214087Y-10225508D02*
X4233134Y-10215984D01*
X4385515Y-10396936D02*
X4395039Y-10406460D01*
X4395039Y-10406460D02*
X4385515Y-10415984D01*
X4385515Y-10415984D02*
X4375991Y-10406460D01*
X4375991Y-10406460D02*
X4385515Y-10396936D01*
X4385515Y-10396936D02*
X4385515Y-10415984D01*
X4518848Y-10215984D02*
X4537896Y-10215984D01*
X4537896Y-10215984D02*
X4556944Y-10225508D01*
X4556944Y-10225508D02*
X4566468Y-10235031D01*
X4566468Y-10235031D02*
X4575991Y-10254079D01*
X4575991Y-10254079D02*
X4585515Y-10292174D01*
X4585515Y-10292174D02*
X4585515Y-10339793D01*
X4585515Y-10339793D02*
X4575991Y-10377889D01*
X4575991Y-10377889D02*
X4566468Y-10396936D01*
X4566468Y-10396936D02*
X4556944Y-10406460D01*
X4556944Y-10406460D02*
X4537896Y-10415984D01*
X4537896Y-10415984D02*
X4518848Y-10415984D01*
X4518848Y-10415984D02*
X4499801Y-10406460D01*
X4499801Y-10406460D02*
X4490277Y-10396936D01*
X4490277Y-10396936D02*
X4480753Y-10377889D01*
X4480753Y-10377889D02*
X4471229Y-10339793D01*
X4471229Y-10339793D02*
X4471229Y-10292174D01*
X4471229Y-10292174D02*
X4480753Y-10254079D01*
X4480753Y-10254079D02*
X4490277Y-10235031D01*
X4490277Y-10235031D02*
X4499801Y-10225508D01*
X4499801Y-10225508D02*
X4518848Y-10215984D01*
X4652182Y-10215984D02*
X4775991Y-10215984D01*
X4775991Y-10215984D02*
X4709325Y-10292174D01*
X4709325Y-10292174D02*
X4737896Y-10292174D01*
X4737896Y-10292174D02*
X4756944Y-10301698D01*
X4756944Y-10301698D02*
X4766468Y-10311222D01*
X4766468Y-10311222D02*
X4775991Y-10330270D01*
X4775991Y-10330270D02*
X4775991Y-10377889D01*
X4775991Y-10377889D02*
X4766468Y-10396936D01*
X4766468Y-10396936D02*
X4756944Y-10406460D01*
X4756944Y-10406460D02*
X4737896Y-10415984D01*
X4737896Y-10415984D02*
X4680753Y-10415984D01*
X4680753Y-10415984D02*
X4661706Y-10406460D01*
X4661706Y-10406460D02*
X4652182Y-10396936D01*
X4871229Y-10415984D02*
X4909325Y-10415984D01*
X4909325Y-10415984D02*
X4928372Y-10406460D01*
X4928372Y-10406460D02*
X4937896Y-10396936D01*
X4937896Y-10396936D02*
X4956944Y-10368365D01*
X4956944Y-10368365D02*
X4966468Y-10330270D01*
X4966468Y-10330270D02*
X4966468Y-10254079D01*
X4966468Y-10254079D02*
X4956944Y-10235031D01*
X4956944Y-10235031D02*
X4947420Y-10225508D01*
X4947420Y-10225508D02*
X4928372Y-10215984D01*
X4928372Y-10215984D02*
X4890277Y-10215984D01*
X4890277Y-10215984D02*
X4871229Y-10225508D01*
X4871229Y-10225508D02*
X4861706Y-10235031D01*
X4861706Y-10235031D02*
X4852182Y-10254079D01*
X4852182Y-10254079D02*
X4852182Y-10301698D01*
X4852182Y-10301698D02*
X4861706Y-10320746D01*
X4861706Y-10320746D02*
X4871229Y-10330270D01*
X4871229Y-10330270D02*
X4890277Y-10339793D01*
X4890277Y-10339793D02*
X4928372Y-10339793D01*
X4928372Y-10339793D02*
X4947420Y-10330270D01*
X4947420Y-10330270D02*
X4956944Y-10320746D01*
X4956944Y-10320746D02*
X4966468Y-10301698D01*
X5137896Y-10282650D02*
X5137896Y-10415984D01*
X5090277Y-10206460D02*
X5042658Y-10349317D01*
X5042658Y-10349317D02*
X5166468Y-10349317D01*
X5233134Y-10215984D02*
X5233134Y-10254079D01*
X5309325Y-10215984D02*
X5309325Y-10254079D01*
X5604563Y-10492174D02*
X5595039Y-10482650D01*
X5595039Y-10482650D02*
X5575991Y-10454079D01*
X5575991Y-10454079D02*
X5566468Y-10435031D01*
X5566468Y-10435031D02*
X5556944Y-10406460D01*
X5556944Y-10406460D02*
X5547420Y-10358841D01*
X5547420Y-10358841D02*
X5547420Y-10320746D01*
X5547420Y-10320746D02*
X5556944Y-10273127D01*
X5556944Y-10273127D02*
X5566468Y-10244555D01*
X5566468Y-10244555D02*
X5575991Y-10225508D01*
X5575991Y-10225508D02*
X5595039Y-10196936D01*
X5595039Y-10196936D02*
X5604563Y-10187412D01*
X5766468Y-10215984D02*
X5728372Y-10215984D01*
X5728372Y-10215984D02*
X5709325Y-10225508D01*
X5709325Y-10225508D02*
X5699801Y-10235031D01*
X5699801Y-10235031D02*
X5680753Y-10263603D01*
X5680753Y-10263603D02*
X5671229Y-10301698D01*
X5671229Y-10301698D02*
X5671229Y-10377889D01*
X5671229Y-10377889D02*
X5680753Y-10396936D01*
X5680753Y-10396936D02*
X5690277Y-10406460D01*
X5690277Y-10406460D02*
X5709325Y-10415984D01*
X5709325Y-10415984D02*
X5747420Y-10415984D01*
X5747420Y-10415984D02*
X5766468Y-10406460D01*
X5766468Y-10406460D02*
X5775991Y-10396936D01*
X5775991Y-10396936D02*
X5785515Y-10377889D01*
X5785515Y-10377889D02*
X5785515Y-10330270D01*
X5785515Y-10330270D02*
X5775991Y-10311222D01*
X5775991Y-10311222D02*
X5766468Y-10301698D01*
X5766468Y-10301698D02*
X5747420Y-10292174D01*
X5747420Y-10292174D02*
X5709325Y-10292174D01*
X5709325Y-10292174D02*
X5690277Y-10301698D01*
X5690277Y-10301698D02*
X5680753Y-10311222D01*
X5680753Y-10311222D02*
X5671229Y-10330270D01*
X6023610Y-10415984D02*
X6023610Y-10215984D01*
X6109325Y-10415984D02*
X6109325Y-10311222D01*
X6109325Y-10311222D02*
X6099801Y-10292174D01*
X6099801Y-10292174D02*
X6080753Y-10282650D01*
X6080753Y-10282650D02*
X6052182Y-10282650D01*
X6052182Y-10282650D02*
X6033134Y-10292174D01*
X6033134Y-10292174D02*
X6023610Y-10301698D01*
X6233134Y-10415984D02*
X6214087Y-10406460D01*
X6214087Y-10406460D02*
X6204563Y-10396936D01*
X6204563Y-10396936D02*
X6195039Y-10377889D01*
X6195039Y-10377889D02*
X6195039Y-10320746D01*
X6195039Y-10320746D02*
X6204563Y-10301698D01*
X6204563Y-10301698D02*
X6214087Y-10292174D01*
X6214087Y-10292174D02*
X6233134Y-10282650D01*
X6233134Y-10282650D02*
X6261706Y-10282650D01*
X6261706Y-10282650D02*
X6280753Y-10292174D01*
X6280753Y-10292174D02*
X6290277Y-10301698D01*
X6290277Y-10301698D02*
X6299801Y-10320746D01*
X6299801Y-10320746D02*
X6299801Y-10377889D01*
X6299801Y-10377889D02*
X6290277Y-10396936D01*
X6290277Y-10396936D02*
X6280753Y-10406460D01*
X6280753Y-10406460D02*
X6261706Y-10415984D01*
X6261706Y-10415984D02*
X6233134Y-10415984D01*
X6414087Y-10415984D02*
X6395039Y-10406460D01*
X6395039Y-10406460D02*
X6385515Y-10387412D01*
X6385515Y-10387412D02*
X6385515Y-10215984D01*
X6566468Y-10406460D02*
X6547420Y-10415984D01*
X6547420Y-10415984D02*
X6509325Y-10415984D01*
X6509325Y-10415984D02*
X6490277Y-10406460D01*
X6490277Y-10406460D02*
X6480753Y-10387412D01*
X6480753Y-10387412D02*
X6480753Y-10311222D01*
X6480753Y-10311222D02*
X6490277Y-10292174D01*
X6490277Y-10292174D02*
X6509325Y-10282650D01*
X6509325Y-10282650D02*
X6547420Y-10282650D01*
X6547420Y-10282650D02*
X6566468Y-10292174D01*
X6566468Y-10292174D02*
X6575991Y-10311222D01*
X6575991Y-10311222D02*
X6575991Y-10330270D01*
X6575991Y-10330270D02*
X6480753Y-10349317D01*
X6652182Y-10406460D02*
X6671230Y-10415984D01*
X6671230Y-10415984D02*
X6709325Y-10415984D01*
X6709325Y-10415984D02*
X6728372Y-10406460D01*
X6728372Y-10406460D02*
X6737896Y-10387412D01*
X6737896Y-10387412D02*
X6737896Y-10377889D01*
X6737896Y-10377889D02*
X6728372Y-10358841D01*
X6728372Y-10358841D02*
X6709325Y-10349317D01*
X6709325Y-10349317D02*
X6680753Y-10349317D01*
X6680753Y-10349317D02*
X6661706Y-10339793D01*
X6661706Y-10339793D02*
X6652182Y-10320746D01*
X6652182Y-10320746D02*
X6652182Y-10311222D01*
X6652182Y-10311222D02*
X6661706Y-10292174D01*
X6661706Y-10292174D02*
X6680753Y-10282650D01*
X6680753Y-10282650D02*
X6709325Y-10282650D01*
X6709325Y-10282650D02*
X6728372Y-10292174D01*
X6804563Y-10492174D02*
X6814087Y-10482650D01*
X6814087Y-10482650D02*
X6833134Y-10454079D01*
X6833134Y-10454079D02*
X6842658Y-10435031D01*
X6842658Y-10435031D02*
X6852182Y-10406460D01*
X6852182Y-10406460D02*
X6861706Y-10358841D01*
X6861706Y-10358841D02*
X6861706Y-10320746D01*
X6861706Y-10320746D02*
X6852182Y-10273127D01*
X6852182Y-10273127D02*
X6842658Y-10244555D01*
X6842658Y-10244555D02*
X6833134Y-10225508D01*
X6833134Y-10225508D02*
X6814087Y-10196936D01*
X6814087Y-10196936D02*
X6804563Y-10187412D01*
D14*
X1974500Y-10643500D02*
X2029500Y-10588500D01*
X1974500Y-10533500D01*
X1919500Y-10588500D01*
X1974500Y-10643500D01*
D12*
X2395039Y-10679984D02*
X2280753Y-10679984D01*
X2337896Y-10679984D02*
X2337896Y-10479984D01*
X2337896Y-10479984D02*
X2318848Y-10508555D01*
X2318848Y-10508555D02*
X2299801Y-10527603D01*
X2299801Y-10527603D02*
X2280753Y-10537127D01*
X2480753Y-10660936D02*
X2490277Y-10670460D01*
X2490277Y-10670460D02*
X2480753Y-10679984D01*
X2480753Y-10679984D02*
X2471229Y-10670460D01*
X2471229Y-10670460D02*
X2480753Y-10660936D01*
X2480753Y-10660936D02*
X2480753Y-10679984D01*
X2680753Y-10679984D02*
X2566467Y-10679984D01*
X2623610Y-10679984D02*
X2623610Y-10479984D01*
X2623610Y-10479984D02*
X2604563Y-10508555D01*
X2604563Y-10508555D02*
X2585515Y-10527603D01*
X2585515Y-10527603D02*
X2566467Y-10537127D01*
X2804562Y-10479984D02*
X2823610Y-10479984D01*
X2823610Y-10479984D02*
X2842658Y-10489508D01*
X2842658Y-10489508D02*
X2852182Y-10499031D01*
X2852182Y-10499031D02*
X2861705Y-10518079D01*
X2861705Y-10518079D02*
X2871229Y-10556174D01*
X2871229Y-10556174D02*
X2871229Y-10603793D01*
X2871229Y-10603793D02*
X2861705Y-10641889D01*
X2861705Y-10641889D02*
X2852182Y-10660936D01*
X2852182Y-10660936D02*
X2842658Y-10670460D01*
X2842658Y-10670460D02*
X2823610Y-10679984D01*
X2823610Y-10679984D02*
X2804562Y-10679984D01*
X2804562Y-10679984D02*
X2785515Y-10670460D01*
X2785515Y-10670460D02*
X2775991Y-10660936D01*
X2775991Y-10660936D02*
X2766467Y-10641889D01*
X2766467Y-10641889D02*
X2756944Y-10603793D01*
X2756944Y-10603793D02*
X2756944Y-10556174D01*
X2756944Y-10556174D02*
X2766467Y-10518079D01*
X2766467Y-10518079D02*
X2775991Y-10499031D01*
X2775991Y-10499031D02*
X2785515Y-10489508D01*
X2785515Y-10489508D02*
X2804562Y-10479984D01*
X2995039Y-10479984D02*
X3014086Y-10479984D01*
X3014086Y-10479984D02*
X3033134Y-10489508D01*
X3033134Y-10489508D02*
X3042658Y-10499031D01*
X3042658Y-10499031D02*
X3052182Y-10518079D01*
X3052182Y-10518079D02*
X3061705Y-10556174D01*
X3061705Y-10556174D02*
X3061705Y-10603793D01*
X3061705Y-10603793D02*
X3052182Y-10641889D01*
X3052182Y-10641889D02*
X3042658Y-10660936D01*
X3042658Y-10660936D02*
X3033134Y-10670460D01*
X3033134Y-10670460D02*
X3014086Y-10679984D01*
X3014086Y-10679984D02*
X2995039Y-10679984D01*
X2995039Y-10679984D02*
X2975991Y-10670460D01*
X2975991Y-10670460D02*
X2966467Y-10660936D01*
X2966467Y-10660936D02*
X2956943Y-10641889D01*
X2956943Y-10641889D02*
X2947420Y-10603793D01*
X2947420Y-10603793D02*
X2947420Y-10556174D01*
X2947420Y-10556174D02*
X2956943Y-10518079D01*
X2956943Y-10518079D02*
X2966467Y-10499031D01*
X2966467Y-10499031D02*
X2975991Y-10489508D01*
X2975991Y-10489508D02*
X2995039Y-10479984D01*
X3147420Y-10679984D02*
X3147420Y-10546650D01*
X3147420Y-10565698D02*
X3156943Y-10556174D01*
X3156943Y-10556174D02*
X3175991Y-10546650D01*
X3175991Y-10546650D02*
X3204563Y-10546650D01*
X3204563Y-10546650D02*
X3223610Y-10556174D01*
X3223610Y-10556174D02*
X3233134Y-10575222D01*
X3233134Y-10575222D02*
X3233134Y-10679984D01*
X3233134Y-10575222D02*
X3242658Y-10556174D01*
X3242658Y-10556174D02*
X3261705Y-10546650D01*
X3261705Y-10546650D02*
X3290277Y-10546650D01*
X3290277Y-10546650D02*
X3309324Y-10556174D01*
X3309324Y-10556174D02*
X3318848Y-10575222D01*
X3318848Y-10575222D02*
X3318848Y-10679984D01*
X3414086Y-10679984D02*
X3414086Y-10546650D01*
X3414086Y-10565698D02*
X3423610Y-10556174D01*
X3423610Y-10556174D02*
X3442658Y-10546650D01*
X3442658Y-10546650D02*
X3471229Y-10546650D01*
X3471229Y-10546650D02*
X3490277Y-10556174D01*
X3490277Y-10556174D02*
X3499801Y-10575222D01*
X3499801Y-10575222D02*
X3499801Y-10679984D01*
X3499801Y-10575222D02*
X3509324Y-10556174D01*
X3509324Y-10556174D02*
X3528372Y-10546650D01*
X3528372Y-10546650D02*
X3556943Y-10546650D01*
X3556943Y-10546650D02*
X3575991Y-10556174D01*
X3575991Y-10556174D02*
X3585515Y-10575222D01*
X3585515Y-10575222D02*
X3585515Y-10679984D01*
X3975991Y-10470460D02*
X3804563Y-10727603D01*
X4233134Y-10479984D02*
X4252182Y-10479984D01*
X4252182Y-10479984D02*
X4271229Y-10489508D01*
X4271229Y-10489508D02*
X4280753Y-10499031D01*
X4280753Y-10499031D02*
X4290277Y-10518079D01*
X4290277Y-10518079D02*
X4299801Y-10556174D01*
X4299801Y-10556174D02*
X4299801Y-10603793D01*
X4299801Y-10603793D02*
X4290277Y-10641889D01*
X4290277Y-10641889D02*
X4280753Y-10660936D01*
X4280753Y-10660936D02*
X4271229Y-10670460D01*
X4271229Y-10670460D02*
X4252182Y-10679984D01*
X4252182Y-10679984D02*
X4233134Y-10679984D01*
X4233134Y-10679984D02*
X4214087Y-10670460D01*
X4214087Y-10670460D02*
X4204563Y-10660936D01*
X4204563Y-10660936D02*
X4195039Y-10641889D01*
X4195039Y-10641889D02*
X4185515Y-10603793D01*
X4185515Y-10603793D02*
X4185515Y-10556174D01*
X4185515Y-10556174D02*
X4195039Y-10518079D01*
X4195039Y-10518079D02*
X4204563Y-10499031D01*
X4204563Y-10499031D02*
X4214087Y-10489508D01*
X4214087Y-10489508D02*
X4233134Y-10479984D01*
X4385515Y-10660936D02*
X4395039Y-10670460D01*
X4395039Y-10670460D02*
X4385515Y-10679984D01*
X4385515Y-10679984D02*
X4375991Y-10670460D01*
X4375991Y-10670460D02*
X4385515Y-10660936D01*
X4385515Y-10660936D02*
X4385515Y-10679984D01*
X4518848Y-10479984D02*
X4537896Y-10479984D01*
X4537896Y-10479984D02*
X4556944Y-10489508D01*
X4556944Y-10489508D02*
X4566468Y-10499031D01*
X4566468Y-10499031D02*
X4575991Y-10518079D01*
X4575991Y-10518079D02*
X4585515Y-10556174D01*
X4585515Y-10556174D02*
X4585515Y-10603793D01*
X4585515Y-10603793D02*
X4575991Y-10641889D01*
X4575991Y-10641889D02*
X4566468Y-10660936D01*
X4566468Y-10660936D02*
X4556944Y-10670460D01*
X4556944Y-10670460D02*
X4537896Y-10679984D01*
X4537896Y-10679984D02*
X4518848Y-10679984D01*
X4518848Y-10679984D02*
X4499801Y-10670460D01*
X4499801Y-10670460D02*
X4490277Y-10660936D01*
X4490277Y-10660936D02*
X4480753Y-10641889D01*
X4480753Y-10641889D02*
X4471229Y-10603793D01*
X4471229Y-10603793D02*
X4471229Y-10556174D01*
X4471229Y-10556174D02*
X4480753Y-10518079D01*
X4480753Y-10518079D02*
X4490277Y-10499031D01*
X4490277Y-10499031D02*
X4499801Y-10489508D01*
X4499801Y-10489508D02*
X4518848Y-10479984D01*
X4756944Y-10546650D02*
X4756944Y-10679984D01*
X4709325Y-10470460D02*
X4661706Y-10613317D01*
X4661706Y-10613317D02*
X4785515Y-10613317D01*
X4842658Y-10479984D02*
X4966468Y-10479984D01*
X4966468Y-10479984D02*
X4899801Y-10556174D01*
X4899801Y-10556174D02*
X4928372Y-10556174D01*
X4928372Y-10556174D02*
X4947420Y-10565698D01*
X4947420Y-10565698D02*
X4956944Y-10575222D01*
X4956944Y-10575222D02*
X4966468Y-10594270D01*
X4966468Y-10594270D02*
X4966468Y-10641889D01*
X4966468Y-10641889D02*
X4956944Y-10660936D01*
X4956944Y-10660936D02*
X4947420Y-10670460D01*
X4947420Y-10670460D02*
X4928372Y-10679984D01*
X4928372Y-10679984D02*
X4871229Y-10679984D01*
X4871229Y-10679984D02*
X4852182Y-10670460D01*
X4852182Y-10670460D02*
X4842658Y-10660936D01*
X5033134Y-10479984D02*
X5156944Y-10479984D01*
X5156944Y-10479984D02*
X5090277Y-10556174D01*
X5090277Y-10556174D02*
X5118849Y-10556174D01*
X5118849Y-10556174D02*
X5137896Y-10565698D01*
X5137896Y-10565698D02*
X5147420Y-10575222D01*
X5147420Y-10575222D02*
X5156944Y-10594270D01*
X5156944Y-10594270D02*
X5156944Y-10641889D01*
X5156944Y-10641889D02*
X5147420Y-10660936D01*
X5147420Y-10660936D02*
X5137896Y-10670460D01*
X5137896Y-10670460D02*
X5118849Y-10679984D01*
X5118849Y-10679984D02*
X5061706Y-10679984D01*
X5061706Y-10679984D02*
X5042658Y-10670460D01*
X5042658Y-10670460D02*
X5033134Y-10660936D01*
X5233134Y-10479984D02*
X5233134Y-10518079D01*
X5309325Y-10479984D02*
X5309325Y-10518079D01*
X5604563Y-10756174D02*
X5595039Y-10746650D01*
X5595039Y-10746650D02*
X5575991Y-10718079D01*
X5575991Y-10718079D02*
X5566468Y-10699031D01*
X5566468Y-10699031D02*
X5556944Y-10670460D01*
X5556944Y-10670460D02*
X5547420Y-10622841D01*
X5547420Y-10622841D02*
X5547420Y-10584746D01*
X5547420Y-10584746D02*
X5556944Y-10537127D01*
X5556944Y-10537127D02*
X5566468Y-10508555D01*
X5566468Y-10508555D02*
X5575991Y-10489508D01*
X5575991Y-10489508D02*
X5595039Y-10460936D01*
X5595039Y-10460936D02*
X5604563Y-10451412D01*
X5785515Y-10679984D02*
X5671229Y-10679984D01*
X5728372Y-10679984D02*
X5728372Y-10479984D01*
X5728372Y-10479984D02*
X5709325Y-10508555D01*
X5709325Y-10508555D02*
X5690277Y-10527603D01*
X5690277Y-10527603D02*
X5671229Y-10537127D01*
X5956944Y-10546650D02*
X5956944Y-10679984D01*
X5909325Y-10470460D02*
X5861706Y-10613317D01*
X5861706Y-10613317D02*
X5985515Y-10613317D01*
X6214087Y-10679984D02*
X6214087Y-10479984D01*
X6299801Y-10679984D02*
X6299801Y-10575222D01*
X6299801Y-10575222D02*
X6290277Y-10556174D01*
X6290277Y-10556174D02*
X6271230Y-10546650D01*
X6271230Y-10546650D02*
X6242658Y-10546650D01*
X6242658Y-10546650D02*
X6223610Y-10556174D01*
X6223610Y-10556174D02*
X6214087Y-10565698D01*
X6423610Y-10679984D02*
X6404563Y-10670460D01*
X6404563Y-10670460D02*
X6395039Y-10660936D01*
X6395039Y-10660936D02*
X6385515Y-10641889D01*
X6385515Y-10641889D02*
X6385515Y-10584746D01*
X6385515Y-10584746D02*
X6395039Y-10565698D01*
X6395039Y-10565698D02*
X6404563Y-10556174D01*
X6404563Y-10556174D02*
X6423610Y-10546650D01*
X6423610Y-10546650D02*
X6452182Y-10546650D01*
X6452182Y-10546650D02*
X6471230Y-10556174D01*
X6471230Y-10556174D02*
X6480753Y-10565698D01*
X6480753Y-10565698D02*
X6490277Y-10584746D01*
X6490277Y-10584746D02*
X6490277Y-10641889D01*
X6490277Y-10641889D02*
X6480753Y-10660936D01*
X6480753Y-10660936D02*
X6471230Y-10670460D01*
X6471230Y-10670460D02*
X6452182Y-10679984D01*
X6452182Y-10679984D02*
X6423610Y-10679984D01*
X6604563Y-10679984D02*
X6585515Y-10670460D01*
X6585515Y-10670460D02*
X6575991Y-10651412D01*
X6575991Y-10651412D02*
X6575991Y-10479984D01*
X6756944Y-10670460D02*
X6737896Y-10679984D01*
X6737896Y-10679984D02*
X6699801Y-10679984D01*
X6699801Y-10679984D02*
X6680753Y-10670460D01*
X6680753Y-10670460D02*
X6671230Y-10651412D01*
X6671230Y-10651412D02*
X6671230Y-10575222D01*
X6671230Y-10575222D02*
X6680753Y-10556174D01*
X6680753Y-10556174D02*
X6699801Y-10546650D01*
X6699801Y-10546650D02*
X6737896Y-10546650D01*
X6737896Y-10546650D02*
X6756944Y-10556174D01*
X6756944Y-10556174D02*
X6766468Y-10575222D01*
X6766468Y-10575222D02*
X6766468Y-10594270D01*
X6766468Y-10594270D02*
X6671230Y-10613317D01*
X6842658Y-10670460D02*
X6861706Y-10679984D01*
X6861706Y-10679984D02*
X6899801Y-10679984D01*
X6899801Y-10679984D02*
X6918849Y-10670460D01*
X6918849Y-10670460D02*
X6928372Y-10651412D01*
X6928372Y-10651412D02*
X6928372Y-10641889D01*
X6928372Y-10641889D02*
X6918849Y-10622841D01*
X6918849Y-10622841D02*
X6899801Y-10613317D01*
X6899801Y-10613317D02*
X6871230Y-10613317D01*
X6871230Y-10613317D02*
X6852182Y-10603793D01*
X6852182Y-10603793D02*
X6842658Y-10584746D01*
X6842658Y-10584746D02*
X6842658Y-10575222D01*
X6842658Y-10575222D02*
X6852182Y-10556174D01*
X6852182Y-10556174D02*
X6871230Y-10546650D01*
X6871230Y-10546650D02*
X6899801Y-10546650D01*
X6899801Y-10546650D02*
X6918849Y-10556174D01*
X6995039Y-10756174D02*
X7004563Y-10746650D01*
X7004563Y-10746650D02*
X7023611Y-10718079D01*
X7023611Y-10718079D02*
X7033134Y-10699031D01*
X7033134Y-10699031D02*
X7042658Y-10670460D01*
X7042658Y-10670460D02*
X7052182Y-10622841D01*
X7052182Y-10622841D02*
X7052182Y-10584746D01*
X7052182Y-10584746D02*
X7042658Y-10537127D01*
X7042658Y-10537127D02*
X7033134Y-10508555D01*
X7033134Y-10508555D02*
X7023611Y-10489508D01*
X7023611Y-10489508D02*
X7004563Y-10460936D01*
X7004563Y-10460936D02*
X6995039Y-10451412D01*
D15*
X1909500Y-10792500D02*
X2029500Y-10912500D01*
X2029500Y-10792500D02*
X1909500Y-10912500D01*
X2029500Y-10852500D02*
G75*
G02*
X1909500Y-10852500I-60000J0D01*
G01*
X1909500Y-10852500D02*
G75*
G02*
X2029500Y-10852500I60000J0D01*
G01*
D12*
X2395039Y-10943984D02*
X2280753Y-10943984D01*
X2337896Y-10943984D02*
X2337896Y-10743984D01*
X2337896Y-10743984D02*
X2318848Y-10772555D01*
X2318848Y-10772555D02*
X2299801Y-10791603D01*
X2299801Y-10791603D02*
X2280753Y-10801127D01*
X2480753Y-10924936D02*
X2490277Y-10934460D01*
X2490277Y-10934460D02*
X2480753Y-10943984D01*
X2480753Y-10943984D02*
X2471229Y-10934460D01*
X2471229Y-10934460D02*
X2480753Y-10924936D01*
X2480753Y-10924936D02*
X2480753Y-10943984D01*
X2566467Y-10763031D02*
X2575991Y-10753508D01*
X2575991Y-10753508D02*
X2595039Y-10743984D01*
X2595039Y-10743984D02*
X2642658Y-10743984D01*
X2642658Y-10743984D02*
X2661705Y-10753508D01*
X2661705Y-10753508D02*
X2671229Y-10763031D01*
X2671229Y-10763031D02*
X2680753Y-10782079D01*
X2680753Y-10782079D02*
X2680753Y-10801127D01*
X2680753Y-10801127D02*
X2671229Y-10829698D01*
X2671229Y-10829698D02*
X2556944Y-10943984D01*
X2556944Y-10943984D02*
X2680753Y-10943984D01*
X2804562Y-10743984D02*
X2823610Y-10743984D01*
X2823610Y-10743984D02*
X2842658Y-10753508D01*
X2842658Y-10753508D02*
X2852182Y-10763031D01*
X2852182Y-10763031D02*
X2861705Y-10782079D01*
X2861705Y-10782079D02*
X2871229Y-10820174D01*
X2871229Y-10820174D02*
X2871229Y-10867793D01*
X2871229Y-10867793D02*
X2861705Y-10905889D01*
X2861705Y-10905889D02*
X2852182Y-10924936D01*
X2852182Y-10924936D02*
X2842658Y-10934460D01*
X2842658Y-10934460D02*
X2823610Y-10943984D01*
X2823610Y-10943984D02*
X2804562Y-10943984D01*
X2804562Y-10943984D02*
X2785515Y-10934460D01*
X2785515Y-10934460D02*
X2775991Y-10924936D01*
X2775991Y-10924936D02*
X2766467Y-10905889D01*
X2766467Y-10905889D02*
X2756944Y-10867793D01*
X2756944Y-10867793D02*
X2756944Y-10820174D01*
X2756944Y-10820174D02*
X2766467Y-10782079D01*
X2766467Y-10782079D02*
X2775991Y-10763031D01*
X2775991Y-10763031D02*
X2785515Y-10753508D01*
X2785515Y-10753508D02*
X2804562Y-10743984D01*
X2995039Y-10743984D02*
X3014086Y-10743984D01*
X3014086Y-10743984D02*
X3033134Y-10753508D01*
X3033134Y-10753508D02*
X3042658Y-10763031D01*
X3042658Y-10763031D02*
X3052182Y-10782079D01*
X3052182Y-10782079D02*
X3061705Y-10820174D01*
X3061705Y-10820174D02*
X3061705Y-10867793D01*
X3061705Y-10867793D02*
X3052182Y-10905889D01*
X3052182Y-10905889D02*
X3042658Y-10924936D01*
X3042658Y-10924936D02*
X3033134Y-10934460D01*
X3033134Y-10934460D02*
X3014086Y-10943984D01*
X3014086Y-10943984D02*
X2995039Y-10943984D01*
X2995039Y-10943984D02*
X2975991Y-10934460D01*
X2975991Y-10934460D02*
X2966467Y-10924936D01*
X2966467Y-10924936D02*
X2956943Y-10905889D01*
X2956943Y-10905889D02*
X2947420Y-10867793D01*
X2947420Y-10867793D02*
X2947420Y-10820174D01*
X2947420Y-10820174D02*
X2956943Y-10782079D01*
X2956943Y-10782079D02*
X2966467Y-10763031D01*
X2966467Y-10763031D02*
X2975991Y-10753508D01*
X2975991Y-10753508D02*
X2995039Y-10743984D01*
X3147420Y-10943984D02*
X3147420Y-10810650D01*
X3147420Y-10829698D02*
X3156943Y-10820174D01*
X3156943Y-10820174D02*
X3175991Y-10810650D01*
X3175991Y-10810650D02*
X3204563Y-10810650D01*
X3204563Y-10810650D02*
X3223610Y-10820174D01*
X3223610Y-10820174D02*
X3233134Y-10839222D01*
X3233134Y-10839222D02*
X3233134Y-10943984D01*
X3233134Y-10839222D02*
X3242658Y-10820174D01*
X3242658Y-10820174D02*
X3261705Y-10810650D01*
X3261705Y-10810650D02*
X3290277Y-10810650D01*
X3290277Y-10810650D02*
X3309324Y-10820174D01*
X3309324Y-10820174D02*
X3318848Y-10839222D01*
X3318848Y-10839222D02*
X3318848Y-10943984D01*
X3414086Y-10943984D02*
X3414086Y-10810650D01*
X3414086Y-10829698D02*
X3423610Y-10820174D01*
X3423610Y-10820174D02*
X3442658Y-10810650D01*
X3442658Y-10810650D02*
X3471229Y-10810650D01*
X3471229Y-10810650D02*
X3490277Y-10820174D01*
X3490277Y-10820174D02*
X3499801Y-10839222D01*
X3499801Y-10839222D02*
X3499801Y-10943984D01*
X3499801Y-10839222D02*
X3509324Y-10820174D01*
X3509324Y-10820174D02*
X3528372Y-10810650D01*
X3528372Y-10810650D02*
X3556943Y-10810650D01*
X3556943Y-10810650D02*
X3575991Y-10820174D01*
X3575991Y-10820174D02*
X3585515Y-10839222D01*
X3585515Y-10839222D02*
X3585515Y-10943984D01*
X3975991Y-10734460D02*
X3804563Y-10991603D01*
X4233134Y-10743984D02*
X4252182Y-10743984D01*
X4252182Y-10743984D02*
X4271229Y-10753508D01*
X4271229Y-10753508D02*
X4280753Y-10763031D01*
X4280753Y-10763031D02*
X4290277Y-10782079D01*
X4290277Y-10782079D02*
X4299801Y-10820174D01*
X4299801Y-10820174D02*
X4299801Y-10867793D01*
X4299801Y-10867793D02*
X4290277Y-10905889D01*
X4290277Y-10905889D02*
X4280753Y-10924936D01*
X4280753Y-10924936D02*
X4271229Y-10934460D01*
X4271229Y-10934460D02*
X4252182Y-10943984D01*
X4252182Y-10943984D02*
X4233134Y-10943984D01*
X4233134Y-10943984D02*
X4214087Y-10934460D01*
X4214087Y-10934460D02*
X4204563Y-10924936D01*
X4204563Y-10924936D02*
X4195039Y-10905889D01*
X4195039Y-10905889D02*
X4185515Y-10867793D01*
X4185515Y-10867793D02*
X4185515Y-10820174D01*
X4185515Y-10820174D02*
X4195039Y-10782079D01*
X4195039Y-10782079D02*
X4204563Y-10763031D01*
X4204563Y-10763031D02*
X4214087Y-10753508D01*
X4214087Y-10753508D02*
X4233134Y-10743984D01*
X4385515Y-10924936D02*
X4395039Y-10934460D01*
X4395039Y-10934460D02*
X4385515Y-10943984D01*
X4385515Y-10943984D02*
X4375991Y-10934460D01*
X4375991Y-10934460D02*
X4385515Y-10924936D01*
X4385515Y-10924936D02*
X4385515Y-10943984D01*
X4518848Y-10743984D02*
X4537896Y-10743984D01*
X4537896Y-10743984D02*
X4556944Y-10753508D01*
X4556944Y-10753508D02*
X4566468Y-10763031D01*
X4566468Y-10763031D02*
X4575991Y-10782079D01*
X4575991Y-10782079D02*
X4585515Y-10820174D01*
X4585515Y-10820174D02*
X4585515Y-10867793D01*
X4585515Y-10867793D02*
X4575991Y-10905889D01*
X4575991Y-10905889D02*
X4566468Y-10924936D01*
X4566468Y-10924936D02*
X4556944Y-10934460D01*
X4556944Y-10934460D02*
X4537896Y-10943984D01*
X4537896Y-10943984D02*
X4518848Y-10943984D01*
X4518848Y-10943984D02*
X4499801Y-10934460D01*
X4499801Y-10934460D02*
X4490277Y-10924936D01*
X4490277Y-10924936D02*
X4480753Y-10905889D01*
X4480753Y-10905889D02*
X4471229Y-10867793D01*
X4471229Y-10867793D02*
X4471229Y-10820174D01*
X4471229Y-10820174D02*
X4480753Y-10782079D01*
X4480753Y-10782079D02*
X4490277Y-10763031D01*
X4490277Y-10763031D02*
X4499801Y-10753508D01*
X4499801Y-10753508D02*
X4518848Y-10743984D01*
X4756944Y-10810650D02*
X4756944Y-10943984D01*
X4709325Y-10734460D02*
X4661706Y-10877317D01*
X4661706Y-10877317D02*
X4785515Y-10877317D01*
X4842658Y-10743984D02*
X4975991Y-10743984D01*
X4975991Y-10743984D02*
X4890277Y-10943984D01*
X5042658Y-10763031D02*
X5052182Y-10753508D01*
X5052182Y-10753508D02*
X5071229Y-10743984D01*
X5071229Y-10743984D02*
X5118849Y-10743984D01*
X5118849Y-10743984D02*
X5137896Y-10753508D01*
X5137896Y-10753508D02*
X5147420Y-10763031D01*
X5147420Y-10763031D02*
X5156944Y-10782079D01*
X5156944Y-10782079D02*
X5156944Y-10801127D01*
X5156944Y-10801127D02*
X5147420Y-10829698D01*
X5147420Y-10829698D02*
X5033134Y-10943984D01*
X5033134Y-10943984D02*
X5156944Y-10943984D01*
X5233134Y-10743984D02*
X5233134Y-10782079D01*
X5309325Y-10743984D02*
X5309325Y-10782079D01*
X5604563Y-11020174D02*
X5595039Y-11010650D01*
X5595039Y-11010650D02*
X5575991Y-10982079D01*
X5575991Y-10982079D02*
X5566468Y-10963031D01*
X5566468Y-10963031D02*
X5556944Y-10934460D01*
X5556944Y-10934460D02*
X5547420Y-10886841D01*
X5547420Y-10886841D02*
X5547420Y-10848746D01*
X5547420Y-10848746D02*
X5556944Y-10801127D01*
X5556944Y-10801127D02*
X5566468Y-10772555D01*
X5566468Y-10772555D02*
X5575991Y-10753508D01*
X5575991Y-10753508D02*
X5595039Y-10724936D01*
X5595039Y-10724936D02*
X5604563Y-10715412D01*
X5785515Y-10943984D02*
X5671229Y-10943984D01*
X5728372Y-10943984D02*
X5728372Y-10743984D01*
X5728372Y-10743984D02*
X5709325Y-10772555D01*
X5709325Y-10772555D02*
X5690277Y-10791603D01*
X5690277Y-10791603D02*
X5671229Y-10801127D01*
X5861706Y-10763031D02*
X5871229Y-10753508D01*
X5871229Y-10753508D02*
X5890277Y-10743984D01*
X5890277Y-10743984D02*
X5937896Y-10743984D01*
X5937896Y-10743984D02*
X5956944Y-10753508D01*
X5956944Y-10753508D02*
X5966468Y-10763031D01*
X5966468Y-10763031D02*
X5975991Y-10782079D01*
X5975991Y-10782079D02*
X5975991Y-10801127D01*
X5975991Y-10801127D02*
X5966468Y-10829698D01*
X5966468Y-10829698D02*
X5852182Y-10943984D01*
X5852182Y-10943984D02*
X5975991Y-10943984D01*
X6214087Y-10943984D02*
X6214087Y-10743984D01*
X6299801Y-10943984D02*
X6299801Y-10839222D01*
X6299801Y-10839222D02*
X6290277Y-10820174D01*
X6290277Y-10820174D02*
X6271230Y-10810650D01*
X6271230Y-10810650D02*
X6242658Y-10810650D01*
X6242658Y-10810650D02*
X6223610Y-10820174D01*
X6223610Y-10820174D02*
X6214087Y-10829698D01*
X6423610Y-10943984D02*
X6404563Y-10934460D01*
X6404563Y-10934460D02*
X6395039Y-10924936D01*
X6395039Y-10924936D02*
X6385515Y-10905889D01*
X6385515Y-10905889D02*
X6385515Y-10848746D01*
X6385515Y-10848746D02*
X6395039Y-10829698D01*
X6395039Y-10829698D02*
X6404563Y-10820174D01*
X6404563Y-10820174D02*
X6423610Y-10810650D01*
X6423610Y-10810650D02*
X6452182Y-10810650D01*
X6452182Y-10810650D02*
X6471230Y-10820174D01*
X6471230Y-10820174D02*
X6480753Y-10829698D01*
X6480753Y-10829698D02*
X6490277Y-10848746D01*
X6490277Y-10848746D02*
X6490277Y-10905889D01*
X6490277Y-10905889D02*
X6480753Y-10924936D01*
X6480753Y-10924936D02*
X6471230Y-10934460D01*
X6471230Y-10934460D02*
X6452182Y-10943984D01*
X6452182Y-10943984D02*
X6423610Y-10943984D01*
X6604563Y-10943984D02*
X6585515Y-10934460D01*
X6585515Y-10934460D02*
X6575991Y-10915412D01*
X6575991Y-10915412D02*
X6575991Y-10743984D01*
X6756944Y-10934460D02*
X6737896Y-10943984D01*
X6737896Y-10943984D02*
X6699801Y-10943984D01*
X6699801Y-10943984D02*
X6680753Y-10934460D01*
X6680753Y-10934460D02*
X6671230Y-10915412D01*
X6671230Y-10915412D02*
X6671230Y-10839222D01*
X6671230Y-10839222D02*
X6680753Y-10820174D01*
X6680753Y-10820174D02*
X6699801Y-10810650D01*
X6699801Y-10810650D02*
X6737896Y-10810650D01*
X6737896Y-10810650D02*
X6756944Y-10820174D01*
X6756944Y-10820174D02*
X6766468Y-10839222D01*
X6766468Y-10839222D02*
X6766468Y-10858270D01*
X6766468Y-10858270D02*
X6671230Y-10877317D01*
X6842658Y-10934460D02*
X6861706Y-10943984D01*
X6861706Y-10943984D02*
X6899801Y-10943984D01*
X6899801Y-10943984D02*
X6918849Y-10934460D01*
X6918849Y-10934460D02*
X6928372Y-10915412D01*
X6928372Y-10915412D02*
X6928372Y-10905889D01*
X6928372Y-10905889D02*
X6918849Y-10886841D01*
X6918849Y-10886841D02*
X6899801Y-10877317D01*
X6899801Y-10877317D02*
X6871230Y-10877317D01*
X6871230Y-10877317D02*
X6852182Y-10867793D01*
X6852182Y-10867793D02*
X6842658Y-10848746D01*
X6842658Y-10848746D02*
X6842658Y-10839222D01*
X6842658Y-10839222D02*
X6852182Y-10820174D01*
X6852182Y-10820174D02*
X6871230Y-10810650D01*
X6871230Y-10810650D02*
X6899801Y-10810650D01*
X6899801Y-10810650D02*
X6918849Y-10820174D01*
X6995039Y-11020174D02*
X7004563Y-11010650D01*
X7004563Y-11010650D02*
X7023611Y-10982079D01*
X7023611Y-10982079D02*
X7033134Y-10963031D01*
X7033134Y-10963031D02*
X7042658Y-10934460D01*
X7042658Y-10934460D02*
X7052182Y-10886841D01*
X7052182Y-10886841D02*
X7052182Y-10848746D01*
X7052182Y-10848746D02*
X7042658Y-10801127D01*
X7042658Y-10801127D02*
X7033134Y-10772555D01*
X7033134Y-10772555D02*
X7023611Y-10753508D01*
X7023611Y-10753508D02*
X7004563Y-10724936D01*
X7004563Y-10724936D02*
X6995039Y-10715412D01*
D16*
X1899500Y-11051500D02*
X2029500Y-11181500D01*
X2029500Y-11051500D02*
X1899500Y-11181500D01*
X1964500Y-11051500D02*
X1964500Y-11181500D01*
X1899500Y-11116500D02*
X2029500Y-11116500D01*
D12*
X2395039Y-11207984D02*
X2280753Y-11207984D01*
X2337896Y-11207984D02*
X2337896Y-11007984D01*
X2337896Y-11007984D02*
X2318848Y-11036555D01*
X2318848Y-11036555D02*
X2299801Y-11055603D01*
X2299801Y-11055603D02*
X2280753Y-11065127D01*
X2480753Y-11188936D02*
X2490277Y-11198460D01*
X2490277Y-11198460D02*
X2480753Y-11207984D01*
X2480753Y-11207984D02*
X2471229Y-11198460D01*
X2471229Y-11198460D02*
X2480753Y-11188936D01*
X2480753Y-11188936D02*
X2480753Y-11207984D01*
X2556944Y-11007984D02*
X2680753Y-11007984D01*
X2680753Y-11007984D02*
X2614086Y-11084174D01*
X2614086Y-11084174D02*
X2642658Y-11084174D01*
X2642658Y-11084174D02*
X2661705Y-11093698D01*
X2661705Y-11093698D02*
X2671229Y-11103222D01*
X2671229Y-11103222D02*
X2680753Y-11122270D01*
X2680753Y-11122270D02*
X2680753Y-11169889D01*
X2680753Y-11169889D02*
X2671229Y-11188936D01*
X2671229Y-11188936D02*
X2661705Y-11198460D01*
X2661705Y-11198460D02*
X2642658Y-11207984D01*
X2642658Y-11207984D02*
X2585515Y-11207984D01*
X2585515Y-11207984D02*
X2566467Y-11198460D01*
X2566467Y-11198460D02*
X2556944Y-11188936D01*
X2804562Y-11007984D02*
X2823610Y-11007984D01*
X2823610Y-11007984D02*
X2842658Y-11017508D01*
X2842658Y-11017508D02*
X2852182Y-11027031D01*
X2852182Y-11027031D02*
X2861705Y-11046079D01*
X2861705Y-11046079D02*
X2871229Y-11084174D01*
X2871229Y-11084174D02*
X2871229Y-11131793D01*
X2871229Y-11131793D02*
X2861705Y-11169889D01*
X2861705Y-11169889D02*
X2852182Y-11188936D01*
X2852182Y-11188936D02*
X2842658Y-11198460D01*
X2842658Y-11198460D02*
X2823610Y-11207984D01*
X2823610Y-11207984D02*
X2804562Y-11207984D01*
X2804562Y-11207984D02*
X2785515Y-11198460D01*
X2785515Y-11198460D02*
X2775991Y-11188936D01*
X2775991Y-11188936D02*
X2766467Y-11169889D01*
X2766467Y-11169889D02*
X2756944Y-11131793D01*
X2756944Y-11131793D02*
X2756944Y-11084174D01*
X2756944Y-11084174D02*
X2766467Y-11046079D01*
X2766467Y-11046079D02*
X2775991Y-11027031D01*
X2775991Y-11027031D02*
X2785515Y-11017508D01*
X2785515Y-11017508D02*
X2804562Y-11007984D01*
X2995039Y-11007984D02*
X3014086Y-11007984D01*
X3014086Y-11007984D02*
X3033134Y-11017508D01*
X3033134Y-11017508D02*
X3042658Y-11027031D01*
X3042658Y-11027031D02*
X3052182Y-11046079D01*
X3052182Y-11046079D02*
X3061705Y-11084174D01*
X3061705Y-11084174D02*
X3061705Y-11131793D01*
X3061705Y-11131793D02*
X3052182Y-11169889D01*
X3052182Y-11169889D02*
X3042658Y-11188936D01*
X3042658Y-11188936D02*
X3033134Y-11198460D01*
X3033134Y-11198460D02*
X3014086Y-11207984D01*
X3014086Y-11207984D02*
X2995039Y-11207984D01*
X2995039Y-11207984D02*
X2975991Y-11198460D01*
X2975991Y-11198460D02*
X2966467Y-11188936D01*
X2966467Y-11188936D02*
X2956943Y-11169889D01*
X2956943Y-11169889D02*
X2947420Y-11131793D01*
X2947420Y-11131793D02*
X2947420Y-11084174D01*
X2947420Y-11084174D02*
X2956943Y-11046079D01*
X2956943Y-11046079D02*
X2966467Y-11027031D01*
X2966467Y-11027031D02*
X2975991Y-11017508D01*
X2975991Y-11017508D02*
X2995039Y-11007984D01*
X3147420Y-11207984D02*
X3147420Y-11074650D01*
X3147420Y-11093698D02*
X3156943Y-11084174D01*
X3156943Y-11084174D02*
X3175991Y-11074650D01*
X3175991Y-11074650D02*
X3204563Y-11074650D01*
X3204563Y-11074650D02*
X3223610Y-11084174D01*
X3223610Y-11084174D02*
X3233134Y-11103222D01*
X3233134Y-11103222D02*
X3233134Y-11207984D01*
X3233134Y-11103222D02*
X3242658Y-11084174D01*
X3242658Y-11084174D02*
X3261705Y-11074650D01*
X3261705Y-11074650D02*
X3290277Y-11074650D01*
X3290277Y-11074650D02*
X3309324Y-11084174D01*
X3309324Y-11084174D02*
X3318848Y-11103222D01*
X3318848Y-11103222D02*
X3318848Y-11207984D01*
X3414086Y-11207984D02*
X3414086Y-11074650D01*
X3414086Y-11093698D02*
X3423610Y-11084174D01*
X3423610Y-11084174D02*
X3442658Y-11074650D01*
X3442658Y-11074650D02*
X3471229Y-11074650D01*
X3471229Y-11074650D02*
X3490277Y-11084174D01*
X3490277Y-11084174D02*
X3499801Y-11103222D01*
X3499801Y-11103222D02*
X3499801Y-11207984D01*
X3499801Y-11103222D02*
X3509324Y-11084174D01*
X3509324Y-11084174D02*
X3528372Y-11074650D01*
X3528372Y-11074650D02*
X3556943Y-11074650D01*
X3556943Y-11074650D02*
X3575991Y-11084174D01*
X3575991Y-11084174D02*
X3585515Y-11103222D01*
X3585515Y-11103222D02*
X3585515Y-11207984D01*
X3975991Y-10998460D02*
X3804563Y-11255603D01*
X4233134Y-11007984D02*
X4252182Y-11007984D01*
X4252182Y-11007984D02*
X4271229Y-11017508D01*
X4271229Y-11017508D02*
X4280753Y-11027031D01*
X4280753Y-11027031D02*
X4290277Y-11046079D01*
X4290277Y-11046079D02*
X4299801Y-11084174D01*
X4299801Y-11084174D02*
X4299801Y-11131793D01*
X4299801Y-11131793D02*
X4290277Y-11169889D01*
X4290277Y-11169889D02*
X4280753Y-11188936D01*
X4280753Y-11188936D02*
X4271229Y-11198460D01*
X4271229Y-11198460D02*
X4252182Y-11207984D01*
X4252182Y-11207984D02*
X4233134Y-11207984D01*
X4233134Y-11207984D02*
X4214087Y-11198460D01*
X4214087Y-11198460D02*
X4204563Y-11188936D01*
X4204563Y-11188936D02*
X4195039Y-11169889D01*
X4195039Y-11169889D02*
X4185515Y-11131793D01*
X4185515Y-11131793D02*
X4185515Y-11084174D01*
X4185515Y-11084174D02*
X4195039Y-11046079D01*
X4195039Y-11046079D02*
X4204563Y-11027031D01*
X4204563Y-11027031D02*
X4214087Y-11017508D01*
X4214087Y-11017508D02*
X4233134Y-11007984D01*
X4385515Y-11188936D02*
X4395039Y-11198460D01*
X4395039Y-11198460D02*
X4385515Y-11207984D01*
X4385515Y-11207984D02*
X4375991Y-11198460D01*
X4375991Y-11198460D02*
X4385515Y-11188936D01*
X4385515Y-11188936D02*
X4385515Y-11207984D01*
X4518848Y-11007984D02*
X4537896Y-11007984D01*
X4537896Y-11007984D02*
X4556944Y-11017508D01*
X4556944Y-11017508D02*
X4566468Y-11027031D01*
X4566468Y-11027031D02*
X4575991Y-11046079D01*
X4575991Y-11046079D02*
X4585515Y-11084174D01*
X4585515Y-11084174D02*
X4585515Y-11131793D01*
X4585515Y-11131793D02*
X4575991Y-11169889D01*
X4575991Y-11169889D02*
X4566468Y-11188936D01*
X4566468Y-11188936D02*
X4556944Y-11198460D01*
X4556944Y-11198460D02*
X4537896Y-11207984D01*
X4537896Y-11207984D02*
X4518848Y-11207984D01*
X4518848Y-11207984D02*
X4499801Y-11198460D01*
X4499801Y-11198460D02*
X4490277Y-11188936D01*
X4490277Y-11188936D02*
X4480753Y-11169889D01*
X4480753Y-11169889D02*
X4471229Y-11131793D01*
X4471229Y-11131793D02*
X4471229Y-11084174D01*
X4471229Y-11084174D02*
X4480753Y-11046079D01*
X4480753Y-11046079D02*
X4490277Y-11027031D01*
X4490277Y-11027031D02*
X4499801Y-11017508D01*
X4499801Y-11017508D02*
X4518848Y-11007984D01*
X4766468Y-11007984D02*
X4671229Y-11007984D01*
X4671229Y-11007984D02*
X4661706Y-11103222D01*
X4661706Y-11103222D02*
X4671229Y-11093698D01*
X4671229Y-11093698D02*
X4690277Y-11084174D01*
X4690277Y-11084174D02*
X4737896Y-11084174D01*
X4737896Y-11084174D02*
X4756944Y-11093698D01*
X4756944Y-11093698D02*
X4766468Y-11103222D01*
X4766468Y-11103222D02*
X4775991Y-11122270D01*
X4775991Y-11122270D02*
X4775991Y-11169889D01*
X4775991Y-11169889D02*
X4766468Y-11188936D01*
X4766468Y-11188936D02*
X4756944Y-11198460D01*
X4756944Y-11198460D02*
X4737896Y-11207984D01*
X4737896Y-11207984D02*
X4690277Y-11207984D01*
X4690277Y-11207984D02*
X4671229Y-11198460D01*
X4671229Y-11198460D02*
X4661706Y-11188936D01*
X4966468Y-11207984D02*
X4852182Y-11207984D01*
X4909325Y-11207984D02*
X4909325Y-11007984D01*
X4909325Y-11007984D02*
X4890277Y-11036555D01*
X4890277Y-11036555D02*
X4871229Y-11055603D01*
X4871229Y-11055603D02*
X4852182Y-11065127D01*
X5042658Y-11027031D02*
X5052182Y-11017508D01*
X5052182Y-11017508D02*
X5071229Y-11007984D01*
X5071229Y-11007984D02*
X5118849Y-11007984D01*
X5118849Y-11007984D02*
X5137896Y-11017508D01*
X5137896Y-11017508D02*
X5147420Y-11027031D01*
X5147420Y-11027031D02*
X5156944Y-11046079D01*
X5156944Y-11046079D02*
X5156944Y-11065127D01*
X5156944Y-11065127D02*
X5147420Y-11093698D01*
X5147420Y-11093698D02*
X5033134Y-11207984D01*
X5033134Y-11207984D02*
X5156944Y-11207984D01*
X5233134Y-11007984D02*
X5233134Y-11046079D01*
X5309325Y-11007984D02*
X5309325Y-11046079D01*
X5604563Y-11284174D02*
X5595039Y-11274650D01*
X5595039Y-11274650D02*
X5575991Y-11246079D01*
X5575991Y-11246079D02*
X5566468Y-11227031D01*
X5566468Y-11227031D02*
X5556944Y-11198460D01*
X5556944Y-11198460D02*
X5547420Y-11150841D01*
X5547420Y-11150841D02*
X5547420Y-11112746D01*
X5547420Y-11112746D02*
X5556944Y-11065127D01*
X5556944Y-11065127D02*
X5566468Y-11036555D01*
X5566468Y-11036555D02*
X5575991Y-11017508D01*
X5575991Y-11017508D02*
X5595039Y-10988936D01*
X5595039Y-10988936D02*
X5604563Y-10979412D01*
X5785515Y-11207984D02*
X5671229Y-11207984D01*
X5728372Y-11207984D02*
X5728372Y-11007984D01*
X5728372Y-11007984D02*
X5709325Y-11036555D01*
X5709325Y-11036555D02*
X5690277Y-11055603D01*
X5690277Y-11055603D02*
X5671229Y-11065127D01*
X5956944Y-11074650D02*
X5956944Y-11207984D01*
X5909325Y-10998460D02*
X5861706Y-11141317D01*
X5861706Y-11141317D02*
X5985515Y-11141317D01*
X6214087Y-11207984D02*
X6214087Y-11007984D01*
X6299801Y-11207984D02*
X6299801Y-11103222D01*
X6299801Y-11103222D02*
X6290277Y-11084174D01*
X6290277Y-11084174D02*
X6271230Y-11074650D01*
X6271230Y-11074650D02*
X6242658Y-11074650D01*
X6242658Y-11074650D02*
X6223610Y-11084174D01*
X6223610Y-11084174D02*
X6214087Y-11093698D01*
X6423610Y-11207984D02*
X6404563Y-11198460D01*
X6404563Y-11198460D02*
X6395039Y-11188936D01*
X6395039Y-11188936D02*
X6385515Y-11169889D01*
X6385515Y-11169889D02*
X6385515Y-11112746D01*
X6385515Y-11112746D02*
X6395039Y-11093698D01*
X6395039Y-11093698D02*
X6404563Y-11084174D01*
X6404563Y-11084174D02*
X6423610Y-11074650D01*
X6423610Y-11074650D02*
X6452182Y-11074650D01*
X6452182Y-11074650D02*
X6471230Y-11084174D01*
X6471230Y-11084174D02*
X6480753Y-11093698D01*
X6480753Y-11093698D02*
X6490277Y-11112746D01*
X6490277Y-11112746D02*
X6490277Y-11169889D01*
X6490277Y-11169889D02*
X6480753Y-11188936D01*
X6480753Y-11188936D02*
X6471230Y-11198460D01*
X6471230Y-11198460D02*
X6452182Y-11207984D01*
X6452182Y-11207984D02*
X6423610Y-11207984D01*
X6604563Y-11207984D02*
X6585515Y-11198460D01*
X6585515Y-11198460D02*
X6575991Y-11179412D01*
X6575991Y-11179412D02*
X6575991Y-11007984D01*
X6756944Y-11198460D02*
X6737896Y-11207984D01*
X6737896Y-11207984D02*
X6699801Y-11207984D01*
X6699801Y-11207984D02*
X6680753Y-11198460D01*
X6680753Y-11198460D02*
X6671230Y-11179412D01*
X6671230Y-11179412D02*
X6671230Y-11103222D01*
X6671230Y-11103222D02*
X6680753Y-11084174D01*
X6680753Y-11084174D02*
X6699801Y-11074650D01*
X6699801Y-11074650D02*
X6737896Y-11074650D01*
X6737896Y-11074650D02*
X6756944Y-11084174D01*
X6756944Y-11084174D02*
X6766468Y-11103222D01*
X6766468Y-11103222D02*
X6766468Y-11122270D01*
X6766468Y-11122270D02*
X6671230Y-11141317D01*
X6842658Y-11198460D02*
X6861706Y-11207984D01*
X6861706Y-11207984D02*
X6899801Y-11207984D01*
X6899801Y-11207984D02*
X6918849Y-11198460D01*
X6918849Y-11198460D02*
X6928372Y-11179412D01*
X6928372Y-11179412D02*
X6928372Y-11169889D01*
X6928372Y-11169889D02*
X6918849Y-11150841D01*
X6918849Y-11150841D02*
X6899801Y-11141317D01*
X6899801Y-11141317D02*
X6871230Y-11141317D01*
X6871230Y-11141317D02*
X6852182Y-11131793D01*
X6852182Y-11131793D02*
X6842658Y-11112746D01*
X6842658Y-11112746D02*
X6842658Y-11103222D01*
X6842658Y-11103222D02*
X6852182Y-11084174D01*
X6852182Y-11084174D02*
X6871230Y-11074650D01*
X6871230Y-11074650D02*
X6899801Y-11074650D01*
X6899801Y-11074650D02*
X6918849Y-11084174D01*
X6995039Y-11284174D02*
X7004563Y-11274650D01*
X7004563Y-11274650D02*
X7023611Y-11246079D01*
X7023611Y-11246079D02*
X7033134Y-11227031D01*
X7033134Y-11227031D02*
X7042658Y-11198460D01*
X7042658Y-11198460D02*
X7052182Y-11150841D01*
X7052182Y-11150841D02*
X7052182Y-11112746D01*
X7052182Y-11112746D02*
X7042658Y-11065127D01*
X7042658Y-11065127D02*
X7033134Y-11036555D01*
X7033134Y-11036555D02*
X7023611Y-11017508D01*
X7023611Y-11017508D02*
X7004563Y-10988936D01*
X7004563Y-10988936D02*
X6995039Y-10979412D01*
M02*
