%TF.GenerationSoftware,KiCad,Pcbnew,10.0.1-1.fc44*%
%TF.CreationDate,2026-05-04T12:41:54+01:00*%
%TF.ProjectId,capacitor-alarm-clock,63617061-6369-4746-9f72-2d616c61726d,rev?*%
%TF.SameCoordinates,Original*%
%TF.FileFunction,Profile,NP*%
%FSLAX46Y46*%
G04 Gerber Fmt 4.6, Leading zero omitted, Abs format (unit mm)*
G04 Created by KiCad (PCBNEW 10.0.1-1.fc44) date 2026-05-04 12:41:54*
%MOMM*%
%LPD*%
G01*
G04 APERTURE LIST*
%TA.AperFunction,Profile*%
%ADD10C,0.050000*%
%TD*%
%TA.AperFunction,Profile*%
%ADD11C,0.000000*%
%TD*%
G04 APERTURE END LIST*
D10*
X20320000Y-24642000D02*
X82614000Y-24642000D01*
X82614000Y-88900000D01*
X20320000Y-88900000D01*
X20320000Y-24642000D01*
D11*
%TA.AperFunction,Profile*%
%TO.C,USB1*%
G36*
X39743939Y-30032392D02*
G01*
X39823067Y-30078076D01*
X39887674Y-30142683D01*
X39933358Y-30221811D01*
X39957006Y-30310066D01*
X39957006Y-30401434D01*
X39933358Y-30489689D01*
X39887674Y-30568817D01*
X39823067Y-30633424D01*
X39743939Y-30679108D01*
X39655684Y-30702756D01*
X39564316Y-30702756D01*
X39476061Y-30679108D01*
X39396933Y-30633424D01*
X39332326Y-30568817D01*
X39286642Y-30489689D01*
X39262994Y-30401434D01*
X39262994Y-30310066D01*
X39286642Y-30221811D01*
X39332326Y-30142683D01*
X39396933Y-30078076D01*
X39476061Y-30032392D01*
X39564316Y-30008744D01*
X39655684Y-30008744D01*
X39743939Y-30032392D01*
G37*
%TD.AperFunction*%
%TA.AperFunction,Profile*%
G36*
X45523939Y-30032392D02*
G01*
X45603067Y-30078076D01*
X45667674Y-30142683D01*
X45713358Y-30221811D01*
X45737006Y-30310066D01*
X45737006Y-30401434D01*
X45713358Y-30489689D01*
X45667674Y-30568817D01*
X45603067Y-30633424D01*
X45523939Y-30679108D01*
X45435684Y-30702756D01*
X45344316Y-30702756D01*
X45256061Y-30679108D01*
X45176933Y-30633424D01*
X45112326Y-30568817D01*
X45066642Y-30489689D01*
X45042994Y-30401434D01*
X45042994Y-30310066D01*
X45066642Y-30221811D01*
X45112326Y-30142683D01*
X45176933Y-30078076D01*
X45256061Y-30032392D01*
X45344316Y-30008744D01*
X45435684Y-30008744D01*
X45523939Y-30032392D01*
G37*
%TD.AperFunction*%
%TD*%
M02*
