M48
; DRILL file KiCad 10.0.1-1.fc44 date 2026-05-04T12:42:03
; FORMAT={-:-/ absolute / metric / decimal}
; #@! TF.CreationDate,2026-05-04T12:42:03+01:00
; #@! TF.GenerationSoftware,Kicad,Pcbnew,10.0.1-1.fc44
; #@! TF.FileFunction,Plated,1,2,PTH
FMAT,2
METRIC
; #@! TA.AperFunction,Plated,PTH,ViaDrill
T1C0.300
; #@! TA.AperFunction,Plated,PTH,ComponentDrill
T2C0.600
; #@! TA.AperFunction,Plated,PTH,ComponentDrill
T3C0.900
; #@! TA.AperFunction,Plated,PTH,ComponentDrill
T4C1.000
; #@! TA.AperFunction,Plated,PTH,ComponentDrill
T5C1.100
; #@! TA.AperFunction,Plated,PTH,ComponentDrill
T6C1.200
; #@! TA.AperFunction,Plated,PTH,ComponentDrill
T7C1.300
%
G90
G05
T1
X21.336Y-51.308
X23.368Y-55.372
X26.5Y-42.25
X27.75Y-49.0
X30.5Y-53.25
X34.036Y-38.1
X34.036Y-45.72
X35.052Y-54.864
X36.576Y-49.784
X38.1Y-34.544
X39.038Y-55.45
X39.116Y-44.704
X41.148Y-34.544
X42.164Y-29.464
X43.712Y-48.75
X43.955Y-45.769
X48.0Y-49.75
X50.8Y-34.036
X52.324Y-51.308
X54.356Y-55.372
X54.75Y-46.5
X56.0Y-36.5
X56.001Y-34.737
X57.0Y-36.0
X58.0Y-44.25
X58.128Y-50.0
X60.5Y-30.25
X61.25Y-38.0
X61.25Y-39.0
X62.5Y-54.5
X63.5Y-35.75
X64.516Y-33.2
X64.516Y-34.724
X64.516Y-36.248
X64.516Y-37.772
X64.516Y-39.296
X66.548Y-33.2
X68.5Y-45.5
X68.58Y-33.2
X69.604Y-42.525
X70.0Y-74.0
X70.25Y-60.0
X70.25Y-68.0
X70.5Y-42.25
X70.5Y-53.25
X70.612Y-33.2
X71.25Y-80.25
X72.0Y-55.0
X72.644Y-33.2
X72.644Y-34.724
X72.644Y-36.248
X72.644Y-37.772
X72.644Y-39.296
X72.75Y-80.25
X74.687Y-78.456
X75.184Y-42.852
X76.0Y-40.0
X77.0Y-39.5
X79.825Y-43.25
X79.937Y-58.206
X79.937Y-61.706
X79.937Y-73.706
X79.937Y-77.206
T4
X24.23Y-87.0
X26.77Y-87.0
X39.96Y-87.0
X42.5Y-87.0
X55.23Y-87.0
X57.77Y-87.0
T5
X22.65Y-58.25
X27.35Y-58.25
X38.15Y-58.25
X42.85Y-58.25
X53.65Y-58.25
X58.35Y-58.25
X64.19Y-49.5
X66.73Y-49.5
X69.27Y-49.5
X71.81Y-49.5
X79.5Y-29.69
X79.5Y-32.23
X79.5Y-34.77
X79.5Y-37.31
T6
X22.5Y-37.73
X22.5Y-40.27
X32.0Y-57.34
X32.0Y-77.66
X47.5Y-57.34
X47.5Y-77.66
X49.53Y-32.004
X51.0Y-41.73
X51.0Y-44.27
X52.07Y-32.004
X63.0Y-57.34
X63.0Y-77.66
T7
X22.65Y-69.75
X22.65Y-76.75
X38.15Y-69.75
X38.15Y-76.75
X53.65Y-69.75
X53.65Y-76.75
X77.437Y-48.206
X77.437Y-55.206
X77.437Y-80.206
X77.437Y-87.206
X79.937Y-49.456
X79.937Y-53.956
X79.937Y-81.456
X79.937Y-85.956
T2
X38.175Y-26.976G85X38.175Y-26.376
G05
X38.175Y-31.326G85X38.175Y-30.426
G05
X46.825Y-26.976G85X46.825Y-26.376
G05
X46.825Y-31.326G85X46.825Y-30.426
G05
T3
X21.958Y-33.488G85X21.958Y-31.788
G05
X25.509Y-29.138G85X27.709Y-29.138
G05
X27.709Y-35.138G85X25.509Y-35.138
G05
M30
