%TF.GenerationSoftware,KiCad,Pcbnew,10.0.1-1.fc44*%
%TF.CreationDate,2026-05-04T12:41:54+01:00*%
%TF.ProjectId,capacitor-alarm-clock,63617061-6369-4746-9f72-2d616c61726d,rev?*%
%TF.SameCoordinates,Original*%
%TF.FileFunction,Paste,Top*%
%TF.FilePolarity,Positive*%
%FSLAX46Y46*%
G04 Gerber Fmt 4.6, Leading zero omitted, Abs format (unit mm)*
G04 Created by KiCad (PCBNEW 10.0.1-1.fc44) date 2026-05-04 12:41:54*
%MOMM*%
%LPD*%
G01*
G04 APERTURE LIST*
G04 Aperture macros list*
%AMRoundRect*
0 Rectangle with rounded corners*
0 $1 Rounding radius*
0 $2 $3 $4 $5 $6 $7 $8 $9 X,Y pos of 4 corners*
0 Add a 4 corners polygon primitive as box body*
4,1,4,$2,$3,$4,$5,$6,$7,$8,$9,$2,$3,0*
0 Add four circle primitives for the rounded corners*
1,1,$1+$1,$2,$3*
1,1,$1+$1,$4,$5*
1,1,$1+$1,$6,$7*
1,1,$1+$1,$8,$9*
0 Add four rect primitives between the rounded corners*
20,1,$1+$1,$2,$3,$4,$5,0*
20,1,$1+$1,$4,$5,$6,$7,0*
20,1,$1+$1,$6,$7,$8,$9,0*
20,1,$1+$1,$8,$9,$2,$3,0*%
%AMFreePoly0*
4,1,6,0.725000,-0.725000,-0.725000,-0.725000,-0.725000,0.125000,-0.125000,0.725000,0.725000,0.725000,0.725000,-0.725000,0.725000,-0.725000,$1*%
%AMFreePoly1*
4,1,123,0.971500,0.949000,1.016000,0.945500,1.060000,0.940500,1.104000,0.933000,1.147500,0.924000,1.190500,0.912500,1.233000,0.899000,1.275000,0.884000,1.316000,0.866500,1.356500,0.847500,1.395500,0.826000,1.434000,0.803500,1.471000,0.778500,1.507000,0.752500,1.541500,0.724500,1.574500,0.695000,1.606500,0.663500,1.637000,0.631000,1.666000,0.597000,1.693000,0.562000,
1.718500,0.525500,1.742000,0.487500,1.764000,0.449000,1.784500,0.409000,1.802500,0.330000,3.500000,0.330000,3.500000,-0.330000,1.802500,-0.330000,1.784500,-0.409500,1.764000,-0.449000,1.742000,-0.488000,1.718500,-0.525500,1.693000,-0.562000,1.666000,-0.597500,1.637000,-0.631500,1.606500,-0.664000,1.574500,-0.695000,1.541500,-0.724500,1.507000,-0.752500,1.471000,-0.779000,
1.434000,-0.803500,1.395500,-0.826500,1.356500,-0.847500,1.316000,-0.867000,1.275000,-0.884000,1.233000,-0.899500,1.190500,-0.913000,1.147500,-0.924000,1.104000,-0.933500,1.060000,-0.941000,1.016000,-0.946000,0.971500,-0.949000,0.927000,-0.950000,-0.927000,-0.950000,-0.971500,-0.949000,-1.016000,-0.946000,-1.060500,-0.941000,-1.104500,-0.933500,-1.148000,-0.924000,-1.191000,-0.913000,
-1.233500,-0.899500,-1.275500,-0.884000,-1.316500,-0.867000,-1.356500,-0.847500,-1.396000,-0.826500,-1.434000,-0.803500,-1.471000,-0.779000,-1.507000,-0.752500,-1.541500,-0.724500,-1.575000,-0.695000,-1.607000,-0.664000,-1.637000,-0.631500,-1.666000,-0.597500,-1.693000,-0.562000,-1.718500,-0.525500,-1.742500,-0.488000,-1.764500,-0.449000,-1.784500,-0.409500,-1.802500,-0.369000,-1.819000,-0.327500,
-1.833500,-0.285500,-1.846000,-0.242500,-1.856000,-0.199000,-1.864500,-0.155500,-1.870500,-0.111500,-1.875000,-0.067000,-1.877000,-0.022500,-1.877000,0.022000,-1.875000,0.066500,-1.870500,0.111000,-1.864500,0.155000,-1.856000,0.199000,-1.846000,0.242000,-1.833500,0.285000,-1.819000,0.327000,-1.802500,0.368500,-1.784500,0.409000,-1.764500,0.449000,-1.742500,0.487500,-1.718500,0.525500,
-1.693000,0.562000,-1.666000,0.597000,-1.637000,0.631000,-1.607000,0.663500,-1.575000,0.695000,-1.541500,0.724500,-1.507000,0.752500,-1.471000,0.778500,-1.434000,0.803500,-1.396000,0.826000,-1.356500,0.847500,-1.316500,0.866500,-1.275500,0.884000,-1.233500,0.899000,-1.191000,0.912500,-1.148000,0.924000,-1.104500,0.933000,-1.060500,0.940500,-1.016000,0.945500,-0.971500,0.949000,
-0.927000,0.950000,0.927000,0.950000,0.971500,0.949000,0.971500,0.949000,$1*%
G04 Aperture macros list end*
%ADD10C,0.000000*%
%ADD11R,1.220000X0.910000*%
%ADD12RoundRect,0.200000X0.200000X0.275000X-0.200000X0.275000X-0.200000X-0.275000X0.200000X-0.275000X0*%
%ADD13RoundRect,0.200000X0.275000X-0.200000X0.275000X0.200000X-0.275000X0.200000X-0.275000X-0.200000X0*%
%ADD14RoundRect,0.200000X-0.275000X0.200000X-0.275000X-0.200000X0.275000X-0.200000X0.275000X0.200000X0*%
%ADD15R,1.072000X0.532000*%
%ADD16RoundRect,0.225000X0.250000X-0.225000X0.250000X0.225000X-0.250000X0.225000X-0.250000X-0.225000X0*%
%ADD17R,2.000000X0.400000*%
%ADD18RoundRect,0.218750X-0.218750X-0.256250X0.218750X-0.256250X0.218750X0.256250X-0.218750X0.256250X0*%
%ADD19R,1.070000X0.600000*%
%ADD20RoundRect,0.200000X-0.200000X-0.275000X0.200000X-0.275000X0.200000X0.275000X-0.200000X0.275000X0*%
%ADD21RoundRect,0.225000X-0.225000X-0.250000X0.225000X-0.250000X0.225000X0.250000X-0.225000X0.250000X0*%
%ADD22R,0.700000X1.300000*%
%ADD23R,1.700000X1.800000*%
%ADD24R,1.800000X1.700000*%
%ADD25R,0.800000X0.400000*%
%ADD26R,0.400000X0.800000*%
%ADD27FreePoly0,0.000000*%
%ADD28R,1.450000X1.450000*%
%ADD29R,0.700000X0.700000*%
%ADD30RoundRect,0.225000X-0.250000X0.225000X-0.250000X-0.225000X0.250000X-0.225000X0.250000X0.225000X0*%
%ADD31R,0.985000X0.490000*%
%ADD32R,1.575000X0.672000*%
%ADD33FreePoly1,0.000000*%
%ADD34R,1.300000X0.700000*%
%ADD35R,0.910000X1.220000*%
%ADD36R,0.550000X1.100000*%
%ADD37R,0.300000X1.100000*%
%ADD38R,2.465000X1.050000*%
%ADD39R,2.465000X3.540000*%
G04 APERTURE END LIST*
D10*
%TO.C,USB1*%
G36*
X39600000Y-31975750D02*
G01*
X39000000Y-31975750D01*
X39000000Y-30875750D01*
X39600000Y-30875750D01*
X39600000Y-31975750D01*
G37*
G36*
X40400000Y-31975750D02*
G01*
X39800000Y-31975750D01*
X39800000Y-30875750D01*
X40400000Y-30875750D01*
X40400000Y-31975750D01*
G37*
G36*
X40900000Y-31975750D02*
G01*
X40600000Y-31975750D01*
X40600000Y-30875750D01*
X40900000Y-30875750D01*
X40900000Y-31975750D01*
G37*
G36*
X41400000Y-31975750D02*
G01*
X41100000Y-31975750D01*
X41100000Y-30875750D01*
X41400000Y-30875750D01*
X41400000Y-31975750D01*
G37*
G36*
X41900000Y-31975750D02*
G01*
X41600000Y-31975750D01*
X41600000Y-30875750D01*
X41900000Y-30875750D01*
X41900000Y-31975750D01*
G37*
G36*
X42400000Y-31975750D02*
G01*
X42100000Y-31975750D01*
X42100000Y-30875750D01*
X42400000Y-30875750D01*
X42400000Y-31975750D01*
G37*
G36*
X42900000Y-31975750D02*
G01*
X42600000Y-31975750D01*
X42600000Y-30875750D01*
X42900000Y-30875750D01*
X42900000Y-31975750D01*
G37*
G36*
X43400000Y-31975750D02*
G01*
X43100000Y-31975750D01*
X43100000Y-30875750D01*
X43400000Y-30875750D01*
X43400000Y-31975750D01*
G37*
G36*
X43900000Y-31975750D02*
G01*
X43600000Y-31975750D01*
X43600000Y-30875750D01*
X43900000Y-30875750D01*
X43900000Y-31975750D01*
G37*
G36*
X44400000Y-31975750D02*
G01*
X44100000Y-31975750D01*
X44100000Y-30875750D01*
X44400000Y-30875750D01*
X44400000Y-31975750D01*
G37*
G36*
X45200000Y-31975750D02*
G01*
X44600000Y-31975750D01*
X44600000Y-30875750D01*
X45200000Y-30875750D01*
X45200000Y-31975750D01*
G37*
G36*
X46000000Y-31975750D02*
G01*
X45400000Y-31975750D01*
X45400000Y-30875750D01*
X46000000Y-30875750D01*
X46000000Y-31975750D01*
G37*
G36*
X38220000Y-29877750D02*
G01*
X38249500Y-29880750D01*
X38279000Y-29884750D01*
X38308500Y-29890750D01*
X38337500Y-29898250D01*
X38366000Y-29907250D01*
X38394000Y-29917250D01*
X38422000Y-29928750D01*
X38449000Y-29941750D01*
X38475000Y-29956250D01*
X38500500Y-29971750D01*
X38525500Y-29988750D01*
X38549000Y-30006750D01*
X38572000Y-30026250D01*
X38594000Y-30046250D01*
X38615000Y-30067750D01*
X38634500Y-30090250D01*
X38653500Y-30113750D01*
X38670500Y-30137750D01*
X38687000Y-30163250D01*
X38702000Y-30188750D01*
X38715500Y-30215750D01*
X38728000Y-30242750D01*
X38739000Y-30270750D01*
X38748500Y-30299250D01*
X38756500Y-30327750D01*
X38763000Y-30356750D01*
X38768500Y-30386250D01*
X38772000Y-30416250D01*
X38774500Y-30445750D01*
X38775000Y-30475750D01*
X38775000Y-31275750D01*
X38774500Y-31305750D01*
X38772000Y-31335750D01*
X38768500Y-31365250D01*
X38763000Y-31394750D01*
X38756500Y-31423750D01*
X38748500Y-31452750D01*
X38739000Y-31481250D01*
X38728000Y-31508750D01*
X38715500Y-31536250D01*
X38702000Y-31562750D01*
X38687000Y-31588750D01*
X38670500Y-31613750D01*
X38653500Y-31638250D01*
X38634500Y-31661750D01*
X38615000Y-31683750D01*
X38594000Y-31705250D01*
X38572000Y-31725750D01*
X38549000Y-31744750D01*
X38525500Y-31763250D01*
X38500500Y-31779750D01*
X38475000Y-31795250D01*
X38449000Y-31809750D01*
X38422000Y-31822750D01*
X38394000Y-31834250D01*
X38366000Y-31844750D01*
X38337500Y-31853250D01*
X38308500Y-31860750D01*
X38279000Y-31866750D01*
X38249500Y-31871250D01*
X38220000Y-31874250D01*
X38190000Y-31875750D01*
X38160000Y-31875750D01*
X38130000Y-31874250D01*
X38100500Y-31871250D01*
X38071000Y-31866750D01*
X38041500Y-31860750D01*
X38012500Y-31853250D01*
X37984000Y-31844750D01*
X37956000Y-31834250D01*
X37928500Y-31822750D01*
X37901500Y-31809750D01*
X37875000Y-31795250D01*
X37849500Y-31779750D01*
X37825000Y-31763250D01*
X37801000Y-31744750D01*
X37778000Y-31725750D01*
X37756000Y-31705250D01*
X37735000Y-31683750D01*
X37715500Y-31661750D01*
X37696500Y-31638250D01*
X37679500Y-31613750D01*
X37663000Y-31588750D01*
X37648000Y-31562750D01*
X37634500Y-31536250D01*
X37622000Y-31508750D01*
X37611000Y-31481250D01*
X37601500Y-31452750D01*
X37593500Y-31423750D01*
X37587000Y-31394750D01*
X37581500Y-31365250D01*
X37578000Y-31335750D01*
X37576000Y-31305750D01*
X37575000Y-31275750D01*
X37575000Y-30475750D01*
X37576000Y-30445750D01*
X37578000Y-30416250D01*
X37581500Y-30386250D01*
X37587000Y-30356750D01*
X37593500Y-30327750D01*
X37601500Y-30299250D01*
X37611000Y-30270750D01*
X37622000Y-30242750D01*
X37634500Y-30215750D01*
X37648000Y-30188750D01*
X37663000Y-30163250D01*
X37679500Y-30137750D01*
X37696500Y-30113750D01*
X37715500Y-30090250D01*
X37735000Y-30067750D01*
X37756000Y-30046250D01*
X37778000Y-30026250D01*
X37801000Y-30006750D01*
X37825000Y-29988750D01*
X37849500Y-29971750D01*
X37875000Y-29956250D01*
X37901500Y-29941750D01*
X37928500Y-29928750D01*
X37956000Y-29917250D01*
X37984000Y-29907250D01*
X38012500Y-29898250D01*
X38041500Y-29890750D01*
X38071000Y-29884750D01*
X38100500Y-29880750D01*
X38130000Y-29877750D01*
X38160000Y-29876250D01*
X38190000Y-29876250D01*
X38220000Y-29877750D01*
G37*
G36*
X38220000Y-25927250D02*
G01*
X38249500Y-25930250D01*
X38279000Y-25934750D01*
X38308500Y-25940750D01*
X38337500Y-25948250D01*
X38366000Y-25956750D01*
X38394000Y-25967250D01*
X38422000Y-25978750D01*
X38449000Y-25991750D01*
X38475000Y-26006250D01*
X38500500Y-26021750D01*
X38525500Y-26038750D01*
X38549000Y-26056750D01*
X38572000Y-26075750D01*
X38594000Y-26096250D01*
X38615000Y-26117750D01*
X38634500Y-26140250D01*
X38653500Y-26163250D01*
X38670500Y-26187750D01*
X38687000Y-26212750D01*
X38702000Y-26238750D01*
X38715500Y-26265250D01*
X38728000Y-26292750D01*
X38739000Y-26320750D01*
X38748500Y-26348750D01*
X38756500Y-26377750D01*
X38763000Y-26406750D01*
X38768500Y-26436250D01*
X38772000Y-26465750D01*
X38774500Y-26495750D01*
X38775000Y-26525750D01*
X38775000Y-26825750D01*
X38774500Y-26855750D01*
X38772000Y-26885250D01*
X38768500Y-26915250D01*
X38763000Y-26944750D01*
X38756500Y-26973750D01*
X38748500Y-27002750D01*
X38739000Y-27030750D01*
X38728000Y-27058750D01*
X38715500Y-27086250D01*
X38702000Y-27112750D01*
X38687000Y-27138750D01*
X38670500Y-27163750D01*
X38653500Y-27187750D01*
X38634500Y-27211250D01*
X38615000Y-27233750D01*
X38594000Y-27255250D01*
X38572000Y-27275750D01*
X38549000Y-27294750D01*
X38525500Y-27312750D01*
X38500500Y-27329750D01*
X38475000Y-27345250D01*
X38449000Y-27359750D01*
X38422000Y-27372750D01*
X38394000Y-27384250D01*
X38366000Y-27394250D01*
X38337500Y-27403250D01*
X38308500Y-27410750D01*
X38279000Y-27416750D01*
X38249500Y-27421250D01*
X38220000Y-27424250D01*
X38190000Y-27425750D01*
X38160000Y-27425750D01*
X38130000Y-27424250D01*
X38100500Y-27421250D01*
X38071000Y-27416750D01*
X38041500Y-27410750D01*
X38012500Y-27403250D01*
X37984000Y-27394250D01*
X37956000Y-27384250D01*
X37928500Y-27372750D01*
X37901500Y-27359750D01*
X37875000Y-27345250D01*
X37849500Y-27329750D01*
X37825000Y-27312750D01*
X37801000Y-27294750D01*
X37778000Y-27275750D01*
X37756000Y-27255250D01*
X37735000Y-27233750D01*
X37715500Y-27211250D01*
X37696500Y-27187750D01*
X37679500Y-27163750D01*
X37663000Y-27138750D01*
X37648000Y-27112750D01*
X37634500Y-27086250D01*
X37622000Y-27058750D01*
X37611000Y-27030750D01*
X37601500Y-27002750D01*
X37593500Y-26973750D01*
X37587000Y-26944750D01*
X37581500Y-26915250D01*
X37578000Y-26885250D01*
X37576000Y-26855750D01*
X37575000Y-26825750D01*
X37575000Y-26525750D01*
X37576000Y-26495750D01*
X37578000Y-26465750D01*
X37581500Y-26436250D01*
X37587000Y-26406750D01*
X37593500Y-26377750D01*
X37601500Y-26348750D01*
X37611000Y-26320750D01*
X37622000Y-26292750D01*
X37634500Y-26265250D01*
X37648000Y-26238750D01*
X37663000Y-26212750D01*
X37679500Y-26187750D01*
X37696500Y-26163250D01*
X37715500Y-26140250D01*
X37735000Y-26117750D01*
X37756000Y-26096250D01*
X37778000Y-26075750D01*
X37801000Y-26056750D01*
X37825000Y-26038750D01*
X37849500Y-26021750D01*
X37875000Y-26006250D01*
X37901500Y-25991750D01*
X37928500Y-25978750D01*
X37956000Y-25967250D01*
X37984000Y-25956750D01*
X38012500Y-25948250D01*
X38041500Y-25940750D01*
X38071000Y-25934750D01*
X38100500Y-25930250D01*
X38130000Y-25927250D01*
X38160000Y-25925750D01*
X38190000Y-25925750D01*
X38220000Y-25927250D01*
G37*
G36*
X46870000Y-25927250D02*
G01*
X46899500Y-25930250D01*
X46929000Y-25934750D01*
X46958500Y-25940750D01*
X46987500Y-25948250D01*
X47016000Y-25956750D01*
X47044000Y-25967250D01*
X47071500Y-25978750D01*
X47098500Y-25991750D01*
X47125000Y-26006250D01*
X47150500Y-26021750D01*
X47175000Y-26038750D01*
X47199000Y-26056750D01*
X47222000Y-26075750D01*
X47244000Y-26096250D01*
X47265000Y-26117750D01*
X47284500Y-26140250D01*
X47303500Y-26163250D01*
X47320500Y-26187750D01*
X47337000Y-26212750D01*
X47352000Y-26238750D01*
X47365500Y-26265250D01*
X47378000Y-26292750D01*
X47389000Y-26320750D01*
X47398500Y-26348750D01*
X47406500Y-26377750D01*
X47413000Y-26406750D01*
X47418500Y-26436250D01*
X47422000Y-26465750D01*
X47424000Y-26495750D01*
X47425000Y-26525750D01*
X47425000Y-26825750D01*
X47424000Y-26855750D01*
X47422000Y-26885250D01*
X47418500Y-26915250D01*
X47413000Y-26944750D01*
X47406500Y-26973750D01*
X47398500Y-27002750D01*
X47389000Y-27030750D01*
X47378000Y-27058750D01*
X47365500Y-27086250D01*
X47352000Y-27112750D01*
X47337000Y-27138750D01*
X47320500Y-27163750D01*
X47303500Y-27187750D01*
X47284500Y-27211250D01*
X47265000Y-27233750D01*
X47244000Y-27255250D01*
X47222000Y-27275750D01*
X47199000Y-27294750D01*
X47175000Y-27312750D01*
X47150500Y-27329750D01*
X47125000Y-27345250D01*
X47098500Y-27359750D01*
X47071500Y-27372750D01*
X47044000Y-27384250D01*
X47016000Y-27394250D01*
X46987500Y-27403250D01*
X46958500Y-27410750D01*
X46929000Y-27416750D01*
X46899500Y-27421250D01*
X46870000Y-27424250D01*
X46840000Y-27425750D01*
X46810000Y-27425750D01*
X46780000Y-27424250D01*
X46750500Y-27421250D01*
X46721000Y-27416750D01*
X46691500Y-27410750D01*
X46662500Y-27403250D01*
X46634000Y-27394250D01*
X46606000Y-27384250D01*
X46578000Y-27372750D01*
X46551000Y-27359750D01*
X46525000Y-27345250D01*
X46499500Y-27329750D01*
X46474500Y-27312750D01*
X46451000Y-27294750D01*
X46428000Y-27275750D01*
X46406000Y-27255250D01*
X46385000Y-27233750D01*
X46365500Y-27211250D01*
X46346500Y-27187750D01*
X46329500Y-27163750D01*
X46313000Y-27138750D01*
X46298000Y-27112750D01*
X46284500Y-27086250D01*
X46272000Y-27058750D01*
X46261000Y-27030750D01*
X46251500Y-27002750D01*
X46243500Y-26973750D01*
X46237000Y-26944750D01*
X46231500Y-26915250D01*
X46228000Y-26885250D01*
X46225500Y-26855750D01*
X46225000Y-26825750D01*
X46225000Y-26525750D01*
X46225500Y-26495750D01*
X46228000Y-26465750D01*
X46231500Y-26436250D01*
X46237000Y-26406750D01*
X46243500Y-26377750D01*
X46251500Y-26348750D01*
X46261000Y-26320750D01*
X46272000Y-26292750D01*
X46284500Y-26265250D01*
X46298000Y-26238750D01*
X46313000Y-26212750D01*
X46329500Y-26187750D01*
X46346500Y-26163250D01*
X46365500Y-26140250D01*
X46385000Y-26117750D01*
X46406000Y-26096250D01*
X46428000Y-26075750D01*
X46451000Y-26056750D01*
X46474500Y-26038750D01*
X46499500Y-26021750D01*
X46525000Y-26006250D01*
X46551000Y-25991750D01*
X46578000Y-25978750D01*
X46606000Y-25967250D01*
X46634000Y-25956750D01*
X46662500Y-25948250D01*
X46691500Y-25940750D01*
X46721000Y-25934750D01*
X46750500Y-25930250D01*
X46780000Y-25927250D01*
X46810000Y-25925750D01*
X46840000Y-25925750D01*
X46870000Y-25927250D01*
G37*
G36*
X46870000Y-29877750D02*
G01*
X46899500Y-29880750D01*
X46929000Y-29884750D01*
X46958500Y-29890750D01*
X46987500Y-29898250D01*
X47016000Y-29907250D01*
X47044000Y-29917250D01*
X47071500Y-29928750D01*
X47098500Y-29941750D01*
X47125000Y-29956250D01*
X47150500Y-29971750D01*
X47175000Y-29988750D01*
X47199000Y-30006750D01*
X47222000Y-30026250D01*
X47244000Y-30046250D01*
X47265000Y-30067750D01*
X47284500Y-30090250D01*
X47303500Y-30113750D01*
X47320500Y-30137750D01*
X47337000Y-30163250D01*
X47352000Y-30188750D01*
X47365500Y-30215750D01*
X47378000Y-30242750D01*
X47389000Y-30270750D01*
X47398500Y-30299250D01*
X47406500Y-30327750D01*
X47413000Y-30356750D01*
X47418500Y-30386250D01*
X47422000Y-30416250D01*
X47424000Y-30445750D01*
X47425000Y-30475750D01*
X47425000Y-31275750D01*
X47424000Y-31305750D01*
X47422000Y-31335750D01*
X47418500Y-31365250D01*
X47413000Y-31394750D01*
X47406500Y-31423750D01*
X47398500Y-31452750D01*
X47389000Y-31481250D01*
X47378000Y-31508750D01*
X47365500Y-31536250D01*
X47352000Y-31562750D01*
X47337000Y-31588750D01*
X47320500Y-31613750D01*
X47303500Y-31638250D01*
X47284500Y-31661750D01*
X47265000Y-31683750D01*
X47244000Y-31705250D01*
X47222000Y-31725750D01*
X47199000Y-31744750D01*
X47175000Y-31763250D01*
X47150500Y-31779750D01*
X47125000Y-31795250D01*
X47098500Y-31809750D01*
X47071500Y-31822750D01*
X47044000Y-31834250D01*
X47016000Y-31844750D01*
X46987500Y-31853250D01*
X46958500Y-31860750D01*
X46929000Y-31866750D01*
X46899500Y-31871250D01*
X46870000Y-31874250D01*
X46840000Y-31875750D01*
X46810000Y-31875750D01*
X46780000Y-31874250D01*
X46750500Y-31871250D01*
X46721000Y-31866750D01*
X46691500Y-31860750D01*
X46662500Y-31853250D01*
X46634000Y-31844750D01*
X46606000Y-31834250D01*
X46578000Y-31822750D01*
X46551000Y-31809750D01*
X46525000Y-31795250D01*
X46499500Y-31779750D01*
X46474500Y-31763250D01*
X46451000Y-31744750D01*
X46428000Y-31725750D01*
X46406000Y-31705250D01*
X46385000Y-31683750D01*
X46365500Y-31661750D01*
X46346500Y-31638250D01*
X46329500Y-31613750D01*
X46313000Y-31588750D01*
X46298000Y-31562750D01*
X46284500Y-31536250D01*
X46272000Y-31508750D01*
X46261000Y-31481250D01*
X46251500Y-31452750D01*
X46243500Y-31423750D01*
X46237000Y-31394750D01*
X46231500Y-31365250D01*
X46228000Y-31335750D01*
X46225500Y-31305750D01*
X46225000Y-31275750D01*
X46225000Y-30475750D01*
X46225500Y-30445750D01*
X46228000Y-30416250D01*
X46231500Y-30386250D01*
X46237000Y-30356750D01*
X46243500Y-30327750D01*
X46251500Y-30299250D01*
X46261000Y-30270750D01*
X46272000Y-30242750D01*
X46284500Y-30215750D01*
X46298000Y-30188750D01*
X46313000Y-30163250D01*
X46329500Y-30137750D01*
X46346500Y-30113750D01*
X46365500Y-30090250D01*
X46385000Y-30067750D01*
X46406000Y-30046250D01*
X46428000Y-30026250D01*
X46451000Y-30006750D01*
X46474500Y-29988750D01*
X46499500Y-29971750D01*
X46525000Y-29956250D01*
X46551000Y-29941750D01*
X46578000Y-29928750D01*
X46606000Y-29917250D01*
X46634000Y-29907250D01*
X46662500Y-29898250D01*
X46691500Y-29890750D01*
X46721000Y-29884750D01*
X46750500Y-29880750D01*
X46780000Y-29877750D01*
X46810000Y-29876250D01*
X46840000Y-29876250D01*
X46870000Y-29877750D01*
G37*
%TD*%
D11*
%TO.C,D8*%
X59000000Y-55635000D03*
X59000000Y-52365000D03*
%TD*%
D12*
%TO.C,R9*%
X38825000Y-35500000D03*
X37175000Y-35500000D03*
%TD*%
D11*
%TO.C,D6*%
X28000000Y-55500000D03*
X28000000Y-52230000D03*
%TD*%
D12*
%TO.C,R2*%
X39825000Y-33500000D03*
X38175000Y-33500000D03*
%TD*%
D13*
%TO.C,R13*%
X40500000Y-50325000D03*
X40500000Y-48675000D03*
%TD*%
D14*
%TO.C,R14*%
X37500000Y-48675000D03*
X37500000Y-50325000D03*
%TD*%
D13*
%TO.C,R10*%
X25000000Y-50325000D03*
X25000000Y-48675000D03*
%TD*%
D14*
%TO.C,R8*%
X36000000Y-30675000D03*
X36000000Y-32325000D03*
%TD*%
D12*
%TO.C,R30*%
X31825000Y-52000000D03*
X30175000Y-52000000D03*
%TD*%
D15*
%TO.C,Q1*%
X36851000Y-37550000D03*
X36851000Y-38500000D03*
X36851000Y-39450000D03*
X39149000Y-39450000D03*
X39149000Y-38500000D03*
X39149000Y-37550000D03*
%TD*%
D13*
%TO.C,R16*%
X56000000Y-50325000D03*
X56000000Y-48675000D03*
%TD*%
D16*
%TO.C,C14*%
X74687250Y-81481305D03*
X74687250Y-79931305D03*
%TD*%
D12*
%TO.C,R32*%
X62825000Y-52000000D03*
X61175000Y-52000000D03*
%TD*%
D17*
%TO.C,U4*%
X77187250Y-77893691D03*
X77187250Y-77193691D03*
X77187250Y-76493691D03*
X77187250Y-75793691D03*
X77187250Y-75093691D03*
X77187250Y-74393691D03*
X77187250Y-73693691D03*
X77187250Y-72993691D03*
X77187250Y-72293691D03*
X77187250Y-71593691D03*
X77187250Y-70893691D03*
X77187250Y-70193691D03*
X77187250Y-69493691D03*
X77187250Y-68793691D03*
X77187250Y-68093691D03*
X77187250Y-67393691D03*
X77187250Y-66693691D03*
X77187250Y-65993691D03*
X77187250Y-65293691D03*
X77187250Y-64593691D03*
X77187250Y-63893691D03*
X77187250Y-63193691D03*
X77187250Y-62493691D03*
X77187250Y-61793691D03*
X77187250Y-61093691D03*
X77187250Y-60393691D03*
X77187250Y-59693691D03*
X77187250Y-58993691D03*
X77187250Y-58293691D03*
X77187250Y-57593691D03*
%TD*%
D11*
%TO.C,D7*%
X43500000Y-55635000D03*
X43500000Y-52365000D03*
%TD*%
D18*
%TO.C,D10*%
X28212500Y-50000000D03*
X29787500Y-50000000D03*
%TD*%
D13*
%TO.C,R27*%
X74687250Y-84781305D03*
X74687250Y-83131305D03*
%TD*%
%TO.C,R23*%
X64500000Y-53825000D03*
X64500000Y-52175000D03*
%TD*%
D19*
%TO.C,Q3*%
X37765000Y-53550000D03*
X37765000Y-55450000D03*
X40235000Y-54500000D03*
%TD*%
D20*
%TO.C,R3*%
X58675000Y-35000000D03*
X60325000Y-35000000D03*
%TD*%
D21*
%TO.C,C3*%
X42405000Y-46736000D03*
X43955000Y-46736000D03*
%TD*%
D13*
%TO.C,R19*%
X71250000Y-65075000D03*
X71250000Y-63425000D03*
%TD*%
D22*
%TO.C,SW3*%
X77675000Y-45500000D03*
X77675000Y-41000000D03*
X79825000Y-45500000D03*
X79825000Y-41000000D03*
%TD*%
D23*
%TO.C,D2*%
X33500000Y-31192500D03*
X33500000Y-26807500D03*
%TD*%
D18*
%TO.C,D11*%
X43712500Y-50000000D03*
X45287500Y-50000000D03*
%TD*%
D12*
%TO.C,R4*%
X57325000Y-32000000D03*
X55675000Y-32000000D03*
%TD*%
D19*
%TO.C,Q2*%
X22265000Y-53550000D03*
X22265000Y-55450000D03*
X24735000Y-54500000D03*
%TD*%
D20*
%TO.C,R29*%
X70675000Y-45250000D03*
X72325000Y-45250000D03*
%TD*%
D24*
%TO.C,D3*%
X31192500Y-38000000D03*
X26807500Y-38000000D03*
%TD*%
D21*
%TO.C,C16*%
X71443000Y-43452000D03*
X72993000Y-43452000D03*
%TD*%
D20*
%TO.C,R22*%
X71362250Y-69250000D03*
X73012250Y-69250000D03*
%TD*%
D18*
%TO.C,D12*%
X59212500Y-50000000D03*
X60787500Y-50000000D03*
%TD*%
D25*
%TO.C,U1*%
X62600000Y-32475000D03*
X62600000Y-33275000D03*
X62600000Y-34075000D03*
X62600000Y-34875000D03*
X62600000Y-35675000D03*
X62600000Y-36475000D03*
X62600000Y-37275000D03*
X62600000Y-38075000D03*
X62600000Y-38875000D03*
X62600000Y-39675000D03*
X62600000Y-40475000D03*
D26*
X63700000Y-41375000D03*
X64500000Y-41375000D03*
X65300000Y-41375000D03*
X66100000Y-41375000D03*
X66900000Y-41375000D03*
X67700000Y-41375000D03*
X68500000Y-41375000D03*
X69300000Y-41375000D03*
X70100000Y-41375000D03*
X70900000Y-41375000D03*
X71700000Y-41375000D03*
X72500000Y-41375000D03*
X73300000Y-41375000D03*
D25*
X74400000Y-40475000D03*
X74400000Y-39675000D03*
X74400000Y-38875000D03*
X74400000Y-38075000D03*
X74400000Y-37275000D03*
X74400000Y-36475000D03*
X74400000Y-35675000D03*
X74400000Y-34875000D03*
X74400000Y-34075000D03*
X74400000Y-33275000D03*
X74400000Y-32475000D03*
D26*
X73300000Y-31575000D03*
X72500000Y-31575000D03*
X71700000Y-31575000D03*
X70900000Y-31575000D03*
X70100000Y-31575000D03*
X69300000Y-31575000D03*
X68500000Y-31575000D03*
X67700000Y-31575000D03*
X66900000Y-31575000D03*
X66100000Y-31575000D03*
X65300000Y-31575000D03*
X64500000Y-31575000D03*
X63700000Y-31575000D03*
D27*
X66525000Y-34500000D03*
D28*
X66525000Y-36475000D03*
X66525000Y-38450000D03*
X68500000Y-34500000D03*
X68500000Y-36475000D03*
X68500000Y-38450000D03*
X70475000Y-34500000D03*
X70475000Y-36475000D03*
X70475000Y-38450000D03*
D29*
X74450000Y-31525000D03*
X74450000Y-41425000D03*
X62550000Y-41425000D03*
X62550000Y-31525000D03*
%TD*%
D16*
%TO.C,C7*%
X56663250Y-29275000D03*
X56663250Y-27725000D03*
%TD*%
D30*
%TO.C,C8*%
X35000000Y-37225000D03*
X35000000Y-38775000D03*
%TD*%
%TO.C,C10*%
X73750000Y-74475000D03*
X73750000Y-76025000D03*
%TD*%
D31*
%TO.C,D5*%
X56997500Y-37084000D03*
X54762500Y-37084000D03*
%TD*%
D12*
%TO.C,R31*%
X47325000Y-52000000D03*
X45675000Y-52000000D03*
%TD*%
%TO.C,R7*%
X25209000Y-47000000D03*
X23559000Y-47000000D03*
%TD*%
D13*
%TO.C,R21*%
X73000000Y-62325000D03*
X73000000Y-60675000D03*
%TD*%
D21*
%TO.C,C1*%
X32499000Y-48514000D03*
X34049000Y-48514000D03*
%TD*%
D13*
%TO.C,R24*%
X67000000Y-53825000D03*
X67000000Y-52175000D03*
%TD*%
D20*
%TO.C,R33*%
X69925000Y-71250000D03*
X71575000Y-71250000D03*
%TD*%
D13*
%TO.C,R25*%
X69500000Y-53825000D03*
X69500000Y-52175000D03*
%TD*%
D32*
%TO.C,U3*%
X45044000Y-44680000D03*
D33*
X42332000Y-43180000D03*
D32*
X45044000Y-41680000D03*
%TD*%
D20*
%TO.C,R5*%
X68175000Y-43500000D03*
X69825000Y-43500000D03*
%TD*%
D13*
%TO.C,R26*%
X72000000Y-53825000D03*
X72000000Y-52175000D03*
%TD*%
D34*
%TO.C,SW1*%
X54913250Y-29575000D03*
X50413250Y-29575000D03*
X54913250Y-27425000D03*
X50413250Y-27425000D03*
%TD*%
D30*
%TO.C,C2*%
X38608000Y-41897000D03*
X38608000Y-43447000D03*
%TD*%
D35*
%TO.C,D9*%
X71365000Y-67000000D03*
X74635000Y-67000000D03*
%TD*%
D16*
%TO.C,C15*%
X74687250Y-49481305D03*
X74687250Y-47931305D03*
%TD*%
D13*
%TO.C,R20*%
X69500000Y-65075000D03*
X69500000Y-63425000D03*
%TD*%
D30*
%TO.C,C4*%
X47244000Y-41656000D03*
X47244000Y-43206000D03*
%TD*%
%TO.C,C13*%
X74687250Y-69225000D03*
X74687250Y-70775000D03*
%TD*%
D16*
%TO.C,C6*%
X60445000Y-33295000D03*
X60445000Y-31745000D03*
%TD*%
D30*
%TO.C,C11*%
X74750000Y-57975000D03*
X74750000Y-59525000D03*
%TD*%
%TO.C,C9*%
X71750000Y-76725000D03*
X71750000Y-78275000D03*
%TD*%
D20*
%TO.C,R1*%
X45403000Y-33500000D03*
X47053000Y-33500000D03*
%TD*%
D14*
%TO.C,R11*%
X22000000Y-48675000D03*
X22000000Y-50325000D03*
%TD*%
D16*
%TO.C,C5*%
X58945000Y-33295000D03*
X58945000Y-31745000D03*
%TD*%
D31*
%TO.C,D4*%
X56997500Y-34036000D03*
X54762500Y-34036000D03*
%TD*%
D14*
%TO.C,R17*%
X53000000Y-48675000D03*
X53000000Y-50325000D03*
%TD*%
D36*
%TO.C,USB1*%
X45700000Y-31425750D03*
X44900000Y-31425750D03*
D37*
X44250000Y-31425750D03*
X43750000Y-31425750D03*
X43250000Y-31425750D03*
X42750000Y-31425750D03*
X42250000Y-31425750D03*
X41750000Y-31425750D03*
X41250000Y-31425750D03*
X40750000Y-31425750D03*
D36*
X40100000Y-31425750D03*
X39300000Y-31425750D03*
%TD*%
D30*
%TO.C,C12*%
X73000000Y-57225000D03*
X73000000Y-58775000D03*
%TD*%
D35*
%TO.C,D1*%
X25003000Y-43180000D03*
X21733000Y-43180000D03*
%TD*%
D12*
%TO.C,R6*%
X23685000Y-45200000D03*
X22035000Y-45200000D03*
%TD*%
D13*
%TO.C,R28*%
X74687250Y-52706305D03*
X74687250Y-51056305D03*
%TD*%
D19*
%TO.C,Q4*%
X53265000Y-53550000D03*
X53265000Y-55450000D03*
X55735000Y-54500000D03*
%TD*%
D38*
%TO.C,U2*%
X36357500Y-46300000D03*
X36357500Y-44000000D03*
X36357500Y-41700000D03*
D39*
X30642500Y-44000000D03*
%TD*%
M02*
